<?xml version="1.0" encoding="utf-8"?>
<!-- Generator: Adobe Illustrator 23.0.2, SVG Export Plug-In . SVG Version: 6.00 Build 0)  -->
<svg version="1.1" id="Layer_1" xmlns="http://www.w3.org/2000/svg" xmlns:xlink="http://www.w3.org/1999/xlink" x="0px" y="0px"
	 viewBox="0 0 260 280" style="enable-background:new 0 0 260 280;" xml:space="preserve">
<style type="text/css">
	.st0{fill:#36C9DD;}
	.st1{enable-background:new    ;}
	.st2{fill:#FFFFFF;}
	.st3{fill:#828282;}
	.st4{fill:none;stroke:#FFFFFF;stroke-width:2;stroke-miterlimit:10;}
	.st5{fill:none;stroke:#828282;stroke-width:2;stroke-miterlimit:10;}
	.st6{fill:none;stroke:#36C9DD;stroke-width:2;stroke-miterlimit:10;}
</style>
<title>EaseVsPerformance</title>
<rect x="42.5" y="41.3" class="st0" width="178" height="29"/>
<g class="st1">
	<path class="st2" d="M115.5,55.3c0,1-0.3,1.8-1,2.4s-1.7,0.8-2.9,0.8h-1v3.7h-1.6v-10h2.9c1.2,0,2.2,0.3,2.8,0.8
		S115.5,54.3,115.5,55.3z M110.6,57.1h0.9c0.8,0,1.5-0.1,1.8-0.4s0.6-0.7,0.6-1.4c0-0.6-0.2-1-0.5-1.3s-0.9-0.4-1.6-0.4h-1.1V57.1z"
		/>
</g>
<g class="st1">
	<path class="st2" d="M116.2,54.7h1.8l1.5,4.3c0.2,0.6,0.4,1.2,0.5,1.7h0.1c0-0.3,0.1-0.6,0.2-0.9c0.1-0.4,0.7-2.1,1.7-5.1h1.7
		l-3.2,8.6c-0.6,1.6-1.6,2.4-2.9,2.4c-0.4,0-0.7,0-1-0.1v-1.3c0.2,0.1,0.5,0.1,0.8,0.1c0.8,0,1.3-0.4,1.6-1.3l0.3-0.7L116.2,54.7z"
		/>
</g>
<g class="st1">
	<path class="st2" d="M127.6,61.1c0.4,0,0.8-0.1,1.2-0.2v1.2c-0.2,0.1-0.4,0.1-0.7,0.2c-0.3,0.1-0.6,0.1-0.9,0.1
		c-1.5,0-2.3-0.8-2.3-2.4v-4.1h-1v-0.7l1.1-0.6l0.5-1.6h1v1.7h2.2v1.2h-2.2v4c0,0.4,0.1,0.7,0.3,0.9C127,61,127.3,61.1,127.6,61.1z"
		/>
</g>
<g class="st1">
	<path class="st2" d="M136.9,62.3h-1.6v-4.6c0-0.6-0.1-1-0.4-1.3c-0.2-0.3-0.6-0.4-1.1-0.4c-0.7,0-1.2,0.2-1.5,0.6
		c-0.3,0.4-0.5,1.1-0.5,2v3.8h-1.6V51.6h1.6v2.7c0,0.4,0,0.9-0.1,1.4h0.1c0.2-0.4,0.5-0.6,0.9-0.8s0.8-0.3,1.4-0.3
		c1.8,0,2.7,0.9,2.7,2.8V62.3z"/>
	<path class="st2" d="M145.9,58.5c0,1.2-0.3,2.2-1,2.9c-0.6,0.7-1.5,1-2.6,1c-0.7,0-1.3-0.2-1.9-0.5c-0.5-0.3-1-0.8-1.3-1.4
		c-0.3-0.6-0.4-1.3-0.4-2.1c0-1.2,0.3-2.2,0.9-2.9s1.5-1,2.7-1c1.1,0,2,0.4,2.6,1.1C145.5,56.3,145.9,57.3,145.9,58.5z M140.3,58.5
		c0,1.7,0.6,2.6,1.9,2.6c1.3,0,1.9-0.9,1.9-2.6c0-1.7-0.6-2.6-1.9-2.6c-0.7,0-1.2,0.2-1.5,0.7C140.5,57,140.3,57.6,140.3,58.5z"/>
</g>
<g class="st1">
	<path class="st2" d="M154.3,62.3h-1.6v-4.6c0-0.6-0.1-1-0.4-1.3c-0.2-0.3-0.6-0.4-1.1-0.4c-0.7,0-1.2,0.2-1.5,0.6s-0.5,1.1-0.5,2
		v3.8h-1.6v-7.6h1.3l0.2,1h0.1c0.2-0.4,0.6-0.6,1-0.8c0.4-0.2,0.9-0.3,1.4-0.3c1.8,0,2.7,0.9,2.7,2.8V62.3z"/>
</g>
<rect x="42.5" y="113.3" class="st0" width="178" height="29"/>
<g class="st1">
	<path class="st2" d="M117.6,124.5c-0.9,0-1.7,0.3-2.2,1s-0.8,1.6-0.8,2.8c0,1.2,0.3,2.2,0.8,2.8s1.3,0.9,2.2,0.9
		c0.4,0,0.8,0,1.2-0.1c0.4-0.1,0.8-0.2,1.2-0.3v1.4c-0.8,0.3-1.7,0.4-2.7,0.4c-1.5,0-2.6-0.4-3.4-1.3c-0.8-0.9-1.2-2.2-1.2-3.8
		c0-1,0.2-1.9,0.6-2.7s0.9-1.4,1.7-1.8s1.6-0.6,2.5-0.6c1,0,2,0.2,2.8,0.6l-0.6,1.4c-0.3-0.2-0.7-0.3-1.1-0.4
		C118.5,124.6,118.1,124.5,117.6,124.5z"/>
</g>
<g class="st1">
	<path class="st2" d="M130.1,123.3v6.5c0,0.7-0.2,1.4-0.5,1.9c-0.3,0.6-0.8,1-1.4,1.3c-0.6,0.3-1.3,0.4-2.1,0.4
		c-1.2,0-2.2-0.3-2.9-1s-1-1.6-1-2.7v-6.4h1.6v6.3c0,0.8,0.2,1.4,0.6,1.8s1,0.6,1.8,0.6c1.5,0,2.3-0.8,2.3-2.4v-6.3H130.1z"/>
</g>
<g class="st1">
	<path class="st2" d="M140.8,128.2c0,1.6-0.5,2.9-1.4,3.8c-0.9,0.9-2.2,1.3-4,1.3h-2.8v-10h3.1c1.6,0,2.8,0.4,3.7,1.3
		C140.4,125.4,140.8,126.6,140.8,128.2z M139.1,128.2c0-2.4-1.1-3.6-3.4-3.6h-1.4v7.3h1.2C137.9,131.9,139.1,130.7,139.1,128.2z"/>
</g>
<g class="st1">
	<path class="st2" d="M149.2,133.3l-1-2.8h-3.8l-1,2.8h-1.7l3.7-10h1.8l3.7,10H149.2z M147.8,129.1l-0.9-2.7
		c-0.1-0.2-0.2-0.5-0.3-0.9c-0.1-0.4-0.2-0.7-0.2-0.9c-0.1,0.6-0.3,1.2-0.5,1.8l-0.9,2.6H147.8z"/>
</g>
<rect x="42.5" y="77.3" class="st0" width="178" height="29"/>
<g class="st1">
	<path class="st2" d="M117.5,88.5c-0.9,0-1.7,0.3-2.2,1s-0.8,1.6-0.8,2.8c0,1.2,0.3,2.2,0.8,2.8s1.3,0.9,2.2,0.9
		c0.4,0,0.8,0,1.2-0.1c0.4-0.1,0.8-0.2,1.2-0.3V97c-0.8,0.3-1.7,0.4-2.7,0.4c-1.5,0-2.6-0.4-3.4-1.3c-0.8-0.9-1.2-2.2-1.2-3.8
		c0-1,0.2-1.9,0.6-2.7s0.9-1.4,1.7-1.8s1.6-0.6,2.5-0.6c1,0,2,0.2,2.8,0.6l-0.6,1.4c-0.3-0.2-0.7-0.3-1.1-0.4
		C118.3,88.6,117.9,88.5,117.5,88.5z"/>
</g>
<g class="st1">
	<path class="st2" d="M126.1,87.3l-3.7,10h-1.5l3.7-10H126.1z"/>
</g>
<g class="st1">
	<path class="st2" d="M131.8,88.5c-0.9,0-1.7,0.3-2.2,1c-0.5,0.7-0.8,1.6-0.8,2.8c0,1.2,0.3,2.2,0.8,2.8c0.5,0.6,1.3,0.9,2.2,0.9
		c0.4,0,0.8,0,1.2-0.1c0.4-0.1,0.8-0.2,1.2-0.3V97c-0.8,0.3-1.7,0.4-2.7,0.4c-1.5,0-2.6-0.4-3.4-1.3c-0.8-0.9-1.2-2.2-1.2-3.8
		c0-1,0.2-1.9,0.6-2.7c0.4-0.8,0.9-1.4,1.7-1.8c0.7-0.4,1.6-0.6,2.5-0.6c1,0,2,0.2,2.8,0.6l-0.6,1.4c-0.3-0.2-0.7-0.3-1.1-0.4
		C132.6,88.6,132.2,88.5,131.8,88.5z"/>
</g>
<g class="st1">
	<path class="st2" d="M138.5,92.9h-2.7v-1.2h2.7v-2.8h1.2v2.8h2.7v1.2h-2.7v2.8h-1.2V92.9z"/>
</g>
<g class="st1">
	<path class="st2" d="M146.5,92.9h-2.7v-1.2h2.7v-2.8h1.2v2.8h2.7v1.2h-2.7v2.8h-1.2V92.9z"/>
</g>
<rect x="43" y="156.3" class="st3" width="177" height="83"/>
<g class="st1">
	<path class="st2" d="M122.3,169.8h3.7v5c-0.6,0.2-1.2,0.3-1.7,0.4s-1.2,0.1-1.8,0.1c-1.5,0-2.7-0.4-3.5-1.3
		c-0.8-0.9-1.2-2.2-1.2-3.8c0-1.6,0.5-2.9,1.4-3.8c0.9-0.9,2.2-1.4,3.8-1.4c1,0,2,0.2,3,0.6l-0.6,1.4c-0.8-0.4-1.6-0.6-2.4-0.6
		c-1.1,0-1.9,0.3-2.5,1s-0.9,1.6-0.9,2.7c0,1.2,0.3,2.1,0.8,2.8c0.6,0.6,1.4,1,2.4,1c0.5,0,1.1-0.1,1.7-0.2v-2.6h-2.1V169.8z"/>
</g>
<g class="st1">
	<path class="st2" d="M135.1,168.3c0,1-0.3,1.8-1,2.4s-1.7,0.8-2.9,0.8h-1v3.7h-1.6v-10h2.9c1.2,0,2.2,0.3,2.8,0.8
		S135.1,167.3,135.1,168.3z M130.1,170.1h0.9c0.8,0,1.5-0.1,1.8-0.4c0.4-0.3,0.6-0.7,0.6-1.4c0-0.6-0.2-1-0.5-1.3
		c-0.4-0.3-0.9-0.4-1.6-0.4h-1.1V170.1z"/>
</g>
<g class="st1">
	<path class="st2" d="M144.8,165.3v6.5c0,0.7-0.2,1.4-0.5,1.9c-0.3,0.6-0.8,1-1.4,1.3c-0.6,0.3-1.3,0.4-2.2,0.4
		c-1.2,0-2.2-0.3-2.9-1c-0.7-0.7-1-1.6-1-2.7v-6.4h1.6v6.3c0,0.8,0.2,1.4,0.6,1.8s1,0.6,1.8,0.6c1.5,0,2.3-0.8,2.3-2.4v-6.3H144.8z"
		/>
</g>
<g class="st1">
	<path class="st2" d="M88.2,189.3l-1-2.8h-3.8l-1,2.8h-1.7l3.7-10h1.8l3.7,10H88.2z M86.8,185.1l-0.9-2.7c-0.1-0.2-0.2-0.5-0.3-0.9
		s-0.2-0.7-0.2-0.9c-0.1,0.6-0.3,1.2-0.5,1.8l-0.9,2.6H86.8z"/>
	<path class="st2" d="M92.9,185.3v4h-1.6v-10h2.8c1.3,0,2.2,0.2,2.9,0.7s0.9,1.2,0.9,2.2c0,1.2-0.6,2.1-1.9,2.7l2.8,4.4h-1.9l-2.4-4
		H92.9z M92.9,183.9h1.1c0.8,0,1.3-0.1,1.7-0.4s0.5-0.7,0.5-1.3c0-0.6-0.2-1-0.6-1.2s-0.9-0.4-1.7-0.4h-1.1V183.9z"/>
	<path class="st2" d="M104.5,180.5c-0.9,0-1.7,0.3-2.2,1s-0.8,1.6-0.8,2.8c0,1.2,0.3,2.2,0.8,2.8s1.3,0.9,2.2,0.9
		c0.4,0,0.8,0,1.2-0.1c0.4-0.1,0.8-0.2,1.2-0.3v1.4c-0.8,0.3-1.7,0.4-2.7,0.4c-1.5,0-2.6-0.4-3.4-1.3c-0.8-0.9-1.2-2.2-1.2-3.8
		c0-1,0.2-1.9,0.6-2.7s0.9-1.4,1.7-1.8s1.6-0.6,2.5-0.6c1,0,2,0.2,2.8,0.6l-0.6,1.4c-0.3-0.2-0.7-0.3-1.1-0.4
		C105.3,180.6,104.9,180.5,104.5,180.5z"/>
	<path class="st2" d="M117,189.3h-1.6v-4.5h-4.6v4.5h-1.6v-10h1.6v4.1h4.6v-4.1h1.6V189.3z"/>
	<path class="st2" d="M119.6,189.3v-10h1.6v10H119.6z"/>
	<path class="st2" d="M127.4,189.3h-1.6v-8.6h-2.9v-1.4h7.5v1.4h-2.9V189.3z"/>
	<path class="st2" d="M137.5,189.3h-5.7v-10h5.7v1.4h-4v2.7h3.8v1.4h-3.8v3.1h4V189.3z"/>
	<path class="st2" d="M143.9,180.5c-0.9,0-1.7,0.3-2.2,1c-0.5,0.7-0.8,1.6-0.8,2.8c0,1.2,0.3,2.2,0.8,2.8c0.5,0.6,1.3,0.9,2.2,0.9
		c0.4,0,0.8,0,1.2-0.1c0.4-0.1,0.8-0.2,1.2-0.3v1.4c-0.8,0.3-1.7,0.4-2.7,0.4c-1.5,0-2.6-0.4-3.4-1.3c-0.8-0.9-1.2-2.2-1.2-3.8
		c0-1,0.2-1.9,0.6-2.7c0.4-0.8,0.9-1.4,1.7-1.8c0.7-0.4,1.6-0.6,2.5-0.6c1,0,2,0.2,2.8,0.6l-0.6,1.4c-0.3-0.2-0.7-0.3-1.1-0.4
		C144.7,180.6,144.3,180.5,143.9,180.5z"/>
	<path class="st2" d="M152,189.3h-1.6v-8.6h-2.9v-1.4h7.5v1.4H152V189.3z"/>
	<path class="st2" d="M164.3,179.3v6.5c0,0.7-0.2,1.4-0.5,1.9c-0.3,0.6-0.8,1-1.4,1.3c-0.6,0.3-1.3,0.4-2.1,0.4
		c-1.2,0-2.2-0.3-2.9-1c-0.7-0.7-1-1.6-1-2.7v-6.4h1.6v6.3c0,0.8,0.2,1.4,0.6,1.8s1,0.6,1.8,0.6c1.5,0,2.3-0.8,2.3-2.4v-6.3H164.3z"
		/>
	<path class="st2" d="M168.5,185.3v4h-1.6v-10h2.8c1.3,0,2.2,0.2,2.9,0.7c0.6,0.5,0.9,1.2,0.9,2.2c0,1.2-0.6,2.1-1.9,2.7l2.8,4.4
		h-1.9l-2.4-4H168.5z M168.5,183.9h1.1c0.8,0,1.3-0.1,1.7-0.4s0.5-0.7,0.5-1.3c0-0.6-0.2-1-0.6-1.2s-0.9-0.4-1.7-0.4h-1.1V183.9z"/>
	<path class="st2" d="M181.4,189.3h-5.7v-10h5.7v1.4h-4v2.7h3.8v1.4h-3.8v3.1h4V189.3z"/>
</g>
<rect x="146.2" y="205.4" class="st4" width="17.7" height="17.7"/>
<rect x="151.8" y="221.4" class="st2" width="6.4" height="1.6"/>
<rect x="146.2" y="211" class="st2" width="1.6" height="6.4"/>
<rect x="151.8" y="205.3" class="st2" width="6.4" height="1.6"/>
<rect x="162.3" y="211" class="st2" width="1.6" height="6.4"/>
<rect x="155.9" y="208.6" class="st2" width="4.8" height="4.8"/>
<rect x="149.4" y="208.6" class="st2" width="4.8" height="4.8"/>
<rect x="155.9" y="215" class="st2" width="4.8" height="4.8"/>
<rect x="149.4" y="215" class="st2" width="4.8" height="4.8"/>
<rect x="102.3" y="203.8" class="st2" width="1.6" height="1.6"/>
<rect x="104.7" y="203.8" class="st2" width="1.6" height="1.6"/>
<rect x="102.3" y="206.2" class="st2" width="1.6" height="1.6"/>
<rect x="104.7" y="206.2" class="st2" width="1.6" height="1.6"/>
<rect x="102.3" y="208.6" class="st2" width="1.6" height="1.6"/>
<rect x="104.7" y="208.6" class="st2" width="1.6" height="1.6"/>
<rect x="102.3" y="211" class="st2" width="1.6" height="1.6"/>
<rect x="102.3" y="213.4" class="st2" width="1.6" height="1.6"/>
<rect x="102.3" y="215.8" class="st2" width="1.6" height="1.6"/>
<rect x="102.3" y="218.2" class="st2" width="1.6" height="1.6"/>
<rect x="104.7" y="218.2" class="st2" width="1.6" height="1.6"/>
<rect x="102.3" y="220.6" class="st2" width="1.6" height="1.6"/>
<rect x="104.7" y="220.6" class="st2" width="1.6" height="1.6"/>
<rect x="102.3" y="223" class="st2" width="1.6" height="1.6"/>
<rect x="104.7" y="223" class="st2" width="1.6" height="1.6"/>
<rect x="107.2" y="203.8" class="st2" width="1.6" height="1.6"/>
<rect x="109.6" y="203.8" class="st2" width="1.6" height="1.6"/>
<rect x="107.2" y="206.2" class="st2" width="1.6" height="1.6"/>
<rect x="109.6" y="206.2" class="st2" width="1.6" height="1.6"/>
<rect x="107.2" y="208.6" class="st2" width="1.6" height="1.6"/>
<rect x="109.6" y="208.6" class="st2" width="1.6" height="1.6"/>
<rect x="107.2" y="218.2" class="st2" width="1.6" height="1.6"/>
<rect x="109.6" y="218.2" class="st2" width="1.6" height="1.6"/>
<rect x="107.2" y="220.6" class="st2" width="1.6" height="1.6"/>
<rect x="109.6" y="220.6" class="st2" width="1.6" height="1.6"/>
<rect x="107.2" y="223" class="st2" width="1.6" height="1.6"/>
<rect x="109.6" y="223" class="st2" width="1.6" height="1.6"/>
<rect x="112" y="203.8" class="st2" width="1.6" height="1.6"/>
<rect x="114.4" y="203.8" class="st2" width="1.6" height="1.6"/>
<rect x="112" y="206.2" class="st2" width="1.6" height="1.6"/>
<rect x="114.4" y="206.2" class="st2" width="1.6" height="1.6"/>
<rect x="112" y="208.6" class="st2" width="1.6" height="1.6"/>
<rect x="114.4" y="208.6" class="st2" width="1.6" height="1.6"/>
<rect x="112" y="218.2" class="st2" width="1.6" height="1.6"/>
<rect x="114.4" y="218.2" class="st2" width="1.6" height="1.6"/>
<rect x="112" y="220.6" class="st2" width="1.6" height="1.6"/>
<rect x="114.4" y="220.6" class="st2" width="1.6" height="1.6"/>
<rect x="112" y="223" class="st2" width="1.6" height="1.6"/>
<rect x="114.4" y="223" class="st2" width="1.6" height="1.6"/>
<rect x="116.8" y="203.8" class="st2" width="1.6" height="1.6"/>
<rect x="119.2" y="203.8" class="st2" width="1.6" height="1.6"/>
<rect x="116.8" y="206.2" class="st2" width="1.6" height="1.6"/>
<rect x="119.2" y="206.2" class="st2" width="1.6" height="1.6"/>
<rect x="116.8" y="208.6" class="st2" width="1.6" height="1.6"/>
<rect x="119.2" y="208.6" class="st2" width="1.6" height="1.6"/>
<rect x="104.7" y="211" class="st2" width="1.6" height="1.6"/>
<rect x="104.7" y="213.4" class="st2" width="1.6" height="1.6"/>
<rect x="104.7" y="215.8" class="st2" width="1.6" height="1.6"/>
<rect x="107.2" y="211" class="st2" width="1.6" height="1.6"/>
<rect x="109.6" y="211" class="st2" width="1.6" height="1.6"/>
<rect x="107.2" y="213.4" class="st2" width="1.6" height="1.6"/>
<rect x="109.6" y="213.4" class="st2" width="1.6" height="1.6"/>
<rect x="107.2" y="215.8" class="st2" width="1.6" height="1.6"/>
<rect x="109.6" y="215.8" class="st2" width="1.6" height="1.6"/>
<rect x="112" y="211" class="st2" width="1.6" height="1.6"/>
<rect x="114.4" y="211" class="st2" width="1.6" height="1.6"/>
<rect x="112" y="213.4" class="st2" width="1.6" height="1.6"/>
<rect x="114.4" y="213.4" class="st2" width="1.6" height="1.6"/>
<rect x="112" y="215.8" class="st2" width="1.6" height="1.6"/>
<rect x="114.4" y="215.8" class="st2" width="1.6" height="1.6"/>
<rect x="116.8" y="211" class="st2" width="1.6" height="1.6"/>
<rect x="119.2" y="211" class="st2" width="1.6" height="1.6"/>
<rect x="116.8" y="213.4" class="st2" width="1.6" height="1.6"/>
<rect x="119.2" y="213.4" class="st2" width="1.6" height="1.6"/>
<rect x="116.8" y="215.8" class="st2" width="1.6" height="1.6"/>
<rect x="119.2" y="215.8" class="st2" width="1.6" height="1.6"/>
<rect x="116.8" y="218.2" class="st2" width="1.6" height="1.6"/>
<rect x="119.2" y="218.2" class="st2" width="1.6" height="1.6"/>
<rect x="116.8" y="220.6" class="st2" width="1.6" height="1.6"/>
<rect x="119.2" y="220.6" class="st2" width="1.6" height="1.6"/>
<rect x="116.8" y="223" class="st2" width="1.6" height="1.6"/>
<rect x="121.6" y="203.8" class="st2" width="1.6" height="1.6"/>
<rect x="121.6" y="206.2" class="st2" width="1.6" height="1.6"/>
<rect x="121.6" y="208.6" class="st2" width="1.6" height="1.6"/>
<rect x="121.6" y="211" class="st2" width="1.6" height="1.6"/>
<rect x="121.6" y="213.4" class="st2" width="1.6" height="1.6"/>
<rect x="121.6" y="215.8" class="st2" width="1.6" height="1.6"/>
<rect x="121.6" y="218.2" class="st2" width="1.6" height="1.6"/>
<rect x="121.6" y="220.6" class="st2" width="1.6" height="1.6"/>
<rect x="121.6" y="223" class="st2" width="1.6" height="1.6"/>
<rect x="119.2" y="223" class="st2" width="1.6" height="1.6"/>
<rect x="99.1" y="200.5" class="st4" width="27.3" height="27.3"/>
<rect x="99.1" y="211" class="st2" width="1.6" height="6.4"/>
<rect x="124.8" y="211" class="st2" width="1.6" height="6.4"/>
<rect x="109.6" y="200.5" class="st2" width="6.4" height="1.6"/>
<rect x="109.6" y="226.2" class="st2" width="6.4" height="1.6"/>
<line class="st4" x1="126.4" y1="214.2" x2="146.2" y2="214.2"/>
<line class="st5" x1="234.5" y1="231.6" x2="234.5" y2="44.3"/>
<polygon class="st3" points="238,229.2 234.5,242.3 231,229.2 "/>
<line class="st6" x1="25.5" y1="46.2" x2="25.5" y2="237.8"/>
<polygon class="st0" points="22,48.5 25.5,35.5 29,48.5 "/>
<g class="st1">
	<path class="st0" d="M30.6,26.8l-6.1,0l0-10.7l6.1,0l0,1.5l-4.3,0l0,2.9l4,0l0,1.5l-4,0l0,3.4l4.3,0L30.6,26.8z"/>
	<path class="st0" d="M37.8,26.8l-0.3-1.1l-0.1,0c-0.4,0.5-0.8,0.8-1.2,1s-0.9,0.3-1.5,0.3c-0.8,0-1.4-0.2-1.9-0.6
		c-0.4-0.4-0.7-1-0.7-1.8c0-0.8,0.3-1.5,0.9-1.9c0.6-0.4,1.6-0.7,2.8-0.7l1.4,0l0-0.4c0-0.5-0.1-0.9-0.4-1.2
		c-0.2-0.3-0.6-0.4-1.1-0.4c-0.4,0-0.8,0.1-1.2,0.2c-0.4,0.1-0.7,0.3-1.1,0.4L33,19.2c0.4-0.2,0.9-0.4,1.4-0.5
		c0.5-0.1,1-0.2,1.5-0.2c1,0,1.8,0.2,2.3,0.7c0.5,0.4,0.8,1.2,0.8,2.1l0,5.5L37.8,26.8z M35.2,25.6c0.6,0,1.1-0.2,1.5-0.5
		c0.4-0.4,0.6-0.8,0.6-1.5l0-0.7l-1,0c-0.8,0-1.4,0.2-1.8,0.4S34,24,34,24.5c0,0.4,0.1,0.6,0.3,0.8C34.5,25.5,34.8,25.6,35.2,25.6z"
		/>
	<path class="st0" d="M46.9,24.4c0,0.8-0.3,1.4-0.9,1.8c-0.6,0.4-1.4,0.6-2.5,0.6c-1.1,0-1.9-0.2-2.6-0.5l0-1.5
		c1,0.4,1.8,0.7,2.7,0.7c1.1,0,1.6-0.3,1.6-1c0-0.2-0.1-0.4-0.2-0.5c-0.1-0.1-0.3-0.3-0.6-0.4c-0.3-0.1-0.6-0.3-1.1-0.5
		c-0.9-0.4-1.6-0.7-1.9-1.1c-0.3-0.4-0.5-0.8-0.5-1.4c0-0.7,0.3-1.2,0.8-1.6c0.6-0.4,1.3-0.6,2.3-0.6c1,0,1.9,0.2,2.7,0.6l-0.6,1.3
		c-0.9-0.4-1.6-0.5-2.2-0.5c-0.9,0-1.4,0.3-1.4,0.8c0,0.3,0.1,0.5,0.4,0.6c0.2,0.2,0.8,0.4,1.5,0.7c0.7,0.3,1.2,0.5,1.5,0.7
		c0.3,0.2,0.5,0.5,0.7,0.7C46.8,23.7,46.9,24,46.9,24.4z"/>
	<path class="st0" d="M52.3,26.9c-1.3,0-2.2-0.4-3-1.1c-0.7-0.7-1.1-1.7-1.1-3c0-1.3,0.3-2.4,1-3.1c0.7-0.8,1.6-1.1,2.7-1.1
		c1.1,0,1.9,0.3,2.5,1c0.6,0.6,0.9,1.5,0.9,2.7l0,0.9l-5.4,0c0,0.8,0.2,1.4,0.6,1.8c0.4,0.4,1,0.6,1.7,0.6c0.5,0,0.9,0,1.3-0.1
		c0.4-0.1,0.9-0.2,1.3-0.5l0,1.4c-0.4,0.2-0.8,0.3-1.3,0.4C53.3,26.8,52.8,26.9,52.3,26.9z M52,19.8c-0.5,0-1,0.2-1.3,0.5
		c-0.3,0.3-0.5,0.9-0.6,1.5l3.7,0c0-0.7-0.2-1.2-0.5-1.5C52.9,20,52.5,19.8,52,19.8z"/>
	<path class="st0" d="M68.5,22.6c0,1.3-0.3,2.4-1,3.1s-1.6,1.1-2.8,1.1c-0.8,0-1.4-0.2-2-0.5c-0.6-0.3-1-0.8-1.3-1.5
		c-0.3-0.6-0.5-1.4-0.5-2.2c0-1.3,0.3-2.3,1-3.1s1.6-1.1,2.8-1.1c1.2,0,2.1,0.4,2.8,1.1C68.1,20.3,68.5,21.4,68.5,22.6z M62.6,22.6
		c0,1.9,0.7,2.8,2.1,2.8c1.4,0,2-0.9,2-2.8c0-1.9-0.7-2.8-2.1-2.8c-0.7,0-1.2,0.2-1.6,0.7C62.7,21.1,62.6,21.8,62.6,22.6z"/>
	<path class="st0" d="M74.5,19.9l-2,0l0,6.8l-1.7,0l0-6.8l-1.3,0l0-0.8l1.3-0.5l0-0.5c0-1,0.2-1.7,0.7-2.1s1.1-0.7,2.1-0.7
		c0.6,0,1.2,0.1,1.8,0.3l-0.5,1.3c-0.4-0.1-0.8-0.2-1.2-0.2c-0.4,0-0.7,0.1-0.9,0.4c-0.2,0.2-0.3,0.6-0.3,1.1l0,0.5l2,0L74.5,19.9z"
		/>
	<path class="st0" d="M88.3,16l0,6.9c0,0.8-0.2,1.5-0.5,2.1c-0.3,0.6-0.8,1.1-1.5,1.4c-0.6,0.3-1.4,0.5-2.3,0.5
		c-1.3,0-2.4-0.3-3.1-1c-0.7-0.7-1.1-1.7-1.1-2.9l0-6.9l1.8,0l0,6.8c0,0.9,0.2,1.5,0.6,2c0.4,0.4,1,0.6,1.9,0.6
		c1.7,0,2.5-0.9,2.5-2.6l0-6.8L88.3,16z"/>
	<path class="st0" d="M96.4,24.3c0,0.8-0.3,1.4-0.9,1.8c-0.6,0.4-1.4,0.6-2.5,0.6c-1.1,0-1.9-0.2-2.6-0.5l0-1.5
		c1,0.4,1.8,0.7,2.7,0.7c1.1,0,1.6-0.3,1.6-1c0-0.2-0.1-0.4-0.2-0.5c-0.1-0.1-0.3-0.3-0.6-0.4c-0.3-0.1-0.6-0.3-1.1-0.5
		c-0.9-0.4-1.6-0.7-1.9-1.1c-0.3-0.4-0.5-0.8-0.5-1.4c0-0.7,0.3-1.2,0.8-1.6c0.6-0.4,1.3-0.6,2.3-0.6c1,0,1.9,0.2,2.7,0.6l-0.6,1.3
		c-0.9-0.4-1.6-0.5-2.2-0.5c-0.9,0-1.4,0.3-1.4,0.8c0,0.3,0.1,0.5,0.4,0.6c0.2,0.2,0.8,0.4,1.5,0.7c0.7,0.3,1.2,0.5,1.5,0.7
		c0.3,0.2,0.5,0.5,0.7,0.7S96.4,24,96.4,24.3z"/>
	<path class="st0" d="M101.8,26.8c-1.3,0-2.2-0.4-3-1.1c-0.7-0.7-1.1-1.7-1.1-3c0-1.3,0.3-2.4,1-3.1s1.6-1.1,2.7-1.1
		c1.1,0,1.9,0.3,2.5,1c0.6,0.6,0.9,1.5,0.9,2.7l0,0.9l-5.4,0c0,0.8,0.2,1.4,0.6,1.8c0.4,0.4,1,0.6,1.7,0.6c0.5,0,0.9,0,1.3-0.1
		c0.4-0.1,0.9-0.2,1.3-0.5l0,1.4c-0.4,0.2-0.8,0.3-1.3,0.4C102.8,26.7,102.3,26.8,101.8,26.8z M101.4,19.7c-0.5,0-1,0.2-1.3,0.5
		c-0.3,0.3-0.5,0.9-0.6,1.5l3.7,0c0-0.7-0.2-1.2-0.5-1.5C102.4,19.9,102,19.7,101.4,19.7z"/>
</g>
<g class="st1">
	<path class="st3" d="M149.8,254.5c0,1.1-0.4,2-1.1,2.6c-0.7,0.6-1.8,0.9-3.1,0.9l-1.1,0l0,4l-1.8,0l0-10.7l3.1,0
		c1.3,0,2.3,0.3,3,0.8C149.5,252.6,149.8,253.4,149.8,254.5z M144.5,256.5l0.9,0c0.9,0,1.6-0.2,2-0.5c0.4-0.3,0.6-0.8,0.6-1.5
		c0-0.6-0.2-1.1-0.6-1.4c-0.4-0.3-1-0.5-1.8-0.5l-1.2,0L144.5,256.5z"/>
	<path class="st3" d="M155.3,262.1c-1.3,0-2.2-0.4-3-1.1c-0.7-0.7-1.1-1.7-1.1-3c0-1.3,0.3-2.4,1-3.1c0.7-0.8,1.6-1.1,2.7-1.1
		c1.1,0,1.9,0.3,2.5,1c0.6,0.7,0.9,1.5,0.9,2.7l0,0.9l-5.4,0c0,0.8,0.2,1.4,0.6,1.8c0.4,0.4,1,0.6,1.7,0.6c0.5,0,0.9,0,1.3-0.1
		c0.4-0.1,0.9-0.2,1.3-0.5l0,1.4c-0.4,0.2-0.8,0.3-1.3,0.4C156.4,262.1,155.9,262.1,155.3,262.1z M155,255c-0.5,0-1,0.2-1.3,0.5
		c-0.3,0.3-0.5,0.9-0.6,1.5l3.7,0c0-0.7-0.2-1.2-0.5-1.5S155.5,255,155,255z"/>
	<path class="st3" d="M164.5,253.7c0.3,0,0.6,0,0.9,0.1l-0.2,1.6c-0.2-0.1-0.5-0.1-0.8-0.1c-0.7,0-1.2,0.2-1.7,0.7
		c-0.4,0.4-0.6,1-0.6,1.8l0,4.2l-1.7,0l0-8.1l1.3,0l0.2,1.4h0.1c0.3-0.5,0.6-0.9,1-1.2C163.6,253.8,164,253.7,164.5,253.7z"/>
	<path class="st3" d="M170.9,255.1l-2,0l0,6.8l-1.7,0l0-6.8l-1.3,0l0-0.8l1.3-0.5l0-0.5c0-1,0.2-1.7,0.7-2.1
		c0.4-0.5,1.1-0.7,2.1-0.7c0.6,0,1.2,0.1,1.8,0.3l-0.5,1.3c-0.4-0.1-0.8-0.2-1.2-0.2c-0.4,0-0.7,0.1-0.9,0.4
		c-0.2,0.2-0.3,0.6-0.3,1.1l0,0.5l2,0L170.9,255.1z"/>
	<path class="st3" d="M179.5,257.8c0,1.3-0.3,2.4-1,3.1c-0.7,0.7-1.6,1.1-2.8,1.1c-0.8,0-1.4-0.2-2-0.5c-0.6-0.3-1-0.8-1.3-1.5
		s-0.5-1.4-0.5-2.2c0-1.3,0.3-2.3,1-3.1c0.7-0.7,1.6-1.1,2.8-1.1c1.2,0,2.1,0.4,2.8,1.1C179.2,255.6,179.5,256.6,179.5,257.8z
		 M173.6,257.9c0,1.9,0.7,2.8,2.1,2.8c1.4,0,2-0.9,2-2.8c0-1.8-0.7-2.8-2.1-2.8c-0.7,0-1.2,0.2-1.6,0.7
		C173.8,256.3,173.6,257,173.6,257.9z"/>
	<path class="st3" d="M185.6,253.7c0.3,0,0.6,0,0.9,0.1l-0.2,1.6c-0.2-0.1-0.5-0.1-0.8-0.1c-0.7,0-1.2,0.2-1.7,0.7
		c-0.4,0.5-0.6,1-0.6,1.8l0,4.2l-1.7,0l0-8.1l1.3,0l0.2,1.4h0.1c0.3-0.5,0.6-0.9,1-1.2C184.6,253.8,185.1,253.7,185.6,253.7z"/>
	<path class="st3" d="M194.8,261.9l-1.7,0l0-5c0-0.6-0.1-1.1-0.4-1.4c-0.2-0.3-0.6-0.5-1.1-0.5c-0.7,0-1.2,0.2-1.5,0.7
		c-0.3,0.4-0.5,1.2-0.5,2.2l0,4l-1.7,0l0-8.1l1.3,0l0.2,1.1h0.1c0.2-0.4,0.5-0.7,1-0.9s0.9-0.3,1.4-0.3c1.2,0,2.1,0.4,2.5,1.3h0.1
		c0.2-0.4,0.6-0.7,1-0.9c0.4-0.2,0.9-0.3,1.5-0.3c1,0,1.7,0.2,2.1,0.7c0.4,0.5,0.7,1.2,0.7,2.2l0,5.3l-1.7,0l0-5
		c0-0.6-0.1-1.1-0.4-1.4s-0.6-0.5-1.1-0.5c-0.7,0-1.2,0.2-1.5,0.6c-0.3,0.4-0.5,1.1-0.5,1.9L194.8,261.9z"/>
	<path class="st3" d="M207.4,261.9l-0.3-1.1H207c-0.4,0.5-0.8,0.8-1.2,1c-0.4,0.2-0.9,0.3-1.5,0.3c-0.8,0-1.4-0.2-1.9-0.6
		c-0.4-0.4-0.7-1-0.7-1.8c0-0.8,0.3-1.5,0.9-1.9c0.6-0.4,1.6-0.7,2.8-0.7l1.4,0l0-0.4c0-0.5-0.1-0.9-0.4-1.2s-0.6-0.4-1.1-0.4
		c-0.4,0-0.8,0.1-1.2,0.2s-0.7,0.3-1.1,0.4l-0.6-1.2c0.4-0.2,0.9-0.4,1.4-0.5s1-0.2,1.5-0.2c1,0,1.8,0.2,2.3,0.7
		c0.5,0.4,0.8,1.2,0.8,2.1l0,5.5L207.4,261.9z M204.8,260.7c0.6,0,1.1-0.2,1.5-0.5c0.4-0.4,0.6-0.8,0.6-1.5l0-0.7l-1,0
		c-0.8,0-1.4,0.2-1.8,0.4c-0.4,0.2-0.6,0.6-0.6,1.1c0,0.4,0.1,0.6,0.3,0.8S204.4,260.7,204.8,260.7z"/>
	<path class="st3" d="M218.1,261.8l-1.7,0l0-5c0-0.6-0.1-1.1-0.4-1.4c-0.3-0.3-0.7-0.5-1.2-0.5c-0.7,0-1.3,0.2-1.6,0.6
		c-0.3,0.4-0.5,1.2-0.5,2.2l0,4l-1.7,0l0-8.1l1.3,0l0.2,1.1h0.1c0.2-0.4,0.6-0.7,1-0.9c0.4-0.2,0.9-0.3,1.5-0.3c1.9,0,2.9,1,2.9,3
		L218.1,261.8z"/>
	<path class="st3" d="M223.8,262c-1.2,0-2.2-0.4-2.8-1.1c-0.6-0.7-1-1.7-1-3.1c0-1.4,0.3-2.4,1-3.1c0.7-0.7,1.6-1.1,2.9-1.1
		c0.9,0,1.6,0.2,2.3,0.5l-0.5,1.4c-0.7-0.3-1.3-0.4-1.8-0.4c-1.4,0-2.1,0.9-2.1,2.8c0,0.9,0.2,1.6,0.5,2c0.3,0.5,0.9,0.7,1.5,0.7
		c0.8,0,1.5-0.2,2.2-0.6l0,1.5c-0.3,0.2-0.6,0.3-1,0.4C224.7,261.9,224.3,262,223.8,262z"/>
	<path class="st3" d="M231.5,262c-1.3,0-2.2-0.4-3-1.1c-0.7-0.7-1.1-1.7-1.1-3c0-1.3,0.3-2.4,1-3.1c0.7-0.8,1.6-1.1,2.7-1.1
		c1.1,0,1.9,0.3,2.5,1c0.6,0.7,0.9,1.5,0.9,2.7l0,0.9l-5.4,0c0,0.8,0.2,1.4,0.6,1.8c0.4,0.4,1,0.6,1.7,0.6c0.5,0,0.9,0,1.3-0.1
		c0.4-0.1,0.9-0.2,1.3-0.5l0,1.4c-0.4,0.2-0.8,0.3-1.3,0.4C232.5,261.9,232,262,231.5,262z M231.2,254.9c-0.5,0-1,0.2-1.3,0.5
		c-0.3,0.3-0.5,0.9-0.6,1.5l3.7,0c0-0.7-0.2-1.2-0.5-1.5S231.7,254.9,231.2,254.9z"/>
</g>
</svg>
