<?xml version="1.0" encoding="UTF-8"?>
<svg xmlns="http://www.w3.org/2000/svg" xmlns:xlink="http://www.w3.org/1999/xlink" viewBox="0 0 50 50" version="1.1" fill="#ffffff" width="100px" height="100px">
<g id="surface1" fill="#ffffff">
<path style=" " d="M 20 9 L 20 14 L 10 14 L 10 19 L 5 19 L 5 24 L 1.125 24 C 0.640625 24 0.242188 24.335938 0.15625 24.8125 C 0.148438 24.847656 0 25.683594 0 26.75 C 0 27.449219 0.0664063 28.210938 0.1875 28.96875 C 1.332031 28.695313 3.429688 28.285156 3.0625 26.9375 C 5.035156 29.222656 9.769531 28.53125 10.96875 27.40625 C 12.308594 29.347656 20.113281 28.605469 20.65625 27.09375 C 22.335938 29.0625 27.542969 29.0625 29.21875 27.09375 C 29.761719 28.605469 37.535156 29.347656 38.875 27.40625 C 39.300781 27.804688 40.1875 28.136719 41.21875 28.3125 C 41.566406 27.652344 41.886719 26.988281 42.1875 26.28125 C 48.539063 26.203125 49.910156 21.636719 49.96875 21.4375 C 50.078125 21.054688 49.929688 20.660156 49.625 20.40625 C 49.519531 20.316406 47.175781 18.414063 43.375 19.0625 C 42.308594 15.589844 39.5625 14.007813 39.4375 13.9375 C 39.078125 13.734375 38.632813 13.765625 38.3125 14.03125 C 38.210938 14.113281 35.847656 16.117188 36.21875 20.21875 C 36.3125 21.25 36.582031 22.160156 37 22.96875 C 36.179688 23.425781 34.769531 24 32.5 24 L 32 24 L 32 19 L 27 19 L 27 9 Z M 41.21875 28.3125 C 41.097656 28.546875 40.941406 28.773438 40.8125 29 L 49.84375 29 C 48.757813 28.726563 46.425781 28.359375 46.8125 26.9375 C 45.535156 28.414063 43.109375 28.632813 41.21875 28.3125 Z M 40.8125 29 L 0.1875 29 C 0.429688 30.46875 0.929688 32.007813 1.6875 33.5 C 7.117188 34.777344 12.816406 32.832031 12.875 32.8125 C 13.398438 32.628906 13.945313 32.917969 14.125 33.4375 C 14.308594 33.957031 14.050781 34.539063 13.53125 34.71875 C 13.339844 34.785156 9.90625 35.9375 5.6875 35.9375 C 4.851563 35.9375 3.972656 35.890625 3.09375 35.78125 C 5.71875 39.261719 10.167969 42 17 42 C 27.804688 42 36.113281 37.410156 40.8125 29 Z M 0.1875 29 C 0.183594 28.984375 0.191406 28.984375 0.1875 28.96875 C 0.121094 28.984375 0.0585938 28.984375 0 29 Z M 22 11 L 25 11 L 25 14 L 22 14 Z M 12 16 L 15 16 L 15 19 L 12 19 Z M 17 16 L 20 16 L 20 19 L 17 19 Z M 22 16 L 25 16 L 25 19 L 22 19 Z M 7 21 L 10 21 L 10 24 L 7 24 Z M 12 21 L 15 21 L 15 24 L 12 24 Z M 17 21 L 20 21 L 20 24 L 17 24 Z M 22 21 L 25 21 L 25 24 L 22 24 Z M 27 21 L 30 21 L 30 24 L 27 24 Z M 16 31 C 16.128906 31 16.261719 31.019531 16.375 31.0625 C 16.253906 31.132813 16.15625 31.253906 16.15625 31.40625 C 16.15625 31.632813 16.335938 31.84375 16.5625 31.84375 C 16.714844 31.84375 16.867188 31.75 16.9375 31.625 C 16.988281 31.742188 17 31.863281 17 32 C 17 32.550781 16.550781 33 16 33 C 15.449219 33 15 32.550781 15 32 C 15 31.449219 15.449219 31 16 31 Z " fill="#ffffff"/>
</g>
</svg>
