<svg width="24" height="24" xmlns="http://www.w3.org/2000/svg">

 <g>
  <title>background</title>
  <rect fill="none" id="canvas_background" height="402" width="582" y="-1" x="-1"/>
 </g>
 <g>
  <title fill="#ffffff">Layer 1</title>
  <path fill="#ffffff" id="svg_1" d="m9,14c1.381,0 2.631,-0.56 3.536,-1.465c0.903999,-0.904 1.464,-2.154 1.464,-3.535s-0.56,-2.631 -1.464,-3.535c-0.905001,-0.905 -2.155001,-1.465 -3.536,-1.465s-2.631,0.56 -3.536,1.465c-0.904,0.904 -1.464,2.154 -1.464,3.535s0.56,2.631 1.464,3.535c0.905,0.905 2.155,1.465 3.536,1.465z"/>
  <path fill="#ffffff" id="svg_2" d="m9,21c3.518,0 6,-1 6,-2c0,-2 -2.354,-4 -6,-4c-3.75,0 -6,2 -6,4c0,1 2.25,2 6,2z"/>
  <path fill="#ffffff" id="svg_3" d="m21,12l-2,0l0,-2c0,-0.553 -0.447001,-1 -1,-1s-1,0.447 -1,1l0,2l-2,0c-0.553,0 -1,0.447 -1,1s0.447,1 1,1l2,0l0,2c0,0.552999 0.447001,1 1,1s1,-0.447001 1,-1l0,-2l2,0c0.552999,0 1,-0.447 1,-1s-0.447001,-1 -1,-1z"/>
 </g>
</svg>