<svg id="Layer_1" data-name="Layer 1" xmlns="http://www.w3.org/2000/svg" viewBox="0 0 260 280"><defs><style>.cls-1,.cls-16{fill:#36c9dd;}.cls-2{font-size:14px;}.cls-13,.cls-2{fill:#fff;}.cls-16,.cls-17,.cls-2{font-family:OpenSans-Semibold, Open Sans;font-weight:600;}.cls-3{letter-spacing:0em;}.cls-4{letter-spacing:0em;}.cls-5{letter-spacing:0em;}.cls-6{letter-spacing:0em;}.cls-7{letter-spacing:0em;}.cls-8{letter-spacing:0em;}.cls-9{letter-spacing:0em;}.cls-10,.cls-17{fill:#828282;}.cls-11{letter-spacing:0em;}.cls-12,.cls-14,.cls-15{fill:none;stroke-miterlimit:10;stroke-width:2px;}.cls-12{stroke:#fff;}.cls-14{stroke:#828282;}.cls-15{stroke:#36c9dd;}.cls-16,.cls-17{font-size:15px;}</style></defs><title>EaseVsPerformance</title><rect class="cls-1" x="42.5" y="41.26" width="178" height="29"/><text class="cls-2" transform="translate(107.6 62.26)"><tspan class="cls-3">P</tspan><tspan class="cls-4" x="8.56" y="0">y</tspan><tspan class="cls-5" x="16.05" y="0">t</tspan><tspan class="cls-6" x="21.51" y="0">ho</tspan><tspan x="38.92" y="0">n</tspan></text><rect class="cls-1" x="42.5" y="113.26" width="178" height="29"/><text class="cls-2" transform="translate(112.07 133.26)">C<tspan class="cls-7" x="8.87" y="0">U</tspan><tspan class="cls-8" x="19.31" y="0">D</tspan><tspan x="29.61" y="0">A</tspan></text><rect class="cls-1" x="42.5" y="77.26" width="178" height="29"/><text class="cls-2" transform="translate(111.88 97.26)">C<tspan class="cls-8" x="8.87" y="0">/</tspan><tspan x="14.36" y="0">C</tspan><tspan class="cls-9" x="23.24" y="0">+</tspan><tspan x="31.26" y="0">+</tspan></text><rect class="cls-10" x="43" y="156.26" width="177" height="83"/><text class="cls-2" transform="translate(116.93 175.26)"><tspan class="cls-8">G</tspan><tspan class="cls-11" x="10.19" y="0">P</tspan><tspan x="18.75" y="0">U</tspan></text><text class="cls-2" transform="translate(80.73 189.26)">ARCHITECTURE</text><rect class="cls-12" x="146.21" y="205.35" width="17.67" height="17.67" transform="translate(310.1 428.38) rotate(-180)"/><rect class="cls-13" x="154.25" y="219.01" width="1.61" height="6.43" transform="translate(377.27 67.17) rotate(90)"/><rect class="cls-13" x="146.21" y="210.98" width="1.61" height="6.43" transform="translate(294.03 428.38) rotate(-180)"/><rect class="cls-13" x="154.25" y="202.94" width="1.61" height="6.43" transform="translate(-51.11 361.21) rotate(-90)"/><rect class="cls-13" x="162.28" y="210.98" width="1.61" height="6.43"/><rect class="cls-13" x="155.85" y="208.57" width="4.82" height="4.82" transform="translate(316.53 421.95) rotate(-180)"/><rect class="cls-13" x="149.43" y="208.57" width="4.82" height="4.82" transform="translate(303.67 421.95) rotate(-180)"/><rect class="cls-13" x="155.85" y="214.99" width="4.82" height="4.82" transform="translate(316.53 434.81) rotate(-180)"/><rect class="cls-13" x="149.43" y="214.99" width="4.82" height="4.82" transform="translate(303.67 434.81) rotate(-180)"/><rect class="cls-13" x="102.33" y="203.75" width="1.61" height="1.61"/><rect class="cls-13" x="104.74" y="203.75" width="1.61" height="1.61"/><rect class="cls-13" x="102.33" y="206.16" width="1.61" height="1.61"/><rect class="cls-13" x="104.74" y="206.16" width="1.61" height="1.61"/><rect class="cls-13" x="102.33" y="208.57" width="1.61" height="1.61"/><rect class="cls-13" x="104.74" y="208.57" width="1.61" height="1.61"/><rect class="cls-13" x="102.33" y="210.98" width="1.61" height="1.61"/><rect class="cls-13" x="102.33" y="213.39" width="1.61" height="1.61"/><rect class="cls-13" x="102.33" y="215.8" width="1.61" height="1.61"/><rect class="cls-13" x="102.33" y="218.21" width="1.61" height="1.61"/><rect class="cls-13" x="104.74" y="218.21" width="1.61" height="1.61"/><rect class="cls-13" x="102.33" y="220.62" width="1.61" height="1.61"/><rect class="cls-13" x="104.74" y="220.62" width="1.61" height="1.61"/><rect class="cls-13" x="102.33" y="223.03" width="1.61" height="1.61"/><rect class="cls-13" x="104.74" y="223.03" width="1.61" height="1.61"/><rect class="cls-13" x="107.15" y="203.75" width="1.61" height="1.61"/><rect class="cls-13" x="109.56" y="203.75" width="1.61" height="1.61"/><rect class="cls-13" x="107.15" y="206.16" width="1.61" height="1.61"/><rect class="cls-13" x="109.56" y="206.16" width="1.61" height="1.61"/><rect class="cls-13" x="107.15" y="208.57" width="1.61" height="1.61"/><rect class="cls-13" x="109.56" y="208.57" width="1.61" height="1.61"/><rect class="cls-13" x="107.15" y="218.21" width="1.61" height="1.61"/><rect class="cls-13" x="109.56" y="218.21" width="1.61" height="1.61"/><rect class="cls-13" x="107.15" y="220.62" width="1.61" height="1.61"/><rect class="cls-13" x="109.56" y="220.62" width="1.61" height="1.61"/><rect class="cls-13" x="107.15" y="223.03" width="1.61" height="1.61"/><rect class="cls-13" x="109.56" y="223.03" width="1.61" height="1.61"/><rect class="cls-13" x="111.97" y="203.75" width="1.61" height="1.61"/><rect class="cls-13" x="114.38" y="203.75" width="1.61" height="1.61"/><rect class="cls-13" x="111.97" y="206.16" width="1.61" height="1.61"/><rect class="cls-13" x="114.38" y="206.16" width="1.61" height="1.61"/><rect class="cls-13" x="111.97" y="208.57" width="1.61" height="1.61"/><rect class="cls-13" x="114.38" y="208.57" width="1.61" height="1.61"/><rect class="cls-13" x="111.97" y="218.21" width="1.61" height="1.61"/><rect class="cls-13" x="114.38" y="218.21" width="1.61" height="1.61"/><rect class="cls-13" x="111.97" y="220.62" width="1.61" height="1.61"/><rect class="cls-13" x="114.38" y="220.62" width="1.61" height="1.61"/><rect class="cls-13" x="111.97" y="223.03" width="1.61" height="1.61"/><rect class="cls-13" x="114.38" y="223.03" width="1.61" height="1.61"/><rect class="cls-13" x="116.79" y="203.75" width="1.61" height="1.61"/><rect class="cls-13" x="119.2" y="203.75" width="1.61" height="1.61"/><rect class="cls-13" x="116.79" y="206.16" width="1.61" height="1.61"/><rect class="cls-13" x="119.2" y="206.16" width="1.61" height="1.61"/><rect class="cls-13" x="116.79" y="208.57" width="1.61" height="1.61"/><rect class="cls-13" x="119.2" y="208.57" width="1.61" height="1.61"/><rect class="cls-13" x="104.74" y="210.98" width="1.61" height="1.61"/><rect class="cls-13" x="104.74" y="213.39" width="1.61" height="1.61"/><rect class="cls-13" x="104.74" y="215.8" width="1.61" height="1.61"/><rect class="cls-13" x="107.15" y="210.98" width="1.61" height="1.61"/><rect class="cls-13" x="109.56" y="210.98" width="1.61" height="1.61"/><rect class="cls-13" x="107.15" y="213.39" width="1.61" height="1.61"/><rect class="cls-13" x="109.56" y="213.39" width="1.61" height="1.61"/><rect class="cls-13" x="107.15" y="215.8" width="1.61" height="1.61"/><rect class="cls-13" x="109.56" y="215.8" width="1.61" height="1.61"/><rect class="cls-13" x="111.97" y="210.98" width="1.61" height="1.61"/><rect class="cls-13" x="114.38" y="210.98" width="1.61" height="1.61"/><rect class="cls-13" x="111.97" y="213.39" width="1.61" height="1.61"/><rect class="cls-13" x="114.38" y="213.39" width="1.61" height="1.61"/><rect class="cls-13" x="111.97" y="215.8" width="1.61" height="1.61"/><rect class="cls-13" x="114.38" y="215.8" width="1.61" height="1.61"/><rect class="cls-13" x="116.79" y="210.98" width="1.61" height="1.61"/><rect class="cls-13" x="119.2" y="210.98" width="1.61" height="1.61"/><rect class="cls-13" x="116.79" y="213.39" width="1.61" height="1.61"/><rect class="cls-13" x="119.2" y="213.39" width="1.61" height="1.61"/><rect class="cls-13" x="116.79" y="215.8" width="1.61" height="1.61"/><rect class="cls-13" x="119.2" y="215.8" width="1.61" height="1.61"/><rect class="cls-13" x="116.79" y="218.21" width="1.61" height="1.61"/><rect class="cls-13" x="119.2" y="218.21" width="1.61" height="1.61"/><rect class="cls-13" x="116.79" y="220.62" width="1.61" height="1.61"/><rect class="cls-13" x="119.2" y="220.62" width="1.61" height="1.61"/><rect class="cls-13" x="116.79" y="223.03" width="1.61" height="1.61"/><rect class="cls-13" x="121.61" y="203.75" width="1.61" height="1.61"/><rect class="cls-13" x="121.61" y="206.16" width="1.61" height="1.61"/><rect class="cls-13" x="121.61" y="208.57" width="1.61" height="1.61"/><rect class="cls-13" x="121.61" y="210.98" width="1.61" height="1.61"/><rect class="cls-13" x="121.61" y="213.39" width="1.61" height="1.61"/><rect class="cls-13" x="121.61" y="215.8" width="1.61" height="1.61"/><rect class="cls-13" x="121.61" y="218.21" width="1.61" height="1.61"/><rect class="cls-13" x="121.61" y="220.62" width="1.61" height="1.61"/><rect class="cls-13" x="121.61" y="223.03" width="1.61" height="1.61"/><rect class="cls-13" x="119.2" y="223.03" width="1.61" height="1.61"/><rect class="cls-12" x="99.11" y="200.53" width="27.31" height="27.31"/><rect class="cls-13" x="99.11" y="210.98" width="1.61" height="6.43"/><rect class="cls-13" x="124.82" y="210.98" width="1.61" height="6.43"/><rect class="cls-13" x="111.97" y="198.12" width="1.61" height="6.43" transform="translate(314.11 88.57) rotate(90)"/><rect class="cls-13" x="111.97" y="223.83" width="1.61" height="6.43" transform="translate(339.81 114.27) rotate(90)"/><line class="cls-12" x1="126.43" y1="214.19" x2="146.21" y2="214.19"/><line class="cls-14" x1="234.49" y1="231.63" x2="234.49" y2="44.26"/><polygon class="cls-10" points="237.98 229.25 234.49 242.26 231.01 229.25 237.98 229.25"/><line class="cls-15" x1="25.51" y1="46.15" x2="25.51" y2="237.81"/><polygon class="cls-1" points="22.02 48.52 25.51 35.52 28.99 48.52 22.02 48.52"/><text class="cls-16" transform="translate(23.14 26.78) rotate(-0.1)">Ease of Use</text><text class="cls-17" transform="translate(141.32 261.98) rotate(-0.1)">Performance</text></svg>