<svg xmlns="http://www.w3.org/2000/svg" width="79" height="79" viewBox="0 0 79 79">
  <metadata><?xpacket begin="﻿" id="W5M0MpCehiHzreSzNTczkc9d"?>
<x:xmpmeta xmlns:x="adobe:ns:meta/" x:xmptk="Adobe XMP Core 5.6-c140 79.160451, 2017/05/06-01:08:21        ">
   <rdf:RDF xmlns:rdf="http://www.w3.org/1999/02/22-rdf-syntax-ns#">
      <rdf:Description rdf:about=""/>
   </rdf:RDF>
</x:xmpmeta>
                                                                                                    
                                                                                                    
                                                                                                    
                                                                                                    
                                                                                                    
                                                                                                    
                                                                                                    
                                                                                                    
                                                                                                    
                                                                                                    
                                                                                                    
                                                                                                    
                                                                                                    
                                                                                                    
                                                                                                    
                                                                                                    
                                                                                                    
                                                                                                    
                                                                                                    
                                                                                                    
                           
<?xpacket end="w"?></metadata>
<defs>
    <style>
      .cls-1 {
        fill: #bababc;
      }

      .cls-1, .cls-2, .cls-3, .cls-4, .cls-5, .cls-6 {
        fill-rule: evenodd;
      }

      .cls-2 {
        fill: #cdcdce;
      }

      .cls-3 {
        fill: #d2d2d3;
      }

      .cls-4 {
        fill: #dcdcdc;
      }

      .cls-5 {
        fill: #e5e5e6;
      }

      .cls-6 {
        fill: #f2f2f2;
      }
    </style>
  </defs>
  <path id="Shape_760_copy" data-name="Shape 760 copy" class="cls-1" d="M1762.99,3606.05l-7.26-4.16a21.252,21.252,0,0,0,2.81-10.58,21.469,21.469,0,0,0-.17-2.66l8.3-1.03a30.337,30.337,0,0,1,.23,3.69A29.784,29.784,0,0,1,1762.99,3606.05Z" transform="translate(-1697.5 -3551.5)"/>
  <path id="Shape_760_copy_6" data-name="Shape 760 copy 6" class="cls-2" d="M1757.47,3569.78l-5.73,6.08a21.358,21.358,0,0,1,6.4,11.89l8.24-1.41a29.782,29.782,0,0,0-8.91-16.56" transform="translate(-1697.5 -3551.5)"/>
  <path id="Shape_760_copy_5" data-name="Shape 760 copy 5" class="cls-3" d="M1739.21,3561.85l-0.56,8.34a21.147,21.147,0,0,1,12.35,5.03l5.42-6.37a29.438,29.438,0,0,0-17.21-7" transform="translate(-1697.5 -3551.5)"/>
  <path id="Shape_760_copy_4" data-name="Shape 760 copy 4" class="cls-4" d="M1737.18,3561.78a29.436,29.436,0,0,0-17.74,5.88l5,6.7a21.161,21.161,0,0,1,12.74-4.22v-8.36" transform="translate(-1697.5 -3551.5)"/>
  <path id="Shape_760_copy_3" data-name="Shape 760 copy 3" class="cls-5" d="M1718.17,3568.67a29.786,29.786,0,0,0-9.87,15.91l8.13,1.93a21.448,21.448,0,0,1,7.09-11.43l-5.35-6.41" transform="translate(-1697.5 -3551.5)"/>
  <path id="Shape_760_copy_2" data-name="Shape 760 copy 2" class="cls-6" d="M1707.94,3586.29a29.776,29.776,0,0,0,2.88,18.84l7.42-3.85a21.306,21.306,0,0,1-2.06-13.54l-8.24-1.45" transform="translate(-1697.5 -3551.5)"/>
  <path class="cls-1" d="M1760.77,3577.97a2.387,2.387,0,0,0-3.23-1.01l-18.47,9.64a4.2,4.2,0,1,0,2.3,4.21l18.39-9.6A2.4,2.4,0,0,0,1760.77,3577.97ZM1737,3551.5a39.5,39.5,0,1,0,39.5,39.5A39.545,39.545,0,0,0,1737,3551.5Zm25.55,65.1h-51.11A36.2,36.2,0,1,1,1762.55,3616.6Z" transform="translate(-1697.5 -3551.5)"/>
</svg>
