<?xml version="1.0" encoding="utf-8"?>
<!-- Generator: Adobe Illustrator 23.0.2, SVG Export Plug-In . SVG Version: 6.00 Build 0)  -->
<svg version="1.1" id="Layer_1" xmlns="http://www.w3.org/2000/svg" xmlns:xlink="http://www.w3.org/1999/xlink" x="0px" y="0px"
	 viewBox="0 0 80 80" style="enable-background:new 0 0 80 80;" xml:space="preserve">
<style type="text/css">
	.st0{fill-rule:evenodd;clip-rule:evenodd;fill:#BABABC;}
	.st1{fill:#BABABC;}
</style>
<path class="st0" d="M40,0C17.9,0,0,17.9,0,40s17.9,40,40,40c22.1,0,40-17.9,40-40C80,17.9,62.1,0,40,0z M40,76.9
	C19.6,76.9,3.1,60.4,3.1,40C3.2,19.6,19.6,3.2,40,3.2c20.4,0,36.9,16.5,36.9,36.8C76.8,60.3,60.3,76.8,40,76.9z"/>
<g>
	<path class="st1" d="M40,27.6c-1,0-1.8-0.3-2.5-0.9c-0.7-0.6-1-1.4-1-2.5c0-1,0.3-1.8,1-2.4c0.7-0.6,1.5-1,2.4-1
		c0.9,0,1.7,0.3,2.4,0.9c0.7,0.6,1,1.4,1,2.5c0,1.1-0.3,1.9-1,2.5C41.8,27.3,41,27.6,40,27.6z M43.4,34.8V55c0,1.4-0.3,2.5-1,3.2
		S41,59.3,40,59.3s-1.8-0.4-2.5-1.1c-0.6-0.7-0.9-1.8-0.9-3.2V35c0-1.4,0.3-2.4,0.9-3.1c0.6-0.7,1.4-1.1,2.5-1.1s1.8,0.4,2.5,1.1
		C43.1,32.6,43.4,33.5,43.4,34.8z"/>
</g>
</svg>
