<svg xmlns="http://www.w3.org/2000/svg" width="99" height="71.18" viewBox="0 0 99 71.18">
  <metadata><?xpacket begin="﻿" id="W5M0MpCehiHzreSzNTczkc9d"?>
<x:xmpmeta xmlns:x="adobe:ns:meta/" x:xmptk="Adobe XMP Core 5.6-c140 79.160451, 2017/05/06-01:08:21        ">
   <rdf:RDF xmlns:rdf="http://www.w3.org/1999/02/22-rdf-syntax-ns#">
      <rdf:Description rdf:about=""/>
   </rdf:RDF>
</x:xmpmeta>
                                                                                                    
                                                                                                    
                                                                                                    
                                                                                                    
                                                                                                    
                                                                                                    
                                                                                                    
                                                                                                    
                                                                                                    
                                                                                                    
                                                                                                    
                                                                                                    
                                                                                                    
                                                                                                    
                                                                                                    
                                                                                                    
                                                                                                    
                                                                                                    
                                                                                                    
                                                                                                    
                           
<?xpacket end="w"?></metadata>
<defs>
    <style>
      .cls-1 {
        fill: #bababc;
        fill-rule: evenodd;
      }
    </style>
  </defs>
  <path id="open-soource" class="cls-1" d="M4703.47,3870.38v71.18h99v-71.18h-99Zm17.28,4.26a1.78,1.78,0,1,1-1.78,1.78A1.784,1.784,0,0,1,4720.75,3874.64Zm-4.72,0a1.78,1.78,0,1,1-1.78,1.78A1.786,1.786,0,0,1,4716.03,3874.64Zm-4.91,0a1.78,1.78,0,1,1-1.79,1.78A1.784,1.784,0,0,1,4711.12,3874.64Zm87.67,63.23h-91.63v-55.7h91.63v55.7Zm-54.11-23.43-13.97-6.15v-1.73l13.97-6.98v2.79l-10.48,4.92,10.48,4.33v2.82Zm12.11-17.75-7.78,20.91h-3.17l7.79-20.91h3.16Zm1.17,14.93,10.48-4.33-10.48-4.92v-2.79l13.97,6.98v1.73l-13.97,6.15v-2.82Z" transform="translate(-4703.47 -3870.38)"/>
</svg>
