<svg xmlns="http://www.w3.org/2000/svg" width="82" height="82" viewBox="0 0 82 82">
  <metadata><?xpacket begin="﻿" id="W5M0MpCehiHzreSzNTczkc9d"?>
<x:xmpmeta xmlns:x="adobe:ns:meta/" x:xmptk="Adobe XMP Core 5.6-c140 79.160451, 2017/05/06-01:08:21        ">
   <rdf:RDF xmlns:rdf="http://www.w3.org/1999/02/22-rdf-syntax-ns#">
      <rdf:Description rdf:about=""/>
   </rdf:RDF>
</x:xmpmeta>
                                                                                                    
                                                                                                    
                                                                                                    
                                                                                                    
                                                                                                    
                                                                                                    
                                                                                                    
                                                                                                    
                                                                                                    
                                                                                                    
                                                                                                    
                                                                                                    
                                                                                                    
                                                                                                    
                                                                                                    
                                                                                                    
                                                                                                    
                                                                                                    
                                                                                                    
                                                                                                    
                           
<?xpacket end="w"?></metadata>
<defs>
    <style>
      .cls-1 {
        fill: #ffb500;
      }

      .cls-1, .cls-2, .cls-3, .cls-4, .cls-5, .cls-6, .cls-7 {
        fill-rule: evenodd;
      }

      .cls-2 {
        fill: #fff;
      }

      .cls-3 {
        fill: #ffcb4d;
      }

      .cls-4 {
        fill: #ffd161;
      }

      .cls-5 {
        fill: #ffdd8a;
      }

      .cls-6 {
        fill: #ffe9b2;
      }

      .cls-7 {
        fill: #fff7e5;
      }
    </style>
  </defs>
  <path class="cls-1" d="M1960,1357a39,39,0,1,1-39,39,39.05,39.05,0,0,1,39-39m0-2a41,41,0,1,0,41,41,41,41,0,0,0-41-41h0Z" transform="translate(-1919 -1355)"/>
  <path id="Shape_767_copy" data-name="Shape 767 copy" class="cls-2" d="M1960,1357a39,39,0,1,1-39,39,39.05,39.05,0,0,1,39-39" transform="translate(-1919 -1355)"/>
  <path id="Shape_760_copy" data-name="Shape 760 copy" class="cls-1" d="M1980.72,1408l-5.78-3.31a17.065,17.065,0,0,0,2.23-8.44,16.644,16.644,0,0,0-.13-2.12l6.62-.82a24.045,24.045,0,0,1,.18,2.94A23.686,23.686,0,0,1,1980.72,1408Z" transform="translate(-1919 -1355)"/>
  <path id="Shape_760_copy_6" data-name="Shape 760 copy 6" class="cls-3" d="M1976.33,1379.08l-4.57,4.85a17.105,17.105,0,0,1,5.1,9.48l6.57-1.13a23.761,23.761,0,0,0-7.1-13.2" transform="translate(-1919 -1355)"/>
  <path id="Shape_760_copy_5" data-name="Shape 760 copy 5" class="cls-4" d="M1961.76,1372.75l-0.45,6.65a16.855,16.855,0,0,1,9.85,4.02l4.32-5.08a23.479,23.479,0,0,0-13.72-5.59" transform="translate(-1919 -1355)"/>
  <path id="Shape_760_copy_4" data-name="Shape 760 copy 4" class="cls-5" d="M1960.14,1372.7a23.453,23.453,0,0,0-14.14,4.69l3.99,5.34a16.861,16.861,0,0,1,10.15-3.37v-6.66" transform="translate(-1919 -1355)"/>
  <path id="Shape_760_copy_3" data-name="Shape 760 copy 3" class="cls-6" d="M1944.98,1378.19a23.862,23.862,0,0,0-7.87,12.69l6.49,1.54a17.076,17.076,0,0,1,5.65-9.11l-4.27-5.12" transform="translate(-1919 -1355)"/>
  <path id="Shape_760_copy_2" data-name="Shape 760 copy 2" class="cls-7" d="M1936.83,1392.25a23.746,23.746,0,0,0,2.29,15.02l5.92-3.07a16.861,16.861,0,0,1-1.9-7.83,17.341,17.341,0,0,1,.25-2.97l-6.56-1.15" transform="translate(-1919 -1355)"/>
  <path class="cls-1" d="M1978.96,1385.61a1.918,1.918,0,0,0-2.58-.81l-14.73,7.69a3.419,3.419,0,0,0-1.5-.36,3.355,3.355,0,1,0,3.34,3.72l14.66-7.66A1.916,1.916,0,0,0,1978.96,1385.61ZM1960,1364.5a31.5,31.5,0,1,0,31.5,31.5A31.535,31.535,0,0,0,1960,1364.5Zm20.38,51.91h-40.76A28.86,28.86,0,1,1,1980.38,1416.41Z" transform="translate(-1919 -1355)"/>
</svg>
