<?xml version="1.0" encoding="utf-8"?>
<!-- Generator: Adobe Illustrator 23.0.4, SVG Export Plug-In . SVG Version: 6.00 Build 0)  -->
<svg version="1.1" id="Layer_1" xmlns="http://www.w3.org/2000/svg" xmlns:xlink="http://www.w3.org/1999/xlink" x="0px" y="0px"
	 viewBox="0 0 240 120" style="enable-background:new 0 0 240 120;" xml:space="preserve">
<style type="text/css">
	.st0{fill-rule:evenodd;clip-rule:evenodd;fill:#3F4F75;}
	.st1{fill-rule:evenodd;clip-rule:evenodd;fill:#80CFBE;}
	.st2{fill-rule:evenodd;clip-rule:evenodd;fill:#FFFFFF;}
</style>
<g>
	<path class="st0" d="M82.4,94.9H24.2c-3.1,0-5.6-2.6-5.6-5.7V30.8c0-3.2,2.5-5.7,5.6-5.7h58.1c3.1,0,5.6,2.6,5.6,5.7v58.4
		C87.9,92.4,85.4,94.9,82.4,94.9"/>
	<path class="st1" d="M36,52.3c0.1,0.1,0.2,0.3,0.2,0.4c-0.2-0.2-0.4-0.3-0.7-0.4c-0.1-0.1-0.1-0.2-0.3-0.2l0,0c0,0-0.1-0.1-0.1-0.1
		C35.5,52.1,35.7,52.2,36,52.3 M33.9,55.2c0.2,0,0.4,0,0.5-0.1c0,0,0.1,0.1,0.1,0.1C34.3,55.2,34.1,55.3,33.9,55.2L33.9,55.2
		 M34.6,53.1c0.1,0,0.1,0.1,0.2,0.1c0,0.1,0,0.1,0,0.2c-0.1-0.2-0.3-0.2-0.5-0.1l0-0.1L34.6,53.1C34.5,53,34.6,53,34.6,53.1
		 M33.5,53.3c0,0.1,0,0.3,0.1,0.4C33.5,53.6,33.5,53.4,33.5,53.3 M35.6,54.3c0-0.1-0.1-0.1-0.1-0.2c0-0.1,0.1-0.1,0.1-0.2
		C35.7,54,35.7,54.1,35.6,54.3 M36.7,51.9c-0.1,0-0.1-0.1-0.2-0.1c-0.2-0.3-0.4-0.5-0.7-0.7c-1.1-0.8-2.8-0.9-3.6,0.4
		c0,0.1-0.1,0.1-0.1,0.2c-0.5,0.5-0.9,1.1-1,1.7c-0.2,0.1-0.3,0.2-0.3,0.4c0,0.8,0.4,1.4,1,1.8c0.6,0.5,1.5,0.8,2.4,0.8
		c1.3,0,2.2-0.7,2.6-1.6l0,0C37.6,53.9,37.7,52.6,36.7,51.9 M36,40.8c0.1,0.1,0.2,0.3,0.2,0.4c-0.2-0.2-0.4-0.3-0.7-0.4
		c-0.1-0.1-0.1-0.2-0.3-0.2l0,0c0,0-0.1-0.1-0.1-0.1C35.5,40.6,35.7,40.7,36,40.8 M33.9,43.7c0.2,0,0.4,0,0.5-0.1
		c0,0,0.1,0.1,0.1,0.1C34.3,43.7,34.1,43.8,33.9,43.7L33.9,43.7 M34.6,41.6c0.1,0,0.1,0.1,0.2,0.1c0,0.1,0,0.1,0,0.2
		c-0.1-0.2-0.3-0.2-0.5-0.1l0-0.1L34.6,41.6C34.5,41.5,34.6,41.5,34.6,41.6 M33.5,41.8c0,0.1,0,0.1,0,0.2c0,0.1,0,0.2,0.1,0.2
		C33.5,42.1,33.5,41.9,33.5,41.8 M35.6,42.8l-0.1-0.2c0-0.1,0.1-0.1,0.1-0.2C35.7,42.5,35.7,42.6,35.6,42.8 M36.7,40.4
		c-0.1,0-0.1-0.1-0.2-0.1c-0.2-0.3-0.4-0.5-0.7-0.7c-1.1-0.8-2.8-0.9-3.6,0.4c0,0.1-0.1,0.1-0.1,0.2c-0.5,0.5-0.9,1.1-1,1.7
		C31.1,42,31,42.2,31,42.3c0,0.8,0.4,1.4,1,1.8c0.6,0.5,1.5,0.8,2.4,0.8c1.3,0,2.2-0.7,2.6-1.6l0,0C37.6,42.4,37.7,41.1,36.7,40.4
		 M61.3,52.3c0.1,0.1,0.2,0.3,0.2,0.4c-0.2-0.2-0.4-0.3-0.7-0.4c-0.1-0.1-0.1-0.2-0.3-0.2l0,0c0,0-0.1-0.1-0.1-0.1
		C60.7,52.1,61,52.2,61.3,52.3 M59.2,55.2c0.2,0,0.4,0,0.5-0.1c0,0,0.1,0.1,0.1,0.1C59.6,55.2,59.4,55.3,59.2,55.2L59.2,55.2
		 M59.9,53.1c0.1,0,0.1,0.1,0.2,0.1c0,0.1,0,0.1,0,0.2c-0.1-0.2-0.3-0.2-0.5-0.1l0-0.1L59.9,53.1C59.8,53,59.8,53,59.9,53.1
		 M58.8,53.3c0,0.1,0,0.3,0.1,0.4C58.8,53.6,58.8,53.4,58.8,53.3 M60.9,54.3c0-0.1-0.1-0.1-0.1-0.2c0-0.1,0.1-0.1,0.1-0.2
		C60.9,54,60.9,54.1,60.9,54.3 M62,51.9c-0.1,0-0.1-0.1-0.2-0.1c-0.2-0.3-0.4-0.5-0.7-0.7c-1.1-0.8-2.8-0.9-3.6,0.4
		c0,0.1-0.1,0.1-0.1,0.2c-0.5,0.5-0.9,1.1-1,1.7c-0.2,0.1-0.3,0.2-0.3,0.4c0,0.8,0.4,1.4,1,1.8c0.6,0.5,1.5,0.8,2.4,0.8
		c1.3,0,2.2-0.7,2.6-1.6l0,0C62.9,53.9,63,52.6,62,51.9 M61.3,40.8c0.1,0.1,0.2,0.3,0.2,0.4c-0.2-0.2-0.4-0.3-0.7-0.4
		c-0.1-0.1-0.1-0.2-0.3-0.2l0,0c0,0-0.1-0.1-0.1-0.1C60.7,40.6,61,40.7,61.3,40.8 M59.2,43.7c0.2,0,0.4,0,0.5-0.1
		c0,0,0.1,0.1,0.1,0.1C59.6,43.7,59.4,43.8,59.2,43.7L59.2,43.7 M59.9,41.6c0.1,0,0.1,0.1,0.2,0.1c0,0.1,0,0.1,0,0.2
		c-0.1-0.2-0.3-0.2-0.5-0.1l0-0.1L59.9,41.6C59.8,41.5,59.8,41.5,59.9,41.6 M58.8,41.8c0,0.1,0.1,0.3,0.1,0.4
		C58.8,42.1,58.8,41.9,58.8,41.8 M60.9,42.8l-0.1-0.2c0-0.1,0.1-0.1,0.1-0.2C60.9,42.5,60.9,42.6,60.9,42.8 M62,40.4
		c-0.1,0-0.1-0.1-0.2-0.1c-0.2-0.3-0.4-0.5-0.7-0.7c-1.1-0.8-2.8-0.9-3.6,0.4c0,0.1-0.1,0.1-0.1,0.2c-0.5,0.5-0.9,1.1-1,1.7
		c-0.2,0.1-0.3,0.2-0.3,0.4c0,0.8,0.4,1.4,1,1.8c0.6,0.5,1.5,0.8,2.4,0.8c1.3,0,2.2-0.7,2.6-1.6l0,0C62.9,42.4,63,41.1,62,40.4"/>
	<path class="st2" d="M34.9,62.7c-1.7,0-3.1,1.4-3.1,3.1v12.5c0,1.7,1.4,3.1,3.1,3.1c1.7,0,3.1-1.4,3.1-3.1V65.9
		C37.9,64.1,36.6,62.8,34.9,62.7 M59.4,62.7c-1.7,0-3.1,1.4-3.1,3.1v12.5c0,1.7,1.4,3.1,3.1,3.1c1.7,0,3.1-1.4,3.1-3.1V65.9
		C62.5,64.1,61.1,62.8,59.4,62.7 M47.2,50.3c-1.7,0-3.1,1.4-3.1,3.1v25c0,1.7,1.4,3.1,3.1,3.1c1.7,0,3.1-1.4,3.1-3.1v-25
		C50.2,51.7,48.8,50.3,47.2,50.3 M71.7,50.3c-1.7,0-3.1,1.4-3.1,3.1v25c0,1.7,1.4,3.1,3.1,3.1c1.7,0,3.1-1.4,3.1-3.1v-25
		C74.8,51.7,73.4,50.3,71.7,50.3"/>
	<path class="st1" d="M73.6,43.4c-0.2,0.3-0.4,0.5-0.6,0.6c0.2-0.2,0.3-0.5,0.4-0.8c0-0.1,0.1-0.1,0.1-0.2c0.1-0.1,0.2-0.2,0.1-0.3
		c0,0,0,0,0,0c0.2-0.1,0.3-0.4,0.4-0.7l0-0.1C74.1,42.4,73.9,42.9,73.6,43.4 M69.6,42.3c0-0.1,0-0.3,0-0.4c0.1,0.4,0.3,0.9,0.5,1.3
		c0.1,0.3,0.2,0.6,0.4,0.8c-0.1-0.1-0.2-0.1-0.3-0.2C69.8,43.4,69.7,42.9,69.6,42.3 M71.7,41.7c0-0.3,0-0.6,0-0.9c0,0,0.1,0,0.1,0.1
		l0.1,0C71.9,41.2,71.9,41.6,71.7,41.7 M74.5,40.5c0-0.2-0.1-0.4-0.2-0.5c-0.3-0.4-0.6-0.8-1-1.1c-0.6-0.4-1.2-0.6-1.6-0.1
		c-0.2,0-0.3,0-0.5,0c-0.1,0-0.2,0-0.3,0c-0.5-0.2-1-0.2-1.2,0.4c-0.1,0.2-0.1,0.5-0.1,0.8c-0.1,0.1-0.2,0.2-0.2,0.2
		C68.7,41,68.8,42.2,69,43c0.3,1.3,1.7,2.3,2.9,1.9c0.1,0,0.2-0.1,0.3-0.1c0.6,0.1,1.3-0.1,1.9-0.8C74.9,43,75,41.7,74.5,40.5
		 M49.1,43.4c-0.2,0.3-0.4,0.5-0.6,0.6c0.2-0.2,0.3-0.5,0.4-0.8c0-0.1,0.1-0.1,0.1-0.2c0.1-0.1,0.2-0.2,0.1-0.3c0,0,0,0,0,0
		c0.2-0.1,0.3-0.4,0.4-0.7l0-0.1C49.5,42.4,49.4,42.9,49.1,43.4 M45.1,42.3c0-0.1,0-0.3,0-0.4c0.1,0.4,0.3,0.9,0.5,1.3
		c0.1,0.3,0.2,0.6,0.4,0.8c-0.1-0.1-0.2-0.1-0.3-0.2C45.3,43.4,45.1,42.9,45.1,42.3 M47.2,41.7c0-0.3,0-0.6,0-0.9c0,0,0.1,0,0.1,0.1
		c0,0,0,0,0.1,0C47.4,41.2,47.4,41.6,47.2,41.7 M49.9,40.5c0-0.2-0.1-0.4-0.2-0.5c-0.3-0.4-0.6-0.8-1-1.1c-0.6-0.4-1.2-0.6-1.6-0.1
		c-0.2,0-0.3,0-0.5,0c-0.1,0-0.2,0-0.3,0c-0.5-0.2-1-0.2-1.2,0.4c-0.1,0.2-0.1,0.5-0.1,0.8c-0.1,0.1-0.2,0.2-0.2,0.2
		c-0.5,0.7-0.4,1.9-0.2,2.6c0.3,1.3,1.7,2.3,2.9,1.9c0.1,0,0.2-0.1,0.3-0.1c0.6,0.1,1.3-0.1,1.9-0.8C50.3,43,50.4,41.7,49.9,40.5"/>
	<g>
		<path class="st0" d="M132.3,75c-1.6,0-2.8-1.3-2.8-2.8c0,0,0,0,0,0V43.7c0-1.6,1.3-2.8,2.8-2.8c1.6,0,2.8,1.3,2.8,2.8v28.4
			C135.1,73.7,133.8,75,132.3,75C132.3,75,132.3,75,132.3,75 M191.3,75c-1.6,0-2.8-1.3-2.8-2.8c0,0,0,0,0,0V43.7
			c0-1.6,1.3-2.8,2.8-2.8c1.6,0,2.8,1.3,2.8,2.8v28.4C194.2,73.7,192.9,75,191.3,75C191.3,75,191.3,75,191.3,75 M118.2,63.1
			c0,3.4-2.5,6.2-5.6,6.2c-3.1,0-5.6-2.8-5.6-6.2v-4.7c0-3.4,2.5-6.2,5.6-6.2c3.1,0,5.6,2.8,5.6,6.2
			C118.2,58.4,118.2,63.1,118.2,63.1z M112.6,46.5c-2.1,0-4.1,0.6-5.8,1.8c-0.4-1.1-1.5-1.8-2.6-1.8c-1.6,0-2.8,1.3-2.8,2.8v28.4
			c0,1.6,1.3,2.8,2.8,2.8c1.6,0,2.8-1.3,2.8-2.8c0,0,0,0,0,0v-4.5c1.7,1.1,3.6,1.6,5.6,1.6c6.2,0,11.3-5.5,11.3-12.2v-4.1
			C123.8,52,118.8,46.5,112.6,46.5z M157.6,63.1c0,3.4-2.5,6.2-5.6,6.2c-3.1,0-5.6-2.8-5.6-6.2v-4.7c0-3.4,2.5-6.2,5.6-6.2
			c3.1,0,5.6,2.8,5.6,6.2C157.6,58.4,157.6,63.1,157.6,63.1z M152,46.5c-6.2,0-11.3,5.5-11.3,12.2v4.1c0,6.7,5,12.2,11.3,12.2
			c6.2,0,11.3-5.5,11.3-12.2v-4.1C163.2,52,158.2,46.5,152,46.5z M180.1,69.3c-3.1,0-5.6-2.6-5.6-5.7V52.2h5.6
			c1.6,0,2.8-1.3,2.8-2.8c0-1.6-1.3-2.8-2.8-2.8h-5.6v-2.8c0-1.6-1.3-2.8-2.8-2.8c-1.6,0-2.8,1.3-2.8,2.8c0,0,0,0,0,0v19.9
			c0,6.3,5,11.4,11.3,11.4c1.6,0,2.8-1.3,2.8-2.8c0,0,0,0,0,0C182.9,70.6,181.7,69.3,180.1,69.3 M219.6,46.8c-1.4-0.6-3.1,0-3.7,1.5
			c0,0,0,0,0,0L210.1,62l-5.8-13.8c-0.6-1.4-2.2-2.1-3.7-1.5c0,0,0,0,0,0c-1.4,0.6-2.1,2.3-1.5,3.7l7.9,18.7l-0.9,2.2
			c-0.8,2.1-2.8,3.4-5.1,3.5c-1.6,0-2.8,1.3-2.7,2.9c0,1.5,1.3,2.8,2.8,2.8h0.1c4.5-0.1,8.4-2.9,10.1-7l9.8-23.2
			C221.7,49.1,221,47.4,219.6,46.8"/>
	</g>
</g>
</svg>
