<?xml version="1.0" encoding="utf-8"?>
<!-- Generator: Adobe Illustrator 22.1.0, SVG Export Plug-In . SVG Version: 6.00 Build 0)  -->
<svg version="1.1" id="Layer_1" xmlns="http://www.w3.org/2000/svg" xmlns:xlink="http://www.w3.org/1999/xlink" x="0px" y="0px"
	 viewBox="0 0 244 54.4" style="enable-background:new 0 0 244 54.4;" xml:space="preserve">
<style type="text/css">
	.st0{fill:#FFFFFF;}
</style>
<g>
	<path class="st0" d="M0.5,50.4C0.2,50.1,0,49.7,0,49.3V3.9C0,3.5,0.1,3,0.5,2.7c0.3-0.3,0.8-0.5,1.2-0.5h18c4.8-0.3,9.5,1.1,13.4,4
		c3.3,2.8,5.1,7,4.8,11.3c0.1,3-0.7,6-2.4,8.5c-1.7,2.3-4.1,4.1-6.8,5l10.1,17.7c0.1,0.2,0.2,0.5,0.2,0.8c0,0.4-0.2,0.8-0.5,1.1
		c-0.3,0.3-0.6,0.4-1,0.4h-6.4c-0.6,0-1.2-0.1-1.7-0.5c-0.4-0.4-0.8-0.8-1.1-1.3l-8.9-16.5H9.8v16.7c0,0.4-0.2,0.9-0.5,1.2
		c-0.3,0.3-0.8,0.5-1.3,0.5H1.7C1.2,50.9,0.8,50.8,0.5,50.4z M19.5,24.6c2.2,0.2,4.5-0.5,6.3-1.9c1.5-1.4,2.2-3.4,2.1-5.4
		c0.1-2-0.6-4-2.1-5.5c-1.8-1.4-4-2.1-6.3-1.9H9.8v14.6H19.5z M44.4,50.5c-0.3-0.3-0.4-0.7-0.4-1.1l0.1-0.6L60.9,3.9
		c0.3-1.1,1.4-1.8,2.5-1.7H71c1.1,0,2.2,0.7,2.5,1.7l16.7,44.9l0.1,0.6c0,0.4-0.2,0.8-0.5,1.1c-0.3,0.3-0.6,0.4-1,0.4h-6.2
		c-0.9,0.1-1.7-0.5-2-1.3l-3.2-8.4H56.9l-3.2,8.4c-0.3,0.8-1.1,1.4-2,1.3h-6.2C45.1,50.9,44.7,50.8,44.4,50.5L44.4,50.5z M59.3,33.1
		h15.7l-7.9-21.4L59.3,33.1z M95.7,50.4c-0.3-0.3-0.5-0.7-0.5-1.2V3.9c0-0.5,0.1-0.9,0.5-1.3c0.3-0.3,0.8-0.5,1.2-0.5h18.7
		c4.7-0.3,9.4,1.1,13.2,4c3.3,2.9,5.1,7.2,4.8,11.6c0.3,4.3-1.5,8.6-4.8,11.4c-3.8,2.8-8.5,4.1-13.2,3.9h-10.2v16.3
		c0,0.5-0.2,0.9-0.5,1.2c-0.3,0.3-0.8,0.5-1.3,0.4h-6.7C96.5,50.9,96,50.8,95.7,50.4L95.7,50.4z M115.2,25.2
		c2.2,0.2,4.4-0.5,6.2-1.9c1.5-1.5,2.3-3.5,2.1-5.6c0.1-2.1-0.6-4.1-2.1-5.7c-1.7-1.5-4-2.2-6.2-2h-10v15.2H115.2z M213.4,49.7
		c-2.6-1-5-2.7-6.8-4.9c-1.5-1.9-2.3-4.3-2.4-6.7c0-0.4,0.2-0.7,0.4-1c0.3-0.3,0.6-0.5,1-0.4h6.3c0.4,0,0.9,0.1,1.3,0.3
		c0.4,0.3,0.7,0.6,0.9,1c0.5,1.7,1.7,3.1,3.2,4c2.1,1.2,4.4,1.7,6.8,1.6c2.6,0.2,5.1-0.4,7.3-1.6c1.6-0.9,2.5-2.6,2.5-4.5
		c0-1.2-0.4-2.3-1.3-3.2c-1.1-1-2.4-1.7-3.8-2.2c-1.7-0.6-4.2-1.4-7.6-2.3c-4.3-0.8-8.5-2.6-12-5.1c-2.6-2.3-4-5.7-3.8-9.2
		c0-2.6,0.8-5.1,2.2-7.2c1.6-2.2,3.8-3.9,6.4-5c3.1-1.3,6.3-1.9,9.6-1.8c3.4-0.1,6.9,0.6,10,2c2.5,1.1,4.7,2.9,6.4,5.1
		c1.4,1.7,2.2,3.8,2.3,6c0,0.4-0.2,0.7-0.4,1c-0.3,0.3-0.6,0.4-1,0.4h-6.6c-0.9,0.1-1.7-0.4-2.1-1.3c-0.3-1.6-1.3-2.9-2.7-3.7
		c-3.7-2-8.2-2-11.9,0c-1.4,0.9-2.3,2.5-2.2,4.2c0,1.1,0.4,2.3,1.1,3.1c1,1,2.2,1.7,3.5,2.2c2.3,0.8,4.6,1.6,6.9,2.1
		c3.4,0.7,6.7,1.7,9.9,3.1c2.2,0.9,4,2.5,5.4,4.4c1.2,2,1.8,4.4,1.7,6.7c0.1,2.8-0.8,5.6-2.5,7.8c-1.8,2.3-4.2,4.1-7,5.1
		c-3.3,1.2-6.9,1.8-10.4,1.7C220.5,51.7,216.8,51.1,213.4,49.7L213.4,49.7z M141.2,49.3c0,0.1,0,0.1,0,5.2l10-10V10l-10-10
		c0,3.7,0,3.8,0,3.8V49.3z M198.6,21.1c-0.3-12.6-7.3-18.9-21-18.9h-17c-0.5,0-0.9,0.2-1.2,0.5C159.1,3,159,3.5,159,3.9v13.6
		l9.8,9.7v-17h8.5c5.4-0.9,10.4,2.7,11.4,8c0.2,1,0.2,2,0,3.1c0.1,2.7,0.1,4.4,0.1,5.2c0,0.7,0,2.4-0.1,5.2c0.2,3.1-0.8,6.2-2.7,8.6
		c-2.3,1.9-5.3,2.9-8.4,2.6h-8.8V27.2l-9.8,9.7v12.4c0,0.4,0.2,0.9,0.5,1.2c0.3,0.3,0.7,0.5,1.2,0.5H178c6.9,0,12-1.5,15.4-4.6
		c3.3-3.1,5.1-7.9,5.3-14.4c0.1-2.7,0.1-4.5,0.1-5.4C198.7,25.6,198.7,23.8,198.6,21.1L198.6,21.1z"/>
</g>
</svg>
