<?xml version="1.0" encoding="utf-8"?>
<!-- Generator: Adobe Illustrator 23.0.2, SVG Export Plug-In . SVG Version: 6.00 Build 0)  -->
<svg version="1.1" id="Layer_1" xmlns="http://www.w3.org/2000/svg" xmlns:xlink="http://www.w3.org/1999/xlink" x="0px" y="0px"
	 viewBox="0 0 850 450" style="enable-background:new 0 0 850 450;" xml:space="preserve">
<style type="text/css">
	.st0{fill:#666666;}
	.st1{fill:#D216D2;}
	.st2{fill:#36C9DD;}
	.st3{fill:#FFB500;}
	.st4{fill:none;stroke:#666666;stroke-linecap:square;}
	.st5{fill:#FFFFFF;}
</style>
<title>Asset 12</title>
<g id="Layer_1-2">
	<path class="st0" d="M33.3,185.8c1.2-0.1,2.3,0.3,3.2,1c0.8,0.7,1.2,1.7,1.2,2.8c0.1,1.2-0.4,2.3-1.3,3.1c-1,0.8-2.2,1.2-3.5,1.1
		c-1.1,0.1-2.3-0.2-3.3-0.7v-1.4c0.5,0.3,1,0.5,1.5,0.6c0.6,0.1,1.2,0.2,1.8,0.2c0.9,0.1,1.7-0.2,2.4-0.7c0.6-0.5,0.9-1.3,0.9-2.1
		c0-1.8-1.1-2.7-3.3-2.7c-0.7,0-1.5,0.1-2.2,0.2l-0.8-0.5l0.5-6h6.4v1.4h-5.1l-0.3,3.9C32,185.9,32.7,185.8,33.3,185.8z"/>
	<path class="st0" d="M48.1,187.2c0.1,1.7-0.2,3.5-1,5c-1.2,1.8-3.7,2.2-5.4,1c-0.4-0.3-0.7-0.6-1-1c-0.8-1.5-1.2-3.3-1.1-5
		c-0.1-1.7,0.2-3.5,1-5c1.3-1.7,3.7-2.1,5.4-0.9c0.4,0.3,0.7,0.6,0.9,1C47.8,183.8,48.2,185.5,48.1,187.2z M41.1,187.2
		c-0.1,1.4,0.1,2.8,0.7,4.1c0.6,1.2,2,1.6,3.2,1c0.4-0.2,0.8-0.6,1-1c0.9-2.6,0.9-5.5,0-8.1c-0.6-1.2-2-1.6-3.2-1
		c-0.4,0.2-0.8,0.6-1,1C41.3,184.5,41,185.8,41.1,187.2L41.1,187.2z"/>
	<path class="st0" d="M61,182c-1.3-0.1-2.5,0.5-3.3,1.4c-0.9,1.1-1.3,2.5-1.2,3.9c-0.1,1.4,0.3,2.8,1.2,3.9c0.9,1,2.1,1.5,3.4,1.4
		c1,0,2.1-0.2,3.1-0.5v1.3c-1.1,0.4-2.2,0.5-3.3,0.5c-1.6,0.1-3.2-0.5-4.4-1.7c-1.1-1.4-1.7-3.1-1.6-4.9c0-1.2,0.2-2.4,0.8-3.5
		c0.5-1,1.2-1.8,2.1-2.3c1-0.6,2.1-0.8,3.3-0.8s2.4,0.2,3.5,0.7l-0.6,1.3C63,182.2,62,182,61,182z"/>
	<path class="st0" d="M75,184.6c0.1,1.2-0.4,2.3-1.3,3c-1.1,0.8-2.5,1.1-3.8,1h-1.5v5.1h-1.5v-12.8h3.3
		C73.4,180.8,75,182.1,75,184.6z M68.3,187.3h1.3c1,0.1,2-0.1,2.9-0.6c0.6-0.5,1-1.3,0.9-2.1c0.1-0.7-0.3-1.4-0.8-1.9
		c-0.8-0.5-1.7-0.7-2.6-0.6h-1.7L68.3,187.3z"/>
	<path class="st0" d="M87.4,180.8v8.3c0.1,1.3-0.4,2.6-1.4,3.5s-2.3,1.3-3.7,1.2c-1.3,0.1-2.6-0.4-3.6-1.3c-0.9-0.9-1.3-2.2-1.3-3.5
		v-8.3H79v8.4c-0.1,0.9,0.3,1.8,0.9,2.5c0.7,0.6,1.6,0.9,2.6,0.9c0.9,0.1,1.8-0.2,2.5-0.9c0.6-0.7,0.9-1.6,0.9-2.5v-8.4L87.4,180.8z
		"/>
	<path class="st0" d="M105.5,193.7h-1.7l-7-10.8h-0.1c0.1,1.3,0.1,2.4,0.1,3.5v7.3h-1.4v-12.9h1.7l7,10.7h0.1c0-0.2,0-0.7-0.1-1.5
		s-0.1-1.5,0-1.8v-7.4h1.4V193.7z"/>
	<path class="st0" d="M117.1,188.8c0.1,1.3-0.3,2.6-1.2,3.7c-0.8,0.9-2,1.4-3.3,1.3c-0.8,0-1.6-0.2-2.3-0.6c-0.7-0.4-1.2-1-1.6-1.7
		c-0.4-0.8-0.6-1.7-0.5-2.7c-0.1-1.3,0.3-2.6,1.2-3.7c0.8-0.9,2-1.4,3.3-1.3c1.2-0.1,2.4,0.4,3.2,1.3
		C116.8,186.2,117.2,187.5,117.1,188.8z M109.8,188.8c-0.1,1,0.2,2,0.7,2.8c0.5,0.7,1.3,1,2.2,1c0.8,0,1.7-0.3,2.2-1
		c0.6-0.8,0.8-1.8,0.8-2.8c0.1-1-0.2-2-0.8-2.8c-0.5-0.7-1.3-1-2.2-1c-0.8-0.1-1.6,0.3-2.2,0.9C109.9,186.8,109.7,187.8,109.8,188.8
		z"/>
	<path class="st0" d="M126.2,192.4L126.2,192.4c-0.8,1-1.9,1.5-3.1,1.5c-1.1,0.1-2.2-0.4-2.9-1.3c-0.8-1.1-1.1-2.4-1.1-3.7
		c-0.1-1.3,0.3-2.6,1.1-3.7c1.4-1.6,3.9-1.8,5.5-0.3c0.2,0.1,0.3,0.3,0.4,0.4h0.1l-0.1-0.7v-0.7V180h1.5v13.7h-1.2L126.2,192.4z
		 M123.3,192.6c0.8,0.1,1.6-0.2,2.2-0.8c0.5-0.8,0.7-1.7,0.7-2.6v-0.3c0.1-1-0.1-2.1-0.7-2.9c-0.5-0.6-1.3-0.9-2.2-0.9
		c-0.8,0-1.6,0.3-2,1c-0.5,0.9-0.7,1.8-0.7,2.8c-0.1,1,0.2,1.9,0.7,2.8C121.8,192.3,122.5,192.7,123.3,192.6z"/>
	<path class="st0" d="M134.8,193.8c-1.3,0.1-2.5-0.4-3.4-1.3c-0.9-1-1.3-2.3-1.2-3.6c-0.1-1.3,0.3-2.6,1.1-3.7
		c0.8-0.9,1.9-1.4,3.1-1.4c1.1-0.1,2.1,0.4,2.9,1.2c0.7,0.9,1.1,2,1.1,3.1v0.9h-6.6c0,0.9,0.3,1.9,0.9,2.6c0.6,0.6,1.4,0.9,2.3,0.9
		c1.1,0,2.1-0.2,3.1-0.6v1.3c-0.5,0.2-1,0.4-1.5,0.5C135.9,193.8,135.3,193.8,134.8,193.8z M134.4,185.1c-0.7,0-1.4,0.2-1.9,0.8
		s-0.8,1.3-0.8,2.1h5c0.1-0.8-0.2-1.5-0.6-2.1C135.7,185.3,135,185.1,134.4,185.1L134.4,185.1z"/>
	<path class="st0" d="M147,191.1c0,0.8-0.3,1.6-1,2.1c-0.8,0.5-1.8,0.8-2.8,0.7c-1,0.1-2.1-0.2-3-0.6v-1.4c0.5,0.2,1,0.4,1.5,0.6
		c0.5,0.1,1,0.2,1.5,0.2c0.6,0,1.2-0.1,1.8-0.4c0.4-0.2,0.6-0.7,0.6-1.1s-0.2-0.8-0.5-1c-0.6-0.4-1.2-0.7-1.9-0.9s-1.3-0.5-1.9-0.9
		c-0.3-0.2-0.6-0.5-0.8-0.9c-0.2-0.3-0.3-0.7-0.3-1.1c0-0.8,0.4-1.5,1-1.9c0.8-0.5,1.7-0.7,2.6-0.7c1,0,2.1,0.2,3,0.6l-0.5,1.2
		c-0.8-0.4-1.7-0.6-2.6-0.6c-0.5,0-1.1,0.1-1.6,0.3c-0.3,0.2-0.5,0.5-0.5,0.9c0,0.2,0.1,0.5,0.2,0.7c0.2,0.2,0.4,0.4,0.6,0.5
		c0.5,0.3,1.1,0.5,1.7,0.7c0.9,0.3,1.6,0.7,2.3,1.3C146.8,189.9,147,190.4,147,191.1z"/>
	<path class="st0" d="M24.4,143.8H23v-9.2c0-0.8,0-1.5,0.1-2.2l-0.4,0.4c-0.1,0.1-0.9,0.7-2.1,1.7l-0.8-1l3.4-2.6h1.2L24.4,143.8z"
		/>
	<path class="st0" d="M37.8,137.3c0.1,1.7-0.2,3.5-1,5c-0.7,1.1-1.9,1.7-3.2,1.6c-1.3,0.1-2.5-0.6-3.2-1.7c-0.8-1.5-1.2-3.2-1.1-4.9
		c-0.1-1.7,0.2-3.5,1-5c0.7-1.1,1.9-1.7,3.2-1.6c1.3-0.1,2.5,0.6,3.2,1.7C37.6,133.9,37.9,135.6,37.8,137.3z M30.8,137.3
		c-0.1,1.4,0.1,2.8,0.7,4.1c0.6,1.2,2,1.6,3.2,1c0.4-0.2,0.8-0.6,1-1c0.9-2.6,0.9-5.5,0-8.1c-0.6-1.2-2-1.6-3.2-1
		c-0.4,0.2-0.8,0.6-1,1C31,134.6,30.7,135.9,30.8,137.3L30.8,137.3z"/>
	<path class="st0" d="M48.1,137.3c0.1,1.7-0.2,3.5-1,5c-1.2,1.8-3.7,2.2-5.4,1c-0.4-0.3-0.7-0.6-1-1c-0.8-1.5-1.2-3.2-1.1-4.9
		c-0.1-1.7,0.2-3.5,1-5c1.3-1.7,3.7-2.1,5.4-0.9c0.4,0.3,0.7,0.6,0.9,1C47.8,133.9,48.2,135.6,48.1,137.3z M41.1,137.3
		c-0.1,1.4,0.1,2.8,0.7,4.1c0.6,1.2,2,1.6,3.2,1c0.4-0.2,0.8-0.6,1-1c0.9-2.6,0.9-5.5,0-8.1c-0.6-1.2-2-1.6-3.2-1
		c-0.4,0.2-0.8,0.6-1,1C41.3,134.6,41,135.9,41.1,137.3L41.1,137.3z"/>
	<path class="st0" d="M61,132.1c-1.3-0.1-2.5,0.5-3.3,1.4c-0.9,1.1-1.3,2.5-1.2,3.9c-0.1,1.4,0.3,2.8,1.2,3.9c0.9,1,2.1,1.5,3.4,1.4
		c1,0,2.1-0.2,3.1-0.5v1.3c-1.1,0.4-2.2,0.5-3.3,0.5c-1.7,0.1-3.3-0.5-4.4-1.7c-1.1-1.4-1.7-3.1-1.5-4.9c0-1.2,0.2-2.4,0.8-3.5
		c0.5-1,1.2-1.8,2.1-2.3c1-0.6,2.1-0.8,3.3-0.8s2.4,0.2,3.5,0.7l-0.6,1.3C63,132.3,62,132.1,61,132.1z"/>
	<path class="st0" d="M75,134.6c0.1,1.2-0.4,2.3-1.3,3c-1.1,0.8-2.5,1.1-3.8,1.1h-1.5v5.1h-1.5V131h3.3
		C73.4,130.9,75,132.2,75,134.6z M68.3,137.4h1.3c1,0.1,2-0.1,2.9-0.6c0.6-0.5,1-1.3,0.9-2.1c0.1-0.7-0.3-1.4-0.8-1.9
		c-0.8-0.5-1.7-0.7-2.6-0.6h-1.7L68.3,137.4z"/>
	<path class="st0" d="M87.4,130.9v8.3c0.1,1.3-0.4,2.6-1.4,3.5s-2.3,1.3-3.7,1.2c-1.3,0.1-2.6-0.4-3.6-1.3c-0.9-0.9-1.3-2.2-1.2-3.5
		v-8.3H79v8.4c-0.1,0.9,0.3,1.8,0.9,2.5c0.7,0.6,1.6,0.9,2.6,0.9c0.9,0.1,1.8-0.2,2.5-0.9c0.6-0.7,0.9-1.6,0.9-2.5v-8.4L87.4,130.9z
		"/>
	<path class="st0" d="M105.5,143.8h-1.7l-7-10.8h-0.1c0.1,1.3,0.1,2.4,0.1,3.5v7.3h-1.4V131h1.7l7,10.7h0.1c0-0.2,0-0.7-0.1-1.5
		s-0.1-1.5,0-1.8V131h1.4V143.8z"/>
	<path class="st0" d="M117.1,138.9c0.1,1.3-0.3,2.6-1.2,3.7c-0.8,0.9-2,1.4-3.3,1.3c-0.8,0-1.6-0.2-2.3-0.6c-0.7-0.4-1.2-1-1.6-1.7
		c-0.4-0.8-0.6-1.7-0.5-2.7c-0.1-1.3,0.3-2.6,1.2-3.7c0.8-0.9,2-1.4,3.3-1.3c1.2-0.1,2.4,0.4,3.2,1.3
		C116.8,136.3,117.2,137.6,117.1,138.9z M109.8,138.9c-0.1,1,0.2,2,0.7,2.8c0.5,0.7,1.3,1,2.2,1c0.8,0,1.7-0.3,2.2-1
		c0.6-0.8,0.8-1.8,0.8-2.8c0.1-1-0.2-2-0.8-2.8c-0.5-0.7-1.3-1-2.2-0.9c-0.8-0.1-1.6,0.3-2.2,0.9C110,137,109.7,137.9,109.8,138.9z"
		/>
	<path class="st0" d="M126.2,142.5L126.2,142.5c-0.8,1-1.9,1.5-3.1,1.5c-1.1,0.1-2.2-0.4-2.9-1.3c-0.8-1.1-1.1-2.4-1.1-3.7
		c-0.1-1.3,0.3-2.6,1.1-3.7c1.4-1.6,3.9-1.8,5.5-0.3c0.2,0.1,0.3,0.3,0.4,0.4h0.1l-0.1-0.7V134v-3.9h1.5v13.7h-1.2L126.2,142.5z
		 M123.3,142.7c0.8,0.1,1.6-0.2,2.2-0.8c0.5-0.8,0.7-1.7,0.7-2.6V139c0.1-1-0.1-2.1-0.7-2.9c-0.5-0.6-1.3-0.9-2.2-0.9
		c-0.8,0-1.6,0.3-2,1c-0.5,0.9-0.7,1.8-0.7,2.8c-0.1,1,0.2,1.9,0.7,2.8C121.8,142.4,122.5,142.8,123.3,142.7L123.3,142.7z"/>
	<path class="st0" d="M134.8,143.9c-1.3,0.1-2.5-0.4-3.4-1.3c-0.9-1-1.3-2.3-1.2-3.6c-0.1-1.3,0.3-2.6,1.1-3.7
		c0.8-0.9,1.9-1.4,3.1-1.4c1.1-0.1,2.1,0.4,2.9,1.2c0.7,0.9,1.1,2,1.1,3.1v0.9h-6.6c0,0.9,0.3,1.9,0.9,2.6c0.6,0.6,1.4,0.9,2.3,0.9
		c1.1,0,2.1-0.2,3.1-0.6v1.3c-0.5,0.2-1,0.4-1.5,0.5C135.9,143.9,135.3,143.9,134.8,143.9z M134.4,135.2c-0.7,0-1.4,0.2-1.9,0.8
		s-0.8,1.3-0.8,2.1h5c0.1-0.8-0.2-1.5-0.6-2.1C135.7,135.4,135,135.2,134.4,135.2L134.4,135.2z"/>
	<path class="st0" d="M147,141.1c0,0.8-0.3,1.6-1,2.1c-0.8,0.5-1.8,0.8-2.8,0.7c-1,0.1-2.1-0.2-3-0.6v-1.4c0.5,0.2,1,0.4,1.5,0.6
		c0.5,0.1,1,0.2,1.5,0.2c0.6,0,1.2-0.1,1.8-0.4c0.6-0.4,0.8-1.1,0.4-1.7c-0.1-0.1-0.2-0.2-0.3-0.3c-0.6-0.4-1.2-0.7-1.9-0.9
		s-1.3-0.5-1.9-0.9c-0.3-0.2-0.6-0.5-0.8-0.9c-0.2-0.3-0.3-0.7-0.3-1.1c0-0.8,0.4-1.5,1-1.9c0.8-0.5,1.7-0.7,2.6-0.7
		c1,0,2.1,0.2,3,0.6l-0.5,1.2c-0.8-0.4-1.7-0.6-2.6-0.6c-0.5,0-1.1,0.1-1.6,0.3c-0.3,0.2-0.5,0.5-0.5,0.9c0,0.2,0.1,0.5,0.2,0.7
		c0.2,0.2,0.4,0.4,0.6,0.5c0.5,0.3,1.1,0.5,1.7,0.7c0.9,0.3,1.6,0.7,2.3,1.3C146.8,140,147,140.5,147,141.1z"/>
	<path class="st0" d="M107.2,87.3c0.1,1.8-0.5,3.5-1.7,4.9c-1.4,1.2-3.2,1.8-5,1.7H97V81h3.9c3.2-0.3,6,2,6.3,5.2
		C107.2,86.5,107.2,86.9,107.2,87.3z M105.6,87.3c0.1-1.4-0.4-2.7-1.3-3.8c-1-0.9-2.4-1.4-3.8-1.3h-2.2v10.3h1.8
		c1.5,0.1,2.9-0.4,4-1.3C105.2,90.1,105.7,88.8,105.6,87.3L105.6,87.3z"/>
	<path class="st0" d="M115.7,87.1h4.3v6.2c-0.7,0.2-1.4,0.4-2.1,0.5c-0.8,0.1-1.6,0.2-2.4,0.2c-1.7,0.1-3.3-0.5-4.6-1.7
		c-1.1-1.4-1.7-3.1-1.6-4.9c0-1.2,0.2-2.4,0.8-3.5c0.5-1,1.3-1.8,2.3-2.3c1.1-0.6,2.3-0.8,3.5-0.8c1.3,0,2.6,0.2,3.8,0.8l-0.6,1.3
		c-1.1-0.5-2.2-0.7-3.3-0.7c-1.4-0.1-2.7,0.4-3.7,1.4c-0.9,1.1-1.4,2.5-1.3,3.9c-0.1,1.4,0.4,2.8,1.3,3.9c1,0.9,2.4,1.4,3.7,1.3
		c0.9,0,1.8-0.1,2.6-0.3v-4h-2.9L115.7,87.1z"/>
	<path class="st0" d="M131.7,93.8H130l-3.5-5.6l-3.5,5.6h-1.6l4.3-6.7l-4-6.1h1.7l3.2,5.1l3.2-5.1h1.6l-4,6.1L131.7,93.8z"/>
	<path class="st0" d="M132.5,89.7v-1.3h4.3v1.3H132.5z"/>
	<path class="st0" d="M146.9,93.8h-8.4v-1.3l3.4-3.4c0.7-0.7,1.4-1.4,2-2.2c0.3-0.4,0.5-0.8,0.7-1.3c0.2-0.4,0.3-0.9,0.2-1.4
		c0-0.6-0.2-1.2-0.6-1.6c-0.5-0.4-1.1-0.6-1.7-0.6c-0.5,0-1,0.1-1.5,0.3c-0.6,0.3-1.1,0.6-1.6,1l-0.8-1c1.1-0.9,2.4-1.5,3.9-1.5
		c1-0.1,2,0.3,2.8,0.9c0.7,0.6,1.1,1.6,1,2.5c0,0.9-0.2,1.7-0.7,2.4c-0.7,1.1-1.6,2.1-2.6,3l-2.8,2.8v0.1h6.6L146.9,93.8z"/>
	<path class="st0" d="M74.7,36.1c1.1-0.1,2.3,0.3,3.2,1c0.8,0.7,1.2,1.7,1.1,2.8c0.1,1.2-0.4,2.3-1.3,3.1c-1,0.8-2.2,1.2-3.5,1.1
		c-1.1,0.1-2.2-0.2-3.2-0.7V42c0.5,0.3,1,0.5,1.5,0.6c0.6,0.1,1.2,0.2,1.8,0.2c0.9,0.1,1.7-0.2,2.4-0.7c0.6-0.5,0.9-1.3,0.9-2.1
		c0-1.8-1.1-2.7-3.3-2.7c-0.7,0-1.5,0.1-2.2,0.2L71.3,37l0.5-6h6.4v1.3H73l-0.3,3.9C73.3,36.1,74,36.1,74.7,36.1z"/>
	<path class="st0" d="M90.4,43.9h-1.7l-3.4-5.7l-3.5,5.7h-1.6l4.3-6.7l-4-6.1h1.7l3.2,5.1l3.2-5.1h1.6l-4,6.1L90.4,43.9z"/>
	<path class="st0" d="M107.2,37.4c0.1,1.8-0.5,3.5-1.7,4.9c-1.4,1.2-3.2,1.8-5,1.7H97V31.1h3.9c3.2-0.3,6,2,6.3,5.2
		C107.2,36.6,107.2,37,107.2,37.4z M105.6,37.4c0.1-1.4-0.4-2.7-1.3-3.8c-1-0.9-2.4-1.4-3.8-1.3h-2.2v10.3h1.8
		c1.5,0.1,2.9-0.4,4-1.3C105.2,40.2,105.7,38.8,105.6,37.4L105.6,37.4z"/>
	<path class="st0" d="M115.7,37.2h4.3v6.2c-0.7,0.2-1.4,0.4-2.1,0.5c-0.8,0.1-1.6,0.2-2.4,0.2c-1.7,0.1-3.4-0.5-4.6-1.7
		c-1.1-1.4-1.7-3.1-1.6-4.9c0-1.2,0.2-2.4,0.8-3.5c0.5-1,1.3-1.8,2.3-2.3c1.1-0.6,2.3-0.8,3.5-0.8c1.3,0,2.6,0.3,3.8,0.8l-0.6,1.3
		c-1.1-0.5-2.2-0.7-3.3-0.7c-1.4-0.1-2.7,0.4-3.7,1.4c-0.9,1.1-1.4,2.5-1.3,3.9c-0.1,1.4,0.4,2.8,1.3,3.9c1,1,2.4,1.4,3.7,1.3
		c0.9,0,1.8-0.1,2.6-0.3v-4h-2.9L115.7,37.2z"/>
	<path class="st0" d="M131.7,43.9H130l-3.4-5.7l-3.6,5.7h-1.6l4.3-6.7l-4-6.1h1.7l3.2,5.1l3.2-5.1h1.6l-4,6.1L131.7,43.9z"/>
	<path class="st0" d="M132.5,39.8v-1.3h4.3v1.3H132.5z"/>
	<path class="st0" d="M143.8,43.9h-1.4v-9.2c0-0.8,0-1.5,0.1-2.2l-0.4,0.4c-0.1,0.1-0.9,0.7-2.1,1.7l-0.8-1l3.4-2.6h1.2V43.9z"/>
	<path class="st0" d="M157.6,336.8c0.1,1.4-0.2,2.9-0.9,4.1c-1,1.5-3,1.8-4.5,0.8c-0.3-0.2-0.6-0.5-0.8-0.8c-0.7-1.3-1-2.7-0.9-4.1
		c-0.1-1.4,0.2-2.9,0.9-4.1c1-1.5,3.1-1.8,4.5-0.8c0.3,0.2,0.6,0.5,0.8,0.8C157.4,334,157.7,335.4,157.6,336.8z M151.7,336.8
		c-0.1,1.2,0.1,2.3,0.6,3.4c0.5,1,1.7,1.3,2.7,0.8c0.3-0.2,0.6-0.5,0.8-0.8c0.4-1.1,0.6-2.2,0.5-3.4c0.1-1.2-0.1-2.3-0.5-3.4
		c-0.5-1-1.7-1.3-2.7-0.8c-0.3,0.2-0.6,0.5-0.8,0.8C151.9,334.5,151.7,335.6,151.7,336.8z"/>
	<path class="st0" d="M273.3,342.2h-7v-1l2.8-2.8c0.6-0.6,1.2-1.2,1.7-1.9c0.2-0.3,0.5-0.7,0.6-1.1s0.2-0.7,0.2-1.1
		c0-0.5-0.2-1-0.5-1.4c-0.4-0.4-0.9-0.5-1.5-0.5c-0.4,0-0.9,0.1-1.3,0.2c-0.5,0.2-0.9,0.5-1.3,0.8l-0.6-0.8c0.9-0.8,2-1.2,3.2-1.2
		c0.9-0.1,1.7,0.2,2.4,0.8c0.6,0.5,0.9,1.3,0.9,2.1c0,0.7-0.2,1.4-0.6,2c-0.6,0.9-1.3,1.8-2.1,2.5l-2.3,2.3v0.1h5.5L273.3,342.2z"/>
	<path class="st0" d="M276.5,340.4l0.1,0.2c-0.1,0.5-0.3,1.1-0.5,1.7s-0.5,1.2-0.8,1.8h-0.9c0.1-0.5,0.3-1.1,0.4-1.9
		s0.3-1.4,0.3-1.8L276.5,340.4z"/>
	<path class="st0" d="M285.3,336.8c0.1,1.4-0.2,2.9-0.9,4.1c-0.6,0.9-1.6,1.4-2.7,1.4s-2.1-0.5-2.6-1.4c-0.7-1.3-1-2.7-0.9-4.1
		c-0.1-1.4,0.2-2.9,0.9-4.1c1-1.5,3.1-1.8,4.5-0.8c0.3,0.2,0.6,0.5,0.8,0.8C285.1,333.9,285.4,335.4,285.3,336.8z M279.4,336.8
		c-0.1,1.2,0.1,2.3,0.6,3.4c0.5,1,1.7,1.3,2.7,0.8c0.3-0.2,0.6-0.5,0.8-0.8c0.4-1.1,0.6-2.2,0.5-3.4c0.1-1.2-0.1-2.3-0.5-3.4
		c-0.3-0.7-1-1.1-1.8-1.1c-0.7,0-1.4,0.4-1.8,1.1C279.6,334.5,279.4,335.6,279.4,336.8z"/>
	<path class="st0" d="M294,336.8c0.1,1.4-0.2,2.9-0.9,4.1c-1,1.5-3,1.8-4.5,0.8c-0.3-0.2-0.6-0.5-0.8-0.8c-0.7-1.3-1-2.7-0.9-4.1
		c-0.1-1.4,0.2-2.9,0.9-4.1c1-1.5,3.1-1.8,4.5-0.8c0.3,0.2,0.6,0.5,0.8,0.8C293.8,334,294.1,335.4,294,336.8z M288.1,336.8
		c-0.1,1.2,0.1,2.3,0.5,3.4c0.5,1,1.7,1.3,2.7,0.8c0.3-0.2,0.6-0.5,0.8-0.8c0.4-1.1,0.6-2.2,0.5-3.4c0.1-1.2-0.1-2.3-0.5-3.4
		c-0.3-0.7-1-1.1-1.8-1.1c-0.7,0-1.4,0.4-1.8,1.1C288.3,334.5,288.1,335.6,288.1,336.8L288.1,336.8z"/>
	<path class="st0" d="M302.8,336.8c0.1,1.4-0.2,2.9-0.9,4.1c-1,1.5-3,1.8-4.5,0.8c-0.3-0.2-0.6-0.5-0.8-0.8c-0.7-1.3-1-2.7-0.9-4.1
		c-0.1-1.4,0.2-2.9,0.9-4.1c1-1.5,3.1-1.8,4.5-0.8c0.3,0.2,0.6,0.5,0.8,0.8C302.6,334,302.9,335.4,302.8,336.8z M296.9,336.8
		c-0.1,1.2,0.1,2.3,0.5,3.4c0.5,1,1.7,1.3,2.7,0.8c0.3-0.2,0.6-0.5,0.8-0.8c0.4-1.1,0.6-2.2,0.5-3.4c0.1-1.2-0.1-2.3-0.5-3.4
		c-0.3-0.7-1-1.1-1.8-1.1c-0.7,0-1.4,0.4-1.8,1.1C297.1,334.5,296.9,335.6,296.9,336.8L296.9,336.8z"/>
	<path class="st0" d="M403.4,339.7h-1.6v2.5h-1.2v-2.5h-5.2v-1.1l5.1-7.2h1.3v7.2h1.6L403.4,339.7z M400.6,338.6V335
		c0-0.7,0-1.5,0.1-2.4h-0.1c-0.2,0.4-0.4,0.8-0.6,1.2l-3.4,4.8H400.6z"/>
	<path class="st0" d="M406.3,340.4l0.1,0.2c-0.1,0.5-0.3,1.1-0.5,1.7s-0.5,1.2-0.8,1.8h-0.9c0.1-0.5,0.3-1.1,0.4-1.9
		s0.3-1.4,0.3-1.8L406.3,340.4z"/>
	<path class="st0" d="M415.1,336.8c0.1,1.4-0.2,2.9-0.9,4.1c-1,1.5-3,1.8-4.5,0.8c-0.3-0.2-0.6-0.5-0.8-0.8c-0.7-1.3-1-2.7-0.9-4.1
		c-0.1-1.4,0.2-2.9,0.9-4.1c1-1.5,3.1-1.8,4.5-0.8c0.3,0.2,0.6,0.5,0.8,0.8C414.8,334,415.1,335.4,415.1,336.8z M409.2,336.8
		c-0.1,1.2,0.1,2.3,0.5,3.4c0.5,1,1.7,1.3,2.7,0.8c0.3-0.2,0.6-0.5,0.8-0.8c0.4-1.1,0.6-2.2,0.5-3.4c0.1-1.2-0.1-2.3-0.5-3.4
		c-0.3-0.7-1-1.1-1.8-1.1c-0.7,0-1.4,0.4-1.8,1.1C409.3,334.5,409.2,335.6,409.2,336.8z"/>
	<path class="st0" d="M423.8,336.8c0.1,1.4-0.2,2.9-0.9,4.1c-1,1.5-3,1.8-4.5,0.8c-0.3-0.2-0.6-0.5-0.8-0.8c-0.7-1.3-1-2.7-0.9-4.1
		c-0.1-1.4,0.2-2.9,0.9-4.1c1-1.5,3.1-1.8,4.5-0.8c0.3,0.2,0.6,0.5,0.8,0.8C423.6,334,423.9,335.4,423.8,336.8z M418,336.8
		c-0.1,1.2,0.1,2.3,0.5,3.4c0.5,1,1.7,1.3,2.7,0.8c0.3-0.2,0.6-0.5,0.8-0.8c0.4-1.1,0.6-2.2,0.5-3.4c0.1-1.2-0.1-2.3-0.5-3.4
		c-0.3-0.7-1-1.1-1.8-1.1c-0.7,0-1.4,0.4-1.8,1.1C418.1,334.5,417.9,335.6,418,336.8L418,336.8z"/>
	<path class="st0" d="M432.6,336.8c0.1,1.4-0.2,2.9-0.9,4.1c-1,1.5-3,1.8-4.5,0.8c-0.3-0.2-0.6-0.5-0.8-0.8c-0.7-1.3-1-2.7-0.9-4.1
		c-0.1-1.4,0.2-2.9,0.9-4.1c1-1.5,3.1-1.8,4.5-0.8c0.3,0.2,0.6,0.5,0.8,0.8C432.3,334,432.7,335.4,432.6,336.8z M426.7,336.8
		c-0.1,1.2,0.1,2.3,0.5,3.4c0.5,1,1.7,1.3,2.7,0.8c0.3-0.2,0.6-0.5,0.8-0.8c0.4-1.1,0.6-2.2,0.5-3.4c0.1-1.2-0.1-2.3-0.5-3.4
		c-0.5-1-1.7-1.3-2.7-0.8c-0.3,0.2-0.6,0.5-0.8,0.8C426.8,334.5,426.7,335.6,426.7,336.8z"/>
	<path class="st0" d="M525.7,337.6c-0.1-1.7,0.3-3.3,1.2-4.7c0.9-1.1,2.2-1.7,3.6-1.6c0.4,0,0.9,0,1.3,0.1v1
		c-0.4-0.1-0.8-0.2-1.3-0.2c-1-0.1-2,0.3-2.6,1.1c-0.7,1-1,2.2-1,3.4h0.1c0.6-0.8,1.5-1.3,2.5-1.2c0.8,0,1.7,0.3,2.3,0.9
		s0.9,1.5,0.8,2.4c0.1,1-0.3,1.9-0.9,2.6c-0.6,0.7-1.5,1-2.5,1s-2-0.4-2.6-1.2C526,340,525.6,338.8,525.7,337.6z M529.3,341.3
		c0.6,0,1.2-0.2,1.6-0.6c0.4-0.5,0.6-1.2,0.6-1.9c0-0.6-0.2-1.2-0.5-1.7c-0.4-0.4-1-0.7-1.6-0.6c-0.4,0-0.8,0.1-1.2,0.3
		c-0.4,0.2-0.7,0.4-0.9,0.7c-0.2,0.3-0.3,0.6-0.3,1c0,0.5,0.1,1,0.3,1.4s0.5,0.7,0.8,1C528.4,341.1,528.9,341.3,529.3,341.3
		L529.3,341.3z"/>
	<path class="st0" d="M536,340.4l0.1,0.2c-0.1,0.5-0.3,1.1-0.5,1.7s-0.5,1.2-0.8,1.8h-0.9c0.1-0.5,0.3-1.1,0.4-1.9s0.3-1.4,0.3-1.8
		L536,340.4z"/>
	<path class="st0" d="M544.8,336.8c0.1,1.4-0.2,2.9-0.9,4.1c-1,1.5-3,1.8-4.5,0.8c-0.3-0.2-0.6-0.5-0.8-0.8c-0.7-1.3-1-2.7-0.9-4.1
		c-0.1-1.4,0.2-2.9,0.9-4.1c1-1.5,3.1-1.8,4.5-0.8c0.3,0.2,0.6,0.5,0.8,0.8C544.5,334,544.8,335.4,544.8,336.8z M538.9,336.8
		c-0.1,1.2,0.1,2.3,0.5,3.4c0.5,1,1.7,1.3,2.7,0.8c0.3-0.2,0.6-0.5,0.8-0.8c0.4-1.1,0.6-2.2,0.5-3.4c0.1-1.2-0.1-2.3-0.5-3.4
		c-0.5-1-1.7-1.3-2.7-0.8c-0.3,0.2-0.6,0.5-0.8,0.8C539,334.5,538.8,335.6,538.9,336.8z"/>
	<path class="st0" d="M553.5,336.8c0.1,1.4-0.2,2.9-0.9,4.1c-1,1.5-3,1.8-4.5,0.8c-0.3-0.2-0.6-0.5-0.8-0.8c-1.2-2.6-1.2-5.6,0-8.3
		c1-1.5,3.1-1.8,4.5-0.8c0.3,0.2,0.6,0.5,0.8,0.8C553.3,334,553.6,335.4,553.5,336.8z M547.6,336.8c-0.1,1.2,0.1,2.3,0.5,3.4
		c0.5,1,1.7,1.3,2.7,0.8c0.3-0.2,0.6-0.5,0.8-0.8c0.4-1.1,0.6-2.2,0.5-3.4c0.1-1.2-0.1-2.3-0.5-3.4c-0.5-1-1.7-1.3-2.7-0.8
		c-0.3,0.2-0.6,0.5-0.8,0.8C547.8,334.5,547.6,335.6,547.6,336.8z"/>
	<path class="st0" d="M562.2,336.8c0.1,1.4-0.2,2.9-0.9,4.1c-1,1.5-3,1.8-4.5,0.8c-0.3-0.2-0.6-0.5-0.8-0.8c-0.7-1.3-1-2.7-0.9-4.1
		c-0.1-1.4,0.2-2.9,0.9-4.1c1-1.5,3.1-1.8,4.5-0.8c0.3,0.2,0.6,0.5,0.8,0.8C562,334,562.3,335.4,562.2,336.8z M556.4,336.8
		c-0.1,1.2,0.1,2.3,0.5,3.4c0.5,1,1.7,1.3,2.7,0.8c0.3-0.2,0.6-0.5,0.8-0.8c0.4-1.1,0.6-2.2,0.5-3.4c0.1-1.2-0.1-2.3-0.5-3.4
		c-0.5-1-1.7-1.3-2.7-0.8c-0.3,0.2-0.6,0.5-0.8,0.8C556.5,334.5,556.3,335.6,556.4,336.8z"/>
	<path class="st0" d="M658.8,331.3c0.8,0,1.6,0.2,2.3,0.7c0.6,0.4,0.9,1.2,0.9,1.9c0,0.5-0.2,1-0.5,1.4c-0.4,0.5-1,0.9-1.6,1.2
		c0.7,0.3,1.3,0.7,1.9,1.3c0.4,0.4,0.6,1,0.5,1.6c0,0.8-0.3,1.6-0.9,2.1c-0.7,0.6-1.6,0.8-2.5,0.8c-0.9,0.1-1.9-0.2-2.6-0.8
		c-0.6-0.5-1-1.3-0.9-2.1c0-1.2,0.7-2.2,2.2-2.9c-0.6-0.3-1.1-0.7-1.5-1.2c-0.3-0.4-0.4-1-0.4-1.5c0-0.7,0.3-1.4,0.9-1.9
		C657.2,331.5,658,331.3,658.8,331.3z M656.5,339.4c0,0.5,0.2,1,0.6,1.4c0.5,0.4,1.1,0.5,1.7,0.5c0.6,0,1.2-0.2,1.7-0.5
		c0.4-0.3,0.6-0.9,0.6-1.4s-0.2-0.9-0.6-1.3c-0.6-0.5-1.3-0.8-2-1.1c-0.6,0.2-1.1,0.6-1.6,1C656.7,338.4,656.5,338.9,656.5,339.4z
		 M658.8,332.3c-0.5,0-1,0.1-1.4,0.4c-0.3,0.3-0.5,0.7-0.5,1.2c0,0.4,0.1,0.8,0.4,1.1c0.5,0.4,1,0.8,1.6,1c0.6-0.2,1.1-0.5,1.5-0.9
		c0.3-0.3,0.4-0.7,0.4-1.2s-0.2-0.9-0.5-1.2C659.9,332.4,659.4,332.3,658.8,332.3z"/>
	<path class="st0" d="M665.7,340.4l0.1,0.2c-0.1,0.5-0.3,1.1-0.5,1.7s-0.5,1.2-0.8,1.8h-0.9c0.1-0.5,0.3-1.1,0.4-1.9
		s0.3-1.4,0.3-1.8L665.7,340.4z"/>
	<path class="st0" d="M674.5,336.8c0.1,1.4-0.2,2.9-0.9,4.1c-0.6,0.9-1.6,1.4-2.7,1.4c-1.1,0-2.1-0.5-2.6-1.4
		c-0.7-1.3-1-2.7-0.9-4.1c-0.1-1.4,0.2-2.9,0.9-4.1c1-1.5,3.1-1.8,4.5-0.8c0.3,0.2,0.6,0.5,0.8,0.8
		C674.2,333.9,674.6,335.4,674.5,336.8z M668.6,336.8c-0.1,1.2,0.1,2.3,0.5,3.4c0.5,1,1.7,1.3,2.7,0.8c0.3-0.2,0.6-0.5,0.8-0.8
		c0.4-1.1,0.6-2.2,0.5-3.4c0.1-1.2-0.1-2.3-0.5-3.4c-0.5-1-1.7-1.3-2.7-0.8c-0.3,0.2-0.6,0.5-0.8,0.8
		C668.7,334.5,668.6,335.6,668.6,336.8z"/>
	<path class="st0" d="M683.2,336.8c0.1,1.4-0.2,2.9-0.9,4.1c-0.6,0.9-1.6,1.4-2.7,1.4c-1.1,0-2.1-0.5-2.6-1.4
		c-0.7-1.3-1-2.7-0.9-4.1c-0.1-1.4,0.2-2.9,0.9-4.1c1-1.5,3.1-1.8,4.5-0.8c0.3,0.2,0.6,0.5,0.8,0.8
		C683,333.9,683.3,335.4,683.2,336.8z M677.4,336.8c-0.1,1.2,0.1,2.3,0.5,3.4c0.5,1,1.7,1.3,2.7,0.8c0.3-0.2,0.6-0.5,0.8-0.8
		c0.4-1.1,0.6-2.2,0.5-3.4c0.1-1.2-0.1-2.3-0.5-3.4c-0.3-0.7-1-1.1-1.8-1.1c-0.7,0-1.4,0.4-1.8,1.1
		C677.5,334.5,677.3,335.6,677.4,336.8z"/>
	<path class="st0" d="M692,336.8c0.1,1.4-0.2,2.9-0.9,4.1c-0.6,0.9-1.6,1.4-2.7,1.4c-1.1,0-2.1-0.5-2.6-1.4c-0.7-1.3-1-2.7-0.9-4.1
		c-0.1-1.4,0.2-2.9,0.9-4.1c1-1.5,3.1-1.8,4.5-0.8c0.3,0.2,0.6,0.5,0.8,0.8C691.8,333.9,692.1,335.4,692,336.8z M686.2,336.8
		c-0.1,1.2,0.1,2.3,0.5,3.4c0.5,1,1.7,1.3,2.7,0.8c0.3-0.2,0.6-0.5,0.8-0.8c0.4-1.1,0.6-2.2,0.5-3.4c0.1-1.2-0.1-2.3-0.5-3.4
		c-0.3-0.7-1-1.1-1.8-1.1c-0.7,0-1.4,0.4-1.8,1.1C686.3,334.5,686.1,335.6,686.2,336.8L686.2,336.8z"/>
	<path class="st0" d="M785.8,342.2h-1.2v-7.6c0-0.6,0-1.2,0.1-1.8l-0.3,0.3l-1.7,1.4l-0.7-0.8l2.8-2.2h1L785.8,342.2z"/>
	<path class="st0" d="M796,336.8c0.1,1.4-0.2,2.9-0.9,4.1c-1,1.5-3,1.8-4.5,0.8c-0.3-0.2-0.6-0.5-0.8-0.8c-0.7-1.3-1-2.7-0.9-4.1
		c-0.1-1.4,0.2-2.9,0.9-4.1c1-1.5,3.1-1.8,4.5-0.8c0.3,0.2,0.6,0.5,0.8,0.8C795.8,334,796.1,335.4,796,336.8z M790.1,336.8
		c-0.1,1.2,0.1,2.3,0.5,3.4c0.5,1,1.7,1.3,2.7,0.8c0.3-0.2,0.6-0.5,0.8-0.8c0.4-1.1,0.6-2.2,0.5-3.4c0.1-1.2-0.1-2.3-0.5-3.4
		c-0.5-1-1.7-1.3-2.7-0.8c-0.3,0.2-0.6,0.5-0.8,0.8C790.3,334.5,790.1,335.6,790.1,336.8z"/>
	<path class="st0" d="M799.2,340.4l0.1,0.2c-0.1,0.5-0.3,1.1-0.5,1.7s-0.5,1.2-0.8,1.8h-1c0.1-0.5,0.3-1.1,0.4-1.9s0.3-1.4,0.3-1.8
		L799.2,340.4z"/>
	<path class="st0" d="M807.9,336.8c0.1,1.4-0.2,2.9-0.9,4.1c-0.6,0.9-1.6,1.4-2.7,1.4c-1.1,0-2.1-0.5-2.6-1.4
		c-0.7-1.3-1-2.7-0.9-4.1c-0.1-1.4,0.2-2.9,0.9-4.1c1-1.5,3.1-1.8,4.5-0.8c0.3,0.2,0.6,0.5,0.8,0.8
		C807.7,333.9,808,335.4,807.9,336.8z M802.1,336.8c-0.1,1.2,0.1,2.3,0.5,3.4c0.5,1,1.7,1.3,2.7,0.8c0.3-0.2,0.6-0.5,0.8-0.8
		c0.4-1.1,0.6-2.2,0.5-3.4c0.1-1.2-0.1-2.3-0.5-3.4c-0.5-1-1.7-1.3-2.7-0.8c-0.3,0.2-0.6,0.5-0.8,0.8
		C802.2,334.5,802,335.6,802.1,336.8L802.1,336.8z"/>
	<path class="st0" d="M816.7,336.8c0.1,1.4-0.2,2.9-0.9,4.1c-0.6,0.9-1.6,1.4-2.7,1.4c-1.1,0-2.1-0.5-2.6-1.4
		c-0.7-1.3-1-2.7-0.9-4.1c-0.1-1.4,0.2-2.9,0.9-4.1c1-1.5,3.1-1.8,4.5-0.8c0.3,0.2,0.6,0.5,0.8,0.8
		C816.4,333.9,816.7,335.4,816.7,336.8z M810.8,336.8c-0.1,1.2,0.1,2.3,0.5,3.4c0.5,1,1.7,1.3,2.7,0.8c0.3-0.2,0.6-0.5,0.8-0.8
		c0.4-1.1,0.6-2.2,0.5-3.4c0.1-1.2-0.1-2.3-0.5-3.4c-0.5-1-1.7-1.3-2.7-0.8c-0.3,0.2-0.6,0.5-0.8,0.8
		C810.9,334.5,810.7,335.6,810.8,336.8L810.8,336.8z"/>
	<path class="st0" d="M825.4,336.8c0.1,1.4-0.2,2.9-0.9,4.1c-0.6,0.9-1.6,1.4-2.7,1.4c-1.1,0-2.1-0.5-2.6-1.4
		c-0.7-1.3-1-2.7-0.9-4.1c-0.1-1.4,0.2-2.9,0.9-4.1c1-1.5,3.1-1.8,4.5-0.8c0.3,0.2,0.6,0.5,0.8,0.8
		C825.2,333.9,825.5,335.4,825.4,336.8z M819.6,336.8c-0.1,1.2,0.1,2.3,0.5,3.4c0.5,1,1.7,1.3,2.7,0.8c0.3-0.2,0.6-0.5,0.8-0.8
		c0.4-1.1,0.6-2.2,0.5-3.4c0.1-1.2-0.1-2.3-0.5-3.4c-0.3-0.7-1-1.1-1.8-1.1c-0.7,0-1.4,0.4-1.8,1.1
		C819.7,334.5,819.5,335.6,819.6,336.8L819.6,336.8z"/>
	<path class="st0" d="M367.1,373.3h-1.2v-9.6h-3.4v-1.1h8v1.1h-3.4V373.3z"/>
	<path class="st0" d="M372,363.1c0-0.2,0.1-0.4,0.2-0.6c0.3-0.3,0.7-0.3,1,0c0.3,0.4,0.3,0.9,0,1.2c-0.3,0.3-0.7,0.3-1,0
		C372.1,363.6,372,363.4,372,363.1z M373.3,373.3h-1.2v-8h1.2V373.3z"/>
	<path class="st0" d="M386,373.3v-5.2c0-0.5-0.1-1-0.4-1.4c-0.3-0.3-0.8-0.5-1.3-0.5c-0.6-0.1-1.2,0.2-1.7,0.6
		c-0.4,0.6-0.6,1.3-0.5,2v4.5h-1.2v-5.2c0-0.5-0.1-1-0.4-1.4c-0.3-0.3-0.8-0.5-1.3-0.5c-0.6,0-1.3,0.2-1.7,0.7
		c-0.4,0.7-0.6,1.5-0.5,2.2v4.2h-1.2v-8h1l0.2,1.1l0,0c0.2-0.4,0.6-0.7,1-0.9c0.4-0.2,0.9-0.3,1.4-0.3c1-0.1,2,0.4,2.5,1.4h0.1
		c0.2-0.4,0.6-0.8,1-1c0.5-0.3,1-0.4,1.5-0.4c0.7,0,1.5,0.2,2,0.7c0.5,0.6,0.8,1.4,0.7,2.2v5.2L386,373.3z"/>
	<path class="st0" d="M393.1,373.5c-1,0.1-2.1-0.3-2.8-1.1c-0.7-0.8-1.1-1.9-1-3c-0.1-1.1,0.3-2.2,1-3.1c0.6-0.8,1.6-1.2,2.6-1.1
		c0.9,0,1.8,0.3,2.4,1s0.9,1.7,0.9,2.6v0.8h-5.6c0,0.8,0.2,1.5,0.7,2.1c0.5,0.5,1.2,0.8,1.9,0.7c0.9,0,1.8-0.2,2.6-0.5v1.1
		c-0.4,0.2-0.8,0.3-1.2,0.4C394,373.5,393.5,373.5,393.1,373.5z M392.8,366.2c-0.6,0-1.1,0.2-1.5,0.6c-0.4,0.5-0.7,1.1-0.7,1.7h4.2
		c0-0.6-0.1-1.3-0.5-1.8C393.8,366.4,393.3,366.2,392.8,366.2L392.8,366.2z"/>
	<path class="st0" d="M401.3,369.2c0-1.2,0.2-2.5,0.6-3.6c0.3-1.1,0.9-2.1,1.6-3h1.2c-0.7,0.9-1.2,2-1.6,3.1s-0.5,2.3-0.5,3.5
		s0.2,2.3,0.5,3.4c0.4,1.1,0.9,2.1,1.6,3.1h-1.2c-0.7-0.9-1.3-1.8-1.6-2.9C401.5,371.6,401.3,370.4,401.3,369.2z"/>
	<path class="st0" d="M411.2,371.1c0,0.7-0.3,1.3-0.8,1.7c-0.7,0.4-1.5,0.7-2.4,0.6c-0.9,0-1.7-0.1-2.5-0.5v-1.1
		c0.4,0.2,0.8,0.4,1.2,0.5c0.4,0.1,0.8,0.2,1.3,0.2s1-0.1,1.5-0.3c0.4-0.2,0.6-0.6,0.5-1c0-0.3-0.2-0.6-0.4-0.8
		c-0.5-0.3-1-0.6-1.6-0.8c-0.6-0.2-1.1-0.4-1.6-0.7c-0.3-0.2-0.5-0.4-0.7-0.7c-0.2-0.3-0.2-0.6-0.2-0.9c0-0.6,0.3-1.2,0.8-1.5
		c0.7-0.4,1.4-0.6,2.2-0.6c0.9,0,1.7,0.2,2.5,0.5l-0.4,1c-0.7-0.3-1.4-0.5-2.2-0.5c-0.4,0-0.9,0.1-1.3,0.3c-0.3,0.1-0.4,0.4-0.4,0.8
		c0,0.2,0,0.4,0.2,0.5c0.1,0.2,0.3,0.3,0.5,0.4c0.5,0.2,0.9,0.4,1.4,0.6c0.7,0.2,1.4,0.6,1.9,1C411,370.2,411.2,370.6,411.2,371.1z"
		/>
	<path class="st0" d="M416.5,373.5c-1,0.1-2.1-0.3-2.8-1.1c-0.7-0.8-1.1-1.9-1-3c0-1.1,0.3-2.2,1-3.1c0.6-0.8,1.6-1.2,2.6-1.1
		c0.9,0,1.8,0.3,2.4,1s0.9,1.7,0.9,2.6v0.8H414c0,0.8,0.2,1.5,0.7,2.1c0.5,0.5,1.2,0.8,1.9,0.7c0.9,0,1.8-0.2,2.6-0.5v1.1
		c-0.4,0.2-0.8,0.3-1.2,0.4C417.5,373.5,417,373.5,416.5,373.5z M416.2,366.2c-0.6,0-1.1,0.2-1.5,0.6c-0.4,0.5-0.7,1.1-0.7,1.7h4.2
		c0-0.6-0.1-1.3-0.5-1.8C417.3,366.4,416.8,366.2,416.2,366.2L416.2,366.2z"/>
	<path class="st0" d="M424.8,373.5c-1,0.1-2-0.3-2.7-1.1c-0.7-0.9-1-1.9-1-3c-0.1-1.1,0.3-2.2,1-3.1c0.7-0.8,1.7-1.2,2.8-1.1
		c0.4,0,0.8,0,1.2,0.1c0.3,0.1,0.6,0.2,0.9,0.3l-0.4,1c-0.3-0.1-0.6-0.2-0.9-0.3c-0.3-0.1-0.6-0.1-0.9-0.1c-1.6,0-2.4,1-2.4,3.1
		c0,0.8,0.2,1.6,0.6,2.3c0.4,0.5,1.1,0.8,1.8,0.8c0.7,0,1.4-0.2,2.1-0.4v1.1C426.2,373.4,425.5,373.5,424.8,373.5z"/>
	<path class="st0" d="M435.4,369.3c0.1,1.1-0.3,2.2-1,3.1c-0.7,0.8-1.7,1.2-2.7,1.1c-0.7,0-1.3-0.2-1.9-0.5s-1-0.8-1.3-1.5
		s-0.5-1.4-0.5-2.2c-0.1-1.1,0.3-2.2,1-3.1c0.7-0.7,1.7-1.1,2.7-1.1s2,0.4,2.7,1.1C435.1,367.1,435.5,368.2,435.4,369.3z
		 M429.3,369.3c-0.1,0.8,0.2,1.7,0.6,2.4c0.9,1,2.5,1.1,3.5,0.2c0.1-0.1,0.1-0.1,0.2-0.2c0.5-0.7,0.7-1.5,0.6-2.4
		c0.1-0.8-0.2-1.6-0.6-2.3c-0.4-0.5-1.1-0.8-1.8-0.8c-0.7,0-1.4,0.2-1.8,0.8C429.5,367.7,429.3,368.5,429.3,369.3z"/>
	<path class="st0" d="M443,373.3v-5.2c0-0.5-0.1-1.1-0.5-1.5c-0.4-0.3-0.9-0.5-1.4-0.5c-0.7-0.1-1.4,0.2-1.8,0.7
		c-0.4,0.7-0.7,1.5-0.6,2.2v4.2h-1.2v-8h1l0.2,1.1h0.1c0.2-0.4,0.6-0.7,1-0.9c0.5-0.2,1-0.3,1.5-0.3c0.8-0.1,1.6,0.2,2.2,0.7
		c0.5,0.6,0.8,1.4,0.7,2.2v5.2L443,373.3z"/>
	<path class="st0" d="M452.1,372.3L452.1,372.3c-0.6,0.8-1.6,1.3-2.6,1.2c-0.9,0-1.8-0.4-2.5-1.1c-0.6-0.9-1-2-0.9-3.1
		c-0.1-1.1,0.2-2.2,0.9-3.1c0.6-0.7,1.5-1.1,2.5-1.1c1-0.1,1.9,0.4,2.5,1.2h0.1v-0.6v-0.5v-3.3h1.2v11.4h-1L452.1,372.3z
		 M449.7,372.5c0.7,0.1,1.3-0.2,1.8-0.7c0.4-0.6,0.6-1.4,0.6-2.2v-0.3c0.1-0.9-0.1-1.7-0.6-2.4c-0.5-0.5-1.1-0.8-1.8-0.7
		c-0.7,0-1.3,0.3-1.6,0.8c-0.4,0.7-0.6,1.5-0.6,2.4c-0.1,0.8,0.1,1.6,0.6,2.3C448.4,372.2,449,372.5,449.7,372.5z"/>
	<path class="st0" d="M460.9,371.1c0,0.7-0.3,1.3-0.8,1.7c-0.7,0.4-1.5,0.7-2.4,0.6c-0.9,0-1.7-0.1-2.5-0.5v-1.1
		c0.4,0.2,0.8,0.4,1.2,0.5c0.4,0.1,0.8,0.2,1.3,0.2s1-0.1,1.5-0.3c0.3-0.2,0.5-0.5,0.5-0.9c0-0.3-0.2-0.6-0.4-0.8
		c-0.5-0.3-1-0.6-1.6-0.8c-0.6-0.2-1.1-0.4-1.6-0.7c-0.3-0.2-0.5-0.4-0.7-0.7c-0.2-0.3-0.2-0.6-0.2-0.9c0-0.6,0.3-1.2,0.8-1.5
		c0.7-0.4,1.4-0.6,2.2-0.6c0.9,0,1.7,0.2,2.5,0.5l-0.4,1c-0.7-0.3-1.4-0.5-2.2-0.5c-0.4,0-0.9,0.1-1.3,0.3c-0.3,0.1-0.4,0.4-0.4,0.8
		c0,0.2,0,0.4,0.2,0.5c0.1,0.2,0.3,0.3,0.5,0.4c0.5,0.2,0.9,0.4,1.4,0.6c0.7,0.2,1.4,0.6,1.9,1C460.8,370.2,460.9,370.7,460.9,371.1
		z"/>
	<path class="st0" d="M464.9,369.2c0,1.2-0.2,2.4-0.6,3.6c-0.3,1.1-0.9,2.1-1.6,2.9h-1.2c0.7-0.9,1.2-2,1.6-3.1s0.6-2.3,0.5-3.4
		c0-1.2-0.2-2.4-0.5-3.5c-0.4-1.1-0.9-2.2-1.6-3.1h1.2c0.7,0.9,1.3,1.9,1.6,3C464.8,366.8,464.9,368,464.9,369.2z"/>
	<path class="st0" d="M470,369.9v-1.1h6.3v1.1H470z"/>
	<path class="st0" d="M488.4,370.5c0,0.9-0.3,1.7-1,2.2c-0.8,0.6-1.8,0.8-2.8,0.8c-1,0.1-2-0.1-2.9-0.5v-1.2
		c0.5,0.2,0.9,0.3,1.4,0.4s1,0.2,1.5,0.2c0.7,0,1.3-0.1,1.9-0.5c0.4-0.3,0.7-0.8,0.6-1.3c0-0.3-0.1-0.6-0.2-0.9
		c-0.2-0.3-0.4-0.5-0.8-0.7c-0.5-0.3-1-0.5-1.6-0.7c-0.8-0.2-1.5-0.7-2.1-1.3c-0.4-0.5-0.7-1.2-0.6-1.9c0-0.8,0.3-1.5,0.9-2
		c0.7-0.5,1.6-0.8,2.5-0.7c1,0,2,0.2,2.9,0.6l-0.4,1.1c-0.8-0.4-1.7-0.5-2.6-0.6c-0.5,0-1.1,0.1-1.5,0.4s-0.6,0.7-0.6,1.2
		c0,0.3,0.1,0.6,0.2,0.9c0.2,0.3,0.4,0.5,0.7,0.6c0.5,0.3,1,0.5,1.5,0.7c0.9,0.3,1.7,0.7,2.3,1.3
		C488.1,369.2,488.4,369.8,488.4,370.5z"/>
	<path class="st0" d="M495.8,373.3v-5.2c0-0.5-0.1-1.1-0.5-1.5c-0.4-0.3-0.9-0.5-1.4-0.5c-0.7-0.1-1.4,0.2-1.9,0.7
		c-0.4,0.7-0.6,1.5-0.6,2.3v4.2h-1.2v-11.4h1.2v3.5c0,0.3,0,0.7-0.1,1h0.1c0.2-0.4,0.6-0.7,1-0.9c0.5-0.2,1-0.3,1.5-0.3
		c0.8-0.1,1.6,0.2,2.2,0.7c0.5,0.6,0.8,1.4,0.7,2.2v5.2L495.8,373.3z"/>
	<path class="st0" d="M506.3,369.3c0.1,1.1-0.3,2.2-1,3.1c-0.7,0.8-1.7,1.2-2.7,1.1c-0.7,0-1.3-0.2-1.9-0.5s-1-0.9-1.3-1.5
		c-0.3-0.7-0.5-1.4-0.5-2.2c-0.1-1.1,0.3-2.2,1-3.1c0.7-0.8,1.7-1.2,2.7-1.1c1,0,2,0.4,2.7,1.1C506,367.1,506.4,368.2,506.3,369.3z
		 M500.2,369.3c-0.1,0.8,0.2,1.7,0.6,2.4c0.9,1,2.5,1.1,3.5,0.2c0.1,0,0.1-0.1,0.2-0.2c0.5-0.7,0.7-1.5,0.6-2.4
		c0.1-0.8-0.2-1.6-0.6-2.3c-0.4-0.5-1.1-0.8-1.8-0.8c-0.7,0-1.4,0.2-1.8,0.8C500.4,367.7,500.2,368.5,500.2,369.3z"/>
	<path class="st0" d="M512,365.2c0.3,0,0.7,0,1,0.1l-0.2,1.1c-0.3-0.1-0.6-0.1-0.9-0.1c-0.6,0-1.3,0.3-1.7,0.8
		c-0.5,0.6-0.7,1.3-0.7,2v4.3h-1.2v-8h1l0.1,1.5l0,0c0.3-0.5,0.6-0.9,1.1-1.2C511.1,365.4,511.6,365.2,512,365.2z"/>
	<path class="st0" d="M517.7,372.5c0.2,0,0.4,0,0.6,0c0.2,0,0.3-0.1,0.5-0.1v0.9c-0.2,0.1-0.4,0.1-0.6,0.2c-0.2,0-0.5,0.1-0.7,0.1
		c-1.5,0-2.3-0.8-2.3-2.5v-4.8H514v-0.6l1.2-0.5l0.5-1.7h0.7v1.9h2.3v0.9h-2.3v4.7c0,0.4,0.1,0.8,0.3,1.1
		C517,372.4,517.4,372.5,517.7,372.5z"/>
	<path class="st0" d="M523.7,373.5c-1,0.1-2.1-0.3-2.8-1.1c-0.7-0.8-1.1-1.9-1-3c-0.1-1.1,0.3-2.2,1-3.1c0.6-0.8,1.6-1.2,2.6-1.1
		c0.9,0,1.8,0.3,2.4,1c0.6,0.7,0.9,1.7,0.9,2.6v0.8h-5.5c0,0.8,0.2,1.5,0.7,2.1c0.5,0.5,1.2,0.8,1.9,0.7c0.9,0,1.8-0.2,2.6-0.5v1.1
		c-0.4,0.2-0.8,0.3-1.2,0.4C524.6,373.5,524.1,373.5,523.7,373.5z M523.3,366.2c-0.6,0-1.2,0.2-1.5,0.6c-0.4,0.5-0.6,1.1-0.7,1.7
		h4.2c0-0.6-0.1-1.3-0.5-1.8C524.4,366.4,523.9,366.2,523.3,366.2L523.3,366.2z"/>
	<path class="st0" d="M532.3,365.2c0.3,0,0.7,0,1,0.1l-0.2,1.1c-0.3-0.1-0.6-0.1-0.9-0.1c-0.6,0-1.3,0.3-1.7,0.8
		c-0.5,0.6-0.7,1.3-0.7,2v4.3h-1.2v-8h1l0.1,1.5l0,0c0.3-0.5,0.6-0.9,1.1-1.2C531.3,365.4,531.8,365.2,532.3,365.2z"/>
	<path class="st0" d="M538.5,363.1c0-0.2,0.1-0.4,0.2-0.6c0.1-0.1,0.3-0.2,0.5-0.2s0.4,0.1,0.5,0.2c0.3,0.4,0.3,0.9,0,1.2
		c-0.1,0.1-0.3,0.2-0.5,0.2s-0.4-0.1-0.5-0.2C538.6,363.6,538.5,363.4,538.5,363.1z M539.9,373.3h-1.2v-8h1.2V373.3z"/>
	<path class="st0" d="M547.5,371.1c0,0.7-0.3,1.3-0.8,1.7c-0.7,0.4-1.5,0.7-2.3,0.6c-0.9,0-1.7-0.1-2.5-0.5v-1.1
		c0.4,0.2,0.8,0.4,1.2,0.5s0.8,0.2,1.3,0.2s1-0.1,1.5-0.3c0.3-0.2,0.5-0.5,0.5-0.9c0-0.3-0.2-0.6-0.4-0.8c-0.5-0.3-1-0.6-1.6-0.8
		c-0.6-0.2-1.1-0.4-1.6-0.7c-0.3-0.2-0.5-0.4-0.7-0.7c-0.2-0.3-0.2-0.6-0.2-0.9c0-0.6,0.3-1.2,0.8-1.5c0.7-0.4,1.4-0.6,2.2-0.6
		c0.9,0,1.7,0.2,2.5,0.5l-0.4,1c-0.7-0.3-1.4-0.5-2.2-0.5c-0.4,0-0.9,0.1-1.3,0.3c-0.3,0.1-0.4,0.4-0.4,0.8c0,0.2,0,0.4,0.2,0.5
		c0.1,0.2,0.3,0.3,0.5,0.4c0.5,0.2,0.9,0.4,1.4,0.6c0.7,0.2,1.4,0.6,1.9,1C547.3,370.2,547.5,370.7,547.5,371.1z"/>
	<path class="st0" d="M553.5,362.6h3c1.1-0.1,2.1,0.1,3.1,0.6c0.7,0.4,1,1.2,1,2c0,0.6-0.2,1.1-0.5,1.6c-0.4,0.4-1,0.7-1.5,0.8v0.1
		c1.6,0.3,2.4,1.1,2.4,2.6c0,0.9-0.3,1.7-1,2.2c-0.8,0.6-1.7,0.9-2.7,0.8h-3.7L553.5,362.6z M554.8,367.2h2c0.7,0.1,1.3-0.1,1.9-0.4
		c0.4-0.3,0.6-0.9,0.6-1.4s-0.2-1-0.7-1.3c-0.6-0.3-1.3-0.4-2-0.4h-1.8V367.2z M554.8,368.3v4h2.2c0.7,0.1,1.4-0.1,2-0.5
		c0.5-0.4,0.7-1,0.7-1.6s-0.2-1.1-0.7-1.5c-0.6-0.3-1.3-0.5-2-0.5L554.8,368.3z"/>
	<path class="st0" d="M566.5,373.5c-1,0.1-2.1-0.3-2.8-1.1c-0.7-0.8-1.1-1.9-1-3c0-1.1,0.3-2.2,1-3.1c0.6-0.8,1.6-1.2,2.6-1.1
		c0.9,0,1.8,0.3,2.4,1c0.6,0.7,0.9,1.7,0.9,2.6v0.8H564c0,0.8,0.2,1.5,0.7,2.1c0.5,0.5,1.2,0.8,1.9,0.7c0.9,0,1.8-0.2,2.6-0.5v1.1
		c-0.4,0.2-0.8,0.3-1.2,0.4C567.4,373.5,567,373.5,566.5,373.5z M566.1,366.2c-0.6,0-1.1,0.2-1.5,0.6c-0.4,0.5-0.6,1.1-0.7,1.7h4.2
		c0-0.6-0.1-1.3-0.5-1.8C567.2,366.4,566.7,366.2,566.1,366.2L566.1,366.2z"/>
	<path class="st0" d="M574.1,372.5c0.2,0,0.4,0,0.6,0c0.2,0,0.3-0.1,0.5-0.1v0.9c-0.2,0.1-0.4,0.1-0.6,0.2c-0.2,0-0.5,0.1-0.7,0.1
		c-1.5,0-2.3-0.8-2.3-2.5v-4.8h-1.2v-0.6l1.2-0.5l0.5-1.7h0.7v1.9h2.3v0.9h-2.3v4.7c0,0.4,0.1,0.8,0.3,1.1
		C573.4,372.4,573.7,372.5,574.1,372.5z"/>
	<path class="st0" d="M579.9,372.5c0.2,0,0.4,0,0.6,0c0.2,0,0.3-0.1,0.5-0.1v0.9c-0.2,0.1-0.4,0.1-0.6,0.2c-0.2,0-0.5,0.1-0.7,0.1
		c-1.5,0-2.3-0.8-2.3-2.5v-4.8h-1.2v-0.6l1.2-0.5l0.5-1.7h0.7v1.9h2.4v0.9h-2.3v4.7c0,0.4,0.1,0.8,0.3,1.1
		C579.3,372.4,579.6,372.5,579.9,372.5z"/>
	<path class="st0" d="M585.9,373.5c-1,0.1-2.1-0.3-2.8-1.1c-0.7-0.8-1.1-1.9-1-3c0-1.1,0.3-2.2,1-3.1c0.6-0.8,1.6-1.2,2.6-1.1
		c0.9,0,1.8,0.3,2.4,1c0.6,0.7,0.9,1.7,0.9,2.6v0.8h-5.5c0,0.8,0.2,1.5,0.7,2.1c0.5,0.5,1.2,0.8,1.9,0.7c0.9,0,1.8-0.2,2.6-0.5v1.1
		c-0.4,0.2-0.8,0.3-1.2,0.4C586.8,373.5,586.3,373.5,585.9,373.5z M585.5,366.2c-0.6,0-1.1,0.2-1.5,0.6c-0.4,0.5-0.6,1.1-0.7,1.7
		h4.2c0-0.6-0.1-1.3-0.5-1.8C586.6,366.4,586.1,366.2,585.5,366.2L585.5,366.2z"/>
	<path class="st0" d="M594.5,365.2c0.3,0,0.7,0,1,0.1l-0.2,1.1c-0.3-0.1-0.6-0.1-0.9-0.1c-0.6,0-1.3,0.3-1.7,0.8
		c-0.5,0.6-0.7,1.3-0.7,2v4.3h-1.2v-8h1l0.1,1.5l0,0c0.3-0.5,0.6-0.9,1.1-1.2C593.5,365.4,594,365.2,594.5,365.2z"/>
	<rect x="154" y="19.9" class="st1" width="2.9" height="40"/>
	<rect x="156.9" y="19.9" class="st2" width="2.9" height="40"/>
	<rect x="159.8" y="19.9" class="st3" width="10.1" height="40"/>
	<rect x="165.6" y="69.9" class="st3" width="11.6" height="40"/>
	<rect x="236.3" y="119.9" class="st3" width="127.1" height="40"/>
	<rect x="278.2" y="169.9" class="st3" width="130" height="40"/>
	<rect x="425.6" y="219.9" class="st3" width="127.1" height="40"/>
	<rect x="574.3" y="269.9" class="st3" width="148.8" height="40"/>
	<polyline class="st1" points="158.3,69.9 154,69.9 154,109.9 158.3,109.9 158.3,69.9 	"/>
	<polyline class="st2" points="165.6,69.9 158.3,69.9 158.3,109.9 165.6,109.9 165.6,69.9 	"/>
	<polyline class="st1" points="178.6,119.9 154,119.9 154,159.9 178.6,159.9 178.6,119.9 	"/>
	<polyline class="st2" points="236.3,119.9 178.6,119.9 178.6,159.9 236.3,159.9 236.3,119.9 	"/>
	<polyline class="st2" points="278.2,169.9 200.2,169.9 200.2,209.9 278.2,209.9 278.2,169.9 	"/>
	<polyline class="st2" points="425.7,219.9 262.3,219.9 262.3,259.9 425.7,259.9 425.7,219.9 	"/>
	<polyline class="st2" points="574.3,269.9 331.7,269.9 331.7,309.9 574.3,309.9 574.3,269.9 	"/>
	<polyline class="st1" points="200.2,169.9 154,169.9 154,209.9 200.2,209.9 200.2,169.9 	"/>
	<line class="st4" x1="154.5" y1="320.4" x2="803.5" y2="320.4"/>
	<path class="st0" d="M37.8,293.5h-8.5v-1.3l3.4-3.4c0.7-0.7,1.4-1.4,2-2.2c0.3-0.4,0.5-0.8,0.7-1.3c0.2-0.4,0.3-0.9,0.2-1.4
		c0-0.6-0.2-1.2-0.6-1.6c-0.5-0.4-1.1-0.6-1.7-0.6c-0.5,0-1,0.1-1.5,0.3c-0.6,0.2-1.1,0.6-1.6,1l-0.8-1c1.1-0.9,2.4-1.5,3.9-1.5
		c1-0.1,2,0.3,2.8,0.9c0.7,0.6,1,1.6,1,2.5s-0.2,1.7-0.7,2.4c-0.7,1.1-1.6,2.1-2.6,3l-2.8,2.8v0.1h6.6L37.8,293.5z"/>
	<path class="st0" d="M48.1,287.1c0.1,1.7-0.2,3.5-1,5c-1.2,1.8-3.7,2.2-5.4,1c-0.4-0.3-0.7-0.6-1-1c-0.8-1.5-1.2-3.2-1.1-4.9
		c-0.1-1.7,0.2-3.5,1-5c1.3-1.7,3.7-2.1,5.4-0.9c0.4,0.3,0.7,0.6,0.9,1C47.8,283.7,48.2,285.4,48.1,287.1z M41.1,287.1
		c-0.1,1.4,0.1,2.8,0.7,4.1c0.6,1.2,2,1.6,3.2,1c0.4-0.2,0.8-0.6,1-1c0.9-2.6,0.9-5.5,0-8.1c-0.6-1.2-2-1.6-3.2-1
		c-0.4,0.2-0.8,0.6-1,1C41.3,284.3,41,285.7,41.1,287.1L41.1,287.1z"/>
	<path class="st0" d="M61,281.8c-1.3-0.1-2.5,0.4-3.4,1.4c-0.9,1.1-1.3,2.5-1.2,3.9c-0.1,1.4,0.3,2.8,1.2,3.9c0.9,1,2.1,1.5,3.4,1.4
		c1,0,2.1-0.2,3.1-0.5v1.3c-1.1,0.4-2.2,0.5-3.3,0.5c-1.6,0.1-3.2-0.5-4.4-1.7c-1.1-1.4-1.7-3.1-1.5-4.9c0-1.2,0.2-2.4,0.8-3.5
		c0.5-1,1.2-1.8,2.1-2.3c1-0.6,2.1-0.8,3.3-0.8s2.4,0.2,3.5,0.7l-0.6,1.3C63,282.1,62,281.8,61,281.8z"/>
	<path class="st0" d="M75,284.4c0.1,1.2-0.4,2.3-1.3,3c-1.1,0.8-2.5,1.1-3.8,1h-1.5v5.1h-1.5v-12.8h3.3
		C73.4,280.7,75,281.9,75,284.4z M68.3,287.2h1.3c1,0.1,2-0.1,2.9-0.6c0.6-0.5,1-1.3,0.9-2.1c0.1-0.7-0.3-1.4-0.8-1.9
		c-0.8-0.5-1.7-0.7-2.6-0.6h-1.7C68.3,282,68.3,287.2,68.3,287.2z"/>
	<path class="st0" d="M87.4,280.7v8.3c0.1,1.3-0.4,2.6-1.4,3.5s-2.3,1.3-3.7,1.2c-1.3,0.1-2.6-0.4-3.6-1.3c-0.9-0.9-1.3-2.2-1.3-3.5
		v-8.3H79v8.4c-0.1,0.9,0.3,1.8,0.9,2.5c0.7,0.6,1.6,0.9,2.6,0.9c0.9,0.1,1.8-0.2,2.5-0.9c0.6-0.7,0.9-1.6,0.9-2.5v-8.4L87.4,280.7z
		"/>
	<path class="st0" d="M105.5,293.5h-1.7l-7-10.8h-0.1c0.1,1.3,0.1,2.4,0.1,3.5v7.3h-1.4v-12.9h1.7l7,10.7h0.1c0-0.2,0-0.7-0.1-1.5
		s-0.1-1.5,0-1.8v-7.4h1.4V293.5z"/>
	<path class="st0" d="M117.1,288.7c0.1,1.3-0.3,2.6-1.2,3.7c-0.8,0.9-2,1.4-3.3,1.3c-0.8,0-1.6-0.2-2.3-0.6c-0.7-0.4-1.2-1-1.6-1.7
		c-0.4-0.8-0.6-1.7-0.5-2.7c-0.1-1.3,0.3-2.6,1.2-3.7c0.8-0.9,2-1.4,3.3-1.3c1.2-0.1,2.4,0.4,3.2,1.3
		C116.8,286.1,117.2,287.4,117.1,288.7z M109.8,288.7c-0.1,1,0.2,2,0.7,2.8c1.1,1.2,2.9,1.3,4.1,0.2c0.1-0.1,0.1-0.1,0.2-0.2
		c0.6-0.8,0.8-1.8,0.8-2.8c0.1-1-0.2-2-0.8-2.8c-0.5-0.7-1.3-1-2.2-1c-0.8-0.1-1.6,0.3-2.2,0.9C110,286.7,109.7,287.7,109.8,288.7z"
		/>
	<path class="st0" d="M126.2,292.2L126.2,292.2c-0.8,1-1.9,1.5-3.1,1.5c-1.1,0.1-2.2-0.4-2.9-1.3c-0.8-1.1-1.1-2.4-1.1-3.7
		c-0.1-1.3,0.3-2.6,1.1-3.7c1.4-1.6,3.9-1.8,5.5-0.3c0.2,0.1,0.3,0.3,0.4,0.4h0.1l-0.1-0.7v-0.7v-3.9h1.5v13.7h-1.2L126.2,292.2z
		 M123.3,292.4c0.8,0.1,1.6-0.2,2.2-0.8c0.5-0.8,0.7-1.7,0.7-2.6v-0.3c0.1-1-0.1-2-0.7-2.9c-0.5-0.6-1.3-1-2.2-0.9
		c-0.8,0-1.6,0.3-2,1c-0.5,0.9-0.7,1.8-0.7,2.8c-0.1,1,0.2,1.9,0.7,2.8C121.7,292.2,122.5,292.5,123.3,292.4L123.3,292.4z"/>
	<path class="st0" d="M134.8,293.7c-1.3,0.1-2.5-0.4-3.4-1.3c-0.9-1-1.3-2.3-1.2-3.6c-0.1-1.3,0.3-2.6,1.1-3.7
		c0.8-0.9,1.9-1.4,3.1-1.4c1.1-0.1,2.1,0.4,2.9,1.2c0.7,0.9,1.1,2,1.1,3.1v0.9h-6.6c0,0.9,0.3,1.8,0.9,2.6c0.6,0.6,1.4,0.9,2.3,0.9
		c1.1,0,2.1-0.2,3.1-0.6v1.3C136.9,293.5,135.8,293.7,134.8,293.7L134.8,293.7z M134.4,284.9c-0.7,0-1.4,0.2-1.9,0.8
		c-0.5,0.6-0.8,1.3-0.8,2.1h5c0.1-0.8-0.2-1.5-0.6-2.1C135.7,285.2,135,284.9,134.4,284.9L134.4,284.9z"/>
	<path class="st0" d="M147,290.9c0,0.8-0.3,1.6-1,2.1c-0.8,0.5-1.8,0.8-2.8,0.7c-1,0.1-2.1-0.2-3-0.6v-1.4c0.5,0.2,1,0.4,1.5,0.6
		c0.5,0.1,1,0.2,1.5,0.2c0.6,0,1.2-0.1,1.8-0.4c0.6-0.4,0.8-1.1,0.4-1.7c-0.1-0.1-0.2-0.2-0.3-0.3c-0.6-0.4-1.2-0.7-1.9-0.9
		c-0.7-0.2-1.3-0.5-1.9-0.9c-0.3-0.2-0.6-0.5-0.8-0.9c-0.2-0.3-0.3-0.7-0.3-1.1c0-0.8,0.4-1.5,1-1.9c0.8-0.5,1.7-0.7,2.6-0.7
		c1,0,2.1,0.2,3,0.6l-0.5,1.2c-0.8-0.4-1.7-0.6-2.6-0.6c-0.5,0-1.1,0.1-1.6,0.3c-0.3,0.2-0.5,0.5-0.5,0.9c0,0.2,0.1,0.5,0.2,0.7
		c0.2,0.2,0.4,0.4,0.6,0.5c0.5,0.3,1.1,0.5,1.7,0.7c0.9,0.3,1.6,0.7,2.3,1.3C146.8,289.7,147,290.3,147,290.9z"/>
	<path class="st0" d="M37.3,233.8c0,0.7-0.2,1.4-0.7,2s-1.2,0.9-2,1v0.1c0.9,0.1,1.7,0.4,2.3,1c0.5,0.6,0.8,1.3,0.7,2.1
		c0.1,1.1-0.4,2.1-1.3,2.8c-1.1,0.7-2.3,1.1-3.6,1c-0.6,0-1.3,0-1.9-0.1s-1.1-0.3-1.6-0.5v-1.4c0.6,0.3,1.2,0.5,1.8,0.6
		c0.6,0.1,1.2,0.2,1.8,0.2c2.2,0,3.3-0.9,3.3-2.6c0-1.5-1.2-2.3-3.7-2.3h-1.2v-1.3h1.3c0.8,0,1.7-0.2,2.4-0.7
		c0.6-0.4,0.9-1.1,0.9-1.9c0-0.6-0.2-1.1-0.7-1.5s-1.1-0.6-1.8-0.5c-0.5,0-1.1,0.1-1.6,0.2c-0.6,0.2-1.2,0.5-1.7,0.8l-0.7-1
		c0.5-0.4,1.2-0.8,1.8-1c0.7-0.2,1.4-0.4,2.2-0.4c1-0.1,2.1,0.2,2.9,0.9C36.9,232,37.3,232.9,37.3,233.8z"/>
	<path class="st0" d="M48.1,237.2c0.1,1.7-0.2,3.5-1,5c-1.2,1.8-3.7,2.2-5.4,1c-0.4-0.3-0.7-0.6-1-1c-0.8-1.5-1.2-3.3-1.1-5
		c-0.1-1.7,0.2-3.5,1-5c1.3-1.7,3.7-2.1,5.4-0.9c0.4,0.3,0.7,0.6,0.9,1C47.8,233.8,48.2,235.5,48.1,237.2z M41.1,237.2
		c-0.1,1.4,0.1,2.8,0.7,4.1c0.6,1.2,2,1.6,3.2,1c0.4-0.2,0.8-0.6,1-1.1c0.9-2.6,0.9-5.5,0-8.1c-0.6-1.2-2-1.6-3.2-1
		c-0.4,0.2-0.8,0.6-1,1C41.3,234.4,41,235.8,41.1,237.2L41.1,237.2z"/>
	<path class="st0" d="M61,231.9c-1.3-0.1-2.5,0.5-3.3,1.4c-0.9,1.1-1.3,2.5-1.3,3.9c-0.1,1.4,0.3,2.8,1.2,3.9
		c0.9,0.9,2.1,1.4,3.4,1.4c1,0,2.1-0.2,3.1-0.5v1.3c-1.1,0.4-2.2,0.5-3.3,0.5c-1.6,0.1-3.2-0.5-4.4-1.7c-1.1-1.4-1.7-3.1-1.6-4.9
		c0-1.2,0.2-2.4,0.8-3.5c0.5-1,1.2-1.8,2.1-2.3c1-0.6,2.1-0.8,3.3-0.8s2.4,0.2,3.5,0.7l-0.6,1.3C63,232.2,62,231.9,61,231.9z"/>
	<path class="st0" d="M75,234.5c0.1,1.2-0.4,2.3-1.3,3c-1.1,0.8-2.5,1.1-3.8,1h-1.5v5.1h-1.5v-12.8h3.3C73.4,230.7,75,232,75,234.5z
		 M68.3,237.3h1.3c1,0.1,2-0.1,2.9-0.6c0.6-0.5,1-1.3,0.9-2.1c0.1-0.7-0.3-1.4-0.8-1.9c-0.8-0.5-1.7-0.7-2.6-0.6h-1.7L68.3,237.3z"
		/>
	<path class="st0" d="M87.4,230.7v8.3c0.1,1.3-0.4,2.6-1.4,3.5s-2.3,1.3-3.7,1.2c-1.3,0.1-2.6-0.4-3.6-1.3c-0.9-0.9-1.3-2.2-1.3-3.5
		v-8.3H79v8.4c-0.1,0.9,0.3,1.8,0.9,2.5c0.7,0.6,1.6,0.9,2.6,0.9c0.9,0.1,1.8-0.2,2.5-0.9c0.6-0.7,0.9-1.6,0.9-2.5v-8.4L87.4,230.7
		L87.4,230.7z"/>
	<path class="st0" d="M105.5,243.6h-1.7l-7-10.8h-0.1c0.1,1.3,0.1,2.4,0.1,3.5v7.3h-1.4v-12.9h1.7l7,10.7h0.1c0-0.2,0-0.7-0.1-1.5
		s-0.1-1.5,0-1.8v-7.4h1.4V243.6z"/>
	<path class="st0" d="M117.1,238.8c0.1,1.3-0.3,2.6-1.2,3.7c-0.8,0.9-2,1.4-3.3,1.3c-0.8,0-1.6-0.2-2.3-0.6c-0.7-0.4-1.2-1-1.6-1.7
		c-0.4-0.8-0.6-1.7-0.5-2.7c-0.1-1.3,0.3-2.6,1.2-3.7c0.8-0.9,2-1.4,3.3-1.3c1.2-0.1,2.4,0.4,3.2,1.3
		C116.8,236.2,117.2,237.5,117.1,238.8z M109.8,238.8c-0.1,1,0.2,2,0.7,2.8c0.5,0.7,1.3,1,2.2,1c0.8,0,1.7-0.3,2.2-1
		c0.6-0.8,0.8-1.8,0.8-2.8c0.1-1-0.2-2-0.8-2.8c-0.5-0.7-1.3-1-2.2-1c-0.8-0.1-1.6,0.3-2.2,0.9C110,236.8,109.7,237.8,109.8,238.8z"
		/>
	<path class="st0" d="M126.2,242.3L126.2,242.3c-0.8,1-1.9,1.5-3.1,1.5c-1.1,0.1-2.2-0.4-2.9-1.3c-0.8-1.1-1.1-2.4-1.1-3.7
		c-0.1-1.3,0.3-2.6,1.1-3.7c1.4-1.6,3.9-1.8,5.5-0.3c0.2,0.1,0.3,0.3,0.4,0.4h0.1l-0.1-0.7v-0.7v-3.9h1.5v13.7h-1.2L126.2,242.3z
		 M123.3,242.5c0.8,0.1,1.6-0.2,2.2-0.8c0.5-0.8,0.7-1.7,0.7-2.6v-0.3c0.1-1-0.1-2.1-0.7-2.9c-0.5-0.6-1.3-0.9-2.2-0.9
		c-0.8,0-1.6,0.3-2,1c-0.5,0.8-0.7,1.8-0.7,2.8c-0.1,1,0.2,2,0.7,2.8C121.8,242.3,122.5,242.6,123.3,242.5L123.3,242.5z"/>
	<path class="st0" d="M134.8,243.8c-1.3,0.1-2.5-0.4-3.4-1.3c-0.9-1-1.3-2.3-1.2-3.6c-0.1-1.3,0.3-2.6,1.1-3.7
		c0.8-0.9,1.9-1.4,3.1-1.4c1.1-0.1,2.1,0.4,2.9,1.2c0.7,0.9,1.1,2,1.1,3.1v0.9h-6.6c0,0.9,0.3,1.9,0.9,2.6c0.6,0.6,1.4,0.9,2.3,0.9
		c1.1,0,2.1-0.2,3.1-0.6v1.3c-0.5,0.2-1,0.4-1.5,0.5C135.9,243.8,135.3,243.8,134.8,243.8z M134.4,235c-0.7,0-1.4,0.2-1.9,0.8
		s-0.8,1.3-0.8,2.1h5c0.1-0.8-0.2-1.5-0.6-2.1C135.7,235.3,135,235,134.4,235L134.4,235z"/>
	<path class="st0" d="M147,241c0,0.8-0.3,1.6-1,2.1c-0.8,0.5-1.8,0.8-2.8,0.7c-1,0.1-2.1-0.2-3-0.6v-1.4c0.5,0.2,1,0.4,1.5,0.6
		c0.5,0.1,1,0.2,1.5,0.2c0.6,0,1.2-0.1,1.8-0.4c0.4-0.2,0.6-0.7,0.6-1.1s-0.2-0.8-0.5-1c-0.6-0.4-1.2-0.7-1.9-0.9s-1.3-0.5-1.9-0.9
		c-0.3-0.2-0.6-0.5-0.8-0.9c-0.2-0.3-0.3-0.7-0.3-1.1c0-0.8,0.4-1.5,1-1.9c0.8-0.5,1.7-0.7,2.6-0.7c1,0,2.1,0.2,3,0.6l-0.5,1.2
		c-0.8-0.4-1.7-0.6-2.6-0.6c-0.5,0-1.1,0.1-1.6,0.3c-0.3,0.2-0.5,0.5-0.5,0.9c0,0.2,0.1,0.5,0.2,0.7c0.2,0.2,0.4,0.4,0.6,0.5
		c0.5,0.3,1.1,0.5,1.7,0.7c0.9,0.3,1.6,0.7,2.3,1.3C146.8,239.8,147,240.4,147,241z"/>
	<polyline class="st1" points="262.3,219.9 154,219.9 154,259.9 262.3,259.9 262.3,219.9 	"/>
	<polyline class="st1" points="331.7,269.9 154,269.9 154,309.9 331.7,309.9 331.7,269.9 	"/>
	<path class="st0" d="M190.9,421.8c0.1,1.5-0.4,3-1.4,4.1c-1.1,1-2.6,1.5-4.1,1.4h-3v-10.7h3.3c1.4-0.1,2.8,0.4,3.9,1.4
		C190.4,419,190.9,420.4,190.9,421.8z M189.5,421.8c0.1-1.2-0.3-2.3-1.1-3.2c-0.9-0.8-2-1.1-3.1-1.1h-1.8v8.6h1.5
		c1.2,0.1,2.4-0.3,3.4-1.1C189.2,424.2,189.6,423,189.5,421.8L189.5,421.8z"/>
	<path class="st0" d="M197.9,427.3l-0.2-1.1h-0.1c-0.3,0.4-0.7,0.8-1.2,1s-1,0.3-1.5,0.3c-0.7,0-1.3-0.2-1.9-0.6
		c-0.5-0.5-0.7-1.1-0.7-1.8c0-1.6,1.3-2.5,3.9-2.5h1.4v-0.5c0-0.5-0.1-1-0.4-1.4c-0.3-0.3-0.8-0.5-1.3-0.5c-0.8,0-1.6,0.2-2.3,0.6
		l-0.4-0.9c0.4-0.2,0.8-0.4,1.3-0.5s0.9-0.2,1.4-0.2c0.8-0.1,1.5,0.2,2.1,0.6c0.5,0.5,0.7,1.3,0.7,2v5.5H197.9z M195.1,426.4
		c0.7,0,1.3-0.2,1.8-0.6c0.4-0.5,0.7-1.1,0.6-1.7v-0.7l-1.2,0.1c-0.7,0-1.4,0.1-2.1,0.5c-0.4,0.3-0.7,0.7-0.6,1.2
		c0,0.4,0.1,0.7,0.4,1C194.3,426.3,194.7,426.4,195.1,426.4z"/>
	<path class="st0" d="M203.9,426.4c0.2,0,0.4,0,0.6,0l0.5-0.1v0.9c-0.2,0.1-0.4,0.1-0.6,0.2c-0.2,0-0.5,0.1-0.7,0.1
		c-1.6,0-2.3-0.8-2.3-2.5v-4.8h-1.1v-0.6l1.1-0.5l0.5-1.7h0.7v1.8h2.3v1h-2.3v4.7c0,0.4,0.1,0.8,0.4,1.1
		C203.2,426.3,203.5,426.4,203.9,426.4z"/>
	<path class="st0" d="M211.7,427.3l-0.2-1.1h-0.1c-0.3,0.4-0.7,0.8-1.2,1s-1,0.3-1.5,0.3c-0.7,0-1.3-0.2-1.9-0.6
		c-0.5-0.5-0.7-1.1-0.7-1.8c0-1.6,1.3-2.5,3.9-2.5h1.4v-0.5c0-0.5-0.1-1-0.4-1.4c-0.3-0.3-0.8-0.5-1.3-0.5c-0.8,0-1.6,0.2-2.3,0.6
		l-0.4-0.9c0.4-0.2,0.8-0.4,1.3-0.5s0.9-0.2,1.4-0.2c0.8-0.1,1.5,0.2,2.1,0.6c0.5,0.5,0.8,1.3,0.7,2v5.5H211.7z M209,426.4
		c0.7,0,1.3-0.2,1.8-0.6c0.5-0.5,0.7-1.1,0.6-1.7v-0.7l-1.2,0.1c-0.7,0-1.4,0.1-2.1,0.5c-0.4,0.3-0.7,0.7-0.6,1.2
		c0,0.4,0.1,0.7,0.4,1C208.2,426.3,208.6,426.4,209,426.4z"/>
	<path class="st0" d="M219.2,427.3v-10.7h1.2v9.6h4.7v1.1H219.2z"/>
	<path class="st0" d="M233.7,423.2c0.1,1.1-0.3,2.2-1,3.1c-0.7,0.8-1.7,1.2-2.7,1.1c-0.7,0-1.3-0.2-1.9-0.5c-0.6-0.3-1-0.8-1.3-1.5
		s-0.5-1.4-0.4-2.2c-0.1-1.1,0.3-2.2,1-3.1c0.7-0.7,1.7-1.1,2.7-1.1s2,0.4,2.7,1.1C233.4,421,233.7,422.1,233.7,423.2z M227.6,423.2
		c-0.1,0.8,0.2,1.6,0.6,2.3c0.9,1,2.4,1.1,3.4,0.2c0.1-0.1,0.1-0.1,0.2-0.2c0.5-0.7,0.7-1.5,0.6-2.4c0.1-0.8-0.2-1.6-0.6-2.3
		c-0.4-0.5-1.1-0.8-1.8-0.8s-1.4,0.2-1.8,0.8C227.7,421.5,227.5,422.4,227.6,423.2z"/>
	<path class="st0" d="M240.7,427.3l-0.2-1.1h-0.1c-0.3,0.4-0.7,0.8-1.2,1s-1,0.3-1.5,0.3c-0.7,0-1.3-0.2-1.9-0.6
		c-0.5-0.5-0.7-1.1-0.7-1.8c0-1.6,1.3-2.5,3.9-2.5h1.4v-0.5c0-0.5-0.1-1-0.4-1.4c-0.3-0.3-0.8-0.5-1.3-0.5c-0.8,0-1.6,0.2-2.3,0.6
		l-0.4-0.9c0.4-0.2,0.8-0.4,1.3-0.5s0.9-0.2,1.4-0.2c0.8-0.1,1.5,0.2,2.1,0.6c0.5,0.5,0.7,1.3,0.7,2v5.5H240.7z M238,426.4
		c0.7,0,1.3-0.2,1.8-0.6c0.4-0.5,0.7-1.1,0.6-1.7v-0.7l-1.2,0.1c-0.7,0-1.4,0.1-2.1,0.5c-0.4,0.3-0.7,0.7-0.6,1.2
		c0,0.4,0.1,0.7,0.4,1C237.2,426.3,237.6,426.4,238,426.4z"/>
	<path class="st0" d="M249.6,426.2L249.6,426.2c-0.6,0.8-1.6,1.3-2.6,1.2c-0.9,0-1.8-0.4-2.4-1.1c-0.6-0.9-1-2-0.9-3.1
		c-0.1-1.1,0.2-2.2,0.9-3.1c0.6-0.7,1.5-1.1,2.4-1.1c1-0.1,1.9,0.4,2.5,1.2h0.1l-0.1-0.6V419v-3.3h1.2v11.4h-1L249.6,426.2z
		 M247.1,426.4c0.7,0.1,1.3-0.2,1.8-0.7c0.4-0.6,0.6-1.4,0.6-2.2v-0.3c0.1-0.9-0.1-1.7-0.6-2.4c-0.5-0.5-1.1-0.8-1.8-0.7
		c-0.7,0-1.3,0.3-1.6,0.8c-0.4,0.7-0.6,1.5-0.6,2.3c-0.1,0.8,0.1,1.6,0.6,2.3C245.9,426.1,246.5,426.4,247.1,426.4L247.1,426.4z"/>
	<path class="st0" d="M260.7,421.5h3v1h-3v3.1h-1v-3.1h-3v-1h3v-3.1h1V421.5z"/>
	<path class="st0" d="M271.1,427.3h-1.2v-10.7h6v1.1h-4.8v3.9h4.4v1.1h-4.4V427.3z"/>
	<path class="st0" d="M281,427.4c-1,0.1-2.1-0.3-2.8-1.1c-0.7-0.8-1.1-1.9-1-3c0-1.1,0.3-2.2,1-3.1c0.6-0.8,1.6-1.2,2.6-1.1
		c0.9,0,1.8,0.3,2.4,1s0.9,1.7,0.9,2.6v0.8h-5.5c0,0.8,0.2,1.5,0.7,2.1c0.5,0.5,1.2,0.8,1.9,0.7c0.9,0,1.8-0.2,2.6-0.5v1.1
		C282.9,427.3,282,427.5,281,427.4L281,427.4z M280.7,420.1c-0.6,0-1.1,0.2-1.5,0.6c-0.4,0.5-0.7,1.1-0.7,1.7h4.2
		c0-0.6-0.1-1.3-0.5-1.8C281.8,420.3,281.2,420.1,280.7,420.1L280.7,420.1z"/>
	<path class="st0" d="M290.8,427.3l-0.2-1.1h-0.1c-0.3,0.4-0.7,0.8-1.2,1s-1,0.3-1.5,0.3c-0.7,0-1.3-0.2-1.9-0.6
		c-0.5-0.5-0.7-1.1-0.7-1.8c0-1.6,1.3-2.5,3.9-2.5h1.4v-0.5c0-0.5-0.1-1-0.4-1.4c-0.3-0.3-0.8-0.5-1.3-0.5c-0.8,0-1.6,0.2-2.3,0.6
		l-0.4-0.9c0.4-0.2,0.8-0.4,1.3-0.5s0.9-0.2,1.4-0.2c0.8-0.1,1.5,0.2,2.1,0.6c0.5,0.5,0.7,1.3,0.7,2v5.5H290.8z M288.1,426.4
		c0.7,0,1.3-0.2,1.8-0.6c0.5-0.5,0.7-1.1,0.6-1.7v-0.7l-1.2,0.1c-0.7,0-1.4,0.1-2.1,0.5c-0.4,0.3-0.7,0.7-0.6,1.2
		c0,0.4,0.1,0.7,0.4,1C287.3,426.3,287.7,426.4,288.1,426.4z"/>
	<path class="st0" d="M296.8,426.4c0.2,0,0.4,0,0.6,0l0.5-0.1v0.9c-0.2,0.1-0.4,0.1-0.6,0.2c-0.2,0-0.5,0.1-0.7,0.1
		c-1.6,0-2.3-0.8-2.3-2.5v-4.8h-1.1v-0.6l1.1-0.5l0.5-1.7h0.7v1.8h2.3v1h-2.3v4.7c0,0.4,0.1,0.8,0.4,1.1
		C296.1,426.3,296.4,426.4,296.8,426.4z"/>
	<path class="st0" d="M300.7,419.2v5.2c0,0.5,0.1,1.1,0.5,1.5s0.9,0.5,1.4,0.5c0.7,0.1,1.4-0.2,1.8-0.7c0.4-0.7,0.7-1.5,0.6-2.2
		v-4.3h1.2v8h-1l-0.2-1h-0.1c-0.2,0.4-0.6,0.7-1,0.9c-0.5,0.2-1,0.3-1.5,0.3c-0.8,0.1-1.6-0.2-2.2-0.7c-0.5-0.6-0.8-1.4-0.7-2.2
		v-5.3L300.7,419.2L300.7,419.2z"/>
	<path class="st0" d="M312.3,419.1c0.3,0,0.7,0,1,0.1l-0.2,1.1c-0.3-0.1-0.6-0.1-0.9-0.1c-0.6,0-1.3,0.3-1.7,0.8
		c-0.5,0.6-0.7,1.3-0.7,2v4.3h-1.2v-8h1l0.1,1.5h0.1c0.3-0.5,0.6-0.9,1.1-1.2C311.3,419.3,311.8,419.1,312.3,419.1z"/>
	<path class="st0" d="M318,427.4c-1,0.1-2.1-0.3-2.8-1.1c-0.7-0.8-1.1-1.9-1-3c0-1.1,0.3-2.2,1-3.1c0.6-0.8,1.6-1.2,2.6-1.1
		c0.9,0,1.8,0.3,2.4,1s0.9,1.7,0.9,2.6v0.8h-5.6c0,0.8,0.2,1.5,0.7,2.1c0.5,0.5,1.2,0.8,1.9,0.7c0.9,0,1.8-0.2,2.6-0.5v1.1
		c-0.4,0.2-0.8,0.3-1.2,0.4C318.9,427.4,318.5,427.4,318,427.4z M317.7,420.1c-0.6,0-1.1,0.2-1.5,0.6c-0.4,0.5-0.6,1.1-0.7,1.7h4.2
		c0-0.6-0.1-1.3-0.5-1.8C318.8,420.3,318.2,420.1,317.7,420.1L317.7,420.1z"/>
	<path class="st0" d="M333.1,427.3h-6v-10.7h6v1.1h-4.7v3.5h4.4v1.1h-4.4v4h4.7V427.3z"/>
	<path class="st0" d="M340.5,427.3v-5.2c0-0.5-0.1-1.1-0.5-1.5c-0.4-0.3-0.9-0.5-1.4-0.5c-0.7-0.1-1.4,0.2-1.8,0.7
		c-0.4,0.7-0.7,1.5-0.6,2.2v4.2H335v-8h1l0.2,1.1h0.1c0.3-0.4,0.6-0.7,1-0.9c0.5-0.2,1-0.3,1.5-0.3c0.8-0.1,1.6,0.2,2.2,0.7
		c0.5,0.6,0.8,1.4,0.7,2.2v5.2L340.5,427.3z"/>
	<path class="st0" d="M350.7,419.2v0.8l-1.5,0.2c0.2,0.2,0.3,0.4,0.4,0.7c0.1,0.3,0.2,0.6,0.2,0.9c0,0.7-0.3,1.4-0.8,1.9
		c-0.6,0.5-1.4,0.7-2.2,0.7c-0.2,0-0.5,0-0.7-0.1c-0.4,0.2-0.7,0.5-0.8,1c0,0.2,0.1,0.4,0.3,0.5c0.3,0.1,0.6,0.2,0.9,0.2h1.4
		c0.7,0,1.4,0.1,2,0.5c0.5,0.4,0.7,1,0.7,1.6c0,0.8-0.4,1.6-1.1,2c-1,0.5-2,0.8-3.1,0.7c-0.8,0.1-1.7-0.2-2.4-0.6
		c-0.6-0.4-0.9-1-0.9-1.7c0-0.5,0.2-0.9,0.5-1.3s0.8-0.6,1.3-0.7c-0.2-0.1-0.4-0.2-0.5-0.4c-0.1-0.2-0.2-0.4-0.2-0.7
		c0-0.3,0.1-0.5,0.2-0.8c0.2-0.3,0.5-0.5,0.7-0.6c-0.4-0.2-0.8-0.5-1-0.9c-0.3-0.4-0.4-0.9-0.4-1.4c0-0.7,0.3-1.5,0.8-2
		c0.6-0.5,1.4-0.8,2.2-0.7c0.4,0,0.8,0,1.1,0.1L350.7,419.2z M344.3,428.6c0,0.4,0.2,0.8,0.5,1c0.5,0.3,1,0.4,1.6,0.3
		c0.8,0,1.6-0.1,2.3-0.5c0.5-0.2,0.7-0.7,0.7-1.2c0-0.4-0.1-0.7-0.4-0.9c-0.5-0.2-1-0.3-1.5-0.2H346c-0.5,0-0.9,0.1-1.3,0.4
		C344.4,427.7,344.3,428.2,344.3,428.6L344.3,428.6z M345,421.8c0,0.5,0.1,0.9,0.5,1.3c0.4,0.3,0.8,0.5,1.3,0.4
		c0.8,0.1,1.6-0.4,1.8-1.3c0-0.1,0-0.3,0-0.4c0.1-0.9-0.5-1.7-1.4-1.8c-0.1,0-0.3,0-0.4,0c-0.5,0-1,0.1-1.3,0.5
		C345.1,420.8,344.9,421.3,345,421.8L345,421.8z"/>
	<path class="st0" d="M352.3,417.1c0-0.2,0.1-0.4,0.2-0.6c0.3-0.3,0.7-0.3,1,0c0.3,0.4,0.3,0.9,0,1.2c-0.3,0.3-0.7,0.3-1,0
		C352.3,417.5,352.2,417.3,352.3,417.1z M353.6,427.3h-1.2v-8h1.2V427.3z"/>
	<path class="st0" d="M361.5,427.3v-5.2c0-0.5-0.1-1.1-0.5-1.5c-0.4-0.3-0.9-0.5-1.4-0.5c-0.7-0.1-1.4,0.2-1.8,0.7
		c-0.5,0.7-0.7,1.5-0.6,2.2v4.2H356v-8h1l0.2,1.1h0.1c0.3-0.4,0.6-0.7,1-0.9c0.5-0.2,1-0.3,1.5-0.3c0.8-0.1,1.6,0.2,2.2,0.7
		c0.5,0.6,0.8,1.4,0.7,2.2v5.2L361.5,427.3z"/>
	<path class="st0" d="M368.6,427.4c-1,0.1-2.1-0.3-2.8-1.1c-0.7-0.8-1.1-1.9-1-3c-0.1-1.1,0.3-2.2,1-3.1c0.6-0.8,1.6-1.2,2.6-1.1
		c0.9,0,1.8,0.3,2.4,1s0.9,1.7,0.9,2.6v0.8H366c0,0.8,0.2,1.5,0.7,2.1c0.5,0.5,1.2,0.8,1.9,0.7c0.9,0,1.8-0.2,2.6-0.5v1.1
		c-0.4,0.2-0.8,0.3-1.2,0.4C369.5,427.4,369,427.4,368.6,427.4z M368.2,420.1c-0.6,0-1.1,0.2-1.5,0.6c-0.4,0.5-0.6,1.1-0.7,1.7h4.2
		c0-0.6-0.1-1.3-0.5-1.8C369.3,420.3,368.8,420.1,368.2,420.1z"/>
	<path class="st0" d="M377,427.4c-1,0.1-2.1-0.3-2.8-1.1c-0.7-0.8-1.1-1.9-1-3c0-1.1,0.3-2.2,1-3.1c0.6-0.8,1.6-1.2,2.6-1.1
		c0.9,0,1.8,0.3,2.4,1s0.9,1.7,0.9,2.6v0.8h-5.5c0,0.8,0.2,1.5,0.7,2.1c0.5,0.5,1.2,0.8,1.9,0.7c0.9,0,1.8-0.2,2.6-0.5v1.1
		C378.9,427.3,378,427.5,377,427.4L377,427.4z M376.7,420.1c-0.6,0-1.1,0.2-1.5,0.6c-0.4,0.5-0.6,1.1-0.7,1.7h4.2
		c0-0.6-0.1-1.3-0.5-1.8C377.8,420.3,377.2,420.1,376.7,420.1L376.7,420.1z"/>
	<path class="st0" d="M385.6,419.1c0.3,0,0.7,0,1,0.1l-0.2,1.1c-0.3-0.1-0.6-0.1-0.9-0.1c-0.6,0-1.3,0.3-1.7,0.8
		c-0.5,0.6-0.7,1.3-0.7,2v4.3H382v-8h1l0.1,1.5h0.1c0.3-0.5,0.6-0.9,1.1-1.2C384.7,419.3,385.1,419.1,385.6,419.1z"/>
	<path class="st0" d="M388.1,417.1c0-0.2,0.1-0.4,0.2-0.6c0.1-0.1,0.3-0.2,0.5-0.2s0.4,0.1,0.5,0.2c0.3,0.4,0.3,0.9,0,1.2
		c-0.1,0.1-0.3,0.2-0.5,0.2s-0.4-0.1-0.5-0.2C388.1,417.5,388,417.3,388.1,417.1z M389.4,427.3h-1.2v-8h1.2V427.3z"/>
	<path class="st0" d="M397.3,427.3v-5.2c0-0.5-0.1-1.1-0.5-1.5c-0.4-0.3-0.9-0.5-1.4-0.5c-0.7-0.1-1.4,0.2-1.9,0.7
		c-0.4,0.7-0.7,1.5-0.6,2.2v4.2h-1.2v-8h1l0.2,1.1h0.1c0.3-0.4,0.6-0.7,1-0.9c0.5-0.2,1-0.3,1.5-0.3c0.8-0.1,1.6,0.2,2.2,0.7
		c0.5,0.6,0.8,1.4,0.7,2.2v5.2L397.3,427.3z"/>
	<path class="st0" d="M407.5,419.2v0.8l-1.5,0.2c0.2,0.2,0.3,0.4,0.4,0.7c0.1,0.3,0.2,0.6,0.2,0.9c0,0.7-0.3,1.4-0.8,1.9
		c-0.6,0.5-1.4,0.7-2.2,0.7c-0.2,0-0.5,0-0.7-0.1c-0.4,0.2-0.7,0.5-0.8,1c0,0.2,0.1,0.4,0.3,0.5c0.3,0.1,0.6,0.2,0.9,0.2h1.4
		c0.7,0,1.4,0.1,2,0.5c0.5,0.4,0.7,1,0.7,1.6c0,0.8-0.4,1.6-1.1,2c-1,0.5-2,0.8-3.1,0.7c-0.9,0-1.7-0.2-2.4-0.6
		c-0.6-0.4-0.9-1-0.9-1.7c0-0.5,0.2-0.9,0.5-1.3s0.8-0.6,1.3-0.7c-0.2-0.1-0.4-0.2-0.5-0.4c-0.1-0.2-0.2-0.4-0.2-0.7
		c0-0.3,0.1-0.5,0.2-0.8c0.2-0.3,0.5-0.5,0.7-0.6c-0.4-0.2-0.8-0.5-1-0.9c-0.6-1.1-0.5-2.5,0.4-3.4c0.6-0.5,1.4-0.8,2.2-0.7
		c0.4,0,0.8,0,1.1,0.1L407.5,419.2z M401.1,428.6c0,0.4,0.2,0.8,0.5,1c0.5,0.3,1,0.4,1.6,0.3c0.8,0,1.6-0.1,2.3-0.5
		c0.5-0.2,0.7-0.7,0.7-1.2c0-0.4-0.1-0.7-0.4-0.9c-0.5-0.2-1-0.3-1.5-0.2h-1.5c-0.5,0-0.9,0.1-1.3,0.4
		C401.2,427.7,401.1,428.2,401.1,428.6L401.1,428.6z M401.8,421.8c0,0.5,0.1,0.9,0.5,1.3c0.4,0.3,0.8,0.5,1.3,0.4
		c0.8,0.1,1.6-0.4,1.8-1.3c0-0.1,0-0.3,0-0.4c0.1-0.9-0.5-1.7-1.4-1.8c-0.1,0-0.3,0-0.4,0c-0.5,0-1,0.1-1.3,0.5
		C401.9,420.8,401.7,421.3,401.8,421.8L401.8,421.8z"/>
	<rect x="155" y="412.9" class="st1" width="20" height="20"/>
	<path class="st0" d="M473.5,421.8c0.1,1.5-0.4,3-1.4,4.1c-1.1,1-2.6,1.5-4.1,1.4h-3v-10.7h3.3c1.4-0.1,2.8,0.4,3.9,1.4
		C473,419,473.6,420.4,473.5,421.8z M472.2,421.8c0.1-1.2-0.3-2.3-1-3.2c-0.9-0.8-2-1.1-3.1-1.1h-1.8v8.6h1.5
		c1.2,0.1,2.4-0.3,3.4-1.1C471.9,424.2,472.3,423,472.2,421.8L472.2,421.8z"/>
	<path class="st0" d="M480.5,427.3l-0.2-1.1l0,0c-0.3,0.4-0.7,0.8-1.2,1s-1,0.3-1.5,0.3c-0.7,0-1.3-0.2-1.9-0.6
		c-0.5-0.5-0.7-1.1-0.7-1.8c0-1.6,1.3-2.5,3.9-2.5h1.4v-0.5c0-0.5-0.1-1-0.4-1.4c-0.3-0.3-0.8-0.5-1.3-0.5c-0.8,0-1.6,0.2-2.3,0.6
		l-0.4-0.9c0.4-0.2,0.8-0.4,1.3-0.5s0.9-0.2,1.4-0.2c0.8-0.1,1.5,0.2,2.1,0.6c0.5,0.5,0.7,1.3,0.7,2v5.5H480.5z M477.7,426.4
		c0.7,0,1.3-0.2,1.8-0.6c0.5-0.5,0.7-1.1,0.6-1.7v-0.7l-1.2,0.1c-0.7,0-1.4,0.1-2.1,0.5c-0.4,0.3-0.7,0.7-0.6,1.2
		c0,0.4,0.1,0.7,0.4,1C476.9,426.3,477.3,426.4,477.7,426.4z"/>
	<path class="st0" d="M486.5,426.4c0.2,0,0.4,0,0.6,0l0.5-0.1v0.9c-0.2,0.1-0.4,0.1-0.6,0.2c-0.2,0-0.5,0.1-0.7,0.1
		c-1.5,0-2.3-0.8-2.3-2.5v-4.8h-1.1v-0.6l1.1-0.5l0.5-1.7h0.7v1.8h2.3v1h-2.3v4.7c0,0.4,0.1,0.8,0.3,1.1
		C485.8,426.3,486.1,426.4,486.5,426.4z"/>
	<path class="st0" d="M494.4,427.3l-0.2-1.1h-0.1c-0.3,0.4-0.7,0.8-1.2,1s-1,0.3-1.5,0.3c-0.7,0-1.3-0.2-1.9-0.6
		c-0.5-0.5-0.7-1.1-0.7-1.8c0-1.6,1.3-2.5,3.9-2.5h1.4v-0.5c0-0.5-0.1-1-0.4-1.4c-0.3-0.3-0.8-0.5-1.3-0.5c-0.8,0-1.6,0.2-2.3,0.6
		l-0.4-0.9c0.4-0.2,0.8-0.4,1.3-0.5s0.9-0.2,1.4-0.2c0.8-0.1,1.5,0.2,2.1,0.6c0.5,0.5,0.7,1.3,0.7,2v5.5H494.4z M491.6,426.4
		c0.7,0,1.3-0.2,1.8-0.6c0.5-0.5,0.7-1.1,0.6-1.7v-0.7l-1.2,0.1c-0.7,0-1.4,0.1-2.1,0.5c-0.4,0.3-0.7,0.7-0.6,1.2
		c0,0.4,0.1,0.7,0.4,1C490.8,426.3,491.2,426.4,491.6,426.4L491.6,426.4z"/>
	<path class="st0" d="M506.4,417.5c-1.1,0-2.1,0.4-2.8,1.2c-0.7,0.9-1.1,2.1-1,3.2c-0.1,1.2,0.3,2.3,1,3.2c0.7,0.8,1.7,1.2,2.8,1.1
		c0.9,0,1.7-0.2,2.5-0.4v1.1c-0.9,0.3-1.8,0.4-2.7,0.4c-1.4,0.1-2.7-0.4-3.6-1.4c-0.9-1.1-1.4-2.6-1.3-4.1c0-1,0.2-2,0.6-2.9
		c0.4-0.8,1-1.5,1.8-1.9c0.8-0.5,1.8-0.7,2.7-0.7c1,0,2,0.2,2.9,0.6l-0.5,1.1C508.1,417.7,507.3,417.5,506.4,417.5z"/>
	<path class="st0" d="M517.8,423.2c0.1,1.1-0.3,2.2-1,3.1c-0.7,0.8-1.7,1.2-2.7,1.1c-0.7,0-1.3-0.2-1.9-0.5c-0.6-0.3-1-0.8-1.3-1.5
		s-0.5-1.4-0.5-2.2c-0.1-1.1,0.3-2.2,1-3.1c0.7-0.7,1.7-1.1,2.7-1.1s2,0.4,2.7,1.1C517.5,421,517.8,422.1,517.8,423.2z M511.7,423.2
		c-0.1,0.8,0.2,1.6,0.6,2.3c0.9,1,2.4,1.1,3.4,0.2c0.1-0.1,0.1-0.1,0.2-0.2c0.5-0.7,0.7-1.5,0.6-2.4c0.1-0.8-0.2-1.6-0.6-2.3
		c-0.4-0.5-1.1-0.8-1.8-0.8s-1.4,0.2-1.8,0.8C511.8,421.5,511.6,422.4,511.7,423.2z"/>
	<path class="st0" d="M525.3,427.3v-5.2c0-0.5-0.1-1.1-0.4-1.5c-0.4-0.3-0.9-0.5-1.4-0.5c-0.7-0.1-1.4,0.2-1.8,0.7
		c-0.4,0.7-0.7,1.5-0.6,2.2v4.2h-1.2v-8h1l0.2,1.1h0.1c0.2-0.4,0.6-0.7,1-0.9c0.5-0.2,1-0.3,1.5-0.3c0.8-0.1,1.6,0.2,2.2,0.7
		c0.5,0.6,0.8,1.4,0.7,2.2v5.2L525.3,427.3z"/>
	<path class="st0" d="M530.7,427.3l-3-8h1.3l1.7,4.8c0.4,1.1,0.6,1.8,0.7,2.2l0,0c0.1-0.3,0.2-0.8,0.5-1.6s0.9-2.6,1.9-5.3h1.3l-3,8
		L530.7,427.3z"/>
	<path class="st0" d="M539.8,427.4c-1,0.1-2.1-0.3-2.8-1.1c-0.7-0.8-1.1-1.9-1-3c0-1.1,0.3-2.2,1-3.1c0.6-0.8,1.6-1.2,2.6-1.1
		c0.9,0,1.8,0.3,2.4,1c0.6,0.7,0.9,1.7,0.9,2.6v0.8h-5.5c0,0.8,0.2,1.5,0.7,2.1c0.5,0.5,1.2,0.8,1.9,0.7c0.9,0,1.8-0.2,2.6-0.5v1.1
		c-0.4,0.2-0.8,0.3-1.2,0.4C540.8,427.4,540.3,427.4,539.8,427.4z M539.5,420.1c-0.6,0-1.1,0.2-1.5,0.6c-0.4,0.5-0.7,1.1-0.7,1.7
		h4.2c0-0.6-0.1-1.3-0.5-1.8C540.6,420.3,540,420.1,539.5,420.1L539.5,420.1z"/>
	<path class="st0" d="M548.4,419.1c0.3,0,0.7,0,1,0.1l-0.2,1.1c-0.3-0.1-0.6-0.1-0.9-0.1c-0.6,0-1.3,0.3-1.7,0.8
		c-0.5,0.6-0.7,1.3-0.7,2v4.3h-1.2v-8h1l0.1,1.5h0.1c0.3-0.5,0.6-0.9,1.1-1.2C547.5,419.3,547.9,419.1,548.4,419.1z"/>
	<path class="st0" d="M556.2,425.1c0,0.7-0.3,1.3-0.8,1.7c-0.7,0.4-1.5,0.7-2.3,0.6c-0.9,0-1.7-0.1-2.5-0.5v-1.1
		c0.4,0.2,0.8,0.3,1.2,0.5c0.4,0.1,0.8,0.2,1.3,0.2s1-0.1,1.5-0.3c0.5-0.3,0.7-0.9,0.4-1.4c-0.1-0.1-0.2-0.2-0.3-0.3
		c-0.5-0.3-1-0.6-1.6-0.8c-0.6-0.2-1.1-0.4-1.6-0.7c-0.3-0.2-0.5-0.4-0.7-0.7c-0.4-0.9-0.2-1.9,0.6-2.5c0.7-0.4,1.4-0.6,2.2-0.6
		c0.9,0,1.7,0.2,2.5,0.5l-0.4,1c-0.7-0.3-1.4-0.5-2.2-0.5c-0.5,0-0.9,0.1-1.3,0.3c-0.3,0.1-0.4,0.4-0.4,0.7c0,0.2,0.1,0.4,0.2,0.5
		c0.1,0.2,0.3,0.3,0.5,0.4c0.5,0.2,0.9,0.4,1.4,0.6c0.7,0.2,1.4,0.6,1.9,1C556.1,424.1,556.3,424.6,556.2,425.1z"/>
	<path class="st0" d="M558,417.1c0-0.2,0.1-0.4,0.2-0.6c0.1-0.1,0.3-0.2,0.5-0.2s0.4,0.1,0.5,0.2c0.3,0.4,0.3,0.9,0,1.2
		c-0.1,0.1-0.3,0.2-0.5,0.2s-0.4-0.1-0.5-0.2C558.1,417.5,558,417.3,558,417.1z M559.3,427.3h-1.2v-8h1.2V427.3z"/>
	<path class="st0" d="M568.7,423.2c0.1,1.1-0.3,2.2-1,3.1c-0.7,0.8-1.7,1.2-2.7,1.1c-0.7,0-1.3-0.2-1.9-0.5c-0.6-0.3-1-0.8-1.3-1.5
		s-0.5-1.4-0.5-2.2c-0.1-1.1,0.3-2.2,1-3.1c0.7-0.7,1.7-1.1,2.7-1.1s2,0.4,2.7,1.1C568.4,421,568.7,422.1,568.7,423.2z M562.6,423.2
		c-0.1,0.8,0.2,1.6,0.6,2.3c0.9,1,2.4,1.1,3.4,0.2c0.1-0.1,0.1-0.1,0.2-0.2c0.5-0.7,0.7-1.5,0.6-2.4c0.1-0.8-0.2-1.6-0.6-2.3
		c-0.4-0.5-1.1-0.8-1.8-0.8s-1.4,0.2-1.8,0.8C562.7,421.5,562.5,422.4,562.6,423.2z"/>
	<path class="st0" d="M576.2,427.3v-5.2c0-0.5-0.1-1.1-0.4-1.5c-0.4-0.3-0.9-0.5-1.4-0.5c-0.7-0.1-1.4,0.2-1.8,0.7
		c-0.4,0.7-0.7,1.5-0.6,2.2v4.2h-1.2v-8h1l0.2,1.1h0.1c0.2-0.4,0.6-0.7,1-0.9c0.5-0.2,1-0.3,1.5-0.3c0.8-0.1,1.6,0.2,2.2,0.7
		c0.5,0.6,0.8,1.4,0.7,2.2v5.2L576.2,427.3z"/>
	<rect x="438" y="412.9" class="st2" width="20" height="20"/>
	<path class="st0" d="M639.7,427.3l-3.7-9.5l0,0c0.1,0.8,0.1,1.6,0.1,2.7v6.8h-1.2v-10.7h1.9l3.4,8.8l0,0l3.4-8.8h1.9v10.7h-1.2
		v-6.9c0-0.8,0-1.6,0.1-2.6h-0.1l-3.7,9.5H639.7z"/>
	<path class="st0" d="M653.1,427.3l-0.2-1.1h-0.1c-0.3,0.4-0.7,0.8-1.2,1s-1,0.3-1.5,0.3c-0.7,0-1.3-0.2-1.9-0.6
		c-0.5-0.5-0.7-1.1-0.7-1.8c0-1.6,1.3-2.5,3.9-2.5h1.4v-0.5c0-0.5-0.1-1-0.4-1.4c-0.3-0.3-0.8-0.5-1.3-0.5c-0.8,0-1.6,0.2-2.3,0.6
		l-0.4-0.9c0.4-0.2,0.8-0.4,1.3-0.5s0.9-0.2,1.4-0.2c0.8-0.1,1.5,0.2,2.1,0.6c0.5,0.5,0.8,1.3,0.7,2v5.5H653.1z M650.3,426.4
		c0.7,0,1.3-0.2,1.8-0.6c0.5-0.5,0.7-1.1,0.7-1.7v-0.7l-1.2,0.1c-0.7,0-1.4,0.1-2.1,0.5c-0.4,0.3-0.7,0.7-0.6,1.2
		c0,0.4,0.1,0.7,0.4,1C649.6,426.3,649.9,426.4,650.3,426.4z"/>
	<path class="st0" d="M659.7,427.4c-1,0.1-2-0.3-2.7-1.1c-0.7-0.8-1.1-1.9-1-3c-0.1-1.1,0.3-2.2,1-3.1c0.7-0.8,1.7-1.2,2.8-1.1
		c0.4,0,0.8,0,1.2,0.1c0.3,0.1,0.6,0.2,0.9,0.3l-0.4,1c-0.3-0.1-0.6-0.2-0.9-0.3c-0.3-0.1-0.6-0.1-0.8-0.1c-1.6,0-2.5,1-2.5,3.1
		c-0.1,0.8,0.2,1.6,0.6,2.3c0.4,0.5,1.1,0.8,1.8,0.8s1.4-0.2,2.1-0.4v1.1C661,427.3,660.3,427.4,659.7,427.4z"/>
	<path class="st0" d="M669,427.3v-5.2c0-0.5-0.1-1.1-0.5-1.5c-0.4-0.3-0.9-0.5-1.4-0.5c-0.7-0.1-1.4,0.2-1.8,0.7
		c-0.4,0.7-0.7,1.5-0.6,2.2v4.2h-1.2v-11.4h1.2v3.4c0,0.3,0,0.7-0.1,1h0.1c0.2-0.4,0.6-0.7,1-0.9c0.5-0.2,1-0.4,1.5-0.3
		c0.8-0.1,1.6,0.2,2.2,0.7c0.5,0.6,0.8,1.4,0.7,2.2v5.2L669,427.3z"/>
	<path class="st0" d="M672.5,417.1c0-0.2,0-0.4,0.2-0.6c0.3-0.3,0.7-0.3,1,0c0.3,0.4,0.3,0.9,0,1.2c-0.3,0.3-0.7,0.3-1,0
		C672.6,417.5,672.5,417.3,672.5,417.1z M673.8,427.3h-1.2v-8h1.2V427.3z"/>
	<path class="st0" d="M681.8,427.3v-5.2c0-0.5-0.1-1.1-0.4-1.5c-0.4-0.3-0.9-0.5-1.4-0.5c-0.7-0.1-1.4,0.2-1.8,0.7
		c-0.4,0.7-0.7,1.5-0.6,2.2v4.2h-1.2v-8h1l0.2,1.1h0.1c0.2-0.4,0.6-0.7,1-0.9c0.5-0.2,1-0.3,1.5-0.3c0.8-0.1,1.6,0.2,2.2,0.7
		c0.5,0.6,0.8,1.4,0.7,2.2v5.2L681.8,427.3z"/>
	<path class="st0" d="M688.8,427.4c-1,0.1-2.1-0.3-2.8-1.1c-0.7-0.8-1.1-1.9-1-3c0-1.1,0.3-2.2,1-3.1c0.6-0.8,1.6-1.2,2.6-1.1
		c0.9,0,1.8,0.3,2.4,1c0.6,0.7,0.9,1.7,0.9,2.6v0.8h-5.5c0,0.8,0.2,1.5,0.7,2.1c0.5,0.5,1.2,0.8,1.9,0.7c0.9,0,1.8-0.2,2.6-0.5v1.1
		C690.7,427.3,689.8,427.5,688.8,427.4L688.8,427.4z M688.5,420.1c-0.6,0-1.1,0.2-1.5,0.6c-0.4,0.5-0.6,1.1-0.7,1.7h4.2
		c0-0.6-0.1-1.3-0.5-1.8C689.6,420.3,689,420.1,688.5,420.1z"/>
	<path class="st0" d="M697.9,427.3v-10.7h1.2v9.6h4.7v1.1H697.9z"/>
	<path class="st0" d="M708.8,427.4c-1,0.1-2.1-0.3-2.8-1.1c-0.7-0.8-1.1-1.9-1-3c0-1.1,0.3-2.2,1-3.1c0.6-0.8,1.6-1.2,2.6-1.1
		c0.9,0,1.8,0.3,2.4,1c0.6,0.7,0.9,1.7,0.9,2.6v0.8h-5.5c0,0.8,0.2,1.5,0.7,2.1c0.5,0.5,1.2,0.8,1.9,0.7c0.9,0,1.8-0.2,2.6-0.5v1.1
		c-0.4,0.2-0.8,0.3-1.2,0.4C709.8,427.4,709.3,427.4,708.8,427.4z M708.5,420.1c-0.6,0-1.2,0.2-1.5,0.6c-0.4,0.5-0.6,1.1-0.7,1.7
		h4.2c0-0.6-0.1-1.3-0.5-1.8C709.6,420.3,709.1,420.1,708.5,420.1L708.5,420.1z"/>
	<path class="st0" d="M718.7,427.3l-0.2-1.1h-0.1c-0.3,0.4-0.7,0.8-1.2,1s-1,0.3-1.5,0.3c-0.7,0-1.3-0.2-1.9-0.6
		c-0.5-0.5-0.7-1.1-0.7-1.8c0-1.6,1.3-2.5,3.9-2.5h1.4v-0.5c0-0.5-0.1-1-0.4-1.4c-0.3-0.3-0.8-0.5-1.3-0.5c-0.8,0-1.6,0.2-2.3,0.6
		l-0.4-0.9c0.4-0.2,0.8-0.4,1.3-0.5s0.9-0.2,1.4-0.2c0.8-0.1,1.5,0.2,2.1,0.6c0.5,0.5,0.7,1.3,0.7,2v5.5H718.7z M716,426.4
		c0.7,0,1.3-0.2,1.8-0.6c0.4-0.5,0.7-1.1,0.6-1.7v-0.7l-1.2,0.1c-0.7,0-1.4,0.1-2.1,0.5c-0.4,0.3-0.7,0.7-0.6,1.2
		c0,0.4,0.1,0.7,0.4,1C715.2,426.3,715.6,426.4,716,426.4z"/>
	<path class="st0" d="M725.7,419.1c0.3,0,0.7,0,1,0.1l-0.2,1.1c-0.3-0.1-0.6-0.1-0.9-0.1c-0.6,0-1.3,0.3-1.7,0.8
		c-0.5,0.6-0.7,1.3-0.7,2v4.3H722v-8h1l0.1,1.5l0,0c0.3-0.5,0.6-0.9,1.1-1.2C724.7,419.3,725.2,419.1,725.7,419.1z"/>
	<path class="st0" d="M733.7,427.3v-5.2c0-0.5-0.1-1.1-0.5-1.5s-0.9-0.5-1.4-0.5c-0.7-0.1-1.4,0.2-1.8,0.7c-0.5,0.7-0.7,1.5-0.6,2.2
		v4.2h-1.2v-8h1l0.2,1.1h0.1c0.2-0.4,0.6-0.7,1-0.9c0.5-0.2,1-0.3,1.5-0.3c0.8-0.1,1.6,0.2,2.2,0.7c0.5,0.6,0.8,1.4,0.7,2.2v5.2
		L733.7,427.3z"/>
	<path class="st0" d="M737.2,417.1c0-0.2,0.1-0.4,0.2-0.6c0.1-0.1,0.3-0.2,0.5-0.2s0.4,0.1,0.5,0.2c0.3,0.4,0.3,0.9,0,1.2
		c-0.1,0.1-0.3,0.2-0.5,0.2s-0.4-0.1-0.5-0.2C737.3,417.5,737.2,417.3,737.2,417.1z M738.5,427.3h-1.2v-8h1.2V427.3z"/>
	<path class="st0" d="M746.5,427.3v-5.2c0-0.5-0.1-1.1-0.4-1.5c-0.4-0.3-0.9-0.5-1.4-0.5c-0.7-0.1-1.4,0.2-1.8,0.7
		c-0.4,0.7-0.7,1.5-0.6,2.2v4.2H741v-8h1l0.2,1.1l0,0c0.2-0.4,0.6-0.7,1-0.9c0.5-0.2,1-0.3,1.5-0.3c0.8-0.1,1.6,0.2,2.2,0.7
		c0.5,0.6,0.8,1.4,0.7,2.2v5.2L746.5,427.3z"/>
	<path class="st0" d="M756.7,419.2v0.8l-1.5,0.2c0.2,0.2,0.3,0.4,0.4,0.7c0.1,0.3,0.2,0.6,0.2,0.9c0,0.7-0.3,1.4-0.8,1.9
		c-0.6,0.5-1.4,0.7-2.2,0.7c-0.2,0-0.4,0-0.7-0.1c-0.4,0.2-0.7,0.5-0.8,1c0,0.2,0.1,0.4,0.3,0.5c0.3,0.1,0.6,0.2,0.9,0.2h1.4
		c0.7,0,1.4,0.1,2,0.5c0.5,0.4,0.7,1,0.7,1.6c0,0.8-0.4,1.6-1.1,2c-1,0.5-2,0.8-3.1,0.7c-0.9,0-1.7-0.2-2.4-0.6
		c-0.6-0.4-0.9-1-0.8-1.7c0-0.5,0.2-0.9,0.5-1.3s0.8-0.6,1.3-0.7c-0.2-0.1-0.4-0.2-0.5-0.4c-0.1-0.2-0.2-0.4-0.2-0.7
		c0-0.3,0.1-0.5,0.2-0.8c0.2-0.3,0.5-0.5,0.7-0.6c-0.4-0.2-0.8-0.5-1-0.9c-0.6-1.1-0.5-2.5,0.4-3.4c0.6-0.5,1.4-0.8,2.2-0.7
		c0.4,0,0.8,0,1.1,0.1L756.7,419.2z M750.3,428.6c0,0.4,0.2,0.8,0.5,1c0.5,0.3,1,0.4,1.6,0.3c0.8,0,1.6-0.1,2.3-0.5
		c0.5-0.2,0.7-0.7,0.7-1.2c0-0.4-0.1-0.7-0.4-0.9c-0.5-0.2-1-0.3-1.5-0.2H752c-0.5,0-0.9,0.1-1.3,0.4
		C750.4,427.7,750.2,428.2,750.3,428.6L750.3,428.6z M750.9,421.8c0,0.5,0.1,0.9,0.5,1.3c0.4,0.3,0.8,0.5,1.3,0.4
		c0.8,0.1,1.6-0.4,1.8-1.3c0-0.1,0-0.3,0-0.4c0.1-0.9-0.5-1.7-1.4-1.8c-0.1,0-0.3,0-0.4,0c-0.5,0-1,0.1-1.3,0.5
		C751,420.8,750.9,421.3,750.9,421.8L750.9,421.8z"/>
	<path class="st0" d="M765.7,427.3h-1.2v-9.6H761v-1.1h8v1.1h-3.4L765.7,427.3z"/>
	<path class="st0" d="M773,419.1c0.3,0,0.7,0,1,0.1l-0.2,1.1c-0.3-0.1-0.6-0.1-0.9-0.1c-0.6,0-1.3,0.3-1.7,0.8
		c-0.5,0.6-0.7,1.3-0.7,2v4.3h-1.2v-8h1l0.1,1.5h0.1c0.3-0.5,0.6-0.9,1.1-1.2C772,419.3,772.5,419.1,773,419.1z"/>
	<path class="st0" d="M780.3,427.3l-0.2-1.1l0,0c-0.3,0.4-0.7,0.8-1.2,1s-1,0.3-1.5,0.3c-0.7,0-1.3-0.2-1.9-0.6
		c-0.5-0.5-0.7-1.1-0.7-1.8c0-1.6,1.3-2.5,3.9-2.5h1.4v-0.5c0-0.5-0.1-1-0.4-1.4c-0.3-0.3-0.8-0.5-1.3-0.5c-0.8,0-1.6,0.2-2.3,0.6
		l-0.4-0.9c0.4-0.2,0.8-0.4,1.3-0.5s0.9-0.2,1.4-0.2c0.8-0.1,1.5,0.2,2.1,0.6c0.5,0.5,0.7,1.3,0.7,2v5.5H780.3z M777.5,426.4
		c0.7,0,1.3-0.2,1.8-0.6c0.4-0.5,0.7-1.1,0.6-1.7v-0.7l-1.2,0.1c-0.7,0-1.4,0.1-2.1,0.5c-0.4,0.3-0.7,0.7-0.6,1.2
		c0,0.4,0.1,0.7,0.4,1C776.7,426.3,777.1,426.4,777.5,426.4z"/>
	<path class="st0" d="M783.5,417.1c0-0.2,0.1-0.4,0.2-0.6c0.1-0.1,0.3-0.2,0.5-0.2s0.4,0.1,0.5,0.2c0.3,0.4,0.3,0.9,0,1.2
		c-0.1,0.1-0.3,0.2-0.5,0.2s-0.4-0.1-0.5-0.2C783.5,417.5,783.5,417.3,783.5,417.1z M784.8,427.3h-1.2v-8h1.2V427.3z"/>
	<path class="st0" d="M792.7,427.3v-5.2c0-0.5-0.1-1.1-0.5-1.5s-0.9-0.5-1.4-0.5c-0.7-0.1-1.4,0.2-1.8,0.7c-0.4,0.7-0.7,1.5-0.6,2.2
		v4.2h-1.2v-8h1l0.2,1.1h0.1c0.2-0.4,0.6-0.7,1-0.9c0.5-0.2,1-0.3,1.5-0.3c0.8-0.1,1.6,0.2,2.2,0.7c0.5,0.6,0.8,1.4,0.7,2.2v5.2
		L792.7,427.3z"/>
	<path class="st0" d="M796.2,417.1c0-0.2,0.1-0.4,0.2-0.6c0.1-0.1,0.3-0.2,0.5-0.2s0.4,0.1,0.5,0.2c0.3,0.4,0.3,0.9,0,1.2
		c-0.1,0.1-0.3,0.2-0.5,0.2s-0.4-0.1-0.5-0.2C796.3,417.5,796.2,417.3,796.2,417.1z M797.6,427.3h-1.2v-8h1.2V427.3z"/>
	<path class="st0" d="M805.5,427.3v-5.2c0-0.5-0.1-1.1-0.5-1.5s-0.9-0.5-1.4-0.5c-0.7-0.1-1.4,0.2-1.8,0.7c-0.4,0.7-0.7,1.5-0.6,2.2
		v4.2H800v-8h1l0.2,1.1h0.1c0.2-0.4,0.6-0.7,1-0.9c0.5-0.2,1-0.3,1.5-0.3c0.8-0.1,1.6,0.2,2.2,0.7c0.5,0.6,0.8,1.4,0.7,2.2v5.2
		L805.5,427.3z"/>
	<path class="st0" d="M815.7,419.2v0.8l-1.5,0.2c0.2,0.2,0.3,0.4,0.4,0.7c0.1,0.3,0.2,0.6,0.2,0.9c0,0.7-0.3,1.4-0.8,1.9
		c-0.6,0.5-1.4,0.7-2.2,0.7c-0.2,0-0.5,0-0.7-0.1c-0.4,0.2-0.7,0.5-0.8,1c0,0.2,0.1,0.4,0.3,0.5c0.3,0.1,0.6,0.2,0.9,0.2h1.4
		c0.7,0,1.4,0.1,2,0.5c0.5,0.4,0.7,1,0.7,1.6c0,0.8-0.4,1.6-1.1,2c-1,0.5-2,0.8-3.1,0.7c-0.9,0-1.7-0.2-2.4-0.6
		c-0.6-0.4-0.9-1-0.8-1.7c0-0.5,0.2-0.9,0.5-1.3s0.8-0.6,1.3-0.7c-0.2-0.1-0.4-0.2-0.5-0.4c-0.1-0.2-0.2-0.4-0.2-0.7
		c0-0.3,0.1-0.5,0.2-0.8c0.2-0.3,0.5-0.5,0.7-0.6c-0.4-0.2-0.8-0.5-1-0.9c-0.6-1.1-0.5-2.5,0.4-3.4c0.6-0.5,1.4-0.8,2.2-0.7
		c0.4,0,0.8,0,1.1,0.1L815.7,419.2z M809.3,428.6c0,0.4,0.2,0.8,0.5,1c0.5,0.3,1,0.4,1.6,0.3c0.8,0,1.6-0.1,2.3-0.5
		c0.5-0.2,0.7-0.7,0.7-1.2c0-0.4-0.1-0.7-0.4-0.9c-0.5-0.2-1-0.3-1.5-0.2H811c-0.5,0-0.9,0.1-1.3,0.4
		C809.4,427.8,809.2,428.2,809.3,428.6L809.3,428.6z M809.9,421.8c0,0.5,0.1,0.9,0.5,1.3c0.4,0.3,0.8,0.5,1.3,0.4
		c0.8,0.1,1.6-0.4,1.8-1.3c0-0.1,0-0.3,0-0.4c0.1-0.9-0.5-1.7-1.4-1.8c-0.1,0-0.3,0-0.4,0c-0.5,0-1,0.1-1.3,0.5
		C810.1,420.8,809.9,421.3,809.9,421.8L809.9,421.8z"/>
	<rect x="608" y="412.9" class="st3" width="20" height="20"/>
	<polyline class="st5" points="414.5,8.9 413.8,8.9 413.8,318.9 414.5,318.9 414.5,8.9 	"/>
	<polyline class="st5" points="284.8,8.9 284.1,8.9 284.1,318.9 284.8,318.9 284.8,8.9 	"/>
	<polyline class="st5" points="544.2,8.9 543.5,8.9 543.5,318.9 544.2,318.9 544.2,8.9 	"/>
	<polyline class="st5" points="673.9,8.9 673.2,8.9 673.2,318.9 673.9,318.9 673.9,8.9 	"/>
	<polyline class="st5" points="803.6,8.9 803,8.9 803,318.9 803.6,318.9 803.6,8.9 	"/>
	<path class="st0" d="M204.5,64.6h4.3v6.2c-0.7,0.2-1.4,0.4-2.1,0.5c-0.8,0.1-1.6,0.2-2.4,0.2c-1.7,0.1-3.3-0.5-4.6-1.7
		c-1.1-1.4-1.7-3.1-1.6-4.9c0-1.2,0.2-2.4,0.8-3.5c0.5-1,1.3-1.8,2.3-2.3c1.1-0.6,2.3-0.8,3.5-0.8c1.3,0,2.6,0.2,3.8,0.8l-0.6,1.3
		c-1.1-0.5-2.2-0.7-3.3-0.7c-1.4-0.1-2.7,0.4-3.7,1.4c-0.9,1.1-1.4,2.5-1.3,3.9c-0.1,1.4,0.4,2.8,1.3,3.9c1,0.9,2.4,1.4,3.7,1.3
		c0.9,0,1.8-0.1,2.6-0.3v-4h-2.9L204.5,64.6z"/>
	<path class="st0" d="M219.9,62.2c0.1,1.2-0.4,2.3-1.3,3c-1.1,0.8-2.5,1.1-3.8,1h-1.5v5.1h-1.5V58.5h3.3
		C218.3,58.4,219.9,59.7,219.9,62.2z M213.2,64.9h1.3c1,0.1,2-0.1,2.9-0.6c0.6-0.5,1-1.3,0.9-2.1c0.1-0.7-0.3-1.4-0.8-1.9
		c-0.8-0.5-1.7-0.7-2.6-0.6h-1.7L213.2,64.9z"/>
	<path class="st0" d="M232.3,58.4v8.3c0.1,1.3-0.4,2.6-1.4,3.5s-2.3,1.3-3.7,1.2c-1.3,0.1-2.6-0.4-3.6-1.3c-0.9-0.9-1.3-2.2-1.3-3.5
		v-8.3h1.6v8.4c-0.1,0.9,0.3,1.8,0.9,2.5c0.7,0.6,1.6,0.9,2.6,0.9c0.9,0.1,1.8-0.2,2.5-0.9c0.6-0.7,0.9-1.6,0.9-2.5v-8.4L232.3,58.4
		z"/>
	<path class="st0" d="M749,208.1c-1.3-0.1-2.5,0.5-3.3,1.4c-0.9,1.1-1.3,2.5-1.2,3.9c-0.1,1.4,0.3,2.8,1.2,3.9
		c0.9,1,2.1,1.5,3.4,1.4c1,0,2.1-0.2,3.1-0.5v1.3c-1.1,0.4-2.2,0.5-3.3,0.5c-1.7,0.1-3.3-0.5-4.4-1.7c-1.1-1.4-1.7-3.1-1.5-4.9
		c0-1.2,0.2-2.4,0.8-3.5c0.5-1,1.2-1.8,2.1-2.3c1-0.6,2.1-0.8,3.3-0.8s2.4,0.2,3.5,0.7l-0.6,1.3C751,208.3,750,208.1,749,208.1z"/>
	<path class="st0" d="M763,210.6c0.1,1.2-0.4,2.3-1.3,3c-1.1,0.8-2.5,1.1-3.8,1.1h-1.5v5.1h-1.5V207h3.3
		C761.4,206.9,763,208.2,763,210.6z M756.3,213.4h1.3c1,0.1,2-0.1,2.9-0.6c0.6-0.5,1-1.3,0.9-2.1c0.1-0.7-0.3-1.4-0.8-1.9
		c-0.8-0.5-1.7-0.7-2.6-0.6h-1.7V213.4z"/>
	<path class="st0" d="M775.4,206.9v8.3c0.1,1.3-0.4,2.6-1.4,3.5s-2.3,1.3-3.7,1.2c-1.3,0.1-2.6-0.4-3.6-1.3
		c-0.9-0.9-1.3-2.2-1.2-3.5v-8.3h1.5v8.4c-0.1,0.9,0.3,1.8,0.9,2.5c0.7,0.6,1.6,0.9,2.6,0.9c0.9,0.1,1.8-0.2,2.5-0.9
		c0.6-0.7,0.9-1.6,0.9-2.5v-8.4L775.4,206.9z"/>
	<line class="st4" x1="732" y1="119.9" x2="732" y2="309.9"/>
</g>
<line class="st4" x1="186.6" y1="19.9" x2="186.6" y2="109.9"/>
</svg>
