<svg width="512" height="512" xmlns="http://www.w3.org/2000/svg">

 <g>
  <title>background</title>
  <rect fill="none" id="canvas_background" height="514" width="514" y="-1" x="-1"/>
 </g>
 <g>
  <title fill="#ffffff">Layer 1</title>
  <path id="svg_2" fill="#ffffff" d="m261,505.799988c-50.699997,0 -101.300003,0 -152,0c-1.699997,0 -3.300003,-0.100006 -5,0c-4.400002,0.299988 -5.900002,-1.5 -5.900002,-6.200012c0.200005,-60.5 0.099998,-121 0.099998,-181.5c0,-4.199982 0.300003,-8.399994 -0.099998,-12.5c-0.299995,-3.899994 1.300003,-4.799988 4.900002,-4.699982c7.800003,0.199982 15.699997,0.399994 23.5,0c4.899994,-0.300018 5.699997,1.699982 5.600006,6c-0.100006,43.699982 -0.100006,87.299988 -0.100006,131c0,9.5 0.199997,19 -0.100006,28.5c-0.199997,4.5 1.100006,5.899994 5.800003,5.899994c42.699997,-0.200012 85.300003,-0.100006 128.000015,-0.100006c39,0 78,0 117,0c6.399994,0 6.399994,0 6.399994,-6.600006c0,-53 0,-106 -0.100006,-159c0,-4.199982 0.799988,-5.899994 5.399994,-5.699982c7.600006,0.399994 15.300018,0.399994 23,0c4.5,-0.200012 5.5,1.199982 5.5,5.600006c-0.199982,48.199982 -0.100006,96.299988 -0.100006,144.5c0,16.299988 -0.199982,32.699982 0.100006,49c0.100006,4.699982 -1.399994,5.899994 -6,5.899994c-52,-0.199982 -104,-0.100006 -155.899994,-0.100006z"/>
  <path id="svg_3" fill="#ffffff" d="m414.610962,18.799999c-0.5,-2.5 1,-3.299999 3.299988,-3.699999c11.100006,-1.900001 22.300018,-3.700001 33.300018,-5.8c4.299988,-0.8 4.699982,1.7 5.199982,4.599999c3,17.300001 6,34.699999 9,52.000002c7.300018,41.699997 14.5,83.400002 21.800018,125.099998c1.899994,10.800003 1.899994,10.899994 -9,12.800003c-8.800018,1.5 -17.800018,2.599991 -26.5,4.5c-3.600006,0.800003 -4.399994,-0.5 -4.899994,-3.300003c-2.700012,-15.899994 -5.5,-31.800003 -8.200012,-47.600006c-4.799988,-27.799988 -9.600006,-55.599991 -14.5,-83.399994c-3.100006,-17.5 -6.200012,-35 -9.299988,-52.5c-0.100006,-0.9 -0.100006,-1.700001 -0.200012,-2.700001z"/>
  <path id="svg_4" fill="#ffffff" d="m328.5,50.200001c2.200012,0.299999 2.600006,2.200001 3.5,3.5c16.399994,24.100002 32.799988,48.100002 49.200012,72.200001c18.5,27.099998 36.899994,54.200005 55.5,81.199989c2.299988,3.399994 2.199982,5.100006 -1.400024,7.399994c-9.199982,6 -18.299988,12.200012 -27.199982,18.600021c-3,2.099991 -4.200012,0.899994 -5.800018,-1.5c-12.5,-18.5 -25,-36.900009 -37.599976,-55.400009c-22.300018,-32.700012 -44.600006,-65.500008 -67.200012,-98.099998c-3.100006,-4.400002 -2.200012,-6.099998 1.899994,-8.600006c8.700012,-5.500004 17.100006,-11.500004 25.700012,-17.299992c1.199982,-0.700001 2.399994,-1.400002 3.399994,-2z"/>
  <path id="svg_5" fill="#ffffff" d="m171.699997,325.899994c20.900009,2 41.699997,4 62.600006,5.899994c15.399994,1.399994 30.799973,2.700012 46.199997,4.200012c20.200012,1.899994 40.399994,3.899994 60.5,5.699982c5.5,0.5 10.899994,0.899994 16.399994,1.300018c2.100006,0.099976 3.300018,0.599976 3,3.299988c-1.199982,11.700012 -2.399994,23.5 -3.299988,35.299988c-0.200012,3 -1.5,3.600006 -4.100006,3.400024c-19.5,-1.900024 -39,-3.900024 -58.5,-5.700012c-16.399994,-1.5 -32.799988,-2.799988 -49.199997,-4.299988c-20,-1.800018 -40,-3.800018 -60,-5.600006c-6,-0.5 -11.900009,-1 -17.900009,-1.399994c-3.899994,-0.300018 -6,-1.400024 -5.5,-6.100006c1.300003,-10.899994 2.200012,-21.800018 3.100006,-32.800018c0.5,-5.499969 4.399994,-2.299988 6.699997,-3.199982z"/>
  <path id="svg_6" fill="#ffffff" d="m397.700012,241.5c-0.5,0.899994 -1,2 -1.600006,3c-5.600006,9.5 -11.199982,18.899994 -16.699982,28.399994c-1.5,2.600006 -2.800018,4 -6.200012,2c-53.700012,-31.799988 -107.399994,-63.5 -161.199997,-95.099991c-3.5,-2 -3.700012,-3.400009 -1.600006,-6.699997c5.699997,-9 11,-18.200012 16.300003,-27.5c1.899994,-3.400009 3.5,-4 7,-1.900009c24.100006,14.400009 48.399994,28.600006 72.600006,42.900009c29.5,17.399994 59,34.799988 88.5,52.299988c1.099976,0.600006 2.599976,0.900009 2.899994,2.600006z"/>
  <path id="svg_7" fill="#ffffff" d="m257.700012,439c-30.800003,0 -61.600006,-0.100006 -92.400009,0.100006c-4,0 -5.5,-0.899994 -5.399994,-5.200012c0.300003,-10.600006 0.199997,-21.299988 0,-32c-0.100006,-3.600006 0.699997,-4.899994 4.600006,-4.899994c62.299988,0.100006 124.599991,0.100006 186.800003,0c3.399994,0 4.699982,0.799988 4.600006,4.399994c-0.200012,11 -0.200012,22 0,33c0.099976,3.899994 -1.400024,4.700012 -4.900024,4.600006c-31,-0.100006 -62.200012,0 -93.299988,0c0,0 0,0 0,0z"/>
  <path id="svg_8" fill="#ffffff" d="m186,238.399994c14.199997,3.800003 27.800003,7.300003 41.5,11c46.5,12.5 93,25.100006 139.600006,37.600006c6.700012,1.799988 6.600006,1.699982 4.800018,8.099976c-2.600006,9.400024 -5.600006,18.800018 -7.600006,28.400024c-1,5.099976 -2.800018,5.5 -7.300018,4.299988c-48.599976,-13.200012 -97.199982,-26.200012 -145.800003,-39.299988c-11.199997,-3 -22.399994,-6.200012 -33.699997,-9.100006c-3.100006,-0.800018 -4.100006,-1.899994 -3.199997,-5.100006c3.099991,-11 5.899994,-22.199997 8.899994,-33.199997c0.400009,-1.599991 0.800003,-3.499985 2.800003,-2.699997z"/>
 </g>
</svg>