<svg xmlns="http://www.w3.org/2000/svg" width="80" height="86" viewBox="0 0 80 86">
  <metadata><?xpacket begin="﻿" id="W5M0MpCehiHzreSzNTczkc9d"?>
<x:xmpmeta xmlns:x="adobe:ns:meta/" x:xmptk="Adobe XMP Core 5.6-c140 79.160451, 2017/05/06-01:08:21        ">
   <rdf:RDF xmlns:rdf="http://www.w3.org/1999/02/22-rdf-syntax-ns#">
      <rdf:Description rdf:about=""/>
   </rdf:RDF>
</x:xmpmeta>
                                                                                                    
                                                                                                    
                                                                                                    
                                                                                                    
                                                                                                    
                                                                                                    
                                                                                                    
                                                                                                    
                                                                                                    
                                                                                                    
                                                                                                    
                                                                                                    
                                                                                                    
                                                                                                    
                                                                                                    
                                                                                                    
                                                                                                    
                                                                                                    
                                                                                                    
                                                                                                    
                           
<?xpacket end="w"?></metadata>
<defs>
    <style>
      .cls-1 {
        fill: #bababc;
        fill-rule: evenodd;
      }
    </style>
  </defs>
  <path id="top-model" class="cls-1" d="M4193.5,3880.59l-9.64.37,6.09-7.35-3.46-2.88-4.99,6.01-2.5-8.25-10.85,13.05a37.943,37.943,0,0,0-16.38-3.7,38.351,38.351,0,1,0,30.91,15.76Zm-6.83,35.59a34.921,34.921,0,1,1-17.88-30.52l1.42,4.68-5.73,6.9a22.981,22.981,0,1,0,3.47,2.89l5.75-6.93,4.84,0.55A34.872,34.872,0,0,1,4186.67,3916.18Zm-31.16-8.13a8.949,8.949,0,1,0,5.19,8.13,8.87,8.87,0,0,0-1.71-5.26l6.8-8.19a19.459,19.459,0,1,1-3.47-2.87Z" transform="translate(-4113.5 -3868.5)"/>
</svg>
