<svg id="Layer_1" data-name="Layer 1" xmlns="http://www.w3.org/2000/svg" viewBox="0 0 720 300"><defs><style>.cls-1{fill:#7d7b7b;}.cls-2{fill:#1a9edb;}</style></defs><title>xgboost_logo_sorta</title><path class="cls-1" d="M96.58,99.44l9.55-71.85h-14L87.94,59.28H86.47L86,58.82c-1.47-2.18-6.43-6.32-14.69-6.32-19.84,0-28.72,21.75-28.72,43.3,0,15.58,6.18,23.47,18.38,23.47,10.6,0,17.79-8.18,20.37-13l.3-.55H83.4l.06,1.11-.68,10.62H94.55c.54-5.17,1.65-15,2-18Zm-12-15.37C83.11,95.34,75.68,107.41,67,107.41c-6.44,0-10.14-4.42-10.14-12.13,0-2,.13-3.23,1.38-12.79,1.21-8.89,6-18.39,15.85-18.39a14.81,14.81,0,0,1,12.09,6.49l.21.32Z"/><path class="cls-1" d="M199.8,69.71c0-11.1-5.29-17.21-14.9-17.21-11,0-18.68,9.36-21.23,14.3l-1.53,3-.44-3.3c-1.24-9.39-5.75-14-13.78-14-10.86,0-18,8.41-20.24,12.86l-.29.57h-1.83l0-1.17,1.34-10.43H114.34l-8.56,63.11h14.09L124,87.57c1.64-12.58,9.26-22.81,17-22.81,3.43,0,7.52,1.54,7.52,8.87,0,2-.17,3.19-2.19,18-.83,6-2,14.31-3.52,25.83h14.08l4-30.13c1.51-10.89,8.79-22.55,17.22-22.55,3.38,0,7.4,1.54,7.4,8.87,0,2.07-.27,4.07-2.88,23.11l-2.82,20.7h14.08L196,101.13C199.37,76,199.8,72.81,199.8,69.71Z"/><polygon class="cls-1" points="217.32 27.59 205.27 117.44 219.35 117.44 231.4 27.59 217.32 27.59"/><path class="cls-1" d="M273.92,66.47,276,55.29a35.49,35.49,0,0,0-14.27-2.79c-19.63,0-31.34,16.14-31.34,43.17,0,8.29,2.15,14.76,6.21,18.71,3.52,3.43,8.5,5,14.89,4.9,8.7-.25,13.87-.82,17-1.9l1.45-12a34.93,34.93,0,0,1-13.85,2.25c-4.29-.09-11.48-1.9-11.48-12.91a70.81,70.81,0,0,1,.9-9.45l.23-1.76c1.51-12,8-19.44,16.85-19.44A28.19,28.19,0,0,1,273.92,66.47Z"/><path class="cls-2" d="M113.08,202.9l30.41,66.61H115.84L95.75,222.59h-.18L63.13,269.51H34.74L83,202.71l-28-62H82.11l18.43,42.48h.19l29.12-42.48h27.83Z"/><path class="cls-2" d="M248.16,167.37c-5-2.7-18.25-8.49-30.23-8.49-22.86,0-33.36,17.18-36.5,43.44-1.66,14.67-1.84,17.37-1.84,22,0,20.27,8.11,27,21.56,27,9.22,0,15.86-2.51,17.88-3.86l3.87-29.16H204.84l2.58-20.07h41.29l-8.66,63.32c-5.35,3.48-21.2,10.82-40.74,10.82-30.41,0-44.79-16.42-44.79-50.59,0-51.74,20.83-84,62.85-84,17.33,0,30.42,5.8,34.66,8.5Z"/><path class="cls-2" d="M332.55,201.16v.19c6.45,1.74,19.72,9.27,19.72,26.07,0,29.93-23.41,42.09-50.32,42.09H260.67L278,140.73h39.44c19.91,0,39.45,5.21,39.45,27.61C356.88,189,340.47,198.84,332.55,201.16Zm-25.07,11.2H292.55l-4.79,37.07h14.56c14.93,0,25.07-6,25.07-21.43C327.39,216,318.36,212.36,307.48,212.36Zm6.82-51.94H299.56l-4.24,32.25h14.19c12.35,0,21.93-6.57,21.93-19.51C331.44,162.93,322.6,160.42,314.3,160.42Z"/><path class="cls-2" d="M396.79,272.21c-23.59,0-37.41-11.78-37.41-36.87,0-41.32,18.06-65.07,48.29-65.07,23.78,0,37.6,11.78,37.6,36.88C445.27,248.08,427.39,272.21,396.79,272.21Zm24.88-65.64c0-10.81-5-17.38-15.11-17.38-12,0-18.8,12-21.19,27.42-2.21,14.09-2.4,17.95-2.4,19.3,0,10.82,4.79,17.38,14.93,17.38,12.17,0,19.17-12.16,21.38-27.61C421.31,211.78,421.67,208.88,421.67,206.57Z"/><path class="cls-2" d="M486.84,272.21c-23.59,0-37.42-11.78-37.42-36.87,0-41.32,18.07-65.07,48.29-65.07,23.79,0,37.6,11.78,37.6,36.88C535.31,248.08,517.44,272.21,486.84,272.21Zm24.88-65.64c0-10.81-5-17.38-15.11-17.38-12,0-18.8,12-21.19,27.42-2.22,14.09-2.4,17.95-2.4,19.3,0,10.82,4.79,17.38,14.93,17.38,12.16,0,19.17-12.16,21.38-27.61C511.36,211.78,511.72,208.88,511.72,206.57Z"/><path class="cls-2" d="M610.92,191.62c-5-1.7-13.88-2.82-23.83-2.82-5.35,0-13.64,1.74-13.64,9.27,0,5.6,4.24,8.31,11.61,11.59L588.2,211c11.24,4.63,22.48,11.58,22.48,27.61,0,23.94-19.53,33.59-40.91,33.59-14.57,0-25.44-4.63-29.13-6.75L544.51,246a46.79,46.79,0,0,0,24.88,7.73c8.3,0,16.59-3.09,16.59-11.59,0-6-5.71-8.88-12.9-12L570,228.77c-11.61-4.83-21-12.94-21-27.42,0-20.46,16.41-31.08,37.6-31.08,14.2,0,23.91,1.22,27.59,3.34Z"/><path class="cls-2" d="M682.49,193.05H659.82c-6.45,47.11-6.82,48.65-6.82,51.17,0,6.18,3.5,8.1,9.4,8.1,4.61,0,10.88-2.51,13.45-3.86l-1.47,19.31a60,60,0,0,1-21.93,4.44c-15.48,0-23.78-7.14-23.78-22.78,0-5,.74-8.5,7.19-56.38H621.35L624.12,173h14.5l3.32-24.13,24.15-2.9-3.5,27h22.67Z"/></svg>