<svg xmlns="http://www.w3.org/2000/svg" width="78.28" height="61.44" viewBox="0 0 78.28 61.44">
  <metadata><?xpacket begin="﻿" id="W5M0MpCehiHzreSzNTczkc9d"?>
<x:xmpmeta xmlns:x="adobe:ns:meta/" x:xmptk="Adobe XMP Core 5.6-c140 79.160451, 2017/05/06-01:08:21        ">
   <rdf:RDF xmlns:rdf="http://www.w3.org/1999/02/22-rdf-syntax-ns#">
      <rdf:Description rdf:about=""/>
   </rdf:RDF>
</x:xmpmeta>
                                                                                                    
                                                                                                    
                                                                                                    
                                                                                                    
                                                                                                    
                                                                                                    
                                                                                                    
                                                                                                    
                                                                                                    
                                                                                                    
                                                                                                    
                                                                                                    
                                                                                                    
                                                                                                    
                                                                                                    
                                                                                                    
                                                                                                    
                                                                                                    
                                                                                                    
                                                                                                    
                           
<?xpacket end="w"?></metadata>
<defs>
    <style>
      .cls-1 {
        fill: #bbb;
        fill-rule: evenodd;
      }
    </style>
  </defs>
  <path id="email-icon" class="cls-1" d="M4346.17,1125.39a1.431,1.431,0,0,1-1.4,1.4h-64.3a1.431,1.431,0,0,1-1.4-1.4v-33.51a23.412,23.412,0,0,0,3.01,2.88c6.25,4.8,12.54,9.69,18.61,14.75,3.28,2.75,7.34,6.11,11.89,6.11h0.08c4.55,0,8.61-3.36,11.89-6.11,6.07-5.06,12.36-9.95,18.61-14.75a23.412,23.412,0,0,0,3.01-2.88v33.51Zm0-45.86c0,3.71-3.58,8.55-6.42,10.78-5.85,4.58-11.71,9.21-17.52,13.83-2.31,1.88-6.51,5.89-9.57,5.89h-0.08c-3.06,0-7.25-4.01-9.57-5.89-5.81-4.62-11.66-9.25-17.52-13.83a15.737,15.737,0,0,1-6.42-12.39,1.438,1.438,0,0,1,1.4-1.4h64.3C4346.43,1076.52,4346.17,1078.44,4346.17,1079.53Zm5.59-1.61a7,7,0,0,0-6.99-6.98h-64.3a7,7,0,0,0-6.99,6.98v47.47a7.01,7.01,0,0,0,6.99,6.99h64.3a7.01,7.01,0,0,0,6.99-6.99v-47.47Z" transform="translate(-4273.47 -1070.94)"/>
</svg>
