<svg xmlns="http://www.w3.org/2000/svg" width="24.03" height="18.88" viewBox="0 0 24.03 18.88">
  <metadata><?xpacket begin="﻿" id="W5M0MpCehiHzreSzNTczkc9d"?>
<x:xmpmeta xmlns:x="adobe:ns:meta/" x:xmptk="Adobe XMP Core 5.6-c140 79.160451, 2017/05/06-01:08:21        ">
   <rdf:RDF xmlns:rdf="http://www.w3.org/1999/02/22-rdf-syntax-ns#">
      <rdf:Description rdf:about=""/>
   </rdf:RDF>
</x:xmpmeta>
                                                                                                    
                                                                                                    
                                                                                                    
                                                                                                    
                                                                                                    
                                                                                                    
                                                                                                    
                                                                                                    
                                                                                                    
                                                                                                    
                                                                                                    
                                                                                                    
                                                                                                    
                                                                                                    
                                                                                                    
                                                                                                    
                                                                                                    
                                                                                                    
                                                                                                    
                                                                                                    
                           
<?xpacket end="w"?></metadata>
<defs>
    <style>
      .cls-1 {
        fill: #7400ff;
        fill-rule: evenodd;
      }
    </style>
  </defs>
  <path id="facebook" class="cls-1" d="M1032.62,6050.17a8.268,8.268,0,0,1-1.34,1.17c-2.24,1.51-4.49,3.04-6.68,4.62-1.13.83-2.52,1.85-3.98,1.85h-0.03c-1.46,0-2.86-1.02-3.99-1.85-2.18-1.59-4.43-3.11-6.66-4.62a8,8,0,0,1-1.36-1.17v10.64a2.151,2.151,0,0,0,2.15,2.14h19.74a2.151,2.151,0,0,0,2.15-2.14v-10.64Zm0-3.94a2.157,2.157,0,0,0-2.15-2.14h-19.74a2.182,2.182,0,0,0-2.15,2.44c0,1.22,1.36,2.73,2.31,3.37,2.08,1.45,4.19,2.9,6.26,4.36,0.88,0.6,2.35,1.83,3.44,1.83h0.03c1.08,0,2.56-1.23,3.43-1.83,2.08-1.46,4.18-2.91,6.28-4.36A4.821,4.821,0,0,0,1032.62,6046.23Z" transform="translate(-1008.59 -6044.09)"/>
</svg>
