<svg xmlns="http://www.w3.org/2000/svg" width="120" height="26.76" viewBox="0 0 120 26.76">
  <metadata><?xpacket begin="﻿" id="W5M0MpCehiHzreSzNTczkc9d"?>
<x:xmpmeta xmlns:x="adobe:ns:meta/" x:xmptk="Adobe XMP Core 5.6-c140 79.160451, 2017/05/06-01:08:21        ">
   <rdf:RDF xmlns:rdf="http://www.w3.org/1999/02/22-rdf-syntax-ns#">
      <rdf:Description rdf:about=""/>
   </rdf:RDF>
</x:xmpmeta>
                                                                                                    
                                                                                                    
                                                                                                    
                                                                                                    
                                                                                                    
                                                                                                    
                                                                                                    
                                                                                                    
                                                                                                    
                                                                                                    
                                                                                                    
                                                                                                    
                                                                                                    
                                                                                                    
                                                                                                    
                                                                                                    
                                                                                                    
                                                                                                    
                                                                                                    
                                                                                                    
                           
<?xpacket end="w"?></metadata>
<defs>
    <style>
      .cls-1 {
        fill: #7400ff;
        fill-rule: evenodd;
      }
    </style>
  </defs>
  <path class="cls-1" d="M656.73,5899.92a0.784,0.784,0,0,1-.239-0.58v-22.3a0.878,0.878,0,0,1,.222-0.62,0.777,0.777,0,0,1,.6-0.24h8.871a10.116,10.116,0,0,1,6.592,1.95,6.793,6.793,0,0,1,2.381,5.55,7.093,7.093,0,0,1-1.2,4.2,6.66,6.66,0,0,1-3.356,2.45l4.966,8.73a0.9,0.9,0,0,1,.1.38,0.682,0.682,0,0,1-.222.52,0.742,0.742,0,0,1-.5.2H671.8a1.254,1.254,0,0,1-.856-0.26,2.5,2.5,0,0,1-.548-0.66l-4.383-8.12h-4.693v8.22a0.788,0.788,0,0,1-.239.58,0.836,0.836,0,0,1-.617.24h-3.151A0.793,0.793,0,0,1,656.73,5899.92Zm9.35-12.71a4.512,4.512,0,0,0,3.082-.91,3.344,3.344,0,0,0,1.028-2.65,3.462,3.462,0,0,0-1.028-2.69,4.415,4.415,0,0,0-3.082-.94h-4.761v7.19h4.761Zm12.268,12.75a0.709,0.709,0,0,1-.2-0.52l0.068-.31,8.22-22.09a1.24,1.24,0,0,1,1.233-.86h3.767a1.24,1.24,0,0,1,1.233.86l8.22,22.09,0.068,0.31a0.679,0.679,0,0,1-.223.52,0.74,0.74,0,0,1-.5.2h-3.048a1,1,0,0,1-.994-0.65l-1.575-4.15H684.479l-1.576,4.15a1,1,0,0,1-.993.65h-3.048A0.722,0.722,0,0,1,678.348,5899.96Zm7.329-8.57h7.74l-3.87-10.55Zm17.9,8.53a0.785,0.785,0,0,1-.24-0.58v-22.3a0.879,0.879,0,0,1,.223-0.62,0.777,0.777,0,0,1,.6-0.24h9.179a9.932,9.932,0,0,1,6.507,1.95,6.972,6.972,0,0,1,2.363,5.69,6.76,6.76,0,0,1-2.363,5.6,10.093,10.093,0,0,1-6.507,1.9h-5.035v8.02a0.783,0.783,0,0,1-.24.6,0.859,0.859,0,0,1-.616.22h-3.288A0.793,0.793,0,0,1,703.581,5899.92Zm9.59-12.43a4.372,4.372,0,0,0,3.03-.95,3.493,3.493,0,0,0,1.045-2.75,3.722,3.722,0,0,0-1.01-2.78,4.223,4.223,0,0,0-3.065-.99h-4.932v7.47h4.932Zm48.3,12.09a7.9,7.9,0,0,1-3.322-2.43,5.757,5.757,0,0,1-1.2-3.29,0.73,0.73,0,0,1,.205-0.5,0.662,0.662,0,0,1,.514-0.22h3.116a1.068,1.068,0,0,1,.617.17,1.706,1.706,0,0,1,.445.48,3.474,3.474,0,0,0,1.558,1.95,6.054,6.054,0,0,0,3.339.79,6.563,6.563,0,0,0,3.614-.81,2.5,2.5,0,0,0,1.215-2.2,2.1,2.1,0,0,0-.616-1.55,5.192,5.192,0,0,0-1.867-1.08q-1.25-.45-3.715-1.11a14.593,14.593,0,0,1-5.925-2.53,5.572,5.572,0,0,1-1.884-4.53,6.006,6.006,0,0,1,1.1-3.54,7.237,7.237,0,0,1,3.134-2.45,11.818,11.818,0,0,1,4.743-.89,11.3,11.3,0,0,1,4.915.99,8.127,8.127,0,0,1,3.15,2.49,5.476,5.476,0,0,1,1.148,2.96,0.731,0.731,0,0,1-.206.5,0.7,0.7,0,0,1-.513.22h-3.254a1.025,1.025,0,0,1-1.027-.62,2.651,2.651,0,0,0-1.336-1.83,6.2,6.2,0,0,0-5.839-.02,2.36,2.36,0,0,0-1.079,2.09,2.22,2.22,0,0,0,.548,1.54,4.5,4.5,0,0,0,1.712,1.08,30.848,30.848,0,0,0,3.391,1.05,23.283,23.283,0,0,1,4.846,1.54,6.3,6.3,0,0,1,2.654,2.16,5.908,5.908,0,0,1,.856,3.32,6.243,6.243,0,0,1-1.216,3.85,7.517,7.517,0,0,1-3.424,2.49,14.139,14.139,0,0,1-5.121.85A13.48,13.48,0,0,1,761.474,5899.58Zm-35.529-.24c0,0.03,0,.07.009,2.54l4.922-4.92v-16.92l-4.923-4.93c0,1.83-.008,1.86-0.008,1.89v22.34Zm28.239-13.84q-0.205-9.315-10.309-9.32h-8.357a0.777,0.777,0,0,0-.6.24,0.878,0.878,0,0,0-.222.62v6.69l4.828,4.77v-8.34H743.7a4.837,4.837,0,0,1,5.617,5.44c0.045,1.33.068,2.17,0.068,2.54,0,0.34-.023,1.2-0.068,2.57a6.036,6.036,0,0,1-1.336,4.21,5.664,5.664,0,0,1-4.11,1.27h-4.35v-7.69l-4.828,4.76v6.08a0.784,0.784,0,0,0,.239.58,0.793,0.793,0,0,0,.582.24h8.528q5.1,0,7.552-2.28c1.632-1.52,2.494-3.87,2.586-7.07,0.045-1.33.068-2.2,0.068-2.64Q754.252,5887.48,754.184,5885.5Z" transform="translate(-656.5 -5875.12)"/>
</svg>
