<svg xmlns="http://www.w3.org/2000/svg" width="77.94" height="75.31" viewBox="0 0 77.94 75.31">
  <metadata><?xpacket begin="﻿" id="W5M0MpCehiHzreSzNTczkc9d"?>
<x:xmpmeta xmlns:x="adobe:ns:meta/" x:xmptk="Adobe XMP Core 5.6-c140 79.160451, 2017/05/06-01:08:21        ">
   <rdf:RDF xmlns:rdf="http://www.w3.org/1999/02/22-rdf-syntax-ns#">
      <rdf:Description rdf:about=""/>
   </rdf:RDF>
</x:xmpmeta>
                                                                                                    
                                                                                                    
                                                                                                    
                                                                                                    
                                                                                                    
                                                                                                    
                                                                                                    
                                                                                                    
                                                                                                    
                                                                                                    
                                                                                                    
                                                                                                    
                                                                                                    
                                                                                                    
                                                                                                    
                                                                                                    
                                                                                                    
                                                                                                    
                                                                                                    
                                                                                                    
                           
<?xpacket end="w"?></metadata>
<defs>
    <style>
      .cls-1 {
        fill: #fff;
        fill-rule: evenodd;
      }
    </style>
  </defs>
  <path id="gitlab-icon" class="cls-1" d="M7409.41,3650.25a38.564,38.564,0,0,0-12.32,75.24c1.95,0.36,2.66-.83,2.66-1.86,0-.91-0.03-3.34-0.05-6.56-10.84,2.33-13.13-5.18-13.13-5.18-1.77-4.46-4.32-5.65-4.32-5.65-3.54-2.39.26-2.34,0.26-2.34,3.91,0.27,5.97,3.97,5.97,3.97,3.48,5.91,9.12,4.2,11.34,3.21a8.242,8.242,0,0,1,2.48-5.16c-8.66-.97-17.75-4.29-17.75-19.08a14.851,14.851,0,0,1,4.01-10.36,13.773,13.773,0,0,1,.38-10.22s3.27-1.04,10.72,3.96a37.25,37.25,0,0,1,19.51,0c7.44-5,10.71-3.96,10.71-3.96a13.773,13.773,0,0,1,.38,10.22,14.807,14.807,0,0,1,4.01,10.36c0,14.83-9.11,18.1-17.79,19.05,1.4,1.19,2.64,3.55,2.64,7.15,0,5.16-.05,9.33-0.05,10.59,0,1.04.71,2.24,2.68,1.86A38.568,38.568,0,0,0,7409.41,3650.25Z" transform="translate(-7370.44 -3650.25)"/>
</svg>
