<svg xmlns="http://www.w3.org/2000/svg" width="75.18" height="70" viewBox="0 0 75.18 70">
  <metadata><?xpacket begin="﻿" id="W5M0MpCehiHzreSzNTczkc9d"?>
<x:xmpmeta xmlns:x="adobe:ns:meta/" x:xmptk="Adobe XMP Core 5.6-c140 79.160451, 2017/05/06-01:08:21        ">
   <rdf:RDF xmlns:rdf="http://www.w3.org/1999/02/22-rdf-syntax-ns#">
      <rdf:Description rdf:about=""/>
   </rdf:RDF>
</x:xmpmeta>
                                                                                                    
                                                                                                    
                                                                                                    
                                                                                                    
                                                                                                    
                                                                                                    
                                                                                                    
                                                                                                    
                                                                                                    
                                                                                                    
                                                                                                    
                                                                                                    
                                                                                                    
                                                                                                    
                                                                                                    
                                                                                                    
                                                                                                    
                                                                                                    
                                                                                                    
                                                                                                    
                           
<?xpacket end="w"?></metadata>
<defs>
    <style>
      .cls-1 {
        fill: #fff;
        fill-rule: evenodd;
      }
    </style>
  </defs>
  <path id="google-group" class="cls-1" d="M7158.67,3694.79a17.681,17.681,0,0,1-3.17-10,18.679,18.679,0,0,1,.2-2.58,15.538,15.538,0,0,1-5.2.9c-5.28,0-9.35-3.32-10.17-3.32-4.97,0-4.85,10.62-4.85,13.79,0,4.33,3.67,6.21,7.59,6.21h5.24A13.829,13.829,0,0,1,7158.67,3694.79Zm41.89,24.88c0-8.83-2.07-22.38-13.53-22.38-1.33,0-6.18,5.43-14,5.43s-12.68-5.43-14.01-5.43c-11.46,0-13.53,13.55-13.53,22.38,0,6.33,4.19,10.12,10.44,10.12h34.19C7196.38,3729.79,7200.56,3726,7200.56,3719.67Zm-40.05-49.88a10.015,10.015,0,1,0-10.01,10A10.025,10.025,0,0,0,7160.51,3669.79Zm27.54,15a15.02,15.02,0,1,0-15.02,15A15.016,15.016,0,0,0,7188.05,3684.79Zm22.53,8.79c0-3.17.11-13.79-4.85-13.79-0.82,0-4.89,3.32-10.17,3.32a15.64,15.64,0,0,1-5.21-.9,18.679,18.679,0,0,1,.2,2.58,17.606,17.606,0,0,1-3.17,10,13.85,13.85,0,0,1,10.37,5h5.24C7206.9,3699.79,7210.58,3697.91,7210.58,3693.58Zm-5.01-23.79a10.015,10.015,0,1,0-10.01,10A10.025,10.025,0,0,0,7205.57,3669.79Z" transform="translate(-7135.38 -3659.78)"/>
</svg>
