<svg xmlns="http://www.w3.org/2000/svg" width="99" height="79.24" viewBox="0 0 99 79.24">
  <metadata><?xpacket begin="﻿" id="W5M0MpCehiHzreSzNTczkc9d"?>
<x:xmpmeta xmlns:x="adobe:ns:meta/" x:xmptk="Adobe XMP Core 5.6-c140 79.160451, 2017/05/06-01:08:21        ">
   <rdf:RDF xmlns:rdf="http://www.w3.org/1999/02/22-rdf-syntax-ns#">
      <rdf:Description rdf:about=""/>
   </rdf:RDF>
</x:xmpmeta>
                                                                                                    
                                                                                                    
                                                                                                    
                                                                                                    
                                                                                                    
                                                                                                    
                                                                                                    
                                                                                                    
                                                                                                    
                                                                                                    
                                                                                                    
                                                                                                    
                                                                                                    
                                                                                                    
                                                                                                    
                                                                                                    
                                                                                                    
                                                                                                    
                                                                                                    
                                                                                                    
                           
<?xpacket end="w"?></metadata>
<defs>
    <style>
      .cls-1 {
        fill: #bababc;
        fill-rule: evenodd;
      }
    </style>
  </defs>
  <path id="hassle-free" class="cls-1" d="M1350.6,3574.82a22.106,22.106,0,0,0-17.02-.83,21.875,21.875,0,0,0-12.51,11.35,22.243,22.243,0,0,0,27.7,30.34,21.887,21.887,0,0,0,12.5-11.35A22.23,22.23,0,0,0,1350.6,3574.82Zm-18.88,20.42,7.15,4.54,9.81-17.65,4.47,2.49L1340.7,3607l-11.72-7.45Zm49.04,10.68-8.2-7.63a31.454,31.454,0,0,0-.33-9.39l7.95-6.95-0.35-.96c-0.19-.53-0.34-0.94-0.5-1.31a41.835,41.835,0,0,0-2.49-5.19l-0.45-.78-11.24.37a31.981,31.981,0,0,0-5.21-4.86l0.68-10.6-0.87-.44a41.282,41.282,0,0,0-7.66-3l-0.88-.25-7.56,8.11a30.842,30.842,0,0,0-5.52.01l-7.17-8.18-0.9.25a40,40,0,0,0-4.13,1.38,40.851,40.851,0,0,0-3.87,1.75l-0.84.44,0.4,10.82a31.549,31.549,0,0,0-4.07,3.78l-11.11-.77-0.47.78a40.635,40.635,0,0,0-3.51,7.35l-0.33.92,7.78,7.25a31.252,31.252,0,0,0-.46,7.22l-8.45,7.38,0.22,0.88a41,41,0,0,0,1.74,5.44c0.17,0.43.35,0.85,0.53,1.27l0.41,0.93,10.57-.35a31.612,31.612,0,0,0,6.33,7.18l-0.72,11.12,0.81,0.46a41.2,41.2,0,0,0,5.41,2.58l0.95,0.37,7.28-7.81a31.351,31.351,0,0,0,11.13.41l7.22,8.23,0.93-.3c0.87-.27,1.73-0.58,2.56-0.9,0.84-.34,1.71-0.71,2.58-1.13l0.89-.42-0.41-10.93a31.088,31.088,0,0,0,7.76-7.84l10.69,0.74,0.43-.93a42,42,0,0,0,2.18-5.61Zm-4.73,4.3-10.38-.71-0.48.74a28.1,28.1,0,0,1-8.1,8.19l-0.69.46,0.4,10.61c-0.51.23-1.01,0.44-1.51,0.63-0.47.19-.95,0.37-1.45,0.54l-7-7.99-0.83.14a28.61,28.61,0,0,1-11.61-.44l-0.85-.21-7.08,7.59a36.15,36.15,0,0,1-3.26-1.57l0.69-10.78-0.61-.49a28.587,28.587,0,0,1-6.71-7.63l-0.45-.75-10.27.34a2.6,2.6,0,0,1-.1-0.25,37.224,37.224,0,0,1-1.39-4.18l8.18-7.14-0.06-.75a28.864,28.864,0,0,1,.53-7.97l0.18-.83-7.56-7.03a38.655,38.655,0,0,1,2.45-5.11l10.76,0.74,0.49-.57a28.539,28.539,0,0,1,4.71-4.36l0.64-.47-0.4-10.49c0.9-.43,1.82-0.84,2.75-1.21,0.96-.37,1.94-0.71,2.94-1.01l6.95,7.93,0.78-.09a28.442,28.442,0,0,1,6.39-.02l0.74,0.09,7.33-7.86a39.657,39.657,0,0,1,5.36,2.09l-0.66,10.29,0.68,0.48a28.9,28.9,0,0,1,5.78,5.37l0.46,0.57,10.91-.36a40.742,40.742,0,0,1,1.88,4.03c0.03,0.09.07,0.18,0.11,0.28l-7.73,6.74,0.19,0.86a28.193,28.193,0,0,1,.37,9.99l-0.11.77,7.96,7.4C1376.96,3607.97,1376.52,3609.11,1376.03,3610.22Zm21.71,9.2,2.26-1.52c-0.03-.12-0.06-0.23-0.09-0.35a9.185,9.185,0,0,0-.46-1.37l-2.88-.26a7.96,7.96,0,0,0-1.39-1.66l0.51-2.68a10.33,10.33,0,0,0-1.82-.99l-2.19,1.82a7.743,7.743,0,0,0-1.74-.21l-1.57-2.32c-0.36.06-.72,0.13-1.08,0.22s-0.69.19-1.02,0.31l-0.24,2.78a7.061,7.061,0,0,0-1.44,1.02l-2.81-.55a10.091,10.091,0,0,0-1.11,1.72l1.76,2.1a7.457,7.457,0,0,0-.42,2.15l-2.4,1.61a10.005,10.005,0,0,0,.27,1.41c0.03,0.12.06,0.23,0.09,0.34l2.71,0.25a7.882,7.882,0,0,0,1.57,2.3l-0.54,2.82a10.5,10.5,0,0,0,1.27.81l2.12-1.76a7.969,7.969,0,0,0,3.15.52l1.58,2.33c0.22-.04.45-0.09,0.67-0.15s0.46-.12.68-0.2l0.25-2.8a7.821,7.821,0,0,0,2.49-1.95l2.71,0.53a11.384,11.384,0,0,0,.72-1.33l-1.85-2.21A7.808,7.808,0,0,0,1397.74,3619.42Zm-6.63,6.18a5.715,5.715,0,1,1,4.35-6.82c0.03,0.16.06,0.31,0.08,0.46A5.707,5.707,0,0,1,1391.11,3625.6Z" transform="translate(-1301 -3554.88)"/>
</svg>
