<?xml version="1.0" encoding="utf-8"?>
<!-- Generator: Adobe Illustrator 22.1.0, SVG Export Plug-In . SVG Version: 6.00 Build 0)  -->
<svg version="1.1" id="Layer_1" xmlns="http://www.w3.org/2000/svg" xmlns:xlink="http://www.w3.org/1999/xlink" x="0px" y="0px"
	 viewBox="0 0 850 511.7" style="enable-background:new 0 0 850 511.7;" xml:space="preserve">
<style type="text/css">
	.st0{fill:none;}
	.st1{fill:#999999;}
	.st2{fill:#7400FF;}
	.st3{fill:#666666;}
	.st4{fill:#D216D2;}
	.st5{fill:#36C9DD;}
	.st6{fill:#FFB500;}
	.st7{fill:none;stroke:#666666;stroke-linecap:square;}
</style>
<title>Asset 12</title>
<g id="Layer_2_1_">
	<g id="Layer_1-2">
		<path class="st0" d="M0,0.7v511h850V0.7H0z M423.7,494c-1.7,0-3-0.8-3.9-2c0,0-0.1,0-0.1,0c-2.7,0.1-5-2.4-5-5v-7.3
			c0-1.8,1-3.3,2.4-4.2c2-2.5,6.2-3.2,8.3,0.3c0.6,1,1,2,1.2,3.2c0,0.1,0.1,0.4,0.2,0.7c1.9,1.5,2.6,4.5,1.3,6.6
			c0.4,0.8,0.6,1.7,0.7,2.7C429,491.7,426.2,494,423.7,494z M598.3,484c0,0-0.1,0.1-0.1,0.1c0,0,0,0,0,0c-0.5,0.7-1.1,1.2-1.9,1.5
			c0,0-0.1,0-0.1,0c-0.1,0-0.3,0.1-0.4,0.1c-0.1,0-0.2,0.1-0.3,0.1c0.1,0.8,0.2,1.6,0.4,2.4c0.6,2.5-0.6,4.9-2.9,5.9
			c-2.1,0.9-5.2,0.2-6.2-2c-0.2-0.4-0.3-0.8-0.5-1.2c0,0,0,0,0,0c0-0.1,0-0.2-0.1-0.3c-1.1-3.4-0.8-6.7-0.8-10.4
			c0-2.3,1.6-4,3.7-4.8c1.2-0.5,2.6-0.4,3.9-0.1c0.4,0.1,0.8,0.3,1.3,0.5c-0.2-0.1,0.9,0.1,0.2,0.1c0,0,0,0,0,0c1.8,0,3.2,0.8,3.9,2
			c0.6,0.8,1,1.8,1,3C599.3,482.1,598.9,483.1,598.3,484z M835.1,481c-0.4,2.7-1.8,5.1-3.8,6.8c-1.7,1.4-4,2-6.1,0.8
			c-1.9-1.1-2.9-3.5-2.3-5.6c0-0.1,0.1-0.3,0.1-0.4c0,0,0,0,0,0c-0.1-0.3,0-0.9-0.1-1.2c-0.1-1.2-0.2-2.4-0.2-3.6c0-2,1-3.4,2.3-4.2
			c0.5-1.5,1.6-2.8,3.3-3.3c2.4-0.7,5.7,0.8,6.2,3.5C834.9,476.1,835.4,478.6,835.1,481z"/>
		<polyline class="st1" points="417.9,78.7 416.4,78.7 416.4,388.7 417.9,388.7 417.9,78.7 		"/>
		<polyline class="st1" points="288.2,78.7 286.7,78.7 286.7,388.7 288.2,388.7 288.2,78.7 		"/>
		<polyline class="st1" points="547.6,78.7 546.1,78.7 546.1,388.7 547.6,388.7 547.6,78.7 		"/>
		<polyline class="st1" points="677.3,78.7 675.8,78.7 675.8,388.7 677.3,388.7 677.3,78.7 		"/>
		<polyline class="st1" points="807,78.7 805.6,78.7 805.6,388.7 807,388.7 807,78.7 		"/>
		<path class="st2" d="M45.5,36.5H26.2V2.2h19.4v4.7H31.8v9.3h12.9V21H31.8v10.7h13.8V36.5z"/>
		<path class="st2" d="M73.4,36.5h-5.5V20.5c0.1-1.6-0.3-3.2-1.2-4.5c-1-1.1-2.4-1.6-3.8-1.5c-2.3,0-4,0.7-5.1,2.1s-1.6,3.7-1.6,6.9
			v12.9h-5.5V10.6H55l0.8,3.4H56c0.8-1.3,2-2.3,3.3-2.9c1.5-0.7,3.1-1,4.8-1c6.2,0,9.3,3.2,9.3,9.5V36.5z"/>
		<path class="st2" d="M88.5,36.9c-2.9,0.1-5.7-1.2-7.5-3.5c-1.8-2.3-2.7-5.6-2.7-9.9s0.9-7.5,2.7-9.9c1.8-2.4,4.7-3.7,7.6-3.6
			c3.1-0.2,6,1.3,7.8,3.8h0.3c-0.2-1.5-0.4-2.9-0.4-4.4V0h5.5v36.5h-4.3l-1-3.4h-0.3C94.5,35.6,91.6,37.1,88.5,36.9z M90,32.5
			c2.3,0,3.9-0.6,4.9-1.9s1.6-3.3,1.6-6.2v-0.8c0-3.3-0.5-5.6-1.6-7c-1.2-1.4-3.1-2.2-5-2.1c-1.8-0.1-3.5,0.8-4.5,2.4
			c-1.2,2-1.7,4.4-1.6,6.7c0,2.9,0.5,5.1,1.5,6.6C86.4,31.7,88.2,32.6,90,32.5z"/>
		<path class="st2" d="M107.1,26v-4.7h12V26H107.1z"/>
		<path class="st2" d="M133.8,32.5c1.4,0,2.7-0.2,4-0.6V36c-0.8,0.3-1.6,0.5-2.4,0.7c-1,0.2-2,0.3-3,0.3c-5.2,0-7.8-2.8-7.8-8.2v-14
			h-3.5v-2.4l3.8-2l1.9-5.5h3.4v5.8h7.4v4.2h-7.4v13.9c-0.1,1.1,0.3,2.1,1,3C131.9,32.2,132.9,32.5,133.8,32.5z"/>
		<path class="st2" d="M164.4,23.5c0,4.2-1.1,7.5-3.3,9.9c-2.2,2.4-5.2,3.6-9.1,3.6c-2.2,0-4.5-0.5-6.4-1.6
			c-1.9-1.1-3.4-2.7-4.3-4.7c-1-2.2-1.6-4.7-1.5-7.1c0-4.2,1.1-7.5,3.2-9.8c2.2-2.4,5.2-3.5,9.1-3.5c3.4-0.2,6.6,1.2,8.9,3.6
			C163.3,16.1,164.4,19.4,164.4,23.5z M145.5,23.5c0,6,2.2,9,6.6,9s6.6-3,6.6-9c0-5.9-2.2-8.9-6.6-8.9c-2-0.2-3.8,0.7-5,2.3
			C145.9,18.9,145.4,21.2,145.5,23.5L145.5,23.5z"/>
		<path class="st2" d="M168.8,26v-4.7h12V26H168.8z"/>
		<path class="st2" d="M206.3,36.5h-19.4V2.2h19.4v4.7h-13.8v9.3h12.9V21h-12.9v10.7h13.8L206.3,36.5z"/>
		<path class="st2" d="M234.2,36.5h-5.5V20.5c0.1-1.6-0.3-3.2-1.2-4.5c-1-1.1-2.4-1.6-3.8-1.5c-2.3,0-4,0.7-5.1,2.1
			c-1.1,1.4-1.6,3.7-1.6,6.9v12.9h-5.5V10.6h4.3l0.8,3.4h0.3c0.8-1.3,2-2.3,3.3-2.9c1.5-0.7,3.1-1,4.8-1c6.2,0,9.3,3.2,9.3,9.5
			L234.2,36.5z"/>
		<path class="st2" d="M249.3,36.9c-2.9,0.1-5.8-1.2-7.6-3.5c-1.8-2.3-2.7-5.6-2.7-9.9s0.9-7.5,2.8-9.9c1.8-2.4,4.7-3.7,7.6-3.6
			c3.1-0.2,6,1.3,7.8,3.8h0.3c-0.2-1.5-0.4-2.9-0.4-4.4V0h5.5v36.5h-4.3l-1-3.4H257C255.3,35.6,252.4,37.1,249.3,36.9z M250.8,32.5
			c2.3,0,3.9-0.6,4.9-1.9s1.6-3.3,1.6-6.2v-0.8c0-3.3-0.5-5.6-1.6-7c-1.2-1.5-3.1-2.2-5-2.1c-1.8-0.1-3.5,0.8-4.5,2.4
			c-1.2,2-1.7,4.4-1.6,6.7c-0.1,2.3,0.4,4.6,1.5,6.6C247.2,31.7,248.9,32.6,250.8,32.5z"/>
		<path class="st2" d="M287.6,36.5h-5.5V2.2h19.3v4.7h-13.8v10.7h12.9v4.8h-12.9V36.5z"/>
		<path class="st2" d="M320.8,36.5l-1.1-3.6h-0.2c-1,1.4-2.3,2.5-3.8,3.2c-1.5,0.6-3.2,0.9-4.9,0.9c-2.2,0.1-4.4-0.6-6-2.1
			c-1.5-1.6-2.3-3.7-2.1-5.9c-0.1-2.4,1-4.7,3-6c2-1.3,5-2.1,9.1-2.2l4.5-0.1v-1.3c0.1-1.3-0.3-2.7-1.2-3.7c-1-0.9-2.3-1.3-3.6-1.2
			c-1.3,0-2.6,0.2-3.8,0.6c-1.2,0.4-2.4,0.8-3.5,1.4l-1.8-3.9c1.4-0.8,3-1.3,4.6-1.7c1.6-0.4,3.1-0.6,4.7-0.6c3.3,0,5.8,0.7,7.5,2.1
			s2.5,3.7,2.6,6.8v17.5H320.8z M312.6,32.7c1.8,0.1,3.5-0.5,4.8-1.7c1.3-1.2,1.9-2.9,1.8-4.7v-2.2l-3.3,0.1c-2-0.1-3.9,0.4-5.7,1.3
			c-1.2,0.8-1.8,2.1-1.8,3.5c-0.1,1,0.3,2,1,2.7C310.4,32.5,311.5,32.8,312.6,32.7z"/>
		<path class="st2" d="M348.6,29.1c0.1,2.3-0.9,4.5-2.8,5.8c-1.9,1.3-4.5,2-7.9,2c-2.9,0.1-5.7-0.4-8.3-1.6v-4.7
			c2.7,1.3,5.6,2,8.5,2.1c3.4,0,5.1-1,5.1-3.1c0-0.6-0.2-1.2-0.6-1.6c-0.5-0.6-1.2-1-1.9-1.4c-1.2-0.6-2.4-1.1-3.6-1.6
			c-3-1.1-5-2.3-6.1-3.5c-1.1-1.2-1.6-2.9-1.6-4.5c-0.1-2.1,0.9-4,2.7-5.2c2.2-1.3,4.7-2,7.3-1.8c3,0,5.9,0.6,8.6,1.9l-1.8,4.1
			c-2.2-1-4.6-1.6-7-1.7c-2.9,0-4.4,0.8-4.4,2.5c0,0.8,0.4,1.6,1.1,2.1c1.6,1,3.3,1.7,5,2.3c1.6,0.6,3.2,1.3,4.7,2.3
			c0.9,0.6,1.6,1.4,2.2,2.4C348.4,26.9,348.7,28,348.6,29.1z"/>
		<path class="st2" d="M363.7,32.5c1.4,0,2.7-0.2,4-0.6V36c-0.8,0.3-1.5,0.5-2.4,0.7c-1,0.2-2,0.3-3,0.3c-5.2,0-7.8-2.8-7.8-8.2v-14
			H351v-2.4l3.8-2l1.9-5.5h3.4v5.8h7.4v4.2h-7.4v13.9c-0.1,1.1,0.3,2.1,1,3C361.8,32.2,362.7,32.5,363.7,32.5z"/>
		<path class="st2" d="M382.6,36.9c-4,0-7.2-1.2-9.5-3.5s-3.4-5.6-3.4-9.7c0-4.2,1.1-7.6,3.2-10c2.2-2.5,5.4-3.8,8.7-3.6
			c3-0.2,6,1,8.1,3.1c2,2.1,3,4.9,3,8.6v3h-17.3c-0.1,2.1,0.6,4.2,2,5.8c1.4,1.4,3.4,2.1,5.4,2c1.4,0,2.9-0.1,4.3-0.4
			c1.5-0.3,2.9-0.8,4.2-1.4v4.5c-1.3,0.6-2.7,1.1-4.1,1.4C385.7,36.8,384.1,36.9,382.6,36.9z M381.6,14.2c-1.6-0.1-3.1,0.5-4.2,1.7
			c-1.2,1.4-1.8,3.1-1.9,4.9h11.8c0.1-1.8-0.5-3.5-1.5-4.9C384.6,14.8,383.1,14.2,381.6,14.2L381.6,14.2z"/>
		<path class="st2" d="M410.8,10.1c0.9,0,1.8,0.1,2.8,0.2l-0.5,5.1c-0.8-0.2-1.6-0.3-2.4-0.3c-2-0.1-4,0.7-5.4,2.2
			c-1.4,1.5-2.1,3.5-2,5.6v13.6h-5.5V10.6h4.4l0.7,4.6h0.3c0.8-1.5,2-2.8,3.4-3.7C407.7,10.6,409.2,10.1,410.8,10.1z"/>
		<path class="st2" d="M449.7,27.2c0.1,2.8-1.1,5.5-3.3,7.2c-2.2,1.7-5.2,2.6-9.1,2.6c-3.3,0.1-6.5-0.5-9.5-1.8v-5.3
			c1.6,0.7,3.3,1.3,5,1.7c1.6,0.4,3.3,0.6,4.9,0.6c1.7,0.1,3.5-0.3,4.9-1.3c1-0.8,1.6-2.1,1.6-3.4c0-1.2-0.5-2.4-1.5-3.3
			c-1.8-1.4-3.8-2.4-6-3.2c-3.1-1.3-5.3-2.7-6.6-4.3c-1.3-1.7-2-3.7-1.9-5.9c-0.1-2.6,1-5.1,3-6.8c2.4-1.7,5.3-2.6,8.2-2.5
			c3.4,0,6.7,0.8,9.8,2.2l-1.8,4.6c-2.6-1.2-5.3-1.8-8.2-1.9c-1.5-0.1-2.9,0.3-4.1,1.2c-0.9,0.8-1.4,1.9-1.4,3.1
			c0,0.8,0.2,1.6,0.6,2.3c0.5,0.7,1.1,1.3,1.9,1.8c1.5,0.9,3,1.6,4.6,2.2c2,0.7,3.8,1.7,5.5,2.9c1.1,0.8,2,1.9,2.6,3.1
			C449.4,24.4,449.7,25.8,449.7,27.2z"/>
		<path class="st2" d="M467.5,36.9c-3,0.1-5.8-1.2-7.6-3.5h-0.3c0.2,2.2,0.3,3.5,0.3,4V48h-5.5V10.6h4.5c0.1,0.5,0.4,1.6,0.8,3.5
			h0.3c1.7-2.6,4.6-4.1,7.7-3.9c2.9-0.1,5.8,1.2,7.6,3.5c1.8,2.3,2.7,5.6,2.7,9.9c0,4.2-0.9,7.5-2.8,9.9
			C473.2,35.7,470.4,37.1,467.5,36.9z M466.1,14.6c-1.8-0.2-3.6,0.6-4.8,1.9c-1,1.3-1.5,3.3-1.5,6.1v0.8c0,3.2,0.5,5.4,1.5,6.9
			s2.6,2.1,4.9,2.1c1.8,0.1,3.5-0.8,4.4-2.4c1.1-2,1.7-4.4,1.5-6.7c0-2.9-0.5-5.1-1.5-6.6C469.6,15.3,467.9,14.5,466.1,14.6
			L466.1,14.6z"/>
		<path class="st2" d="M494.4,36.9c-4,0-7.2-1.2-9.5-3.5c-2.3-2.4-3.4-5.6-3.4-9.7c0-4.2,1.1-7.6,3.2-10c2.2-2.5,5.4-3.8,8.7-3.6
			c3-0.2,6,1,8.1,3.1c2,2.1,3,4.9,3,8.6v3h-17.3c-0.1,2.1,0.6,4.2,2,5.8c1.4,1.4,3.4,2.1,5.4,2c1.4,0,2.9-0.1,4.3-0.4
			c1.5-0.3,2.9-0.8,4.2-1.4v4.5c-1.3,0.6-2.7,1.1-4.1,1.4C497.5,36.8,496,36.9,494.4,36.9z M493.4,14.2c-1.6-0.1-3.1,0.5-4.2,1.7
			c-1.2,1.4-1.8,3.1-1.9,4.9h11.8c0.1-1.8-0.5-3.5-1.5-4.9C496.4,14.8,494.9,14.2,493.4,14.2z"/>
		<path class="st2" d="M520.9,36.9c-4,0-7.2-1.2-9.5-3.5c-2.3-2.4-3.4-5.6-3.4-9.7c0-4.2,1.1-7.6,3.2-10c2.2-2.5,5.4-3.8,8.7-3.6
			c3-0.2,6,1,8.1,3.1c2,2.1,3,4.9,3,8.6v3h-17.3c-0.1,2.1,0.6,4.2,2,5.8c1.4,1.4,3.4,2.1,5.4,2c1.4,0,2.9-0.1,4.3-0.4
			c1.5-0.3,2.9-0.8,4.2-1.4v4.5c-1.3,0.6-2.7,1.1-4.1,1.4C524,36.8,522.4,36.9,520.9,36.9z M519.9,14.2c-1.6-0.1-3.1,0.5-4.2,1.7
			c-1.2,1.4-1.8,3.1-1.9,4.9h11.8c0.1-1.8-0.5-3.5-1.5-4.9C522.9,14.8,521.4,14.2,519.9,14.2z"/>
		<path class="st2" d="M544.9,36.9c-3,0.1-5.8-1.2-7.6-3.5c-1.8-2.3-2.7-5.6-2.7-9.9c0-4.2,0.9-7.5,2.8-9.9c1.8-2.4,4.7-3.7,7.6-3.5
			c3.1-0.2,6,1.3,7.8,3.8h0.3c-0.2-1.5-0.4-2.9-0.4-4.4V0h5.5v36.5h-4.3l-1-3.4h-0.3C550.9,35.6,548,37.1,544.9,36.9z M546.4,32.5
			c2.3,0,3.9-0.6,5-1.9s1.6-3.3,1.6-6.2v-0.8c0-3.3-0.5-5.6-1.6-7c-1.2-1.4-3.1-2.2-5-2.1c-1.8-0.1-3.5,0.8-4.5,2.4
			c-1.2,2-1.7,4.4-1.6,6.7c-0.1,2.3,0.4,4.6,1.5,6.6C542.9,31.7,544.6,32.6,546.4,32.5L546.4,32.5z"/>
		<path class="st2" d="M582.3,29.1c0.1,2.3-0.9,4.5-2.8,5.8c-1.8,1.3-4.5,2-7.9,2c-2.9,0.1-5.7-0.4-8.3-1.6v-4.7
			c2.7,1.3,5.6,2,8.5,2.1c3.4,0,5.1-1,5.1-3.1c0-0.6-0.2-1.2-0.6-1.6c-0.5-0.6-1.2-1-1.9-1.4c-1.2-0.6-2.4-1.1-3.6-1.6
			c-3-1.1-5-2.3-6.1-3.5c-1.1-1.2-1.7-2.9-1.6-4.5c-0.1-2.1,1-4,2.7-5.2c2.2-1.3,4.7-2,7.3-1.8c3,0,5.9,0.6,8.7,1.9l-1.8,4.1
			c-2.2-1-4.6-1.6-7.1-1.7c-2.9,0-4.4,0.8-4.4,2.5c0,0.8,0.4,1.6,1.1,2.1c1.6,1,3.3,1.7,5,2.3c1.6,0.6,3.2,1.3,4.7,2.3
			c0.9,0.6,1.6,1.4,2.2,2.4C582.2,26.9,582.4,28,582.3,29.1z"/>
		<path class="st2" d="M622.3,23.5c0,4.2-1.1,7.5-3.3,9.9s-5.2,3.6-9,3.6c-2.2,0-4.5-0.5-6.4-1.6c-1.9-1.1-3.4-2.7-4.3-4.7
			c-1-2.2-1.6-4.7-1.5-7.1c0-4.2,1.1-7.5,3.2-9.8s5.2-3.5,9.1-3.5c3.3-0.2,6.6,1.2,8.9,3.6C621.2,16.1,622.3,19.4,622.3,23.5z
			 M603.4,23.5c0,6,2.2,9,6.6,9c4.4,0,6.6-3,6.6-9c0-5.9-2.2-8.9-6.6-8.9c-2-0.2-3.8,0.7-5,2.3C603.9,18.9,603.3,21.2,603.4,23.5z"
			/>
		<path class="st2" d="M650,36.5h-5.5V20.5c0.1-1.6-0.3-3.2-1.2-4.5c-1-1.1-2.4-1.6-3.8-1.5c-2.3,0-4,0.7-5.1,2.1s-1.6,3.7-1.6,6.9
			v12.9h-5.5V10.6h4.3l0.8,3.4h0.3c0.8-1.3,2-2.3,3.3-2.9c1.5-0.7,3.1-1,4.8-1c6.2,0,9.3,3.2,9.3,9.5V36.5z"/>
		<path class="st2" d="M674.9,22.8v13.7h-5.6V2.2h9.7c4.4,0,7.7,0.8,9.8,2.5c2.1,1.7,3.2,4.2,3.2,7.5c0,4.3-2.2,7.3-6.7,9.1
			l9.6,15.2h-6.4l-8.2-13.7L674.9,22.8z M674.9,18.1h3.9c2.6,0,4.5-0.5,5.7-1.5c1.2-1.1,1.9-2.7,1.8-4.3c0.1-1.6-0.6-3.2-1.9-4.2
			c-1.7-1-3.7-1.4-5.7-1.3h-3.7V18.1z"/>
		<path class="st2" d="M722.6,36.5l-3.4-9.5h-13.1l-3.3,9.5h-5.9l12.8-34.5h6.1l12.8,34.4H722.6z M717.7,22.1l-3.2-9.3
			c-0.2-0.6-0.6-1.6-1-3s-0.7-2.3-0.9-2.9c-0.5,2.1-1.1,4.2-1.8,6.3l-3.1,8.9L717.7,22.1z"/>
		<path class="st2" d="M755,12.6c0,3.6-1.2,6.3-3.5,8.2s-5.7,2.9-10,2.9h-3.6v12.8h-5.6V2.2h9.9c4.3,0,7.5,0.9,9.6,2.6
			C754,6.6,755,9.2,755,12.6z M737.9,18.9h3c2.9,0,5-0.5,6.3-1.5c1.4-1.1,2.1-2.9,2-4.7c0.1-1.7-0.5-3.3-1.8-4.4
			c-1.2-1-3.1-1.4-5.6-1.4h-3.9L737.9,18.9z"/>
		<path class="st2" d="M759.8,36.5V2.2h5.6v34.3H759.8z"/>
		<path class="st2" d="M800.8,19c0,5.6-1.6,10-4.7,13s-7.7,4.5-13.6,4.5h-9.6V2.2h10.6c5.5,0,9.7,1.5,12.7,4.4S800.8,13.7,800.8,19z
			 M794.9,19.2c0-8.2-3.8-12.3-11.5-12.3h-4.8v24.9h4C790.8,31.8,794.9,27.6,794.9,19.2L794.9,19.2z"/>
		<path class="st2" d="M826.2,27.2c0.1,2.8-1.1,5.5-3.3,7.2c-2.2,1.7-5.2,2.6-9.1,2.6c-3.3,0.1-6.5-0.5-9.5-1.8v-5.3
			c1.6,0.7,3.3,1.3,5,1.7c1.6,0.4,3.3,0.6,4.9,0.6c1.7,0.1,3.5-0.3,4.9-1.3c1-0.8,1.6-2.1,1.6-3.4c0-1.2-0.5-2.4-1.5-3.3
			c-1.8-1.4-3.8-2.4-6-3.2c-3.1-1.3-5.3-2.7-6.6-4.3c-1.3-1.7-2-3.7-1.9-5.9c-0.1-2.6,1-5.1,3-6.8c2.4-1.7,5.3-2.6,8.2-2.5
			c3.4,0,6.7,0.8,9.8,2.2L824,8.4c-2.6-1.2-5.3-1.8-8.2-1.9c-1.5-0.1-2.9,0.3-4.1,1.2c-0.9,0.8-1.4,1.9-1.4,3.1
			c0,0.8,0.2,1.6,0.6,2.3c0.5,0.7,1.1,1.3,1.8,1.8c1.5,0.9,3,1.6,4.6,2.2c2,0.7,3.8,1.7,5.5,2.9c1.1,0.8,2,1.9,2.6,3.1
			C826,24.4,826.3,25.8,826.2,27.2z"/>
		<path class="st3" d="M33.3,254.6c1.2-0.1,2.3,0.3,3.2,1c0.8,0.7,1.2,1.7,1.2,2.8c0.1,1.2-0.4,2.3-1.3,3.1c-1,0.8-2.2,1.2-3.5,1.1
			c-1.1,0.1-2.3-0.2-3.3-0.7v-1.4c0.5,0.3,1,0.5,1.5,0.6c0.6,0.1,1.2,0.2,1.8,0.2c0.9,0.1,1.7-0.2,2.4-0.7c0.6-0.5,0.9-1.3,0.9-2.1
			c0-1.8-1.1-2.7-3.3-2.7c-0.7,0-1.5,0.1-2.2,0.2l-0.8-0.5l0.5-6h6.4v1.4h-5.1l-0.3,3.9C32,254.7,32.7,254.6,33.3,254.6z"/>
		<path class="st3" d="M48.1,256c0.1,1.7-0.2,3.5-1,5c-1.2,1.8-3.7,2.2-5.4,1c-0.4-0.3-0.7-0.6-1-1c-0.8-1.5-1.2-3.3-1.1-5
			c-0.1-1.7,0.2-3.5,1-5c1.3-1.7,3.7-2.1,5.4-0.9c0.4,0.3,0.7,0.6,0.9,1C47.8,252.6,48.2,254.3,48.1,256z M41.1,256
			c-0.1,1.4,0.1,2.8,0.7,4.1c0.6,1.2,2,1.6,3.2,1c0.4-0.2,0.8-0.6,1-1c0.9-2.6,0.9-5.5,0-8.1c-0.6-1.2-2-1.6-3.2-1
			c-0.4,0.2-0.8,0.6-1,1C41.3,253.3,41,254.6,41.1,256L41.1,256z"/>
		<path class="st3" d="M61,250.8c-1.3-0.1-2.5,0.5-3.3,1.4c-0.9,1.1-1.3,2.5-1.2,3.9c-0.1,1.4,0.3,2.8,1.2,3.9
			c0.9,1,2.1,1.5,3.4,1.4c1,0,2.1-0.2,3.1-0.5v1.3c-1.1,0.4-2.2,0.5-3.3,0.5c-1.6,0.1-3.2-0.5-4.4-1.7c-1.1-1.4-1.7-3.1-1.6-4.9
			c0-1.2,0.2-2.4,0.8-3.5c0.5-1,1.2-1.8,2.1-2.3c1-0.6,2.1-0.8,3.3-0.8c1.2,0,2.4,0.2,3.5,0.7l-0.6,1.3C63,251,62,250.8,61,250.8z"
			/>
		<path class="st3" d="M75,253.4c0.1,1.2-0.4,2.3-1.3,3c-1.1,0.8-2.5,1.1-3.8,1h-1.5v5.1h-1.5v-12.8h3.3
			C73.4,249.6,75,250.9,75,253.4z M68.3,256.1h1.3c1,0.1,2-0.1,2.9-0.6c0.6-0.5,1-1.3,0.9-2.1c0.1-0.7-0.3-1.4-0.8-1.9
			c-0.8-0.5-1.7-0.7-2.6-0.6h-1.7L68.3,256.1z"/>
		<path class="st3" d="M87.4,249.6v8.3c0.1,1.3-0.4,2.6-1.4,3.5c-1,0.9-2.3,1.3-3.7,1.2c-1.3,0.1-2.6-0.4-3.6-1.3
			c-0.9-0.9-1.3-2.2-1.3-3.5v-8.3H79v8.4c-0.1,0.9,0.3,1.8,0.9,2.5c0.7,0.6,1.6,0.9,2.6,0.9c0.9,0.1,1.8-0.2,2.5-0.9
			c0.6-0.7,0.9-1.6,0.9-2.5v-8.4L87.4,249.6z"/>
		<path class="st3" d="M105.5,262.5h-1.7l-7-10.8h-0.1c0.1,1.3,0.1,2.4,0.1,3.5v7.3h-1.4v-12.9h1.7l7,10.7h0.1c0-0.2,0-0.7-0.1-1.5
			s-0.1-1.5,0-1.8v-7.4h1.4L105.5,262.5z"/>
		<path class="st3" d="M117.1,257.6c0.1,1.3-0.3,2.6-1.2,3.7c-0.8,0.9-2,1.4-3.3,1.3c-0.8,0-1.6-0.2-2.3-0.6c-0.7-0.4-1.2-1-1.6-1.7
			c-0.4-0.8-0.6-1.7-0.5-2.7c-0.1-1.3,0.3-2.6,1.2-3.7c0.8-0.9,2-1.4,3.3-1.3c1.2-0.1,2.4,0.4,3.2,1.3
			C116.8,255,117.2,256.3,117.1,257.6z M109.8,257.6c-0.1,1,0.2,2,0.7,2.8c0.5,0.7,1.3,1,2.2,1c0.8,0,1.7-0.3,2.2-1
			c0.6-0.8,0.8-1.8,0.8-2.8c0.1-1-0.2-2-0.8-2.8c-0.5-0.7-1.3-1-2.2-1c-0.8-0.1-1.6,0.3-2.2,0.9
			C109.9,255.6,109.7,256.6,109.8,257.6z"/>
		<path class="st3" d="M126.2,261.2L126.2,261.2c-0.8,1-1.9,1.5-3.1,1.5c-1.1,0.1-2.2-0.4-2.9-1.3c-0.8-1.1-1.1-2.4-1.1-3.7
			c-0.1-1.3,0.3-2.6,1.1-3.7c1.4-1.6,3.9-1.8,5.5-0.3c0.2,0.1,0.3,0.3,0.4,0.4h0.1l-0.1-0.7v-0.7v-3.9h1.5v13.7h-1.2L126.2,261.2z
			 M123.3,261.4c0.8,0.1,1.6-0.2,2.2-0.8c0.5-0.8,0.7-1.7,0.7-2.6v-0.3c0.1-1-0.1-2.1-0.7-2.9c-0.5-0.6-1.3-0.9-2.2-0.9
			c-0.8,0-1.6,0.3-2,1c-0.5,0.9-0.7,1.8-0.7,2.8c-0.1,1,0.2,1.9,0.7,2.8C121.8,261.1,122.5,261.5,123.3,261.4z"/>
		<path class="st3" d="M134.8,262.6c-1.3,0.1-2.5-0.4-3.4-1.3c-0.9-1-1.3-2.3-1.2-3.6c-0.1-1.3,0.3-2.6,1.1-3.7
			c0.8-0.9,1.9-1.4,3.1-1.4c1.1-0.1,2.1,0.4,2.9,1.2c0.7,0.9,1.1,2,1.1,3.1v0.9h-6.6c0,0.9,0.3,1.9,0.9,2.6c0.6,0.6,1.4,0.9,2.3,0.9
			c1.1,0,2.1-0.2,3.1-0.6v1.3c-0.5,0.2-1,0.4-1.5,0.5C135.9,262.6,135.3,262.6,134.8,262.6z M134.4,253.9c-0.7,0-1.4,0.2-1.9,0.8
			c-0.5,0.6-0.8,1.3-0.8,2.1h5c0.1-0.8-0.2-1.5-0.6-2.1C135.7,254.1,135,253.9,134.4,253.9L134.4,253.9z"/>
		<path class="st3" d="M147,259.9c0,0.8-0.3,1.6-1,2.1c-0.8,0.5-1.8,0.8-2.8,0.7c-1,0.1-2.1-0.2-3-0.6v-1.4c0.5,0.2,1,0.4,1.5,0.6
			c0.5,0.1,1,0.2,1.5,0.2c0.6,0,1.2-0.1,1.8-0.4c0.4-0.2,0.6-0.7,0.6-1.1c0-0.4-0.2-0.8-0.5-1c-0.6-0.4-1.2-0.7-1.9-0.9
			c-0.7-0.2-1.3-0.5-1.9-0.9c-0.3-0.2-0.6-0.5-0.8-0.9c-0.2-0.3-0.3-0.7-0.3-1.1c0-0.8,0.4-1.5,1-1.9c0.8-0.5,1.7-0.7,2.6-0.7
			c1,0,2.1,0.2,3,0.6l-0.5,1.2c-0.8-0.4-1.7-0.6-2.6-0.6c-0.5,0-1.1,0.1-1.6,0.3c-0.3,0.2-0.5,0.5-0.5,0.9c0,0.2,0.1,0.5,0.2,0.7
			c0.2,0.2,0.4,0.4,0.6,0.5c0.5,0.3,1.1,0.5,1.7,0.7c0.9,0.3,1.6,0.7,2.3,1.3C146.8,258.7,147,259.2,147,259.9z"/>
		<path class="st3" d="M24.4,212.6H23v-9.2c0-0.8,0-1.5,0.1-2.2l-0.4,0.4c-0.1,0.1-0.9,0.7-2.1,1.7l-0.8-1l3.4-2.6h1.2L24.4,212.6z"
			/>
		<path class="st3" d="M37.8,206.1c0.1,1.7-0.2,3.5-1,5c-0.7,1.1-1.9,1.7-3.2,1.6c-1.3,0.1-2.5-0.6-3.2-1.7
			c-0.8-1.5-1.2-3.2-1.1-4.9c-0.1-1.7,0.2-3.5,1-5c0.7-1.1,1.9-1.7,3.2-1.6c1.3-0.1,2.5,0.6,3.2,1.7
			C37.6,202.7,37.9,204.4,37.8,206.1z M30.8,206.1c-0.1,1.4,0.1,2.8,0.7,4.1c0.6,1.2,2,1.6,3.2,1c0.4-0.2,0.8-0.6,1-1
			c0.9-2.6,0.9-5.5,0-8.1c-0.6-1.2-2-1.6-3.2-1c-0.4,0.2-0.8,0.6-1,1C31,203.4,30.7,204.7,30.8,206.1L30.8,206.1z"/>
		<path class="st3" d="M48.1,206.1c0.1,1.7-0.2,3.5-1,5c-1.2,1.8-3.7,2.2-5.4,1c-0.4-0.3-0.7-0.6-1-1c-0.8-1.5-1.2-3.2-1.1-4.9
			c-0.1-1.7,0.2-3.5,1-5c1.3-1.7,3.7-2.1,5.4-0.9c0.4,0.3,0.7,0.6,0.9,1C47.8,202.7,48.2,204.4,48.1,206.1z M41.1,206.1
			c-0.1,1.4,0.1,2.8,0.7,4.1c0.6,1.2,2,1.6,3.2,1c0.4-0.2,0.8-0.6,1-1c0.9-2.6,0.9-5.5,0-8.1c-0.6-1.2-2-1.6-3.2-1
			c-0.4,0.2-0.8,0.6-1,1C41.3,203.4,41,204.7,41.1,206.1L41.1,206.1z"/>
		<path class="st3" d="M61,200.9c-1.3-0.1-2.5,0.5-3.3,1.4c-0.9,1.1-1.3,2.5-1.2,3.9c-0.1,1.4,0.3,2.8,1.2,3.9
			c0.9,1,2.1,1.5,3.4,1.4c1,0,2.1-0.2,3.1-0.5v1.3c-1.1,0.4-2.2,0.5-3.3,0.5c-1.7,0.1-3.3-0.5-4.4-1.7c-1.1-1.4-1.7-3.1-1.5-4.9
			c0-1.2,0.2-2.4,0.8-3.5c0.5-1,1.2-1.8,2.1-2.3c1-0.6,2.1-0.8,3.3-0.8c1.2,0,2.4,0.2,3.5,0.7l-0.6,1.3C63,201.1,62,200.9,61,200.9z
			"/>
		<path class="st3" d="M75,203.4c0.1,1.2-0.4,2.3-1.3,3c-1.1,0.8-2.5,1.1-3.8,1.1h-1.5v5.1h-1.5v-12.8h3.3
			C73.4,199.7,75,201,75,203.4z M68.3,206.2h1.3c1,0.1,2-0.1,2.9-0.6c0.6-0.5,1-1.3,0.9-2.1c0.1-0.7-0.3-1.4-0.8-1.9
			c-0.8-0.5-1.7-0.7-2.6-0.6h-1.7L68.3,206.2z"/>
		<path class="st3" d="M87.4,199.7v8.3c0.1,1.3-0.4,2.6-1.4,3.5c-1,0.9-2.3,1.3-3.7,1.2c-1.3,0.1-2.6-0.4-3.6-1.3
			c-0.9-0.9-1.3-2.2-1.2-3.5v-8.3H79v8.4c-0.1,0.9,0.3,1.8,0.9,2.5c0.7,0.6,1.6,0.9,2.6,0.9c0.9,0.1,1.8-0.2,2.5-0.9
			c0.6-0.7,0.9-1.6,0.9-2.5v-8.4L87.4,199.7z"/>
		<path class="st3" d="M105.5,212.6h-1.7l-7-10.8h-0.1c0.1,1.3,0.1,2.4,0.1,3.5v7.3h-1.4v-12.8h1.7l7,10.7h0.1c0-0.2,0-0.7-0.1-1.5
			s-0.1-1.5,0-1.8v-7.4h1.4L105.5,212.6z"/>
		<path class="st3" d="M117.1,207.7c0.1,1.3-0.3,2.6-1.2,3.7c-0.8,0.9-2,1.4-3.3,1.3c-0.8,0-1.6-0.2-2.3-0.6c-0.7-0.4-1.2-1-1.6-1.7
			c-0.4-0.8-0.6-1.7-0.5-2.7c-0.1-1.3,0.3-2.6,1.2-3.7c0.8-0.9,2-1.4,3.3-1.3c1.2-0.1,2.4,0.4,3.2,1.3
			C116.8,205.1,117.2,206.4,117.1,207.7z M109.8,207.7c-0.1,1,0.2,2,0.7,2.8c0.5,0.7,1.3,1,2.2,1c0.8,0,1.7-0.3,2.2-1
			c0.6-0.8,0.8-1.8,0.8-2.8c0.1-1-0.2-2-0.8-2.8c-0.5-0.7-1.3-1-2.2-0.9c-0.8-0.1-1.6,0.3-2.2,0.9
			C110,205.8,109.7,206.7,109.8,207.7z"/>
		<path class="st3" d="M126.2,211.3L126.2,211.3c-0.8,1-1.9,1.5-3.1,1.5c-1.1,0.1-2.2-0.4-2.9-1.3c-0.8-1.1-1.1-2.4-1.1-3.7
			c-0.1-1.3,0.3-2.6,1.1-3.7c1.4-1.6,3.9-1.8,5.5-0.3c0.2,0.1,0.3,0.3,0.4,0.4h0.1l-0.1-0.7v-0.7v-3.9h1.5v13.7h-1.2L126.2,211.3z
			 M123.3,211.5c0.8,0.1,1.6-0.2,2.2-0.8c0.5-0.8,0.7-1.7,0.7-2.6v-0.3c0.1-1-0.1-2.1-0.7-2.9c-0.5-0.6-1.3-0.9-2.2-0.9
			c-0.8,0-1.6,0.3-2,1c-0.5,0.9-0.7,1.8-0.7,2.8c-0.1,1,0.2,1.9,0.7,2.8C121.8,211.2,122.5,211.6,123.3,211.5L123.3,211.5z"/>
		<path class="st3" d="M134.8,212.7c-1.3,0.1-2.5-0.4-3.4-1.3c-0.9-1-1.3-2.3-1.2-3.6c-0.1-1.3,0.3-2.6,1.1-3.7
			c0.8-0.9,1.9-1.4,3.1-1.4c1.1-0.1,2.1,0.4,2.9,1.2c0.7,0.9,1.1,2,1.1,3.1v0.9h-6.6c0,0.9,0.3,1.9,0.9,2.6c0.6,0.6,1.4,0.9,2.3,0.9
			c1.1,0,2.1-0.2,3.1-0.6v1.3c-0.5,0.2-1,0.4-1.5,0.5C135.9,212.7,135.3,212.7,134.8,212.7z M134.4,204c-0.7,0-1.4,0.2-1.9,0.8
			c-0.5,0.6-0.8,1.3-0.8,2.1h5c0.1-0.8-0.2-1.5-0.6-2.1C135.7,204.2,135,204,134.4,204L134.4,204z"/>
		<path class="st3" d="M147,209.9c0,0.8-0.3,1.6-1,2.1c-0.8,0.5-1.8,0.8-2.8,0.7c-1,0.1-2.1-0.2-3-0.6v-1.4c0.5,0.2,1,0.4,1.5,0.6
			c0.5,0.1,1,0.2,1.5,0.2c0.6,0,1.2-0.1,1.8-0.4c0.6-0.4,0.8-1.1,0.4-1.7c-0.1-0.1-0.2-0.2-0.3-0.3c-0.6-0.4-1.2-0.7-1.9-0.9
			c-0.7-0.2-1.3-0.5-1.9-0.9c-0.3-0.2-0.6-0.5-0.8-0.9c-0.2-0.3-0.3-0.7-0.3-1.1c0-0.8,0.4-1.5,1-1.9c0.8-0.5,1.7-0.7,2.6-0.7
			c1,0,2.1,0.2,3,0.6l-0.5,1.2c-0.8-0.4-1.7-0.6-2.6-0.6c-0.5,0-1.1,0.1-1.6,0.3c-0.3,0.2-0.5,0.5-0.5,0.9c0,0.2,0.1,0.5,0.2,0.7
			c0.2,0.2,0.4,0.4,0.6,0.5c0.5,0.3,1.1,0.5,1.7,0.7c0.9,0.3,1.6,0.7,2.3,1.3C146.8,208.8,147,209.3,147,209.9z"/>
		<path class="st3" d="M107.2,156.1c0.1,1.8-0.5,3.5-1.7,4.9c-1.4,1.2-3.2,1.8-5,1.7h-3.5v-12.9h3.9c3.2-0.3,6,2,6.3,5.2
			C107.2,155.3,107.2,155.7,107.2,156.1z M105.6,156.1c0.1-1.4-0.4-2.7-1.3-3.8c-1-0.9-2.4-1.4-3.8-1.3h-2.2v10.3h1.8
			c1.5,0.1,2.9-0.4,4-1.3C105.2,158.9,105.7,157.6,105.6,156.1L105.6,156.1z"/>
		<path class="st3" d="M115.7,155.9h4.3v6.2c-0.7,0.2-1.4,0.4-2.1,0.5c-0.8,0.1-1.6,0.2-2.4,0.2c-1.7,0.1-3.3-0.5-4.6-1.7
			c-1.1-1.4-1.7-3.1-1.6-4.9c0-1.2,0.2-2.4,0.8-3.5c0.5-1,1.3-1.8,2.3-2.3c1.1-0.6,2.3-0.8,3.5-0.8c1.3,0,2.6,0.2,3.8,0.8l-0.6,1.3
			c-1.1-0.5-2.2-0.7-3.3-0.7c-1.4-0.1-2.7,0.4-3.7,1.4c-0.9,1.1-1.4,2.5-1.3,3.9c-0.1,1.4,0.4,2.8,1.3,3.9c1,0.9,2.4,1.4,3.7,1.3
			c0.9,0,1.8-0.1,2.6-0.3v-4h-2.9L115.7,155.9z"/>
		<path class="st3" d="M131.7,162.6H130l-3.5-5.6l-3.5,5.6h-1.6l4.3-6.7l-4-6.1h1.7l3.2,5.1l3.2-5.1h1.6l-4,6.1L131.7,162.6z"/>
		<path class="st3" d="M132.5,158.5v-1.3h4.3v1.3H132.5z"/>
		<path class="st3" d="M146.9,162.6h-8.4v-1.3l3.4-3.4c0.7-0.7,1.4-1.4,2-2.2c0.3-0.4,0.5-0.8,0.7-1.3c0.2-0.4,0.3-0.9,0.2-1.4
			c0-0.6-0.2-1.2-0.6-1.6c-0.5-0.4-1.1-0.6-1.7-0.6c-0.5,0-1,0.1-1.5,0.3c-0.6,0.3-1.1,0.6-1.6,1l-0.8-1c1.1-0.9,2.4-1.5,3.9-1.5
			c1-0.1,2,0.3,2.8,0.9c0.7,0.6,1.1,1.6,1,2.5c0,0.9-0.2,1.7-0.7,2.4c-0.7,1.1-1.6,2.1-2.6,3l-2.8,2.8v0.1h6.6L146.9,162.6z"/>
		<path class="st3" d="M74.7,104.9c1.1-0.1,2.3,0.3,3.2,1c0.8,0.7,1.2,1.7,1.1,2.8c0.1,1.2-0.4,2.3-1.3,3.1c-1,0.8-2.2,1.2-3.5,1.1
			c-1.1,0.1-2.2-0.2-3.2-0.7v-1.4c0.5,0.3,1,0.5,1.5,0.6c0.6,0.1,1.2,0.2,1.8,0.2c0.9,0.1,1.7-0.2,2.4-0.7c0.6-0.5,0.9-1.3,0.9-2.1
			c0-1.8-1.1-2.7-3.3-2.7c-0.7,0-1.5,0.1-2.2,0.2l-0.8-0.5l0.5-6h6.4v1.3H73l-0.3,3.9C73.3,104.9,74,104.9,74.7,104.9z"/>
		<path class="st3" d="M90.4,112.7h-1.7l-3.4-5.7l-3.5,5.7h-1.6l4.3-6.7l-4-6.1h1.7l3.2,5.1l3.2-5.1h1.6l-4,6.1L90.4,112.7z"/>
		<path class="st3" d="M107.2,106.2c0.1,1.8-0.5,3.5-1.7,4.9c-1.4,1.2-3.2,1.8-5,1.7h-3.5V99.9h3.9c3.2-0.3,6,2,6.3,5.2
			C107.2,105.4,107.2,105.8,107.2,106.2z M105.6,106.2c0.1-1.4-0.4-2.7-1.3-3.8c-1-0.9-2.4-1.4-3.8-1.3h-2.2v10.3h1.8
			c1.5,0.1,2.9-0.4,4-1.3C105.2,109,105.7,107.6,105.6,106.2L105.6,106.2z"/>
		<path class="st3" d="M115.7,106h4.3v6.2c-0.7,0.2-1.4,0.4-2.1,0.5c-0.8,0.1-1.6,0.2-2.4,0.2c-1.7,0.1-3.4-0.5-4.6-1.7
			c-1.1-1.4-1.7-3.1-1.6-4.9c0-1.2,0.2-2.4,0.8-3.5c0.5-1,1.3-1.8,2.3-2.3c1.1-0.6,2.3-0.8,3.5-0.8c1.3,0,2.6,0.3,3.8,0.8l-0.6,1.3
			c-1.1-0.5-2.2-0.7-3.3-0.7c-1.4-0.1-2.7,0.4-3.7,1.4c-0.9,1.1-1.4,2.5-1.3,3.9c-0.1,1.4,0.4,2.8,1.3,3.9c1,1,2.4,1.4,3.7,1.3
			c0.9,0,1.8-0.1,2.6-0.3v-4h-2.9L115.7,106z"/>
		<path class="st3" d="M131.7,112.7H130l-3.4-5.7l-3.6,5.7h-1.6l4.3-6.7l-4-6.1h1.7l3.2,5.1l3.2-5.1h1.6l-4,6.1L131.7,112.7z"/>
		<path class="st3" d="M132.5,108.6v-1.3h4.3v1.3H132.5z"/>
		<path class="st3" d="M143.8,112.7h-1.4v-9.2c0-0.8,0-1.5,0.1-2.2l-0.4,0.4c-0.1,0.1-0.9,0.7-2.1,1.7l-0.8-1l3.4-2.6h1.2
			L143.8,112.7z"/>
		<path class="st3" d="M160.6,405.6c0.1,1.4-0.2,2.9-0.9,4.1c-1,1.5-3,1.8-4.5,0.8c-0.3-0.2-0.6-0.5-0.8-0.8c-0.7-1.3-1-2.7-0.9-4.1
			c-0.1-1.4,0.2-2.9,0.9-4.1c1-1.5,3.1-1.8,4.5-0.8c0.3,0.2,0.6,0.5,0.8,0.8C160.4,402.8,160.7,404.2,160.6,405.6z M154.7,405.6
			c-0.1,1.2,0.1,2.3,0.6,3.4c0.5,1,1.7,1.3,2.7,0.8c0.3-0.2,0.6-0.5,0.8-0.8c0.4-1.1,0.6-2.2,0.5-3.4c0.1-1.2-0.1-2.3-0.5-3.4
			c-0.5-1-1.7-1.3-2.7-0.8c-0.3,0.2-0.6,0.5-0.8,0.8C154.9,403.3,154.7,404.4,154.7,405.6z"/>
		<path class="st3" d="M276.3,411h-7v-1l2.8-2.8c0.6-0.6,1.2-1.2,1.7-1.9c0.2-0.3,0.5-0.7,0.6-1.1c0.1-0.4,0.2-0.7,0.2-1.1
			c0-0.5-0.2-1-0.5-1.4c-0.4-0.4-0.9-0.5-1.5-0.5c-0.4,0-0.9,0.1-1.3,0.2c-0.5,0.2-0.9,0.5-1.3,0.8l-0.6-0.8c0.9-0.8,2-1.2,3.2-1.2
			c0.9-0.1,1.7,0.2,2.4,0.8c0.6,0.5,0.9,1.3,0.9,2.1c0,0.7-0.2,1.4-0.6,2c-0.6,0.9-1.3,1.8-2.1,2.5l-2.3,2.3v0.1h5.5L276.3,411z"/>
		<path class="st3" d="M279.5,409.2l0.1,0.2c-0.1,0.5-0.3,1.1-0.5,1.7s-0.5,1.2-0.8,1.8h-0.9c0.1-0.5,0.3-1.1,0.4-1.9
			s0.3-1.4,0.3-1.8L279.5,409.2z"/>
		<path class="st3" d="M288.3,405.6c0.1,1.4-0.2,2.9-0.9,4.1c-0.6,0.9-1.6,1.4-2.7,1.4c-1.1,0-2.1-0.5-2.6-1.4
			c-0.7-1.3-1-2.7-0.9-4.1c-0.1-1.4,0.2-2.9,0.9-4.1c1-1.5,3.1-1.8,4.5-0.8c0.3,0.2,0.6,0.5,0.8,0.8
			C288.1,402.7,288.4,404.2,288.3,405.6z M282.4,405.6c-0.1,1.2,0.1,2.3,0.6,3.4c0.5,1,1.7,1.3,2.7,0.8c0.3-0.2,0.6-0.5,0.8-0.8
			c0.4-1.1,0.6-2.2,0.5-3.4c0.1-1.2-0.1-2.3-0.5-3.4c-0.3-0.7-1-1.1-1.8-1.1c-0.7,0-1.4,0.4-1.8,1.1
			C282.6,403.3,282.4,404.4,282.4,405.6z"/>
		<path class="st3" d="M297,405.6c0.1,1.4-0.2,2.9-0.9,4.1c-1,1.5-3,1.8-4.5,0.8c-0.3-0.2-0.6-0.5-0.8-0.8c-0.7-1.3-1-2.7-0.9-4.1
			c-0.1-1.4,0.2-2.9,0.9-4.1c1-1.5,3.1-1.8,4.5-0.8c0.3,0.2,0.6,0.5,0.8,0.8C296.8,402.8,297.1,404.2,297,405.6z M291.1,405.6
			c-0.1,1.2,0.1,2.3,0.5,3.4c0.5,1,1.7,1.3,2.7,0.8c0.3-0.2,0.6-0.5,0.8-0.8c0.4-1.1,0.6-2.2,0.5-3.4c0.1-1.2-0.1-2.3-0.5-3.4
			c-0.3-0.7-1-1.1-1.8-1.1c-0.7,0-1.4,0.4-1.8,1.1C291.3,403.3,291.1,404.4,291.1,405.6L291.1,405.6z"/>
		<path class="st3" d="M305.8,405.6c0.1,1.4-0.2,2.9-0.9,4.1c-1,1.5-3,1.8-4.5,0.8c-0.3-0.2-0.6-0.5-0.8-0.8c-0.7-1.3-1-2.7-0.9-4.1
			c-0.1-1.4,0.2-2.9,0.9-4.1c1-1.5,3.1-1.8,4.5-0.8c0.3,0.2,0.6,0.5,0.8,0.8C305.6,402.8,305.9,404.2,305.8,405.6z M299.9,405.6
			c-0.1,1.2,0.1,2.3,0.5,3.4c0.5,1,1.7,1.3,2.7,0.8c0.3-0.2,0.6-0.5,0.8-0.8c0.4-1.1,0.6-2.2,0.5-3.4c0.1-1.2-0.1-2.3-0.5-3.4
			c-0.3-0.7-1-1.1-1.8-1.1c-0.7,0-1.4,0.4-1.8,1.1C300.1,403.3,299.9,404.4,299.9,405.6L299.9,405.6z"/>
		<path class="st3" d="M406.4,408.5h-1.6v2.5h-1.2v-2.5h-5.2v-1.1l5.1-7.2h1.3v7.2h1.6L406.4,408.5z M403.6,407.4v-3.6
			c0-0.7,0-1.5,0.1-2.4h-0.1c-0.2,0.4-0.4,0.8-0.6,1.2l-3.4,4.8L403.6,407.4z"/>
		<path class="st3" d="M409.3,409.2l0.1,0.2c-0.1,0.5-0.3,1.1-0.5,1.7s-0.5,1.2-0.8,1.8h-0.9c0.1-0.5,0.3-1.1,0.4-1.9
			s0.3-1.4,0.3-1.8L409.3,409.2z"/>
		<path class="st3" d="M418.1,405.6c0.1,1.4-0.2,2.9-0.9,4.1c-1,1.5-3,1.8-4.5,0.8c-0.3-0.2-0.6-0.5-0.8-0.8c-0.7-1.3-1-2.7-0.9-4.1
			c-0.1-1.4,0.2-2.9,0.9-4.1c1-1.5,3.1-1.8,4.5-0.8c0.3,0.2,0.6,0.5,0.8,0.8C417.8,402.8,418.1,404.2,418.1,405.6z M412.2,405.6
			c-0.1,1.2,0.1,2.3,0.5,3.4c0.5,1,1.7,1.3,2.7,0.8c0.3-0.2,0.6-0.5,0.8-0.8c0.4-1.1,0.6-2.2,0.5-3.4c0.1-1.2-0.1-2.3-0.5-3.4
			c-0.3-0.7-1-1.1-1.8-1.1c-0.7,0-1.4,0.4-1.8,1.1C412.3,403.3,412.2,404.4,412.2,405.6z"/>
		<path class="st3" d="M426.8,405.6c0.1,1.4-0.2,2.9-0.9,4.1c-1,1.5-3,1.8-4.5,0.8c-0.3-0.2-0.6-0.5-0.8-0.8c-0.7-1.3-1-2.7-0.9-4.1
			c-0.1-1.4,0.2-2.9,0.9-4.1c1-1.5,3.1-1.8,4.5-0.8c0.3,0.2,0.6,0.5,0.8,0.8C426.6,402.8,426.9,404.2,426.8,405.6z M421,405.6
			c-0.1,1.2,0.1,2.3,0.5,3.4c0.5,1,1.7,1.3,2.7,0.8c0.3-0.2,0.6-0.5,0.8-0.8c0.4-1.1,0.6-2.2,0.5-3.4c0.1-1.2-0.1-2.3-0.5-3.4
			c-0.3-0.7-1-1.1-1.8-1.1c-0.7,0-1.4,0.4-1.8,1.1C421.1,403.3,420.9,404.4,421,405.6L421,405.6z"/>
		<path class="st3" d="M435.6,405.6c0.1,1.4-0.2,2.9-0.9,4.1c-1,1.5-3,1.8-4.5,0.8c-0.3-0.2-0.6-0.5-0.8-0.8c-0.7-1.3-1-2.7-0.9-4.1
			c-0.1-1.4,0.2-2.9,0.9-4.1c1-1.5,3.1-1.8,4.5-0.8c0.3,0.2,0.6,0.5,0.8,0.8C435.3,402.8,435.7,404.2,435.6,405.6z M429.7,405.6
			c-0.1,1.2,0.1,2.3,0.5,3.4c0.5,1,1.7,1.3,2.7,0.8c0.3-0.2,0.6-0.5,0.8-0.8c0.4-1.1,0.6-2.2,0.5-3.4c0.1-1.2-0.1-2.3-0.5-3.4
			c-0.5-1-1.7-1.3-2.7-0.8c-0.3,0.2-0.6,0.5-0.8,0.8C429.8,403.3,429.7,404.4,429.7,405.6z"/>
		<path class="st3" d="M528.7,406.4c-0.1-1.7,0.3-3.3,1.2-4.7c0.9-1.1,2.2-1.7,3.6-1.6c0.4,0,0.9,0,1.3,0.1v1
			c-0.4-0.1-0.8-0.2-1.3-0.2c-1-0.1-2,0.3-2.6,1.1c-0.7,1-1,2.2-1,3.4h0.1c0.6-0.8,1.5-1.3,2.5-1.2c0.8,0,1.7,0.3,2.3,0.9
			c0.6,0.6,0.9,1.5,0.8,2.4c0.1,1-0.3,1.9-0.9,2.6c-0.6,0.7-1.5,1-2.5,1c-1,0-2-0.4-2.6-1.2C529,408.8,528.6,407.6,528.7,406.4z
			 M532.3,410.1c0.6,0,1.2-0.2,1.6-0.6c0.4-0.5,0.6-1.2,0.6-1.9c0-0.6-0.2-1.2-0.5-1.7c-0.4-0.4-1-0.7-1.6-0.6
			c-0.4,0-0.8,0.1-1.2,0.3c-0.4,0.2-0.7,0.4-0.9,0.7c-0.2,0.3-0.3,0.6-0.3,1c0,0.5,0.1,1,0.3,1.4c0.2,0.4,0.5,0.7,0.8,1
			C531.4,409.9,531.9,410.1,532.3,410.1L532.3,410.1z"/>
		<path class="st3" d="M539,409.2l0.1,0.2c-0.1,0.5-0.3,1.1-0.5,1.7s-0.5,1.2-0.8,1.8h-0.9c0.1-0.5,0.3-1.1,0.4-1.9s0.3-1.4,0.3-1.8
			L539,409.2z"/>
		<path class="st3" d="M547.8,405.6c0.1,1.4-0.2,2.9-0.9,4.1c-1,1.5-3,1.8-4.5,0.8c-0.3-0.2-0.6-0.5-0.8-0.8c-0.7-1.3-1-2.7-0.9-4.1
			c-0.1-1.4,0.2-2.9,0.9-4.1c1-1.5,3.1-1.8,4.5-0.8c0.3,0.2,0.6,0.5,0.8,0.8C547.5,402.8,547.8,404.2,547.8,405.6z M541.9,405.6
			c-0.1,1.2,0.1,2.3,0.5,3.4c0.5,1,1.7,1.3,2.7,0.8c0.3-0.2,0.6-0.5,0.8-0.8c0.4-1.1,0.6-2.2,0.5-3.4c0.1-1.2-0.1-2.3-0.5-3.4
			c-0.5-1-1.7-1.3-2.7-0.8c-0.3,0.2-0.6,0.5-0.8,0.8C542,403.3,541.8,404.4,541.9,405.6z"/>
		<path class="st3" d="M556.5,405.6c0.1,1.4-0.2,2.9-0.9,4.1c-1,1.5-3,1.8-4.5,0.8c-0.3-0.2-0.6-0.5-0.8-0.8c-1.2-2.6-1.2-5.6,0-8.3
			c1-1.5,3.1-1.8,4.5-0.8c0.3,0.2,0.6,0.5,0.8,0.8C556.3,402.8,556.6,404.2,556.5,405.6z M550.6,405.6c-0.1,1.2,0.1,2.3,0.5,3.4
			c0.5,1,1.7,1.3,2.7,0.8c0.3-0.2,0.6-0.5,0.8-0.8c0.4-1.1,0.6-2.2,0.5-3.4c0.1-1.2-0.1-2.3-0.5-3.4c-0.5-1-1.7-1.3-2.7-0.8
			c-0.3,0.2-0.6,0.5-0.8,0.8C550.8,403.3,550.6,404.4,550.6,405.6z"/>
		<path class="st3" d="M565.2,405.6c0.1,1.4-0.2,2.9-0.9,4.1c-1,1.5-3,1.8-4.5,0.8c-0.3-0.2-0.6-0.5-0.8-0.8c-0.7-1.3-1-2.7-0.9-4.1
			c-0.1-1.4,0.2-2.9,0.9-4.1c1-1.5,3.1-1.8,4.5-0.8c0.3,0.2,0.6,0.5,0.8,0.8C565,402.8,565.3,404.2,565.2,405.6z M559.4,405.6
			c-0.1,1.2,0.1,2.3,0.5,3.4c0.5,1,1.7,1.3,2.7,0.8c0.3-0.2,0.6-0.5,0.8-0.8c0.4-1.1,0.6-2.2,0.5-3.4c0.1-1.2-0.1-2.3-0.5-3.4
			c-0.5-1-1.7-1.3-2.7-0.8c-0.3,0.2-0.6,0.5-0.8,0.8C559.5,403.3,559.3,404.4,559.4,405.6z"/>
		<path class="st3" d="M661.8,400.1c0.8,0,1.6,0.2,2.3,0.7c0.6,0.4,0.9,1.2,0.9,1.9c0,0.5-0.2,1-0.5,1.4c-0.4,0.5-1,0.9-1.6,1.2
			c0.7,0.3,1.3,0.7,1.9,1.3c0.4,0.4,0.6,1,0.5,1.6c0,0.8-0.3,1.6-0.9,2.1c-0.7,0.6-1.6,0.8-2.5,0.8c-0.9,0.1-1.9-0.2-2.6-0.8
			c-0.6-0.5-1-1.3-0.9-2.1c0-1.2,0.7-2.2,2.2-2.9c-0.6-0.3-1.1-0.7-1.5-1.2c-0.3-0.4-0.4-1-0.4-1.5c0-0.7,0.3-1.4,0.9-1.9
			C660.2,400.3,661,400.1,661.8,400.1z M659.5,408.2c0,0.5,0.2,1,0.6,1.4c0.5,0.4,1.1,0.5,1.7,0.5c0.6,0,1.2-0.2,1.7-0.5
			c0.4-0.3,0.6-0.9,0.6-1.4c0-0.5-0.2-0.9-0.6-1.3c-0.6-0.5-1.3-0.8-2-1.1c-0.6,0.2-1.1,0.6-1.6,1
			C659.7,407.2,659.5,407.7,659.5,408.2z M661.8,401.1c-0.5,0-1,0.1-1.4,0.4c-0.3,0.3-0.5,0.7-0.5,1.2c0,0.4,0.1,0.8,0.4,1.1
			c0.5,0.4,1,0.8,1.6,1c0.6-0.2,1.1-0.5,1.5-0.9c0.3-0.3,0.4-0.7,0.4-1.2c0-0.5-0.2-0.9-0.5-1.2
			C662.9,401.2,662.4,401.1,661.8,401.1z"/>
		<path class="st3" d="M668.7,409.2l0.1,0.2c-0.1,0.5-0.3,1.1-0.5,1.7s-0.5,1.2-0.8,1.8h-0.9c0.1-0.5,0.3-1.1,0.4-1.9
			s0.3-1.4,0.3-1.8L668.7,409.2z"/>
		<path class="st3" d="M677.5,405.6c0.1,1.4-0.2,2.9-0.9,4.1c-0.6,0.9-1.6,1.4-2.7,1.4c-1.1,0-2.1-0.5-2.6-1.4
			c-0.7-1.3-1-2.7-0.9-4.1c-0.1-1.4,0.2-2.9,0.9-4.1c1-1.5,3.1-1.8,4.5-0.8c0.3,0.2,0.6,0.5,0.8,0.8
			C677.2,402.7,677.6,404.2,677.5,405.6z M671.6,405.6c-0.1,1.2,0.1,2.3,0.5,3.4c0.5,1,1.7,1.3,2.7,0.8c0.3-0.2,0.6-0.5,0.8-0.8
			c0.4-1.1,0.6-2.2,0.5-3.4c0.1-1.2-0.1-2.3-0.5-3.4c-0.5-1-1.7-1.3-2.7-0.8c-0.3,0.2-0.6,0.5-0.8,0.8
			C671.7,403.3,671.6,404.4,671.6,405.6z"/>
		<path class="st3" d="M686.2,405.6c0.1,1.4-0.2,2.9-0.9,4.1c-0.6,0.9-1.6,1.4-2.7,1.4c-1.1,0-2.1-0.5-2.6-1.4
			c-0.7-1.3-1-2.7-0.9-4.1c-0.1-1.4,0.2-2.9,0.9-4.1c1-1.5,3.1-1.8,4.5-0.8c0.3,0.2,0.6,0.5,0.8,0.8
			C686,402.7,686.3,404.2,686.2,405.6z M680.4,405.6c-0.1,1.2,0.1,2.3,0.5,3.4c0.5,1,1.7,1.3,2.7,0.8c0.3-0.2,0.6-0.5,0.8-0.8
			c0.4-1.1,0.6-2.2,0.5-3.4c0.1-1.2-0.1-2.3-0.5-3.4c-0.3-0.7-1-1.1-1.8-1.1c-0.7,0-1.4,0.4-1.8,1.1
			C680.5,403.3,680.3,404.4,680.4,405.6z"/>
		<path class="st3" d="M695,405.6c0.1,1.4-0.2,2.9-0.9,4.1c-0.6,0.9-1.6,1.4-2.7,1.4c-1.1,0-2.1-0.5-2.6-1.4c-0.7-1.3-1-2.7-0.9-4.1
			c-0.1-1.4,0.2-2.9,0.9-4.1c1-1.5,3.1-1.8,4.5-0.8c0.3,0.2,0.6,0.5,0.8,0.8C694.8,402.7,695.1,404.2,695,405.6z M689.2,405.6
			c-0.1,1.2,0.1,2.3,0.5,3.4c0.5,1,1.7,1.3,2.7,0.8c0.3-0.2,0.6-0.5,0.8-0.8c0.4-1.1,0.6-2.2,0.5-3.4c0.1-1.2-0.1-2.3-0.5-3.4
			c-0.3-0.7-1-1.1-1.8-1.1c-0.7,0-1.4,0.4-1.8,1.1C689.3,403.3,689.1,404.4,689.2,405.6L689.2,405.6z"/>
		<path class="st3" d="M788.8,411h-1.2v-7.6c0-0.6,0-1.2,0.1-1.8l-0.3,0.3l-1.7,1.4l-0.7-0.8l2.8-2.2h1L788.8,411z"/>
		<path class="st3" d="M799,405.6c0.1,1.4-0.2,2.9-0.9,4.1c-1,1.5-3,1.8-4.5,0.8c-0.3-0.2-0.6-0.5-0.8-0.8c-0.7-1.3-1-2.7-0.9-4.1
			c-0.1-1.4,0.2-2.9,0.9-4.1c1-1.5,3.1-1.8,4.5-0.8c0.3,0.2,0.6,0.5,0.8,0.8C798.8,402.8,799.1,404.2,799,405.6z M793.1,405.6
			c-0.1,1.2,0.1,2.3,0.5,3.4c0.5,1,1.7,1.3,2.7,0.8c0.3-0.2,0.6-0.5,0.8-0.8c0.4-1.1,0.6-2.2,0.5-3.4c0.1-1.2-0.1-2.3-0.5-3.4
			c-0.5-1-1.7-1.3-2.7-0.8c-0.3,0.2-0.6,0.5-0.8,0.8C793.3,403.3,793.1,404.4,793.1,405.6z"/>
		<path class="st3" d="M802.2,409.2l0.1,0.2c-0.1,0.5-0.3,1.1-0.5,1.7s-0.5,1.2-0.8,1.8H800c0.1-0.5,0.3-1.1,0.4-1.9
			s0.3-1.4,0.3-1.8L802.2,409.2z"/>
		<path class="st3" d="M810.9,405.6c0.1,1.4-0.2,2.9-0.9,4.1c-0.6,0.9-1.6,1.4-2.7,1.4c-1.1,0-2.1-0.5-2.6-1.4
			c-0.7-1.3-1-2.7-0.9-4.1c-0.1-1.4,0.2-2.9,0.9-4.1c1-1.5,3.1-1.8,4.5-0.8c0.3,0.2,0.6,0.5,0.8,0.8
			C810.7,402.7,811,404.2,810.9,405.6z M805.1,405.6c-0.1,1.2,0.1,2.3,0.5,3.4c0.5,1,1.7,1.3,2.7,0.8c0.3-0.2,0.6-0.5,0.8-0.8
			c0.4-1.1,0.6-2.2,0.5-3.4c0.1-1.2-0.1-2.3-0.5-3.4c-0.5-1-1.7-1.3-2.7-0.8c-0.3,0.2-0.6,0.5-0.8,0.8
			C805.2,403.3,805,404.4,805.1,405.6L805.1,405.6z"/>
		<path class="st3" d="M819.7,405.6c0.1,1.4-0.2,2.9-0.9,4.1c-0.6,0.9-1.6,1.4-2.7,1.4c-1.1,0-2.1-0.5-2.6-1.4
			c-0.7-1.3-1-2.7-0.9-4.1c-0.1-1.4,0.2-2.9,0.9-4.1c1-1.5,3.1-1.8,4.5-0.8c0.3,0.2,0.6,0.5,0.8,0.8
			C819.4,402.7,819.7,404.2,819.7,405.6z M813.8,405.6c-0.1,1.2,0.1,2.3,0.5,3.4c0.5,1,1.7,1.3,2.7,0.8c0.3-0.2,0.6-0.5,0.8-0.8
			c0.4-1.1,0.6-2.2,0.5-3.4c0.1-1.2-0.1-2.3-0.5-3.4c-0.5-1-1.7-1.3-2.7-0.8c-0.3,0.2-0.6,0.5-0.8,0.8
			C813.9,403.3,813.7,404.4,813.8,405.6L813.8,405.6z"/>
		<path class="st3" d="M828.4,405.6c0.1,1.4-0.2,2.9-0.9,4.1c-0.6,0.9-1.6,1.4-2.7,1.4c-1.1,0-2.1-0.5-2.6-1.4
			c-0.7-1.3-1-2.7-0.9-4.1c-0.1-1.4,0.2-2.9,0.9-4.1c1-1.5,3.1-1.8,4.5-0.8c0.3,0.2,0.6,0.5,0.8,0.8
			C828.2,402.7,828.5,404.2,828.4,405.6z M822.6,405.6c-0.1,1.2,0.1,2.3,0.5,3.4c0.5,1,1.7,1.3,2.7,0.8c0.3-0.2,0.6-0.5,0.8-0.8
			c0.4-1.1,0.6-2.2,0.5-3.4c0.1-1.2-0.1-2.3-0.5-3.4c-0.3-0.7-1-1.1-1.8-1.1c-0.7,0-1.4,0.4-1.8,1.1
			C822.7,403.3,822.5,404.4,822.6,405.6L822.6,405.6z"/>
		<path class="st3" d="M370.1,442.1h-1.2v-9.6h-3.4v-1.1h8v1.1h-3.4L370.1,442.1z"/>
		<path class="st3" d="M375,431.9c0-0.2,0.1-0.4,0.2-0.6c0.3-0.3,0.7-0.3,1,0c0.3,0.4,0.3,0.9,0,1.2c-0.3,0.3-0.7,0.3-1,0
			C375.1,432.4,375,432.2,375,431.9z M376.3,442.1h-1.2v-8h1.2V442.1z"/>
		<path class="st3" d="M389,442.1v-5.2c0-0.5-0.1-1-0.4-1.4c-0.3-0.3-0.8-0.5-1.3-0.5c-0.6-0.1-1.2,0.2-1.7,0.6
			c-0.4,0.6-0.6,1.3-0.5,2v4.5h-1.2v-5.2c0-0.5-0.1-1-0.4-1.4c-0.3-0.3-0.8-0.5-1.3-0.5c-0.6,0-1.3,0.2-1.7,0.7
			c-0.4,0.7-0.6,1.5-0.5,2.2v4.2h-1.2v-8h1l0.2,1.1h0c0.2-0.4,0.6-0.7,1-0.9c0.4-0.2,0.9-0.3,1.4-0.3c1-0.1,2,0.4,2.5,1.4h0.1
			c0.2-0.4,0.6-0.8,1-1c0.5-0.3,1-0.4,1.5-0.4c0.7,0,1.5,0.2,2,0.7c0.5,0.6,0.8,1.4,0.7,2.2v5.2L389,442.1z"/>
		<path class="st3" d="M396.1,442.3c-1,0.1-2.1-0.3-2.8-1.1c-0.7-0.8-1.1-1.9-1-3c-0.1-1.1,0.3-2.2,1-3.1c0.6-0.8,1.6-1.2,2.6-1.1
			c0.9,0,1.8,0.3,2.4,1c0.6,0.7,0.9,1.7,0.9,2.6v0.8h-5.6c0,0.8,0.2,1.5,0.7,2.1c0.5,0.5,1.2,0.8,1.9,0.7c0.9,0,1.8-0.2,2.6-0.5v1.1
			c-0.4,0.2-0.8,0.3-1.2,0.4C397,442.3,396.5,442.3,396.1,442.3z M395.8,435c-0.6,0-1.1,0.2-1.5,0.6c-0.4,0.5-0.7,1.1-0.7,1.7h4.2
			c0-0.6-0.1-1.3-0.5-1.8C396.8,435.2,396.3,435,395.8,435L395.8,435z"/>
		<path class="st3" d="M404.3,438c0-1.2,0.2-2.5,0.6-3.6c0.3-1.1,0.9-2.1,1.6-3h1.2c-0.7,0.9-1.2,2-1.6,3.1
			c-0.4,1.1-0.5,2.3-0.5,3.5c0,1.2,0.2,2.3,0.5,3.4c0.4,1.1,0.9,2.1,1.6,3.1h-1.2c-0.7-0.9-1.3-1.8-1.6-2.9
			C404.5,440.4,404.3,439.2,404.3,438z"/>
		<path class="st3" d="M414.2,439.9c0,0.7-0.3,1.3-0.8,1.7c-0.7,0.4-1.5,0.7-2.4,0.6c-0.9,0-1.7-0.1-2.5-0.5v-1.1
			c0.4,0.2,0.8,0.4,1.2,0.5c0.4,0.1,0.8,0.2,1.3,0.2c0.5,0,1-0.1,1.5-0.3c0.4-0.2,0.6-0.6,0.5-1c0-0.3-0.2-0.6-0.4-0.8
			c-0.5-0.3-1-0.6-1.6-0.8c-0.6-0.2-1.1-0.4-1.6-0.7c-0.3-0.2-0.5-0.4-0.7-0.7c-0.2-0.3-0.2-0.6-0.2-0.9c0-0.6,0.3-1.2,0.8-1.5
			c0.7-0.4,1.4-0.6,2.2-0.6c0.9,0,1.7,0.2,2.5,0.5l-0.4,1c-0.7-0.3-1.4-0.5-2.2-0.5c-0.4,0-0.9,0.1-1.3,0.3
			c-0.3,0.1-0.4,0.4-0.4,0.8c0,0.2,0,0.4,0.2,0.5c0.1,0.2,0.3,0.3,0.5,0.4c0.5,0.2,0.9,0.4,1.4,0.6c0.7,0.2,1.4,0.6,1.9,1
			C414,439,414.2,439.4,414.2,439.9z"/>
		<path class="st3" d="M419.5,442.3c-1,0.1-2.1-0.3-2.8-1.1c-0.7-0.8-1.1-1.9-1-3c0-1.1,0.3-2.2,1-3.1c0.6-0.8,1.6-1.2,2.6-1.1
			c0.9,0,1.8,0.3,2.4,1c0.6,0.7,0.9,1.7,0.9,2.6v0.8H417c0,0.8,0.2,1.5,0.7,2.1c0.5,0.5,1.2,0.8,1.9,0.7c0.9,0,1.8-0.2,2.6-0.5v1.1
			c-0.4,0.2-0.8,0.3-1.2,0.4C420.5,442.3,420,442.3,419.5,442.3z M419.2,435c-0.6,0-1.1,0.2-1.5,0.6c-0.4,0.5-0.7,1.1-0.7,1.7h4.2
			c0-0.6-0.1-1.3-0.5-1.8C420.3,435.2,419.8,435,419.2,435L419.2,435z"/>
		<path class="st3" d="M427.8,442.3c-1,0.1-2-0.3-2.7-1.1c-0.7-0.9-1-1.9-1-3c-0.1-1.1,0.3-2.2,1-3.1c0.7-0.8,1.7-1.2,2.8-1.1
			c0.4,0,0.8,0,1.2,0.1c0.3,0.1,0.6,0.2,0.9,0.3l-0.4,1c-0.3-0.1-0.6-0.2-0.9-0.3c-0.3-0.1-0.6-0.1-0.9-0.1c-1.6,0-2.4,1-2.4,3.1
			c0,0.8,0.2,1.6,0.6,2.3c0.4,0.5,1.1,0.8,1.8,0.8c0.7,0,1.4-0.2,2.1-0.4v1.1C429.2,442.2,428.5,442.3,427.8,442.3z"/>
		<path class="st3" d="M438.4,438.1c0.1,1.1-0.3,2.2-1,3.1c-0.7,0.8-1.7,1.2-2.7,1.1c-0.7,0-1.3-0.2-1.9-0.5c-0.6-0.3-1-0.8-1.3-1.5
			c-0.3-0.7-0.5-1.4-0.5-2.2c-0.1-1.1,0.3-2.2,1-3.1c0.7-0.7,1.7-1.1,2.7-1.1c1,0,2,0.4,2.7,1.1C438.1,435.9,438.5,437,438.4,438.1z
			 M432.3,438.1c-0.1,0.8,0.2,1.7,0.6,2.4c0.9,1,2.5,1.1,3.5,0.2c0.1-0.1,0.1-0.1,0.2-0.2c0.5-0.7,0.7-1.5,0.6-2.4
			c0.1-0.8-0.2-1.6-0.6-2.3c-0.4-0.5-1.1-0.8-1.8-0.8c-0.7,0-1.4,0.2-1.8,0.8C432.5,436.5,432.3,437.3,432.3,438.1z"/>
		<path class="st3" d="M446,442.1v-5.2c0-0.5-0.1-1.1-0.5-1.5c-0.4-0.3-0.9-0.5-1.4-0.5c-0.7-0.1-1.4,0.2-1.8,0.7
			c-0.4,0.7-0.7,1.5-0.6,2.2v4.2h-1.2v-8h1l0.2,1.1h0.1c0.2-0.4,0.6-0.7,1-0.9c0.5-0.2,1-0.3,1.5-0.3c0.8-0.1,1.6,0.2,2.2,0.7
			c0.5,0.6,0.8,1.4,0.7,2.2v5.2L446,442.1z"/>
		<path class="st3" d="M455.1,441.1L455.1,441.1c-0.6,0.8-1.6,1.3-2.6,1.2c-0.9,0-1.8-0.4-2.5-1.1c-0.6-0.9-1-2-0.9-3.1
			c-0.1-1.1,0.2-2.2,0.9-3.1c0.6-0.7,1.5-1.1,2.5-1.1c1-0.1,1.9,0.4,2.5,1.2h0.1l0-0.6V434v-3.3h1.2v11.4h-1L455.1,441.1z
			 M452.7,441.3c0.7,0.1,1.3-0.2,1.8-0.7c0.4-0.6,0.6-1.4,0.6-2.2v-0.3c0.1-0.9-0.1-1.7-0.6-2.4c-0.5-0.5-1.1-0.8-1.8-0.7
			c-0.7,0-1.3,0.3-1.6,0.8c-0.4,0.7-0.6,1.5-0.6,2.4c-0.1,0.8,0.1,1.6,0.6,2.3C451.4,441,452,441.3,452.7,441.3z"/>
		<path class="st3" d="M463.9,439.9c0,0.7-0.3,1.3-0.8,1.7c-0.7,0.4-1.5,0.7-2.4,0.6c-0.9,0-1.7-0.1-2.5-0.5v-1.1
			c0.4,0.2,0.8,0.4,1.2,0.5c0.4,0.1,0.8,0.2,1.3,0.2c0.5,0,1-0.1,1.5-0.3c0.3-0.2,0.5-0.5,0.5-0.9c0-0.3-0.2-0.6-0.4-0.8
			c-0.5-0.3-1-0.6-1.6-0.8c-0.6-0.2-1.1-0.4-1.6-0.7c-0.3-0.2-0.5-0.4-0.7-0.7c-0.2-0.3-0.2-0.6-0.2-0.9c0-0.6,0.3-1.2,0.8-1.5
			c0.7-0.4,1.4-0.6,2.2-0.6c0.9,0,1.7,0.2,2.5,0.5l-0.4,1c-0.7-0.3-1.4-0.5-2.2-0.5c-0.4,0-0.9,0.1-1.3,0.3
			c-0.3,0.1-0.4,0.4-0.4,0.8c0,0.2,0,0.4,0.2,0.5c0.1,0.2,0.3,0.3,0.5,0.4c0.5,0.2,0.9,0.4,1.4,0.6c0.7,0.2,1.4,0.6,1.9,1
			C463.8,439,463.9,439.5,463.9,439.9z"/>
		<path class="st3" d="M467.9,438c0,1.2-0.2,2.4-0.6,3.6c-0.3,1.1-0.9,2.1-1.6,2.9h-1.2c0.7-0.9,1.2-2,1.6-3.1
			c0.4-1.1,0.6-2.3,0.5-3.4c0-1.2-0.2-2.4-0.5-3.5c-0.4-1.1-0.9-2.2-1.6-3.1h1.2c0.7,0.9,1.3,1.9,1.6,3
			C467.8,435.6,467.9,436.8,467.9,438z"/>
		<path class="st3" d="M473,438.7v-1.1h6.3v1.1H473z"/>
		<path class="st3" d="M491.4,439.3c0,0.9-0.3,1.7-1,2.2c-0.8,0.6-1.8,0.8-2.8,0.8c-1,0.1-2-0.1-2.9-0.5v-1.2
			c0.5,0.2,0.9,0.3,1.4,0.4c0.5,0.1,1,0.2,1.5,0.2c0.7,0,1.3-0.1,1.9-0.5c0.4-0.3,0.7-0.8,0.6-1.3c0-0.3-0.1-0.6-0.2-0.9
			c-0.2-0.3-0.4-0.5-0.8-0.7c-0.5-0.3-1-0.5-1.6-0.7c-0.8-0.2-1.5-0.7-2.1-1.3c-0.4-0.5-0.7-1.2-0.6-1.9c0-0.8,0.3-1.5,0.9-2
			c0.7-0.5,1.6-0.8,2.5-0.7c1,0,2,0.2,2.9,0.6l-0.4,1.1c-0.8-0.4-1.7-0.5-2.6-0.6c-0.5,0-1.1,0.1-1.5,0.4c-0.4,0.3-0.6,0.7-0.6,1.2
			c0,0.3,0.1,0.6,0.2,0.9c0.2,0.3,0.4,0.5,0.7,0.6c0.5,0.3,1,0.5,1.5,0.7c0.9,0.3,1.7,0.7,2.3,1.3
			C491.1,438,491.4,438.6,491.4,439.3z"/>
		<path class="st3" d="M498.8,442.1v-5.2c0-0.5-0.1-1.1-0.5-1.5c-0.4-0.3-0.9-0.5-1.4-0.5c-0.7-0.1-1.4,0.2-1.9,0.7
			c-0.4,0.7-0.6,1.5-0.6,2.3v4.2h-1.2v-11.4h1.2v3.5c0,0.3,0,0.7-0.1,1h0.1c0.2-0.4,0.6-0.7,1-0.9c0.5-0.2,1-0.3,1.5-0.3
			c0.8-0.1,1.6,0.2,2.2,0.7c0.5,0.6,0.8,1.4,0.7,2.2v5.2L498.8,442.1z"/>
		<path class="st3" d="M509.3,438.1c0.1,1.1-0.3,2.2-1,3.1c-0.7,0.8-1.7,1.2-2.7,1.1c-0.7,0-1.3-0.2-1.9-0.5c-0.6-0.3-1-0.9-1.3-1.5
			c-0.3-0.7-0.5-1.4-0.5-2.2c-0.1-1.1,0.3-2.2,1-3.1c0.7-0.8,1.7-1.2,2.7-1.1c1,0,2,0.4,2.7,1.1C509,435.9,509.4,437,509.3,438.1z
			 M503.2,438.1c-0.1,0.8,0.2,1.7,0.6,2.4c0.9,1,2.5,1.1,3.5,0.2c0.1,0,0.1-0.1,0.2-0.2c0.5-0.7,0.7-1.5,0.6-2.4
			c0.1-0.8-0.2-1.6-0.6-2.3c-0.4-0.5-1.1-0.8-1.8-0.8c-0.7,0-1.4,0.2-1.8,0.8C503.4,436.5,503.2,437.3,503.2,438.1z"/>
		<path class="st3" d="M515,434c0.3,0,0.7,0,1,0.1l-0.2,1.1c-0.3-0.1-0.6-0.1-0.9-0.1c-0.6,0-1.3,0.3-1.7,0.8
			c-0.5,0.6-0.7,1.3-0.7,2v4.3h-1.2v-8h1l0.1,1.5h0c0.3-0.5,0.6-0.9,1.1-1.2C514.1,434.2,514.6,434,515,434z"/>
		<path class="st3" d="M520.7,441.3c0.2,0,0.4,0,0.6,0c0.2,0,0.3-0.1,0.5-0.1v0.9c-0.2,0.1-0.4,0.1-0.6,0.2c-0.2,0-0.5,0.1-0.7,0.1
			c-1.5,0-2.3-0.8-2.3-2.5v-4.8H517v-0.6l1.2-0.5l0.5-1.7h0.7v1.9h2.3v0.9h-2.3v4.7c0,0.4,0.1,0.8,0.3,1.1
			C520,441.2,520.4,441.3,520.7,441.3z"/>
		<path class="st3" d="M526.7,442.3c-1,0.1-2.1-0.3-2.8-1.1c-0.7-0.8-1.1-1.9-1-3c-0.1-1.1,0.3-2.2,1-3.1c0.6-0.8,1.6-1.2,2.6-1.1
			c0.9,0,1.8,0.3,2.4,1c0.6,0.7,0.9,1.7,0.9,2.6v0.8h-5.5c0,0.8,0.2,1.5,0.7,2.1c0.5,0.5,1.2,0.8,1.9,0.7c0.9,0,1.8-0.2,2.6-0.5v1.1
			c-0.4,0.2-0.8,0.3-1.2,0.4C527.6,442.3,527.1,442.3,526.7,442.3z M526.3,435c-0.6,0-1.2,0.2-1.5,0.6c-0.4,0.5-0.6,1.1-0.7,1.7h4.2
			c0-0.6-0.1-1.3-0.5-1.8C527.4,435.2,526.9,435,526.3,435L526.3,435z"/>
		<path class="st3" d="M535.3,434c0.3,0,0.7,0,1,0.1l-0.2,1.1c-0.3-0.1-0.6-0.1-0.9-0.1c-0.6,0-1.3,0.3-1.7,0.8
			c-0.5,0.6-0.7,1.3-0.7,2v4.3h-1.2v-8h1l0.1,1.5l0,0c0.3-0.5,0.6-0.9,1.1-1.2C534.3,434.2,534.8,434,535.3,434z"/>
		<path class="st3" d="M541.5,431.9c0-0.2,0.1-0.4,0.2-0.6c0.1-0.1,0.3-0.2,0.5-0.2c0.2,0,0.4,0.1,0.5,0.2c0.3,0.4,0.3,0.9,0,1.2
			c-0.1,0.1-0.3,0.2-0.5,0.2c-0.2,0-0.4-0.1-0.5-0.2C541.6,432.4,541.5,432.2,541.5,431.9z M542.9,442.1h-1.2v-8h1.2V442.1z"/>
		<path class="st3" d="M550.5,439.9c0,0.7-0.3,1.3-0.8,1.7c-0.7,0.4-1.5,0.7-2.3,0.6c-0.9,0-1.7-0.1-2.5-0.5v-1.1
			c0.4,0.2,0.8,0.4,1.2,0.5c0.4,0.1,0.8,0.2,1.3,0.2c0.5,0,1-0.1,1.5-0.3c0.3-0.2,0.5-0.5,0.5-0.9c0-0.3-0.2-0.6-0.4-0.8
			c-0.5-0.3-1-0.6-1.6-0.8c-0.6-0.2-1.1-0.4-1.6-0.7c-0.3-0.2-0.5-0.4-0.7-0.7c-0.2-0.3-0.2-0.6-0.2-0.9c0-0.6,0.3-1.2,0.8-1.5
			c0.7-0.4,1.4-0.6,2.2-0.6c0.9,0,1.7,0.2,2.5,0.5l-0.4,1c-0.7-0.3-1.4-0.5-2.2-0.5c-0.4,0-0.9,0.1-1.3,0.3
			c-0.3,0.1-0.4,0.4-0.4,0.8c0,0.2,0,0.4,0.2,0.5c0.1,0.2,0.3,0.3,0.5,0.4c0.5,0.2,0.9,0.4,1.4,0.6c0.7,0.2,1.4,0.6,1.9,1
			C550.3,439,550.5,439.5,550.5,439.9z"/>
		<path class="st3" d="M556.5,431.4h3c1.1-0.1,2.1,0.1,3.1,0.6c0.7,0.4,1,1.2,1,2c0,0.6-0.2,1.1-0.5,1.6c-0.4,0.4-1,0.7-1.5,0.8v0.1
			c1.6,0.3,2.4,1.1,2.4,2.6c0,0.9-0.3,1.7-1,2.2c-0.8,0.6-1.7,0.9-2.7,0.8h-3.7L556.5,431.4z M557.8,436h2c0.7,0.1,1.3-0.1,1.9-0.4
			c0.4-0.3,0.6-0.9,0.6-1.4c0-0.5-0.2-1-0.7-1.3c-0.6-0.3-1.3-0.4-2-0.4h-1.8V436z M557.8,437.1v4h2.2c0.7,0.1,1.4-0.1,2-0.5
			c0.5-0.4,0.7-1,0.7-1.6c0-0.6-0.2-1.1-0.7-1.5c-0.6-0.3-1.3-0.5-2-0.5L557.8,437.1z"/>
		<path class="st3" d="M569.5,442.3c-1,0.1-2.1-0.3-2.8-1.1c-0.7-0.8-1.1-1.9-1-3c0-1.1,0.3-2.2,1-3.1c0.6-0.8,1.6-1.2,2.6-1.1
			c0.9,0,1.8,0.3,2.4,1c0.6,0.7,0.9,1.7,0.9,2.6v0.8H567c0,0.8,0.2,1.5,0.7,2.1c0.5,0.5,1.2,0.8,1.9,0.7c0.9,0,1.8-0.2,2.6-0.5v1.1
			c-0.4,0.2-0.8,0.3-1.2,0.4C570.4,442.3,570,442.3,569.5,442.3z M569.1,435c-0.6,0-1.1,0.2-1.5,0.6c-0.4,0.5-0.6,1.1-0.7,1.7h4.2
			c0-0.6-0.1-1.3-0.5-1.8C570.2,435.2,569.7,435,569.1,435L569.1,435z"/>
		<path class="st3" d="M577.1,441.3c0.2,0,0.4,0,0.6,0c0.2,0,0.3-0.1,0.5-0.1v0.9c-0.2,0.1-0.4,0.1-0.6,0.2c-0.2,0-0.5,0.1-0.7,0.1
			c-1.5,0-2.3-0.8-2.3-2.5v-4.8h-1.2v-0.6l1.2-0.5l0.5-1.7h0.7v1.9h2.3v0.9h-2.3v4.7c0,0.4,0.1,0.8,0.3,1.1
			C576.4,441.2,576.7,441.3,577.1,441.3z"/>
		<path class="st3" d="M582.9,441.3c0.2,0,0.4,0,0.6,0c0.2,0,0.3-0.1,0.5-0.1v0.9c-0.2,0.1-0.4,0.1-0.6,0.2c-0.2,0-0.5,0.1-0.7,0.1
			c-1.5,0-2.3-0.8-2.3-2.5v-4.8h-1.2v-0.6l1.2-0.5l0.5-1.7h0.7v1.9h2.4v0.9h-2.3v4.7c0,0.4,0.1,0.8,0.3,1.1
			C582.3,441.2,582.6,441.3,582.9,441.3z"/>
		<path class="st3" d="M588.9,442.3c-1,0.1-2.1-0.3-2.8-1.1c-0.7-0.8-1.1-1.9-1-3c0-1.1,0.3-2.2,1-3.1c0.6-0.8,1.6-1.2,2.6-1.1
			c0.9,0,1.8,0.3,2.4,1c0.6,0.7,0.9,1.7,0.9,2.6v0.8h-5.5c0,0.8,0.2,1.5,0.7,2.1c0.5,0.5,1.2,0.8,1.9,0.7c0.9,0,1.8-0.2,2.6-0.5v1.1
			c-0.4,0.2-0.8,0.3-1.2,0.4C589.8,442.3,589.3,442.3,588.9,442.3z M588.5,435c-0.6,0-1.1,0.2-1.5,0.6c-0.4,0.5-0.6,1.1-0.7,1.7h4.2
			c0-0.6-0.1-1.3-0.5-1.8C589.6,435.2,589.1,435,588.5,435L588.5,435z"/>
		<path class="st3" d="M597.5,434c0.3,0,0.7,0,1,0.1l-0.2,1.1c-0.3-0.1-0.6-0.1-0.9-0.1c-0.6,0-1.3,0.3-1.7,0.8
			c-0.5,0.6-0.7,1.3-0.7,2v4.3h-1.2v-8h1l0.1,1.5h0c0.3-0.5,0.6-0.9,1.1-1.2C596.5,434.2,597,434,597.5,434z"/>
		<rect x="157" y="88.7" class="st4" width="2.9" height="40"/>
		<rect x="159.9" y="88.7" class="st5" width="2.9" height="40"/>
		<rect x="162.8" y="88.7" class="st6" width="10.1" height="40"/>
		<rect x="168.6" y="138.7" class="st6" width="11.6" height="40"/>
		<rect x="239.3" y="188.7" class="st6" width="127.1" height="40"/>
		<rect x="281.2" y="238.7" class="st6" width="130" height="40"/>
		<rect x="428.6" y="288.7" class="st6" width="127.1" height="40"/>
		<rect x="577.3" y="338.7" class="st6" width="148.8" height="40"/>
		<polyline class="st4" points="161.3,138.7 157,138.7 157,178.7 161.3,178.7 161.3,138.7 		"/>
		<polyline class="st5" points="168.6,138.7 161.3,138.7 161.3,178.7 168.6,178.7 168.6,138.7 		"/>
		<polyline class="st4" points="181.6,188.7 157,188.7 157,228.7 181.6,228.7 181.6,188.7 		"/>
		<polyline class="st5" points="239.3,188.7 181.6,188.7 181.6,228.7 239.3,228.7 239.3,188.7 		"/>
		<polyline class="st5" points="281.2,238.7 203.2,238.7 203.2,278.7 281.2,278.7 281.2,238.7 		"/>
		<polyline class="st5" points="428.7,288.7 265.3,288.7 265.3,328.7 428.7,328.7 428.7,288.7 		"/>
		<polyline class="st5" points="577.3,338.7 334.7,338.7 334.7,378.7 577.3,378.7 577.3,338.7 		"/>
		<polyline class="st4" points="203.2,238.7 157,238.7 157,278.7 203.2,278.7 203.2,238.7 		"/>
		<line class="st7" x1="157.5" y1="389.2" x2="806.5" y2="389.2"/>
		<path class="st3" d="M37.8,362.3h-8.5v-1.3l3.4-3.4c0.7-0.7,1.4-1.4,2-2.2c0.3-0.4,0.5-0.8,0.7-1.3c0.2-0.4,0.3-0.9,0.2-1.4
			c0-0.6-0.2-1.2-0.6-1.6c-0.5-0.4-1.1-0.6-1.7-0.6c-0.5,0-1,0.1-1.5,0.3c-0.6,0.2-1.1,0.6-1.6,1l-0.8-1c1.1-0.9,2.4-1.5,3.9-1.5
			c1-0.1,2,0.3,2.8,0.9c0.7,0.6,1,1.6,1,2.5c0,0.9-0.2,1.7-0.7,2.4c-0.7,1.1-1.6,2.1-2.6,3l-2.8,2.8v0.1h6.6L37.8,362.3z"/>
		<path class="st3" d="M48.1,355.9c0.1,1.7-0.2,3.5-1,5c-1.2,1.8-3.7,2.2-5.4,1c-0.4-0.3-0.7-0.6-1-1c-0.8-1.5-1.2-3.2-1.1-4.9
			c-0.1-1.7,0.2-3.5,1-5c1.3-1.7,3.7-2.1,5.4-0.9c0.4,0.3,0.7,0.6,0.9,1C47.8,352.5,48.2,354.2,48.1,355.9z M41.1,355.9
			c-0.1,1.4,0.1,2.8,0.7,4.1c0.6,1.2,2,1.6,3.2,1c0.4-0.2,0.8-0.6,1-1c0.9-2.6,0.9-5.5,0-8.1c-0.6-1.2-2-1.6-3.2-1
			c-0.4,0.2-0.8,0.6-1,1C41.3,353.1,41,354.5,41.1,355.9L41.1,355.9z"/>
		<path class="st3" d="M61,350.6c-1.3-0.1-2.5,0.4-3.4,1.4c-0.9,1.1-1.3,2.5-1.2,3.9c-0.1,1.4,0.3,2.8,1.2,3.9
			c0.9,1,2.1,1.5,3.4,1.4c1,0,2.1-0.2,3.1-0.5v1.3c-1.1,0.4-2.2,0.5-3.3,0.5c-1.6,0.1-3.2-0.5-4.4-1.7c-1.1-1.4-1.7-3.1-1.5-4.9
			c0-1.2,0.2-2.4,0.8-3.5c0.5-1,1.2-1.8,2.1-2.3c1-0.6,2.1-0.8,3.3-0.8c1.2,0,2.4,0.2,3.5,0.7l-0.6,1.3C63,350.9,62,350.6,61,350.6z
			"/>
		<path class="st3" d="M75,353.2c0.1,1.2-0.4,2.3-1.3,3c-1.1,0.8-2.5,1.1-3.8,1h-1.5v5.1h-1.5v-12.8h3.3
			C73.4,349.5,75,350.7,75,353.2z M68.3,356h1.3c1,0.1,2-0.1,2.9-0.6c0.6-0.5,1-1.3,0.9-2.1c0.1-0.7-0.3-1.4-0.8-1.9
			c-0.8-0.5-1.7-0.7-2.6-0.6h-1.7V356z"/>
		<path class="st3" d="M87.4,349.5v8.3c0.1,1.3-0.4,2.6-1.4,3.5c-1,0.9-2.3,1.3-3.7,1.2c-1.3,0.1-2.6-0.4-3.6-1.3
			c-0.9-0.9-1.3-2.2-1.3-3.5v-8.3H79v8.4c-0.1,0.9,0.3,1.8,0.9,2.5c0.7,0.6,1.6,0.9,2.6,0.9c0.9,0.1,1.8-0.2,2.5-0.9
			c0.6-0.7,0.9-1.6,0.9-2.5v-8.4L87.4,349.5z"/>
		<path class="st3" d="M105.5,362.3h-1.7l-7-10.8h-0.1c0.1,1.3,0.1,2.4,0.1,3.5v7.3h-1.4v-12.9h1.7l7,10.7h0.1c0-0.2,0-0.7-0.1-1.5
			s-0.1-1.5,0-1.8v-7.4h1.4L105.5,362.3z"/>
		<path class="st3" d="M117.1,357.5c0.1,1.3-0.3,2.6-1.2,3.7c-0.8,0.9-2,1.4-3.3,1.3c-0.8,0-1.6-0.2-2.3-0.6c-0.7-0.4-1.2-1-1.6-1.7
			c-0.4-0.8-0.6-1.7-0.5-2.7c-0.1-1.3,0.3-2.6,1.2-3.7c0.8-0.9,2-1.4,3.3-1.3c1.2-0.1,2.4,0.4,3.2,1.3
			C116.8,354.9,117.2,356.2,117.1,357.5z M109.8,357.5c-0.1,1,0.2,2,0.7,2.8c1.1,1.2,2.9,1.3,4.1,0.2c0.1-0.1,0.1-0.1,0.2-0.2
			c0.6-0.8,0.8-1.8,0.8-2.8c0.1-1-0.2-2-0.8-2.8c-0.5-0.7-1.3-1-2.2-1c-0.8-0.1-1.6,0.3-2.2,0.9C110,355.5,109.7,356.5,109.8,357.5z
			"/>
		<path class="st3" d="M126.2,361L126.2,361c-0.8,1-1.9,1.5-3.1,1.5c-1.1,0.1-2.2-0.4-2.9-1.3c-0.8-1.1-1.1-2.4-1.1-3.7
			c-0.1-1.3,0.3-2.6,1.1-3.7c1.4-1.6,3.9-1.8,5.5-0.3c0.2,0.1,0.3,0.3,0.4,0.4h0.1l-0.1-0.7v-0.7v-3.9h1.5v13.7h-1.2L126.2,361z
			 M123.3,361.2c0.8,0.1,1.6-0.2,2.2-0.8c0.5-0.8,0.7-1.7,0.7-2.6v-0.3c0.1-1-0.1-2-0.7-2.9c-0.5-0.6-1.3-1-2.2-0.9
			c-0.8,0-1.6,0.3-2,1c-0.5,0.9-0.7,1.8-0.7,2.8c-0.1,1,0.2,1.9,0.7,2.8C121.7,361,122.5,361.3,123.3,361.2L123.3,361.2z"/>
		<path class="st3" d="M134.8,362.5c-1.3,0.1-2.5-0.4-3.4-1.3c-0.9-1-1.3-2.3-1.2-3.6c-0.1-1.3,0.3-2.6,1.1-3.7
			c0.8-0.9,1.9-1.4,3.1-1.4c1.1-0.1,2.1,0.4,2.9,1.2c0.7,0.9,1.1,2,1.1,3.1v0.9h-6.6c0,0.9,0.3,1.8,0.9,2.6c0.6,0.6,1.4,0.9,2.3,0.9
			c1.1,0,2.1-0.2,3.1-0.6v1.3C136.9,362.3,135.8,362.5,134.8,362.5L134.8,362.5z M134.4,353.7c-0.7,0-1.4,0.2-1.9,0.8
			c-0.5,0.6-0.8,1.3-0.8,2.1h5c0.1-0.8-0.2-1.5-0.6-2.1C135.7,354,135,353.7,134.4,353.7L134.4,353.7z"/>
		<path class="st3" d="M147,359.7c0,0.8-0.3,1.6-1,2.1c-0.8,0.5-1.8,0.8-2.8,0.7c-1,0.1-2.1-0.2-3-0.6v-1.4c0.5,0.2,1,0.4,1.5,0.6
			c0.5,0.1,1,0.2,1.5,0.2c0.6,0,1.2-0.1,1.8-0.4c0.6-0.4,0.8-1.1,0.4-1.7c-0.1-0.1-0.2-0.2-0.3-0.3c-0.6-0.4-1.2-0.7-1.9-0.9
			c-0.7-0.2-1.3-0.5-1.9-0.9c-0.3-0.2-0.6-0.5-0.8-0.9c-0.2-0.3-0.3-0.7-0.3-1.1c0-0.8,0.4-1.5,1-1.9c0.8-0.5,1.7-0.7,2.6-0.7
			c1,0,2.1,0.2,3,0.6l-0.5,1.2c-0.8-0.4-1.7-0.6-2.6-0.6c-0.5,0-1.1,0.1-1.6,0.3c-0.3,0.2-0.5,0.5-0.5,0.9c0,0.2,0.1,0.5,0.2,0.7
			c0.2,0.2,0.4,0.4,0.6,0.5c0.5,0.3,1.1,0.5,1.7,0.7c0.9,0.3,1.6,0.7,2.3,1.3C146.8,358.5,147,359.1,147,359.7z"/>
		<path class="st3" d="M37.3,302.6c0,0.7-0.2,1.4-0.7,2c-0.5,0.6-1.2,0.9-2,1v0.1c0.9,0.1,1.7,0.4,2.3,1c0.5,0.6,0.8,1.3,0.7,2.1
			c0.1,1.1-0.4,2.1-1.3,2.8c-1.1,0.7-2.3,1.1-3.6,1c-0.6,0-1.3,0-1.9-0.1c-0.6-0.1-1.1-0.3-1.6-0.5v-1.4c0.6,0.3,1.2,0.5,1.8,0.6
			c0.6,0.1,1.2,0.2,1.8,0.2c2.2,0,3.3-0.9,3.3-2.6c0-1.5-1.2-2.3-3.7-2.3h-1.2v-1.3h1.3c0.8,0,1.7-0.2,2.4-0.7
			c0.6-0.4,0.9-1.1,0.9-1.9c0-0.6-0.2-1.1-0.7-1.5c-0.5-0.4-1.1-0.6-1.8-0.5c-0.5,0-1.1,0.1-1.6,0.2c-0.6,0.2-1.2,0.5-1.7,0.8
			l-0.7-1c0.5-0.4,1.2-0.8,1.8-1c0.7-0.2,1.4-0.4,2.2-0.4c1-0.1,2.1,0.2,2.9,0.9C36.9,300.8,37.3,301.7,37.3,302.6z"/>
		<path class="st3" d="M48.1,306c0.1,1.7-0.2,3.5-1,5c-1.2,1.8-3.7,2.2-5.4,1c-0.4-0.3-0.7-0.6-1-1c-0.8-1.5-1.2-3.3-1.1-5
			c-0.1-1.7,0.2-3.5,1-5c1.3-1.7,3.7-2.1,5.4-0.9c0.4,0.3,0.7,0.6,0.9,1C47.8,302.6,48.2,304.3,48.1,306z M41.1,306
			c-0.1,1.4,0.1,2.8,0.7,4.1c0.6,1.2,2,1.6,3.2,1c0.4-0.2,0.8-0.6,1-1.1c0.9-2.6,0.9-5.5,0-8.1c-0.6-1.2-2-1.6-3.2-1
			c-0.4,0.2-0.8,0.6-1,1C41.3,303.2,41,304.6,41.1,306L41.1,306z"/>
		<path class="st3" d="M61,300.7c-1.3-0.1-2.5,0.5-3.3,1.4c-0.9,1.1-1.3,2.5-1.3,3.9c-0.1,1.4,0.3,2.8,1.2,3.9
			c0.9,0.9,2.1,1.4,3.4,1.4c1,0,2.1-0.2,3.1-0.5v1.3c-1.1,0.4-2.2,0.5-3.3,0.5c-1.6,0.1-3.2-0.5-4.4-1.7c-1.1-1.4-1.7-3.1-1.6-4.9
			c0-1.2,0.2-2.4,0.8-3.5c0.5-1,1.2-1.8,2.1-2.3c1-0.6,2.1-0.8,3.3-0.8c1.2,0,2.4,0.2,3.5,0.7l-0.6,1.3C63,301,62,300.7,61,300.7z"
			/>
		<path class="st3" d="M75,303.3c0.1,1.2-0.4,2.3-1.3,3c-1.1,0.8-2.5,1.1-3.8,1h-1.5v5.1h-1.5v-12.8h3.3
			C73.4,299.5,75,300.8,75,303.3z M68.3,306.1h1.3c1,0.1,2-0.1,2.9-0.6c0.6-0.5,1-1.3,0.9-2.1c0.1-0.7-0.3-1.4-0.8-1.9
			c-0.8-0.5-1.7-0.7-2.6-0.6h-1.7L68.3,306.1z"/>
		<path class="st3" d="M87.4,299.5v8.3c0.1,1.3-0.4,2.6-1.4,3.5c-1,0.9-2.3,1.3-3.7,1.2c-1.3,0.1-2.6-0.4-3.6-1.3
			c-0.9-0.9-1.3-2.2-1.3-3.5v-8.3H79v8.4c-0.1,0.9,0.3,1.8,0.9,2.5c0.7,0.6,1.6,0.9,2.6,0.9c0.9,0.1,1.8-0.2,2.5-0.9
			c0.6-0.7,0.9-1.6,0.9-2.5v-8.4H87.4z"/>
		<path class="st3" d="M105.5,312.4h-1.7l-7-10.8h-0.1c0.1,1.3,0.1,2.4,0.1,3.5v7.3h-1.4v-12.9h1.7l7,10.7h0.1c0-0.2,0-0.7-0.1-1.5
			s-0.1-1.5,0-1.8v-7.4h1.4L105.5,312.4z"/>
		<path class="st3" d="M117.1,307.6c0.1,1.3-0.3,2.6-1.2,3.7c-0.8,0.9-2,1.4-3.3,1.3c-0.8,0-1.6-0.2-2.3-0.6c-0.7-0.4-1.2-1-1.6-1.7
			c-0.4-0.8-0.6-1.7-0.5-2.7c-0.1-1.3,0.3-2.6,1.2-3.7c0.8-0.9,2-1.4,3.3-1.3c1.2-0.1,2.4,0.4,3.2,1.3
			C116.8,305,117.2,306.3,117.1,307.6z M109.8,307.6c-0.1,1,0.2,2,0.7,2.8c0.5,0.7,1.3,1,2.2,1c0.8,0,1.7-0.3,2.2-1
			c0.6-0.8,0.8-1.8,0.8-2.8c0.1-1-0.2-2-0.8-2.8c-0.5-0.7-1.3-1-2.2-1c-0.8-0.1-1.6,0.3-2.2,0.9C110,305.6,109.7,306.6,109.8,307.6z
			"/>
		<path class="st3" d="M126.2,311.1L126.2,311.1c-0.8,1-1.9,1.5-3.1,1.5c-1.1,0.1-2.2-0.4-2.9-1.3c-0.8-1.1-1.1-2.4-1.1-3.7
			c-0.1-1.3,0.3-2.6,1.1-3.7c1.4-1.6,3.9-1.8,5.5-0.3c0.2,0.1,0.3,0.3,0.4,0.4h0.1l-0.1-0.7v-0.7v-3.9h1.5v13.7h-1.2L126.2,311.1z
			 M123.3,311.3c0.8,0.1,1.6-0.2,2.2-0.8c0.5-0.8,0.7-1.7,0.7-2.6v-0.3c0.1-1-0.1-2.1-0.7-2.9c-0.5-0.6-1.3-0.9-2.2-0.9
			c-0.8,0-1.6,0.3-2,1c-0.5,0.8-0.7,1.8-0.7,2.8c-0.1,1,0.2,2,0.7,2.8C121.8,311.1,122.5,311.4,123.3,311.3L123.3,311.3z"/>
		<path class="st3" d="M134.8,312.6c-1.3,0.1-2.5-0.4-3.4-1.3c-0.9-1-1.3-2.3-1.2-3.6c-0.1-1.3,0.3-2.6,1.1-3.7
			c0.8-0.9,1.9-1.4,3.1-1.4c1.1-0.1,2.1,0.4,2.9,1.2c0.7,0.9,1.1,2,1.1,3.1v0.9h-6.6c0,0.9,0.3,1.9,0.9,2.6c0.6,0.6,1.4,0.9,2.3,0.9
			c1.1,0,2.1-0.2,3.1-0.6v1.3c-0.5,0.2-1,0.4-1.5,0.5C135.9,312.6,135.3,312.6,134.8,312.6z M134.4,303.8c-0.7,0-1.4,0.2-1.9,0.8
			c-0.5,0.6-0.8,1.3-0.8,2.1h5c0.1-0.8-0.2-1.5-0.6-2.1C135.7,304.1,135,303.8,134.4,303.8L134.4,303.8z"/>
		<path class="st3" d="M147,309.8c0,0.8-0.3,1.6-1,2.1c-0.8,0.5-1.8,0.8-2.8,0.7c-1,0.1-2.1-0.2-3-0.6v-1.4c0.5,0.2,1,0.4,1.5,0.6
			c0.5,0.1,1,0.2,1.5,0.2c0.6,0,1.2-0.1,1.8-0.4c0.4-0.2,0.6-0.7,0.6-1.1c0-0.4-0.2-0.8-0.5-1c-0.6-0.4-1.2-0.7-1.9-0.9
			c-0.7-0.2-1.3-0.5-1.9-0.9c-0.3-0.2-0.6-0.5-0.8-0.9c-0.2-0.3-0.3-0.7-0.3-1.1c0-0.8,0.4-1.5,1-1.9c0.8-0.5,1.7-0.7,2.6-0.7
			c1,0,2.1,0.2,3,0.6l-0.5,1.2c-0.8-0.4-1.7-0.6-2.6-0.6c-0.5,0-1.1,0.1-1.6,0.3c-0.3,0.2-0.5,0.5-0.5,0.9c0,0.2,0.1,0.5,0.2,0.7
			c0.2,0.2,0.4,0.4,0.6,0.5c0.5,0.3,1.1,0.5,1.7,0.7c0.9,0.3,1.6,0.7,2.3,1.3C146.8,308.6,147,309.2,147,309.8z"/>
		<polyline class="st4" points="265.3,288.7 157,288.7 157,328.7 265.3,328.7 265.3,288.7 		"/>
		<polyline class="st4" points="334.7,338.7 157,338.7 157,378.7 334.7,378.7 334.7,338.7 		"/>
		<line class="st7" x1="157.5" y1="388.7" x2="157.5" y2="79.2"/>
		<path class="st3" d="M196.9,480.6c0.1,1.5-0.4,3-1.4,4.1c-1.1,1-2.6,1.5-4.1,1.4h-3v-10.7h3.3c1.4-0.1,2.8,0.4,3.9,1.4
			C196.4,477.8,196.9,479.2,196.9,480.6z M195.5,480.6c0.1-1.2-0.3-2.3-1.1-3.2c-0.9-0.8-2-1.1-3.1-1.1h-1.8v8.6h1.5
			c1.2,0.1,2.4-0.3,3.4-1.1C195.2,483,195.6,481.8,195.5,480.6L195.5,480.6z"/>
		<path class="st3" d="M203.9,486.1l-0.2-1.1h-0.1c-0.3,0.4-0.7,0.8-1.2,1c-0.5,0.2-1,0.3-1.5,0.3c-0.7,0-1.3-0.2-1.9-0.6
			c-0.5-0.5-0.7-1.1-0.7-1.8c0-1.6,1.3-2.5,3.9-2.5h1.4v-0.5c0-0.5-0.1-1-0.4-1.4c-0.3-0.3-0.8-0.5-1.3-0.5c-0.8,0-1.6,0.2-2.3,0.6
			l-0.4-0.9c0.4-0.2,0.8-0.4,1.3-0.5c0.5-0.1,0.9-0.2,1.4-0.2c0.8-0.1,1.5,0.2,2.1,0.6c0.5,0.5,0.7,1.3,0.7,2v5.5L203.9,486.1z
			 M201.1,485.2c0.7,0,1.3-0.2,1.8-0.6c0.4-0.5,0.7-1.1,0.6-1.7v-0.7l-1.2,0.1c-0.7,0-1.4,0.1-2.1,0.5c-0.4,0.3-0.7,0.7-0.6,1.2
			c0,0.4,0.1,0.7,0.4,1C200.3,485.1,200.7,485.2,201.1,485.2z"/>
		<path class="st3" d="M209.9,485.2c0.2,0,0.4,0,0.6,0l0.5-0.1v0.9c-0.2,0.1-0.4,0.1-0.6,0.2c-0.2,0-0.5,0.1-0.7,0.1
			c-1.6,0-2.3-0.8-2.3-2.5V479h-1.1v-0.6l1.1-0.5l0.5-1.7h0.7v1.8h2.3v1h-2.3v4.7c0,0.4,0.1,0.8,0.4,1.1
			C209.2,485.1,209.5,485.2,209.9,485.2z"/>
		<path class="st3" d="M217.7,486.1l-0.2-1.1h-0.1c-0.3,0.4-0.7,0.8-1.2,1c-0.5,0.2-1,0.3-1.5,0.3c-0.7,0-1.3-0.2-1.9-0.6
			c-0.5-0.5-0.7-1.1-0.7-1.8c0-1.6,1.3-2.5,3.9-2.5h1.4v-0.5c0-0.5-0.1-1-0.4-1.4c-0.3-0.3-0.8-0.5-1.3-0.5c-0.8,0-1.6,0.2-2.3,0.6
			l-0.4-0.9c0.4-0.2,0.8-0.4,1.3-0.5c0.5-0.1,0.9-0.2,1.4-0.2c0.8-0.1,1.5,0.2,2.1,0.6c0.5,0.5,0.8,1.3,0.7,2v5.5L217.7,486.1z
			 M215,485.2c0.7,0,1.3-0.2,1.8-0.6c0.5-0.5,0.7-1.1,0.6-1.7v-0.7l-1.2,0.1c-0.7,0-1.4,0.1-2.1,0.5c-0.4,0.3-0.7,0.7-0.6,1.2
			c0,0.4,0.1,0.7,0.4,1C214.2,485.1,214.6,485.2,215,485.2z"/>
		<path class="st3" d="M225.2,486.1v-10.7h1.2v9.6h4.7v1.1H225.2z"/>
		<path class="st3" d="M239.7,482c0.1,1.1-0.3,2.2-1,3.1c-0.7,0.8-1.7,1.2-2.7,1.1c-0.7,0-1.3-0.2-1.9-0.5c-0.6-0.3-1-0.8-1.3-1.5
			c-0.3-0.7-0.5-1.4-0.4-2.2c-0.1-1.1,0.3-2.2,1-3.1c0.7-0.7,1.7-1.1,2.7-1.1c1,0,2,0.4,2.7,1.1C239.4,479.8,239.7,480.9,239.7,482z
			 M233.6,482c-0.1,0.8,0.2,1.6,0.6,2.3c0.9,1,2.4,1.1,3.4,0.2c0.1-0.1,0.1-0.1,0.2-0.2c0.5-0.7,0.7-1.5,0.6-2.4
			c0.1-0.8-0.2-1.6-0.6-2.3c-0.4-0.5-1.1-0.8-1.8-0.8c-0.7,0-1.4,0.2-1.8,0.8C233.7,480.3,233.5,481.2,233.6,482z"/>
		<path class="st3" d="M246.7,486.1l-0.2-1.1h-0.1c-0.3,0.4-0.7,0.8-1.2,1c-0.5,0.2-1,0.3-1.5,0.3c-0.7,0-1.3-0.2-1.9-0.6
			c-0.5-0.5-0.7-1.1-0.7-1.8c0-1.6,1.3-2.5,3.9-2.5h1.4v-0.5c0-0.5-0.1-1-0.4-1.4c-0.3-0.3-0.8-0.5-1.3-0.5c-0.8,0-1.6,0.2-2.3,0.6
			l-0.4-0.9c0.4-0.2,0.8-0.4,1.3-0.5c0.5-0.1,0.9-0.2,1.4-0.2c0.8-0.1,1.5,0.2,2.1,0.6c0.5,0.5,0.7,1.3,0.7,2v5.5L246.7,486.1z
			 M244,485.2c0.7,0,1.3-0.2,1.8-0.6c0.4-0.5,0.7-1.1,0.6-1.7v-0.7l-1.2,0.1c-0.7,0-1.4,0.1-2.1,0.5c-0.4,0.3-0.7,0.7-0.6,1.2
			c0,0.4,0.1,0.7,0.4,1C243.2,485.1,243.6,485.2,244,485.2z"/>
		<path class="st3" d="M255.6,485L255.6,485c-0.6,0.8-1.6,1.3-2.6,1.2c-0.9,0-1.8-0.4-2.4-1.1c-0.6-0.9-1-2-0.9-3.1
			c-0.1-1.1,0.2-2.2,0.9-3.1c0.6-0.7,1.5-1.1,2.4-1.1c1-0.1,1.9,0.4,2.5,1.2h0.1l-0.1-0.6v-0.6v-3.3h1.2v11.4h-1L255.6,485z
			 M253.1,485.2c0.7,0.1,1.3-0.2,1.8-0.7c0.4-0.6,0.6-1.4,0.6-2.2v-0.3c0.1-0.9-0.1-1.7-0.6-2.4c-0.5-0.5-1.1-0.8-1.8-0.7
			c-0.7,0-1.3,0.3-1.6,0.8c-0.4,0.7-0.6,1.5-0.6,2.3c-0.1,0.8,0.1,1.6,0.6,2.3C251.9,484.9,252.5,485.2,253.1,485.2L253.1,485.2z"/>
		<path class="st3" d="M266.7,480.3h3v1h-3v3.1h-1v-3.1h-3v-1h3v-3.1h1V480.3z"/>
		<path class="st3" d="M277.1,486.1h-1.2v-10.7h6v1.1h-4.8v3.9h4.4v1.1h-4.4V486.1z"/>
		<path class="st3" d="M287,486.2c-1,0.1-2.1-0.3-2.8-1.1c-0.7-0.8-1.1-1.9-1-3c0-1.1,0.3-2.2,1-3.1c0.6-0.8,1.6-1.2,2.6-1.1
			c0.9,0,1.8,0.3,2.4,1c0.6,0.7,0.9,1.7,0.9,2.6v0.8h-5.5c0,0.8,0.2,1.5,0.7,2.1c0.5,0.5,1.2,0.8,1.9,0.7c0.9,0,1.8-0.2,2.6-0.5v1.1
			C288.9,486.1,288,486.3,287,486.2L287,486.2z M286.7,478.9c-0.6,0-1.1,0.2-1.5,0.6c-0.4,0.5-0.7,1.1-0.7,1.7h4.2
			c0-0.6-0.1-1.3-0.5-1.8C287.8,479.1,287.2,478.9,286.7,478.9L286.7,478.9z"/>
		<path class="st3" d="M296.8,486.1l-0.2-1.1h-0.1c-0.3,0.4-0.7,0.8-1.2,1c-0.5,0.2-1,0.3-1.5,0.3c-0.7,0-1.3-0.2-1.9-0.6
			c-0.5-0.5-0.7-1.1-0.7-1.8c0-1.6,1.3-2.5,3.9-2.5h1.4v-0.5c0-0.5-0.1-1-0.4-1.4c-0.3-0.3-0.8-0.5-1.3-0.5c-0.8,0-1.6,0.2-2.3,0.6
			l-0.4-0.9c0.4-0.2,0.8-0.4,1.3-0.5c0.5-0.1,0.9-0.2,1.4-0.2c0.8-0.1,1.5,0.2,2.1,0.6c0.5,0.5,0.7,1.3,0.7,2v5.5L296.8,486.1z
			 M294.1,485.2c0.7,0,1.3-0.2,1.8-0.6c0.5-0.5,0.7-1.1,0.6-1.7v-0.7l-1.2,0.1c-0.7,0-1.4,0.1-2.1,0.5c-0.4,0.3-0.7,0.7-0.6,1.2
			c0,0.4,0.1,0.7,0.4,1C293.3,485.1,293.7,485.2,294.1,485.2z"/>
		<path class="st3" d="M302.8,485.2c0.2,0,0.4,0,0.6,0l0.5-0.1v0.9c-0.2,0.1-0.4,0.1-0.6,0.2c-0.2,0-0.5,0.1-0.7,0.1
			c-1.6,0-2.3-0.8-2.3-2.5V479h-1.1v-0.6l1.1-0.5l0.5-1.7h0.7v1.8h2.3v1h-2.3v4.7c0,0.4,0.1,0.8,0.4,1.1
			C302.1,485.1,302.4,485.2,302.8,485.2z"/>
		<path class="st3" d="M306.7,478v5.2c0,0.5,0.1,1.1,0.5,1.5c0.4,0.4,0.9,0.5,1.4,0.5c0.7,0.1,1.4-0.2,1.8-0.7
			c0.4-0.7,0.7-1.5,0.6-2.2V478h1.2v8h-1l-0.2-1h-0.1c-0.2,0.4-0.6,0.7-1,0.9c-0.5,0.2-1,0.3-1.5,0.3c-0.8,0.1-1.6-0.2-2.2-0.7
			c-0.5-0.6-0.8-1.4-0.7-2.2V478H306.7z"/>
		<path class="st3" d="M318.3,477.9c0.3,0,0.7,0,1,0.1l-0.2,1.1c-0.3-0.1-0.6-0.1-0.9-0.1c-0.6,0-1.3,0.3-1.7,0.8
			c-0.5,0.6-0.7,1.3-0.7,2v4.3h-1.2v-8h1l0.1,1.5h0.1c0.3-0.5,0.6-0.9,1.1-1.2C317.3,478.1,317.8,477.9,318.3,477.9z"/>
		<path class="st3" d="M324,486.2c-1,0.1-2.1-0.3-2.8-1.1c-0.7-0.8-1.1-1.9-1-3c0-1.1,0.3-2.2,1-3.1c0.6-0.8,1.6-1.2,2.6-1.1
			c0.9,0,1.8,0.3,2.4,1c0.6,0.7,0.9,1.7,0.9,2.6v0.8h-5.6c0,0.8,0.2,1.5,0.7,2.1c0.5,0.5,1.2,0.8,1.9,0.7c0.9,0,1.8-0.2,2.6-0.5v1.1
			c-0.4,0.2-0.8,0.3-1.2,0.4C324.9,486.2,324.5,486.2,324,486.2z M323.7,478.9c-0.6,0-1.1,0.2-1.5,0.6c-0.4,0.5-0.6,1.1-0.7,1.7h4.2
			c0-0.6-0.1-1.3-0.5-1.8C324.8,479.1,324.2,478.9,323.7,478.9L323.7,478.9z"/>
		<path class="st3" d="M339.1,486.1h-6v-10.7h6v1.1h-4.7v3.5h4.4v1.1h-4.4v4h4.7V486.1z"/>
		<path class="st3" d="M346.5,486.1v-5.2c0-0.5-0.1-1.1-0.5-1.5c-0.4-0.3-0.9-0.5-1.4-0.5c-0.7-0.1-1.4,0.2-1.8,0.7
			c-0.4,0.7-0.7,1.5-0.6,2.2v4.2H341v-8h1l0.2,1.1h0.1c0.3-0.4,0.6-0.7,1-0.9c0.5-0.2,1-0.3,1.5-0.3c0.8-0.1,1.6,0.2,2.2,0.7
			c0.5,0.6,0.8,1.4,0.7,2.2v5.2L346.5,486.1z"/>
		<path class="st3" d="M356.7,478v0.8l-1.5,0.2c0.2,0.2,0.3,0.4,0.4,0.7c0.1,0.3,0.2,0.6,0.2,0.9c0,0.7-0.3,1.4-0.8,1.9
			c-0.6,0.5-1.4,0.7-2.2,0.7c-0.2,0-0.5,0-0.7-0.1c-0.4,0.2-0.7,0.5-0.8,1c0,0.2,0.1,0.4,0.3,0.5c0.3,0.1,0.6,0.2,0.9,0.2h1.4
			c0.7,0,1.4,0.1,2,0.5c0.5,0.4,0.7,1,0.7,1.6c0,0.8-0.4,1.6-1.1,2c-1,0.5-2,0.8-3.1,0.7c-0.8,0.1-1.7-0.2-2.4-0.6
			c-0.6-0.4-0.9-1-0.9-1.7c0-0.5,0.2-0.9,0.5-1.3c0.3-0.4,0.8-0.6,1.3-0.7c-0.2-0.1-0.4-0.2-0.5-0.4c-0.1-0.2-0.2-0.4-0.2-0.7
			c0-0.3,0.1-0.5,0.2-0.8c0.2-0.3,0.5-0.5,0.7-0.6c-0.4-0.2-0.8-0.5-1-0.9c-0.3-0.4-0.4-0.9-0.4-1.4c0-0.7,0.3-1.5,0.8-2
			c0.6-0.5,1.4-0.8,2.2-0.7c0.4,0,0.8,0,1.1,0.1L356.7,478z M350.3,487.4c0,0.4,0.2,0.8,0.5,1c0.5,0.3,1,0.4,1.6,0.3
			c0.8,0,1.6-0.1,2.3-0.5c0.5-0.2,0.7-0.7,0.7-1.2c0-0.4-0.1-0.7-0.4-0.9c-0.5-0.2-1-0.3-1.5-0.2H352c-0.5,0-0.9,0.1-1.3,0.4
			C350.4,486.5,350.3,487,350.3,487.4L350.3,487.4z M351,480.6c0,0.5,0.1,0.9,0.5,1.3c0.4,0.3,0.8,0.5,1.3,0.4
			c0.8,0.1,1.6-0.4,1.8-1.3c0-0.1,0-0.3,0-0.4c0.1-0.9-0.5-1.7-1.4-1.8c-0.1,0-0.3,0-0.4,0c-0.5,0-1,0.1-1.3,0.5
			C351.1,479.6,350.9,480.1,351,480.6L351,480.6z"/>
		<path class="st3" d="M358.3,475.9c0-0.2,0.1-0.4,0.2-0.6c0.3-0.3,0.7-0.3,1,0c0.3,0.4,0.3,0.9,0,1.2c-0.3,0.3-0.7,0.3-1,0
			C358.3,476.3,358.2,476.1,358.3,475.9z M359.6,486.1h-1.2v-8h1.2V486.1z"/>
		<path class="st3" d="M367.5,486.1v-5.2c0-0.5-0.1-1.1-0.5-1.5c-0.4-0.3-0.9-0.5-1.4-0.5c-0.7-0.1-1.4,0.2-1.8,0.7
			c-0.5,0.7-0.7,1.5-0.6,2.2v4.2H362v-8h1l0.2,1.1h0.1c0.3-0.4,0.6-0.7,1-0.9c0.5-0.2,1-0.3,1.5-0.3c0.8-0.1,1.6,0.2,2.2,0.7
			c0.5,0.6,0.8,1.4,0.7,2.2v5.2L367.5,486.1z"/>
		<path class="st3" d="M374.6,486.2c-1,0.1-2.1-0.3-2.8-1.1c-0.7-0.8-1.1-1.9-1-3c-0.1-1.1,0.3-2.2,1-3.1c0.6-0.8,1.6-1.2,2.6-1.1
			c0.9,0,1.8,0.3,2.4,1c0.6,0.7,0.9,1.7,0.9,2.6v0.8H372c0,0.8,0.2,1.5,0.7,2.1c0.5,0.5,1.2,0.8,1.9,0.7c0.9,0,1.8-0.2,2.6-0.5v1.1
			c-0.4,0.2-0.8,0.3-1.2,0.4C375.5,486.2,375,486.2,374.6,486.2z M374.2,478.9c-0.6,0-1.1,0.2-1.5,0.6c-0.4,0.5-0.6,1.1-0.7,1.7h4.2
			c0-0.6-0.1-1.3-0.5-1.8C375.3,479.1,374.8,478.9,374.2,478.9z"/>
		<path class="st3" d="M383,486.2c-1,0.1-2.1-0.3-2.8-1.1c-0.7-0.8-1.1-1.9-1-3c0-1.1,0.3-2.2,1-3.1c0.6-0.8,1.6-1.2,2.6-1.1
			c0.9,0,1.8,0.3,2.4,1c0.6,0.7,0.9,1.7,0.9,2.6v0.8h-5.5c0,0.8,0.2,1.5,0.7,2.1c0.5,0.5,1.2,0.8,1.9,0.7c0.9,0,1.8-0.2,2.6-0.5v1.1
			C384.9,486.1,384,486.3,383,486.2L383,486.2z M382.7,478.9c-0.6,0-1.1,0.2-1.5,0.6c-0.4,0.5-0.6,1.1-0.7,1.7h4.2
			c0-0.6-0.1-1.3-0.5-1.8C383.8,479.1,383.2,478.9,382.7,478.9L382.7,478.9z"/>
		<path class="st3" d="M391.6,477.9c0.3,0,0.7,0,1,0.1l-0.2,1.1c-0.3-0.1-0.6-0.1-0.9-0.1c-0.6,0-1.3,0.3-1.7,0.8
			c-0.5,0.6-0.7,1.3-0.7,2v4.3H388v-8h1l0.1,1.5h0.1c0.3-0.5,0.6-0.9,1.1-1.2C390.7,478.1,391.1,477.9,391.6,477.9z"/>
		<path class="st3" d="M394.1,475.9c0-0.2,0.1-0.4,0.2-0.6c0.1-0.1,0.3-0.2,0.5-0.2c0.2,0,0.4,0.1,0.5,0.2c0.3,0.4,0.3,0.9,0,1.2
			c-0.1,0.1-0.3,0.2-0.5,0.2c-0.2,0-0.4-0.1-0.5-0.2C394.1,476.3,394,476.1,394.1,475.9z M395.4,486.1h-1.2v-8h1.2V486.1z"/>
		<path class="st3" d="M403.3,486.1v-5.2c0-0.5-0.1-1.1-0.5-1.5c-0.4-0.3-0.9-0.5-1.4-0.5c-0.7-0.1-1.4,0.2-1.9,0.7
			c-0.4,0.7-0.7,1.5-0.6,2.2v4.2h-1.2v-8h1l0.2,1.1h0.1c0.3-0.4,0.6-0.7,1-0.9c0.5-0.2,1-0.3,1.5-0.3c0.8-0.1,1.6,0.2,2.2,0.7
			c0.5,0.6,0.8,1.4,0.7,2.2v5.2L403.3,486.1z"/>
		<path class="st3" d="M413.5,478v0.8L412,479c0.2,0.2,0.3,0.4,0.4,0.7c0.1,0.3,0.2,0.6,0.2,0.9c0,0.7-0.3,1.4-0.8,1.9
			c-0.6,0.5-1.4,0.7-2.2,0.7c-0.2,0-0.5,0-0.7-0.1c-0.4,0.2-0.7,0.5-0.8,1c0,0.2,0.1,0.4,0.3,0.5c0.3,0.1,0.6,0.2,0.9,0.2h1.4
			c0.7,0,1.4,0.1,2,0.5c0.5,0.4,0.7,1,0.7,1.6c0,0.8-0.4,1.6-1.1,2c-1,0.5-2,0.8-3.1,0.7c-0.9,0-1.7-0.2-2.4-0.6
			c-0.6-0.4-0.9-1-0.9-1.7c0-0.5,0.2-0.9,0.5-1.3c0.3-0.4,0.8-0.6,1.3-0.7c-0.2-0.1-0.4-0.2-0.5-0.4c-0.1-0.2-0.2-0.4-0.2-0.7
			c0-0.3,0.1-0.5,0.2-0.8c0.2-0.3,0.5-0.5,0.7-0.6c-0.4-0.2-0.8-0.5-1-0.9c-0.6-1.1-0.5-2.5,0.4-3.4c0.6-0.5,1.4-0.8,2.2-0.7
			c0.4,0,0.8,0,1.1,0.1L413.5,478z M407.1,487.4c0,0.4,0.2,0.8,0.5,1c0.5,0.3,1,0.4,1.6,0.3c0.8,0,1.6-0.1,2.3-0.5
			c0.5-0.2,0.7-0.7,0.7-1.2c0-0.4-0.1-0.7-0.4-0.9c-0.5-0.2-1-0.3-1.5-0.2h-1.5c-0.5,0-0.9,0.1-1.3,0.4
			C407.2,486.5,407.1,487,407.1,487.4L407.1,487.4z M407.8,480.6c0,0.5,0.1,0.9,0.5,1.3c0.4,0.3,0.8,0.5,1.3,0.4
			c0.8,0.1,1.6-0.4,1.8-1.3c0-0.1,0-0.3,0-0.4c0.1-0.9-0.5-1.7-1.4-1.8c-0.1,0-0.3,0-0.4,0c-0.5,0-1,0.1-1.3,0.5
			C407.9,479.6,407.7,480.1,407.8,480.6L407.8,480.6z"/>
		<rect x="158" y="471.7" class="st4" width="20" height="20"/>
		<path class="st3" d="M479.5,480.6c0.1,1.5-0.4,3-1.4,4.1c-1.1,1-2.6,1.5-4.1,1.4h-3v-10.7h3.3c1.4-0.1,2.8,0.4,3.9,1.4
			C479,477.8,479.6,479.2,479.5,480.6z M478.2,480.6c0.1-1.2-0.3-2.3-1-3.2c-0.9-0.8-2-1.1-3.1-1.1h-1.8v8.6h1.5
			c1.2,0.1,2.4-0.3,3.4-1.1C477.9,483,478.3,481.8,478.2,480.6L478.2,480.6z"/>
		<path class="st3" d="M486.5,486.1l-0.2-1.1h0c-0.3,0.4-0.7,0.8-1.2,1c-0.5,0.2-1,0.3-1.5,0.3c-0.7,0-1.3-0.2-1.9-0.6
			c-0.5-0.5-0.7-1.1-0.7-1.8c0-1.6,1.3-2.5,3.9-2.5h1.4v-0.5c0-0.5-0.1-1-0.4-1.4c-0.3-0.3-0.8-0.5-1.3-0.5c-0.8,0-1.6,0.2-2.3,0.6
			l-0.4-0.9c0.4-0.2,0.8-0.4,1.3-0.5c0.5-0.1,0.9-0.2,1.4-0.2c0.8-0.1,1.5,0.2,2.1,0.6c0.5,0.5,0.7,1.3,0.7,2v5.5L486.5,486.1z
			 M483.7,485.2c0.7,0,1.3-0.2,1.8-0.6c0.5-0.5,0.7-1.1,0.6-1.7v-0.7l-1.2,0.1c-0.7,0-1.4,0.1-2.1,0.5c-0.4,0.3-0.7,0.7-0.6,1.2
			c0,0.4,0.1,0.7,0.4,1C482.9,485.1,483.3,485.2,483.7,485.2z"/>
		<path class="st3" d="M492.5,485.2c0.2,0,0.4,0,0.6,0l0.5-0.1v0.9c-0.2,0.1-0.4,0.1-0.6,0.2c-0.2,0-0.5,0.1-0.7,0.1
			c-1.5,0-2.3-0.8-2.3-2.5V479h-1.1v-0.6l1.1-0.5l0.5-1.7h0.7v1.8h2.3v1h-2.3v4.7c0,0.4,0.1,0.8,0.3,1.1
			C491.8,485.1,492.1,485.2,492.5,485.2z"/>
		<path class="st3" d="M500.4,486.1l-0.2-1.1h-0.1c-0.3,0.4-0.7,0.8-1.2,1c-0.5,0.2-1,0.3-1.5,0.3c-0.7,0-1.3-0.2-1.9-0.6
			c-0.5-0.5-0.7-1.1-0.7-1.8c0-1.6,1.3-2.5,3.9-2.5h1.4v-0.5c0-0.5-0.1-1-0.4-1.4c-0.3-0.3-0.8-0.5-1.3-0.5c-0.8,0-1.6,0.2-2.3,0.6
			l-0.4-0.9c0.4-0.2,0.8-0.4,1.3-0.5c0.5-0.1,0.9-0.2,1.4-0.2c0.8-0.1,1.5,0.2,2.1,0.6c0.5,0.5,0.7,1.3,0.7,2v5.5L500.4,486.1z
			 M497.6,485.2c0.7,0,1.3-0.2,1.8-0.6c0.5-0.5,0.7-1.1,0.6-1.7v-0.7l-1.2,0.1c-0.7,0-1.4,0.1-2.1,0.5c-0.4,0.3-0.7,0.7-0.6,1.2
			c0,0.4,0.1,0.7,0.4,1C496.8,485.1,497.2,485.2,497.6,485.2L497.6,485.2z"/>
		<path class="st3" d="M512.4,476.3c-1.1,0-2.1,0.4-2.8,1.2c-0.7,0.9-1.1,2.1-1,3.2c-0.1,1.2,0.3,2.3,1,3.2c0.7,0.8,1.7,1.2,2.8,1.1
			c0.9,0,1.7-0.2,2.5-0.4v1.1c-0.9,0.3-1.8,0.4-2.7,0.4c-1.4,0.1-2.7-0.4-3.6-1.4c-0.9-1.1-1.4-2.6-1.3-4.1c0-1,0.2-2,0.6-2.9
			c0.4-0.8,1-1.5,1.8-1.9c0.8-0.5,1.8-0.7,2.7-0.7c1,0,2,0.2,2.9,0.6l-0.5,1.1C514.1,476.5,513.3,476.3,512.4,476.3z"/>
		<path class="st3" d="M523.8,482c0.1,1.1-0.3,2.2-1,3.1c-0.7,0.8-1.7,1.2-2.7,1.1c-0.7,0-1.3-0.2-1.9-0.5c-0.6-0.3-1-0.8-1.3-1.5
			c-0.3-0.7-0.5-1.4-0.5-2.2c-0.1-1.1,0.3-2.2,1-3.1c0.7-0.7,1.7-1.1,2.7-1.1c1,0,2,0.4,2.7,1.1C523.5,479.8,523.8,480.9,523.8,482z
			 M517.7,482c-0.1,0.8,0.2,1.6,0.6,2.3c0.9,1,2.4,1.1,3.4,0.2c0.1-0.1,0.1-0.1,0.2-0.2c0.5-0.7,0.7-1.5,0.6-2.4
			c0.1-0.8-0.2-1.6-0.6-2.3c-0.4-0.5-1.1-0.8-1.8-0.8c-0.7,0-1.4,0.2-1.8,0.8C517.8,480.3,517.6,481.2,517.7,482z"/>
		<path class="st3" d="M531.3,486.1v-5.2c0-0.5-0.1-1.1-0.4-1.5c-0.4-0.3-0.9-0.5-1.4-0.5c-0.7-0.1-1.4,0.2-1.8,0.7
			c-0.4,0.7-0.7,1.5-0.6,2.2v4.2h-1.2v-8h1l0.2,1.1h0.1c0.2-0.4,0.6-0.7,1-0.9c0.5-0.2,1-0.3,1.5-0.3c0.8-0.1,1.6,0.2,2.2,0.7
			c0.5,0.6,0.8,1.4,0.7,2.2v5.2L531.3,486.1z"/>
		<path class="st3" d="M536.7,486.1l-3-8h1.3l1.7,4.8c0.4,1.1,0.6,1.8,0.7,2.2h0c0.1-0.3,0.2-0.8,0.5-1.6s0.9-2.6,1.9-5.3h1.3l-3,8
			L536.7,486.1z"/>
		<path class="st3" d="M545.8,486.2c-1,0.1-2.1-0.3-2.8-1.1c-0.7-0.8-1.1-1.9-1-3c0-1.1,0.3-2.2,1-3.1c0.6-0.8,1.6-1.2,2.6-1.1
			c0.9,0,1.8,0.3,2.4,1c0.6,0.7,0.9,1.7,0.9,2.6v0.8h-5.5c0,0.8,0.2,1.5,0.7,2.1c0.5,0.5,1.2,0.8,1.9,0.7c0.9,0,1.8-0.2,2.6-0.5v1.1
			c-0.4,0.2-0.8,0.3-1.2,0.4C546.8,486.2,546.3,486.2,545.8,486.2z M545.5,478.9c-0.6,0-1.1,0.2-1.5,0.6c-0.4,0.5-0.7,1.1-0.7,1.7
			h4.2c0-0.6-0.1-1.3-0.5-1.8C546.6,479.1,546,478.9,545.5,478.9L545.5,478.9z"/>
		<path class="st3" d="M554.4,477.9c0.3,0,0.7,0,1,0.1l-0.2,1.1c-0.3-0.1-0.6-0.1-0.9-0.1c-0.6,0-1.3,0.3-1.7,0.8
			c-0.5,0.6-0.7,1.3-0.7,2v4.3h-1.2v-8h1l0.1,1.5h0.1c0.3-0.5,0.6-0.9,1.1-1.2C553.5,478.1,553.9,477.9,554.4,477.9z"/>
		<path class="st3" d="M562.2,483.9c0,0.7-0.3,1.3-0.8,1.7c-0.7,0.4-1.5,0.7-2.3,0.6c-0.9,0-1.7-0.1-2.5-0.5v-1.1
			c0.4,0.2,0.8,0.3,1.2,0.5c0.4,0.1,0.8,0.2,1.3,0.2c0.5,0,1-0.1,1.5-0.3c0.5-0.3,0.7-0.9,0.4-1.4c-0.1-0.1-0.2-0.2-0.3-0.3
			c-0.5-0.3-1-0.6-1.6-0.8c-0.6-0.2-1.1-0.4-1.6-0.7c-0.3-0.2-0.5-0.4-0.7-0.7c-0.4-0.9-0.2-1.9,0.6-2.5c0.7-0.4,1.4-0.6,2.2-0.6
			c0.9,0,1.7,0.2,2.5,0.5l-0.4,1c-0.7-0.3-1.4-0.5-2.2-0.5c-0.5,0-0.9,0.1-1.3,0.3c-0.3,0.1-0.4,0.4-0.4,0.7c0,0.2,0.1,0.4,0.2,0.5
			c0.1,0.2,0.3,0.3,0.5,0.4c0.5,0.2,0.9,0.4,1.4,0.6c0.7,0.2,1.4,0.6,1.9,1C562.1,482.9,562.3,483.4,562.2,483.9z"/>
		<path class="st3" d="M564,475.9c0-0.2,0.1-0.4,0.2-0.6c0.1-0.1,0.3-0.2,0.5-0.2c0.2,0,0.4,0.1,0.5,0.2c0.3,0.4,0.3,0.9,0,1.2
			c-0.1,0.1-0.3,0.2-0.5,0.2c-0.2,0-0.4-0.1-0.5-0.2C564.1,476.3,564,476.1,564,475.9z M565.3,486.1h-1.2v-8h1.2V486.1z"/>
		<path class="st3" d="M574.7,482c0.1,1.1-0.3,2.2-1,3.1c-0.7,0.8-1.7,1.2-2.7,1.1c-0.7,0-1.3-0.2-1.9-0.5c-0.6-0.3-1-0.8-1.3-1.5
			c-0.3-0.7-0.5-1.4-0.5-2.2c-0.1-1.1,0.3-2.2,1-3.1c0.7-0.7,1.7-1.1,2.7-1.1c1,0,2,0.4,2.7,1.1C574.4,479.8,574.7,480.9,574.7,482z
			 M568.6,482c-0.1,0.8,0.2,1.6,0.6,2.3c0.9,1,2.4,1.1,3.4,0.2c0.1-0.1,0.1-0.1,0.2-0.2c0.5-0.7,0.7-1.5,0.6-2.4
			c0.1-0.8-0.2-1.6-0.6-2.3c-0.4-0.5-1.1-0.8-1.8-0.8c-0.7,0-1.4,0.2-1.8,0.8C568.7,480.3,568.5,481.2,568.6,482z"/>
		<path class="st3" d="M582.2,486.1v-5.2c0-0.5-0.1-1.1-0.4-1.5c-0.4-0.3-0.9-0.5-1.4-0.5c-0.7-0.1-1.4,0.2-1.8,0.7
			c-0.4,0.7-0.7,1.5-0.6,2.2v4.2h-1.2v-8h1l0.2,1.1h0.1c0.2-0.4,0.6-0.7,1-0.9c0.5-0.2,1-0.3,1.5-0.3c0.8-0.1,1.6,0.2,2.2,0.7
			c0.5,0.6,0.8,1.4,0.7,2.2v5.2L582.2,486.1z"/>
		<rect x="441" y="471.7" class="st5" width="20" height="20"/>
		<path class="st3" d="M645.7,486.1l-3.7-9.5l0,0c0.1,0.8,0.1,1.6,0.1,2.7v6.8h-1.2v-10.7h1.9l3.4,8.8l0,0l3.4-8.8h1.9v10.7h-1.2
			v-6.9c0-0.8,0-1.6,0.1-2.6h-0.1l-3.7,9.5L645.7,486.1z"/>
		<path class="st3" d="M659.1,486.1l-0.2-1.1h-0.1c-0.3,0.4-0.7,0.8-1.2,1c-0.5,0.2-1,0.3-1.5,0.3c-0.7,0-1.3-0.2-1.9-0.6
			c-0.5-0.5-0.7-1.1-0.7-1.8c0-1.6,1.3-2.5,3.9-2.5h1.4v-0.5c0-0.5-0.1-1-0.4-1.4c-0.3-0.3-0.8-0.5-1.3-0.5c-0.8,0-1.6,0.2-2.3,0.6
			l-0.4-0.9c0.4-0.2,0.8-0.4,1.3-0.5c0.5-0.1,0.9-0.2,1.4-0.2c0.8-0.1,1.5,0.2,2.1,0.6c0.5,0.5,0.8,1.3,0.7,2v5.5L659.1,486.1z
			 M656.3,485.2c0.7,0,1.3-0.2,1.8-0.6c0.5-0.5,0.7-1.1,0.7-1.7v-0.7l-1.2,0.1c-0.7,0-1.4,0.1-2.1,0.5c-0.4,0.3-0.7,0.7-0.6,1.2
			c0,0.4,0.1,0.7,0.4,1C655.6,485.1,655.9,485.2,656.3,485.2z"/>
		<path class="st3" d="M665.7,486.2c-1,0.1-2-0.3-2.7-1.1c-0.7-0.8-1.1-1.9-1-3c-0.1-1.1,0.3-2.2,1-3.1c0.7-0.8,1.7-1.2,2.8-1.1
			c0.4,0,0.8,0,1.2,0.1c0.3,0.1,0.6,0.2,0.9,0.3l-0.4,1c-0.3-0.1-0.6-0.2-0.9-0.3c-0.3-0.1-0.6-0.1-0.8-0.1c-1.6,0-2.5,1-2.5,3.1
			c-0.1,0.8,0.2,1.6,0.6,2.3c0.4,0.5,1.1,0.8,1.8,0.8c0.7,0,1.4-0.2,2.1-0.4v1.1C667,486.1,666.3,486.2,665.7,486.2z"/>
		<path class="st3" d="M675,486.1v-5.2c0-0.5-0.1-1.1-0.5-1.5c-0.4-0.3-0.9-0.5-1.4-0.5c-0.7-0.1-1.4,0.2-1.8,0.7
			c-0.4,0.7-0.7,1.5-0.6,2.2v4.2h-1.2v-11.4h1.2v3.4c0,0.3,0,0.7-0.1,1h0.1c0.2-0.4,0.6-0.7,1-0.9c0.5-0.2,1-0.4,1.5-0.3
			c0.8-0.1,1.6,0.2,2.2,0.7c0.5,0.6,0.8,1.4,0.7,2.2v5.2L675,486.1z"/>
		<path class="st3" d="M678.5,475.9c0-0.2,0-0.4,0.2-0.6c0.3-0.3,0.7-0.3,1,0c0.3,0.4,0.3,0.9,0,1.2c-0.3,0.3-0.7,0.3-1,0
			C678.6,476.3,678.5,476.1,678.5,475.9z M679.8,486.1h-1.2v-8h1.2V486.1z"/>
		<path class="st3" d="M687.8,486.1v-5.2c0-0.5-0.1-1.1-0.4-1.5c-0.4-0.3-0.9-0.5-1.4-0.5c-0.7-0.1-1.4,0.2-1.8,0.7
			c-0.4,0.7-0.7,1.5-0.6,2.2v4.2h-1.2v-8h1l0.2,1.1h0.1c0.2-0.4,0.6-0.7,1-0.9c0.5-0.2,1-0.3,1.5-0.3c0.8-0.1,1.6,0.2,2.2,0.7
			c0.5,0.6,0.8,1.4,0.7,2.2v5.2L687.8,486.1z"/>
		<path class="st3" d="M694.8,486.2c-1,0.1-2.1-0.3-2.8-1.1c-0.7-0.8-1.1-1.9-1-3c0-1.1,0.3-2.2,1-3.1c0.6-0.8,1.6-1.2,2.6-1.1
			c0.9,0,1.8,0.3,2.4,1c0.6,0.7,0.9,1.7,0.9,2.6v0.8h-5.5c0,0.8,0.2,1.5,0.7,2.1c0.5,0.5,1.2,0.8,1.9,0.7c0.9,0,1.8-0.2,2.6-0.5v1.1
			C696.7,486.1,695.8,486.3,694.8,486.2L694.8,486.2z M694.5,478.9c-0.6,0-1.1,0.2-1.5,0.6c-0.4,0.5-0.6,1.1-0.7,1.7h4.2
			c0-0.6-0.1-1.3-0.5-1.8C695.6,479.1,695,478.9,694.5,478.9z"/>
		<path class="st3" d="M703.9,486.1v-10.7h1.2v9.6h4.7v1.1H703.9z"/>
		<path class="st3" d="M714.8,486.2c-1,0.1-2.1-0.3-2.8-1.1c-0.7-0.8-1.1-1.9-1-3c0-1.1,0.3-2.2,1-3.1c0.6-0.8,1.6-1.2,2.6-1.1
			c0.9,0,1.8,0.3,2.4,1c0.6,0.7,0.9,1.7,0.9,2.6v0.8h-5.5c0,0.8,0.2,1.5,0.7,2.1c0.5,0.5,1.2,0.8,1.9,0.7c0.9,0,1.8-0.2,2.6-0.5v1.1
			c-0.4,0.2-0.8,0.3-1.2,0.4C715.8,486.2,715.3,486.2,714.8,486.2z M714.5,478.9c-0.6,0-1.2,0.2-1.5,0.6c-0.4,0.5-0.6,1.1-0.7,1.7
			h4.2c0-0.6-0.1-1.3-0.5-1.8C715.6,479.1,715.1,478.9,714.5,478.9L714.5,478.9z"/>
		<path class="st3" d="M724.7,486.1l-0.2-1.1h-0.1c-0.3,0.4-0.7,0.8-1.2,1c-0.5,0.2-1,0.3-1.5,0.3c-0.7,0-1.3-0.2-1.9-0.6
			c-0.5-0.5-0.7-1.1-0.7-1.8c0-1.6,1.3-2.5,3.9-2.5h1.4v-0.5c0-0.5-0.1-1-0.4-1.4c-0.3-0.3-0.8-0.5-1.3-0.5c-0.8,0-1.6,0.2-2.3,0.6
			l-0.4-0.9c0.4-0.2,0.8-0.4,1.3-0.5c0.5-0.1,0.9-0.2,1.4-0.2c0.8-0.1,1.5,0.2,2.1,0.6c0.5,0.5,0.7,1.3,0.7,2v5.5L724.7,486.1z
			 M722,485.2c0.7,0,1.3-0.2,1.8-0.6c0.4-0.5,0.7-1.1,0.6-1.7v-0.7l-1.2,0.1c-0.7,0-1.4,0.1-2.1,0.5c-0.4,0.3-0.7,0.7-0.6,1.2
			c0,0.4,0.1,0.7,0.4,1C721.2,485.1,721.6,485.2,722,485.2z"/>
		<path class="st3" d="M731.7,477.9c0.3,0,0.7,0,1,0.1l-0.2,1.1c-0.3-0.1-0.6-0.1-0.9-0.1c-0.6,0-1.3,0.3-1.7,0.8
			c-0.5,0.6-0.7,1.3-0.7,2v4.3H728v-8h1l0.1,1.5h0c0.3-0.5,0.6-0.9,1.1-1.2C730.7,478.1,731.2,477.9,731.7,477.9z"/>
		<path class="st3" d="M739.7,486.1v-5.2c0-0.5-0.1-1.1-0.5-1.5c-0.4-0.4-0.9-0.5-1.4-0.5c-0.7-0.1-1.4,0.2-1.8,0.7
			c-0.5,0.7-0.7,1.5-0.6,2.2v4.2h-1.2v-8h1l0.2,1.1h0.1c0.2-0.4,0.6-0.7,1-0.9c0.5-0.2,1-0.3,1.5-0.3c0.8-0.1,1.6,0.2,2.2,0.7
			c0.5,0.6,0.8,1.4,0.7,2.2v5.2L739.7,486.1z"/>
		<path class="st3" d="M743.2,475.9c0-0.2,0.1-0.4,0.2-0.6c0.1-0.1,0.3-0.2,0.5-0.2c0.2,0,0.4,0.1,0.5,0.2c0.3,0.4,0.3,0.9,0,1.2
			c-0.1,0.1-0.3,0.2-0.5,0.2c-0.2,0-0.4-0.1-0.5-0.2C743.3,476.3,743.2,476.1,743.2,475.9z M744.5,486.1h-1.2v-8h1.2V486.1z"/>
		<path class="st3" d="M752.5,486.1v-5.2c0-0.5-0.1-1.1-0.4-1.5c-0.4-0.3-0.9-0.5-1.4-0.5c-0.7-0.1-1.4,0.2-1.8,0.7
			c-0.4,0.7-0.7,1.5-0.6,2.2v4.2H747v-8h1l0.2,1.1h0c0.2-0.4,0.6-0.7,1-0.9c0.5-0.2,1-0.3,1.5-0.3c0.8-0.1,1.6,0.2,2.2,0.7
			c0.5,0.6,0.8,1.4,0.7,2.2v5.2L752.5,486.1z"/>
		<path class="st3" d="M762.7,478v0.8l-1.5,0.2c0.2,0.2,0.3,0.4,0.4,0.7c0.1,0.3,0.2,0.6,0.2,0.9c0,0.7-0.3,1.4-0.8,1.9
			c-0.6,0.5-1.4,0.7-2.2,0.7c-0.2,0-0.4,0-0.7-0.1c-0.4,0.2-0.7,0.5-0.8,1c0,0.2,0.1,0.4,0.3,0.5c0.3,0.1,0.6,0.2,0.9,0.2h1.4
			c0.7,0,1.4,0.1,2,0.5c0.5,0.4,0.7,1,0.7,1.6c0,0.8-0.4,1.6-1.1,2c-1,0.5-2,0.8-3.1,0.7c-0.9,0-1.7-0.2-2.4-0.6
			c-0.6-0.4-0.9-1-0.8-1.7c0-0.5,0.2-0.9,0.5-1.3c0.3-0.4,0.8-0.6,1.3-0.7c-0.2-0.1-0.4-0.2-0.5-0.4c-0.1-0.2-0.2-0.4-0.2-0.7
			c0-0.3,0.1-0.5,0.2-0.8c0.2-0.3,0.5-0.5,0.7-0.6c-0.4-0.2-0.8-0.5-1-0.9c-0.6-1.1-0.5-2.5,0.4-3.4c0.6-0.5,1.4-0.8,2.2-0.7
			c0.4,0,0.8,0,1.1,0.1L762.7,478z M756.3,487.4c0,0.4,0.2,0.8,0.5,1c0.5,0.3,1,0.4,1.6,0.3c0.8,0,1.6-0.1,2.3-0.5
			c0.5-0.2,0.7-0.7,0.7-1.2c0-0.4-0.1-0.7-0.4-0.9c-0.5-0.2-1-0.3-1.5-0.2H758c-0.5,0-0.9,0.1-1.3,0.4
			C756.4,486.5,756.2,487,756.3,487.4L756.3,487.4z M756.9,480.6c0,0.5,0.1,0.9,0.5,1.3c0.4,0.3,0.8,0.5,1.3,0.4
			c0.8,0.1,1.6-0.4,1.8-1.3c0-0.1,0-0.3,0-0.4c0.1-0.9-0.5-1.7-1.4-1.8c-0.1,0-0.3,0-0.4,0c-0.5,0-1,0.1-1.3,0.5
			C757,479.6,756.9,480.1,756.9,480.6L756.9,480.6z"/>
		<path class="st3" d="M771.7,486.1h-1.2v-9.6H767v-1.1h8v1.1h-3.4L771.7,486.1z"/>
		<path class="st3" d="M779,477.9c0.3,0,0.7,0,1,0.1l-0.2,1.1c-0.3-0.1-0.6-0.1-0.9-0.1c-0.6,0-1.3,0.3-1.7,0.8
			c-0.5,0.6-0.7,1.3-0.7,2v4.3h-1.2v-8h1l0.1,1.5h0.1c0.3-0.5,0.6-0.9,1.1-1.2C778,478.1,778.5,477.9,779,477.9z"/>
		<path class="st3" d="M786.3,486.1l-0.2-1.1h0c-0.3,0.4-0.7,0.8-1.2,1c-0.5,0.2-1,0.3-1.5,0.3c-0.7,0-1.3-0.2-1.9-0.6
			c-0.5-0.5-0.7-1.1-0.7-1.8c0-1.6,1.3-2.5,3.9-2.5h1.4v-0.5c0-0.5-0.1-1-0.4-1.4c-0.3-0.3-0.8-0.5-1.3-0.5c-0.8,0-1.6,0.2-2.3,0.6
			l-0.4-0.9c0.4-0.2,0.8-0.4,1.3-0.5c0.5-0.1,0.9-0.2,1.4-0.2c0.8-0.1,1.5,0.2,2.1,0.6c0.5,0.5,0.7,1.3,0.7,2v5.5L786.3,486.1z
			 M783.5,485.2c0.7,0,1.3-0.2,1.8-0.6c0.4-0.5,0.7-1.1,0.6-1.7v-0.7l-1.2,0.1c-0.7,0-1.4,0.1-2.1,0.5c-0.4,0.3-0.7,0.7-0.6,1.2
			c0,0.4,0.1,0.7,0.4,1C782.7,485.1,783.1,485.2,783.5,485.2z"/>
		<path class="st3" d="M789.5,475.9c0-0.2,0.1-0.4,0.2-0.6c0.1-0.1,0.3-0.2,0.5-0.2c0.2,0,0.4,0.1,0.5,0.2c0.3,0.4,0.3,0.9,0,1.2
			c-0.1,0.1-0.3,0.2-0.5,0.2c-0.2,0-0.4-0.1-0.5-0.2C789.5,476.3,789.5,476.1,789.5,475.9z M790.8,486.1h-1.2v-8h1.2V486.1z"/>
		<path class="st3" d="M798.7,486.1v-5.2c0-0.5-0.1-1.1-0.5-1.5c-0.4-0.4-0.9-0.5-1.4-0.5c-0.7-0.1-1.4,0.2-1.8,0.7
			c-0.4,0.7-0.7,1.5-0.6,2.2v4.2h-1.2v-8h1l0.2,1.1h0.1c0.2-0.4,0.6-0.7,1-0.9c0.5-0.2,1-0.3,1.5-0.3c0.8-0.1,1.6,0.2,2.2,0.7
			c0.5,0.6,0.8,1.4,0.7,2.2v5.2L798.7,486.1z"/>
		<path class="st3" d="M802.2,475.9c0-0.2,0.1-0.4,0.2-0.6c0.1-0.1,0.3-0.2,0.5-0.2c0.2,0,0.4,0.1,0.5,0.2c0.3,0.4,0.3,0.9,0,1.2
			c-0.1,0.1-0.3,0.2-0.5,0.2c-0.2,0-0.4-0.1-0.5-0.2C802.3,476.3,802.2,476.1,802.2,475.9z M803.6,486.1h-1.2v-8h1.2V486.1z"/>
		<path class="st3" d="M811.5,486.1v-5.2c0-0.5-0.1-1.1-0.5-1.5c-0.4-0.4-0.9-0.5-1.4-0.5c-0.7-0.1-1.4,0.2-1.8,0.7
			c-0.4,0.7-0.7,1.5-0.6,2.2v4.2H806v-8h1l0.2,1.1h0.1c0.2-0.4,0.6-0.7,1-0.9c0.5-0.2,1-0.3,1.5-0.3c0.8-0.1,1.6,0.2,2.2,0.7
			c0.5,0.6,0.8,1.4,0.7,2.2v5.2L811.5,486.1z"/>
		<path class="st3" d="M821.7,478v0.8l-1.5,0.2c0.2,0.2,0.3,0.4,0.4,0.7c0.1,0.3,0.2,0.6,0.2,0.9c0,0.7-0.3,1.4-0.8,1.9
			c-0.6,0.5-1.4,0.7-2.2,0.7c-0.2,0-0.5,0-0.7-0.1c-0.4,0.2-0.7,0.5-0.8,1c0,0.2,0.1,0.4,0.3,0.5c0.3,0.1,0.6,0.2,0.9,0.2h1.4
			c0.7,0,1.4,0.1,2,0.5c0.5,0.4,0.7,1,0.7,1.6c0,0.8-0.4,1.6-1.1,2c-1,0.5-2,0.8-3.1,0.7c-0.9,0-1.7-0.2-2.4-0.6
			c-0.6-0.4-0.9-1-0.8-1.7c0-0.5,0.2-0.9,0.5-1.3c0.3-0.4,0.8-0.6,1.3-0.7c-0.2-0.1-0.4-0.2-0.5-0.4c-0.1-0.2-0.2-0.4-0.2-0.7
			c0-0.3,0.1-0.5,0.2-0.8c0.2-0.3,0.5-0.5,0.7-0.6c-0.4-0.2-0.8-0.5-1-0.9c-0.6-1.1-0.5-2.5,0.4-3.4c0.6-0.5,1.4-0.8,2.2-0.7
			c0.4,0,0.8,0,1.1,0.1L821.7,478z M815.3,487.4c0,0.4,0.2,0.8,0.5,1c0.5,0.3,1,0.4,1.6,0.3c0.8,0,1.6-0.1,2.3-0.5
			c0.5-0.2,0.7-0.7,0.7-1.2c0-0.4-0.1-0.7-0.4-0.9c-0.5-0.2-1-0.3-1.5-0.2H817c-0.5,0-0.9,0.1-1.3,0.4
			C815.4,486.6,815.2,487,815.3,487.4L815.3,487.4z M815.9,480.6c0,0.5,0.1,0.9,0.5,1.3c0.4,0.3,0.8,0.5,1.3,0.4
			c0.8,0.1,1.6-0.4,1.8-1.3c0-0.1,0-0.3,0-0.4c0.1-0.9-0.5-1.7-1.4-1.8c-0.1,0-0.3,0-0.4,0c-0.5,0-1,0.1-1.3,0.5
			C816.1,479.6,815.9,480.1,815.9,480.6L815.9,480.6z"/>
		<rect x="611" y="471.7" class="st6" width="20" height="20"/>
	</g>
</g>
</svg>
