<svg xmlns="http://www.w3.org/2000/svg" width="80" height="80" viewBox="0 0 80 80">
  <metadata><?xpacket begin="﻿" id="W5M0MpCehiHzreSzNTczkc9d"?>
<x:xmpmeta xmlns:x="adobe:ns:meta/" x:xmptk="Adobe XMP Core 5.6-c140 79.160451, 2017/05/06-01:08:21        ">
   <rdf:RDF xmlns:rdf="http://www.w3.org/1999/02/22-rdf-syntax-ns#">
      <rdf:Description rdf:about=""/>
   </rdf:RDF>
</x:xmpmeta>
                                                                                                    
                                                                                                    
                                                                                                    
                                                                                                    
                                                                                                    
                                                                                                    
                                                                                                    
                                                                                                    
                                                                                                    
                                                                                                    
                                                                                                    
                                                                                                    
                                                                                                    
                                                                                                    
                                                                                                    
                                                                                                    
                                                                                                    
                                                                                                    
                                                                                                    
                                                                                                    
                           
<?xpacket end="w"?></metadata>
<defs>
    <style>
      .cls-1 {
        fill: #bababc;
        fill-rule: evenodd;
      }
    </style>
  </defs>
  <path class="cls-1" d="M4631.5,3891.51a39.99,39.99,0,1,0,39.99,39.99A40.036,40.036,0,0,0,4631.5,3891.51Zm0,76.84a36.85,36.85,0,1,1,36.85-36.85A36.891,36.891,0,0,1,4631.5,3968.35Zm-25.22-38.37h-7.01v3.14h7.02q-0.06-.795-0.06-1.62C4606.23,3930.99,4606.25,3930.48,4606.28,3929.98Zm6.26,18.21-4.97,4.97,2.22,2.22,4.97-4.96A24.588,24.588,0,0,1,4612.54,3948.19Zm37.87-33.44,4.81-4.81-2.22-2.22-4.81,4.81A27.355,27.355,0,0,1,4650.41,3914.75Zm-17.44-8.47v-6.85h-3.14v6.86c0.55-.03,1.11-0.06,1.67-0.06C4631.99,3906.23,4632.48,3906.25,4632.97,3906.28Zm-3.14,50.43v6.97h3.14v-6.96c-0.49.03-.98,0.05-1.47,0.05C4630.94,3956.77,4630.38,3956.74,4629.83,3956.71Zm-15.13-44.08-4.91-4.9-2.22,2.22,4.92,4.92A25.956,25.956,0,0,1,4614.7,3912.63Zm42.02,17.35c0.03,0.5.05,1.01,0.05,1.52,0,0.55-.03,1.09-0.06,1.62h6.81v-3.14h-6.8Zm-8.59,20.53,4.87,4.87,2.23-2.22-4.86-4.86A25.956,25.956,0,0,1,4648.13,3950.51Zm11.31-32.98a1.571,1.571,0,0,0-2.11-.71l-3.98,1.99-14,7.01-3.86,1.93a5.635,5.635,0,0,0-1.42-1.1,6.765,6.765,0,0,0-1-.41v-12.38a1.616,1.616,0,0,0-.1-0.54,1.568,1.568,0,0,0-3.04.54v12.38a0.3,0.3,0,0,0-.1.04,4.53,4.53,0,0,0-1.03.45,5.5,5.5,0,0,0-2.57,3.25,5.368,5.368,0,0,0,.03,3.14,5.267,5.267,0,0,0,.39.95,5.6,5.6,0,0,0,2.21,2.24,4.868,4.868,0,0,0,.97.41,5.41,5.41,0,0,0,1.67.27,5.5,5.5,0,0,0,1.47-.21,5.361,5.361,0,0,0,1.03-.4,5.542,5.542,0,0,0,2.27-2.18,5.785,5.785,0,0,0,.47-1.08,5.384,5.384,0,0,0,.25-1.62,5.76,5.76,0,0,0-.09-0.94l1.15-.58,16.71-8.36,3.98-1.99A1.556,1.556,0,0,0,4659.44,3917.53Z" transform="translate(-4591.5 -3891.5)"/>
</svg>
