<svg xmlns="http://www.w3.org/2000/svg" width="80" height="81.06" viewBox="0 0 80 81.06">
  <metadata><?xpacket begin="﻿" id="W5M0MpCehiHzreSzNTczkc9d"?>
<x:xmpmeta xmlns:x="adobe:ns:meta/" x:xmptk="Adobe XMP Core 5.6-c140 79.160451, 2017/05/06-01:08:21        ">
   <rdf:RDF xmlns:rdf="http://www.w3.org/1999/02/22-rdf-syntax-ns#">
      <rdf:Description rdf:about=""/>
   </rdf:RDF>
</x:xmpmeta>
                                                                                                    
                                                                                                    
                                                                                                    
                                                                                                    
                                                                                                    
                                                                                                    
                                                                                                    
                                                                                                    
                                                                                                    
                                                                                                    
                                                                                                    
                                                                                                    
                                                                                                    
                                                                                                    
                                                                                                    
                                                                                                    
                                                                                                    
                                                                                                    
                                                                                                    
                                                                                                    
                           
<?xpacket end="w"?></metadata>
<defs>
    <style>
      .cls-1 {
        fill: #bababc;
        fill-rule: evenodd;
      }
    </style>
  </defs>
  <path id="scaling-out" class="cls-1" d="M4591.95,3692.85H4590v3.18h5.13v-5.13h-3.18v1.95Zm-29.05,3.18h6.78v-3.18h-6.78v3.18Zm13.55,0h6.78v-3.18h-6.78v3.18Zm-22.27-5.13H4551v5.13h5.13v-3.18h-1.95v-1.95Zm0-13.53H4551v6.77h3.18v-6.77Zm0-13.54H4551v6.77h3.18v-6.77Zm-3.18-6.77h3.18v-1.95h1.95v-3.18H4551v5.13Zm11.9-1.95h6.78v-3.18h-6.78v3.18Zm29.05,1.95h3.18v-5.13H4590v3.18h1.95v1.95Zm0,27.08h3.18v-6.77h-3.18v6.77Zm39.05-69.17h-55.29v55.24h16.24v0.39h3.18v-0.39H4631v-55.24Zm-3.18,52.06h-32.69v-3.2h-3.18v3.2h-13.06v-11.92h4.34v-3.18h-4.34v-33.78h48.93v48.88Zm-28.59-16.48,14.9-15.41,4.34,4.19,3.69-14.78-14.66,4.19,4.34,4.19-14.9,15.41Z" transform="translate(-4551 -3614.97)"/>
</svg>
