<svg xmlns="http://www.w3.org/2000/svg" width="80" height="79.97" viewBox="0 0 80 79.97">
  <metadata><?xpacket begin="﻿" id="W5M0MpCehiHzreSzNTczkc9d"?>
<x:xmpmeta xmlns:x="adobe:ns:meta/" x:xmptk="Adobe XMP Core 5.6-c140 79.160451, 2017/05/06-01:08:21        ">
   <rdf:RDF xmlns:rdf="http://www.w3.org/1999/02/22-rdf-syntax-ns#">
      <rdf:Description rdf:about=""/>
   </rdf:RDF>
</x:xmpmeta>
                                                                                                    
                                                                                                    
                                                                                                    
                                                                                                    
                                                                                                    
                                                                                                    
                                                                                                    
                                                                                                    
                                                                                                    
                                                                                                    
                                                                                                    
                                                                                                    
                                                                                                    
                                                                                                    
                                                                                                    
                                                                                                    
                                                                                                    
                                                                                                    
                                                                                                    
                                                                                                    
                           
<?xpacket end="w"?></metadata>
<defs>
    <style>
      .cls-1 {
        fill: #bababc;
        fill-rule: evenodd;
      }
    </style>
  </defs>
  <path id="slack" class="cls-1" d="M4089.9,1076.69l10.68-3.58,3.45,10.31-10.67,3.58Zm0,0,10.68-3.58,3.45,10.31-10.67,3.58Zm43.71-7.69c-8.25-27.5-20.14-33.9-47.64-25.65s-33.89,20.15-25.65,47.64,20.15,33.9,47.65,25.65S4141.86,1096.49,4133.61,1069Zm-13.88,17.84-5.18,1.72,1.8,5.38a4.15,4.15,0,0,1-2.63,5.24,3.394,3.394,0,0,1-1.4.19,4.252,4.252,0,0,1-3.84-2.81l-1.79-5.37-10.68,3.58,1.79,5.37a4.153,4.153,0,0,1-2.62,5.24,3.441,3.441,0,0,1-1.41.19,4.274,4.274,0,0,1-3.84-2.81l-1.79-5.37-5.18,1.73a3.763,3.763,0,0,1-1.4.19,4.262,4.262,0,0,1-3.84-2.82,4.153,4.153,0,0,1,2.62-5.24l5.18-1.73-3.45-10.29-5.18,1.72a3.628,3.628,0,0,1-1.41.2,4.3,4.3,0,0,1-3.84-2.82,4.15,4.15,0,0,1,2.63-5.24l5.18-1.73-1.79-5.37a4.143,4.143,0,0,1,7.86-2.62l1.79,5.37,10.68-3.58-1.79-5.37a4.149,4.149,0,0,1,7.87-2.63l1.79,5.38,5.18-1.73a4.147,4.147,0,0,1,2.62,7.87l-5.18,1.72,3.45,10.3,5.18-1.73A4.147,4.147,0,1,1,4119.73,1086.84Z" transform="translate(-4056.97 -1040)"/>
</svg>
