<svg xmlns="http://www.w3.org/2000/svg" width="74.53" height="60.03" viewBox="0 0 74.53 60.03">
  <metadata><?xpacket begin="﻿" id="W5M0MpCehiHzreSzNTczkc9d"?>
<x:xmpmeta xmlns:x="adobe:ns:meta/" x:xmptk="Adobe XMP Core 5.6-c140 79.160451, 2017/05/06-01:08:21        ">
   <rdf:RDF xmlns:rdf="http://www.w3.org/1999/02/22-rdf-syntax-ns#">
      <rdf:Description rdf:about=""/>
   </rdf:RDF>
</x:xmpmeta>
                                                                                                    
                                                                                                    
                                                                                                    
                                                                                                    
                                                                                                    
                                                                                                    
                                                                                                    
                                                                                                    
                                                                                                    
                                                                                                    
                                                                                                    
                                                                                                    
                                                                                                    
                                                                                                    
                                                                                                    
                                                                                                    
                                                                                                    
                                                                                                    
                                                                                                    
                                                                                                    
                           
<?xpacket end="w"?></metadata>
<defs>
    <style>
      .cls-1 {
        fill: #fff;
        fill-rule: evenodd;
      }
    </style>
  </defs>
  <path id="Twitter-help" class="cls-1" d="M6873.25,3670.61a30.848,30.848,0,0,1-8.8,2.35,14.768,14.768,0,0,0,6.72-8.35,30.279,30.279,0,0,1-9.69,3.65,15.411,15.411,0,0,0-21.97-.35,14.582,14.582,0,0,0-4.46,10.72,16.165,16.165,0,0,0,.38,3.47,43.533,43.533,0,0,1-31.49-15.85,15.078,15.078,0,0,0-.24,14.86,15.166,15.166,0,0,0,4.97,5.4,15.277,15.277,0,0,1-6.9-1.93v0.19a14.55,14.55,0,0,0,3.47,9.64,15.047,15.047,0,0,0,8.77,5.23,16.171,16.171,0,0,1-4.02.51,20.214,20.214,0,0,1-2.88-.23,14.751,14.751,0,0,0,5.39,7.48,14.942,14.942,0,0,0,8.88,3.03,30.043,30.043,0,0,1-18.95,6.47,32.023,32.023,0,0,1-3.7-.19,42.742,42.742,0,0,0,23.46,6.8,44.867,44.867,0,0,0,15.27-2.56,38.821,38.821,0,0,0,12.2-6.84,46.186,46.186,0,0,0,8.72-9.88,43.923,43.923,0,0,0,5.46-11.65,42.3,42.3,0,0,0,1.79-12.17c0-.88-0.01-1.53-0.04-1.97a32.018,32.018,0,0,0,7.66-7.83h0Zm0,0" transform="translate(-6798.72 -3663.47)"/>
</svg>
