<svg xmlns="http://www.w3.org/2000/svg" width="24.82" height="19.97" viewBox="0 0 24.82 19.97">
  <metadata><?xpacket begin="﻿" id="W5M0MpCehiHzreSzNTczkc9d"?>
<x:xmpmeta xmlns:x="adobe:ns:meta/" x:xmptk="Adobe XMP Core 5.6-c140 79.160451, 2017/05/06-01:08:21        ">
   <rdf:RDF xmlns:rdf="http://www.w3.org/1999/02/22-rdf-syntax-ns#">
      <rdf:Description rdf:about=""/>
   </rdf:RDF>
</x:xmpmeta>
                                                                                                    
                                                                                                    
                                                                                                    
                                                                                                    
                                                                                                    
                                                                                                    
                                                                                                    
                                                                                                    
                                                                                                    
                                                                                                    
                                                                                                    
                                                                                                    
                                                                                                    
                                                                                                    
                                                                                                    
                                                                                                    
                                                                                                    
                                                                                                    
                                                                                                    
                                                                                                    
                           
<?xpacket end="w"?></metadata>
<defs>
    <style>
      .cls-1 {
        fill: #7400ff;
        fill-rule: evenodd;
      }
    </style>
  </defs>
  <path id="Twitter" class="cls-1" d="M1129.4,6045.87a9.964,9.964,0,0,1-2.93.78,4.9,4.9,0,0,0,2.24-2.78,9.974,9.974,0,0,1-3.23,1.22,5.133,5.133,0,0,0-7.31-.12,4.872,4.872,0,0,0-1.49,3.57,5.89,5.89,0,0,0,.13,1.16,14.512,14.512,0,0,1-10.48-5.28,5.042,5.042,0,0,0-.08,4.95,5.067,5.067,0,0,0,1.65,1.79,4.989,4.989,0,0,1-2.29-.64v0.06a4.846,4.846,0,0,0,1.15,3.21,5.03,5.03,0,0,0,2.92,1.74,5.078,5.078,0,0,1-1.34.17,6.779,6.779,0,0,1-.96-0.07,5.086,5.086,0,0,0,4.76,3.49,9.993,9.993,0,0,1-6.31,2.16,9.178,9.178,0,0,1-1.23-.07,14.193,14.193,0,0,0,7.81,2.27,15.171,15.171,0,0,0,5.08-.85,13.19,13.19,0,0,0,4.06-2.28,15.189,15.189,0,0,0,2.9-3.29,14.383,14.383,0,0,0,1.81-3.88,13.754,13.754,0,0,0,.6-4.05c0-.29,0-0.51-0.01-0.65a10.9,10.9,0,0,0,2.55-2.61h0Zm0,0" transform="translate(-1104.59 -6043.5)"/>
</svg>
